# created with CityEngine 2019.0.5403 0409R (based on Esri Procedural Runtime 2.0.5403, build date: Tue 04/09/2019 10:26 AM)
# creation date: Mon Mar 14 20:01:10 2022

mtllib 20220314_Building_interact_SGP.mtl

# mesh 'mesh_CityEngineMaterial_60' from geometry 'mesh_CityEngineMaterial_60'
v -16.330 0.000 21.830
v -15.285 0.000 21.826
v -15.321 0.000 21.426
v -16.296 0.000 21.430
v -14.256 0.000 21.641
v -14.344 0.000 21.251
v 17.398 0.000 13.046
v 17.276 0.000 12.665
v 18.379 0.000 12.686
v 18.208 0.000 12.322
v 19.282 0.000 12.160
v 19.051 0.000 11.832
v 20.080 0.000 11.486
v 19.795 0.000 11.203
v 20.749 0.000 10.683
v 20.420 0.000 10.454
v 21.269 0.000 9.776
v 20.904 0.000 9.608
v 21.623 0.000 8.793
v 21.235 0.000 8.690
v 21.801 0.000 7.763
v 21.401 0.000 7.730
v 21.798 0.000 6.718
v 21.398 0.000 6.755
v 21.613 0.000 5.690
v 21.225 0.000 5.795
v 21.252 0.000 4.709
v 20.889 0.000 4.880
v 20.727 0.000 3.806
v 20.398 0.000 4.037
v 20.052 0.000 3.007
v 19.758 0.000 3.279
v -3.217 0.000 -20.108
v -3.487 0.000 -19.812
v -4.021 0.000 -20.778
v -4.250 0.000 -20.448
v -4.928 0.000 -21.298
v -5.096 0.000 -20.933
v -5.911 0.000 -21.652
v -6.014 0.000 -21.264
v -6.940 0.000 -21.830
v -6.974 0.000 -21.430
v -7.985 0.000 -21.826
v -7.949 0.000 -21.426
v -9.014 0.000 -21.641
v -8.909 0.000 -21.254
v -9.995 0.000 -21.281
v -9.824 0.000 -20.917
v -10.898 0.000 -20.755
v -10.667 0.000 -20.427
v -11.696 0.000 -20.081
v -11.411 0.000 -19.798
v -12.365 0.000 -19.278
v -12.036 0.000 -19.049
v -12.885 0.000 -18.371
v -12.520 0.000 -18.203
v -13.239 0.000 -17.388
v -12.857 0.000 -17.269
v -21.623 0.000 14.322
v -21.231 0.000 14.407
v -21.801 0.000 15.353
v -21.401 0.000 15.387
v -21.798 0.000 16.398
v -21.398 0.000 16.362
v -21.613 0.000 17.427
v -21.225 0.000 17.322
v -21.252 0.000 18.408
v -20.889 0.000 18.237
v -20.726 0.000 19.311
v -20.398 0.000 19.079
v -20.052 0.000 20.109
v -19.769 0.000 19.824
v -19.249 0.000 20.778
v -19.020 0.000 20.448
v -18.343 0.000 21.298
v -18.174 0.000 20.933
v -17.360 0.000 21.652
v -17.257 0.000 21.263
v -16.295 0.000 21.420
v -17.254 0.000 21.254
v -15.322 0.000 21.416
v -14.346 0.000 21.241
v 17.273 0.000 12.655
v 18.204 0.000 12.313
v 19.045 0.000 11.824
v 19.788 0.000 11.196
v 20.412 0.000 10.448
v 20.895 0.000 9.603
v 21.225 0.000 8.688
v 21.391 0.000 7.729
v 21.388 0.000 6.756
v 21.215 0.000 5.798
v 20.880 0.000 4.884
v 20.390 0.000 4.043
v 19.750 0.000 3.286
v -3.494 0.000 -19.805
v -4.256 0.000 -20.440
v -5.100 0.000 -20.924
v -6.016 0.000 -21.254
v -6.975 0.000 -21.420
v -7.948 0.000 -21.416
v -8.906 0.000 -21.244
v -9.820 0.000 -20.908
v -10.661 0.000 -20.419
v -11.404 0.000 -19.791
v -12.027 0.000 -19.043
v -12.511 0.000 -18.199
v -12.847 0.000 -17.266
v -21.222 0.000 14.409
v -21.391 0.000 15.388
v -21.388 0.000 16.361
v -21.215 0.000 17.319
v -20.880 0.000 18.232
v -20.390 0.000 19.073
v -19.762 0.000 19.817
v -19.014 0.000 20.440
v -18.170 0.000 20.924
v -16.295 0.400 21.420
v -15.322 0.400 21.416
v -14.346 0.400 21.241
v 17.273 0.400 12.655
v 18.204 0.400 12.313
v 19.045 0.400 11.824
v 19.788 0.400 11.196
v 20.412 0.400 10.448
v 20.895 0.400 9.603
v 21.225 0.400 8.688
v 21.391 0.400 7.729
v 21.388 0.400 6.756
v 21.215 0.400 5.798
v 20.880 0.400 4.884
v 20.390 0.400 4.043
v 19.750 0.400 3.286
v -3.494 0.400 -19.805
v -4.256 0.400 -20.440
v -5.100 0.400 -20.924
v -6.016 0.400 -21.254
v -6.975 0.400 -21.420
v -7.948 0.400 -21.416
v -8.906 0.400 -21.244
v -9.820 0.400 -20.908
v -10.661 0.400 -20.419
v -11.404 0.400 -19.791
v -12.027 0.400 -19.043
v -12.511 0.400 -18.199
v -12.847 0.400 -17.266
v -21.222 0.400 14.409
v -21.391 0.400 15.388
v -21.388 0.400 16.361
v -21.215 0.400 17.319
v -20.880 0.400 18.232
v -20.390 0.400 19.073
v -19.762 0.400 19.817
v -19.014 0.400 20.440
v -18.170 0.400 20.924
v -17.254 0.400 21.254
# 156 vertices

vn 0.000 1.000 0.000
vn 0.000 -1.000 0.000
vn 0.003 0.000 1.000
vn 0.177 0.000 0.984
vn 0.262 0.000 0.965
vn 0.345 0.000 0.939
vn 0.503 0.000 0.864
vn 0.645 0.000 0.764
vn 0.768 0.000 0.640
vn 0.868 0.000 0.497
vn 0.941 0.000 0.339
vn 0.985 0.000 0.170
vn 1.000 0.000 -0.003
vn 0.984 0.000 -0.177
vn 0.939 0.000 -0.345
vn 0.864 0.000 -0.503
vn 0.764 0.000 -0.645
vn 0.705 0.000 -0.709
vn 0.640 0.000 -0.768
vn 0.497 0.000 -0.868
vn 0.339 0.000 -0.941
vn 0.170 0.000 -0.985
vn -0.003 0.000 -1.000
vn -0.177 0.000 -0.984
vn -0.345 0.000 -0.939
vn -0.503 0.000 -0.864
vn -0.645 0.000 -0.764
vn -0.768 0.000 -0.640
vn -0.868 0.000 -0.497
vn -0.941 0.000 -0.339
vn -0.967 0.000 -0.256
vn -0.985 0.000 -0.170
vn -1.000 0.000 0.003
vn -0.984 0.000 0.177
vn -0.939 0.000 0.345
vn -0.864 0.000 0.503
vn -0.764 0.000 0.645
vn -0.640 0.000 0.768
vn -0.497 0.000 0.868
vn -0.339 0.000 0.941
vn -0.170 0.000 0.985
# 41 vertex normals

g CityEngineMaterial
s off
usemtl CityEngineMaterial
f 1//1 2//1 3//1 4//1
f 2//1 5//1 6//1 3//1
f 5//1 7//1 8//1 6//1
f 7//1 9//1 10//1 8//1
f 9//1 11//1 12//1 10//1
f 11//1 13//1 14//1 12//1
f 13//1 15//1 16//1 14//1
f 15//1 17//1 18//1 16//1
f 17//1 19//1 20//1 18//1
f 19//1 21//1 22//1 20//1
f 21//1 23//1 24//1 22//1
f 23//1 25//1 26//1 24//1
f 25//1 27//1 28//1 26//1
f 27//1 29//1 30//1 28//1
f 29//1 31//1 32//1 30//1
f 31//1 33//1 34//1 32//1
f 33//1 35//1 36//1 34//1
f 35//1 37//1 38//1 36//1
f 37//1 39//1 40//1 38//1
f 39//1 41//1 42//1 40//1
f 41//1 43//1 44//1 42//1
f 43//1 45//1 46//1 44//1
f 45//1 47//1 48//1 46//1
f 47//1 49//1 50//1 48//1
f 49//1 51//1 52//1 50//1
f 51//1 53//1 54//1 52//1
f 53//1 55//1 56//1 54//1
f 55//1 57//1 58//1 56//1
f 57//1 59//1 60//1 58//1
f 59//1 61//1 62//1 60//1
f 61//1 63//1 64//1 62//1
f 63//1 65//1 66//1 64//1
f 65//1 67//1 68//1 66//1
f 67//1 69//1 70//1 68//1
f 69//1 71//1 72//1 70//1
f 71//1 73//1 74//1 72//1
f 73//1 75//1 76//1 74//1
f 75//1 77//1 78//1 76//1
f 77//1 1//1 4//1 78//1
f 81//2 79//2 80//2 117//2 116//2 115//2 114//2 113//2 112//2 111//2 110//2 109//2 108//2 107//2 106//2 105//2 104//2 103//2 102//2 101//2 100//2 99//2 98//2 97//2 96//2 95//2 94//2 93//2 92//2 91//2 90//2 89//2 88//2 87//2 86//2 85//2 84//2 83//2 82//2
f 118//1 119//1 120//1 121//1 122//1 123//1 124//1 125//1 126//1 127//1 128//1 129//1 130//1 131//1 132//1 133//1 134//1 135//1 136//1 137//1 138//1 139//1 140//1 141//1 142//1 143//1 144//1 145//1 146//1 147//1 148//1 149//1 150//1 151//1 152//1 153//1 154//1 155//1 156//1
f 79//3 81//3 119//3 118//3
f 81//4 82//4 120//4 119//4
f 82//5 83//5 121//5 120//5
f 83//6 84//6 122//6 121//6
f 84//7 85//7 123//7 122//7
f 85//8 86//8 124//8 123//8
f 86//9 87//9 125//9 124//9
f 87//10 88//10 126//10 125//10
f 88//11 89//11 127//11 126//11
f 89//12 90//12 128//12 127//12
f 90//13 91//13 129//13 128//13
f 91//14 92//14 130//14 129//14
f 92//15 93//15 131//15 130//15
f 93//16 94//16 132//16 131//16
f 94//17 95//17 133//17 132//17
f 95//18 96//18 134//18 133//18
f 96//19 97//19 135//19 134//19
f 97//20 98//20 136//20 135//20
f 98//21 99//21 137//21 136//21
f 99//22 100//22 138//22 137//22
f 100//23 101//23 139//23 138//23
f 101//24 102//24 140//24 139//24
f 102//25 103//25 141//25 140//25
f 103//26 104//26 142//26 141//26
f 104//27 105//27 143//27 142//27
f 105//28 106//28 144//28 143//28
f 106//29 107//29 145//29 144//29
f 107//30 108//30 146//30 145//30
f 108//31 109//31 147//31 146//31
f 109//32 110//32 148//32 147//32
f 110//33 111//33 149//33 148//33
f 111//34 112//34 150//34 149//34
f 112//35 113//35 151//35 150//35
f 113//36 114//36 152//36 151//36
f 114//37 115//37 153//37 152//37
f 115//38 116//38 154//38 153//38
f 116//39 117//39 155//39 154//39
f 117//40 80//40 156//40 155//40
f 80//41 79//41 118//41 156//41
# 80 faces

