# created with CityEngine 2019.0.5403 0409R (based on Esri Procedural Runtime 2.0.5403, build date: Tue 04/09/2019 10:26 AM)
# creation date: Mon Mar 14 20:01:06 2022

mtllib 20220314_Building_interact_SGP.mtl

# mesh 'mesh_CityEngineMaterial_13' from geometry 'mesh_CityEngineMaterial_13'
v 6.528 0.000 0.280
v -14.377 0.000 -31.011
v -14.487 0.000 -30.457
v 6.418 0.000 0.835
v -59.297 0.000 -1.001
v -58.743 0.000 -0.891
v -51.748 0.000 10.299
v -51.638 0.000 9.744
v -18.128 0.000 -12.162
v -18.017 0.000 -12.717
v 3.768 0.000 20.612
v 3.878 0.000 20.057
v 15.068 0.000 13.062
v 14.513 0.000 12.952
v 14.078 0.000 11.580
v 13.523 0.000 11.470
v 28.554 0.000 1.909
v 28.665 0.000 1.354
v 47.997 0.000 31.011
v 48.108 0.000 30.457
v 59.297 0.000 23.462
v 58.743 0.000 23.352
v 32.305 0.000 -16.941
v 32.195 0.000 -16.386
v 6.415 0.000 0.849
v 32.192 0.000 -16.372
v -14.490 0.000 -30.443
v -58.729 0.000 -0.888
v -51.635 0.000 9.731
v -18.015 0.000 -12.730
v 3.881 0.000 20.043
v 14.499 0.000 12.949
v 13.509 0.000 11.467
v 28.667 0.000 1.340
v 48.110 0.000 30.443
v 58.729 0.000 23.349
v 6.415 0.400 0.849
v -14.490 0.400 -30.443
v -58.729 0.400 -0.888
v -51.635 0.400 9.731
v -18.015 0.400 -12.730
v 3.881 0.400 20.043
v 14.499 0.400 12.949
v 13.509 0.400 11.467
v 28.667 0.400 1.340
v 48.110 0.400 30.443
v 58.729 0.400 23.349
v 32.192 0.400 -16.372
# 48 vertices

vn 0.000 1.000 0.000
vn 0.000 -1.000 0.000
vn 0.832 0.000 -0.556
vn -0.556 0.000 -0.832
vn -0.832 0.000 0.556
vn 0.556 0.000 0.832
# 6 vertex normals

g CityEngineMaterial
s off
usemtl CityEngineMaterial
f 1//1 2//1 3//1 4//1
f 2//1 5//1 6//1 3//1
f 5//1 7//1 8//1 6//1
f 7//1 9//1 10//1 8//1
f 9//1 11//1 12//1 10//1
f 11//1 13//1 14//1 12//1
f 13//1 15//1 16//1 14//1
f 15//1 17//1 18//1 16//1
f 17//1 19//1 20//1 18//1
f 19//1 21//1 22//1 20//1
f 21//1 23//1 24//1 22//1
f 23//1 1//1 4//1 24//1
f 27//2 25//2 26//2 36//2 35//2 34//2 33//2 32//2 31//2 30//2 29//2 28//2
f 37//1 38//1 39//1 40//1 41//1 42//1 43//1 44//1 45//1 46//1 47//1 48//1
f 25//3 27//3 38//3 37//3
f 27//4 28//4 39//4 38//4
f 28//5 29//5 40//5 39//5
f 29//6 30//6 41//6 40//6
f 30//5 31//5 42//5 41//5
f 31//6 32//6 43//6 42//6
f 32//3 33//3 44//3 43//3
f 33//6 34//6 45//6 44//6
f 34//5 35//5 46//5 45//5
f 35//6 36//6 47//6 46//6
f 36//3 26//3 48//3 47//3
f 26//4 25//4 37//4 48//4
# 26 faces

