# created with CityEngine 2019.0.5403 0409R (based on Esri Procedural Runtime 2.0.5403, build date: Tue 04/09/2019 10:26 AM)
# creation date: Mon Mar 14 20:01:09 2022

mtllib 20220314_Building_interact_SGP.mtl

# mesh 'mesh_CityEngineMaterial_52' from geometry 'mesh_CityEngineMaterial_52'
v -12.618 0.000 -29.240
v -19.783 0.000 -24.504
v -19.562 0.000 -24.171
v -12.397 0.000 -28.906
v -32.366 0.000 -16.188
v -31.811 0.000 -16.075
v 2.206 0.000 36.121
v 2.319 0.000 35.567
v 24.282 0.000 21.531
v 24.061 0.000 21.197
v 32.366 0.000 16.188
v 31.811 0.000 16.075
v 30.008 0.000 12.621
v 29.674 0.000 12.841
v -2.206 0.000 -36.121
v -2.319 0.000 -35.567
v -12.392 0.000 -28.898
v -2.322 0.000 -35.553
v -19.557 0.000 -24.162
v -31.797 0.000 -16.072
v 2.322 0.000 35.553
v 24.056 0.000 21.189
v 31.797 0.000 16.072
v 29.666 0.000 12.847
v -12.392 0.400 -28.898
v -19.557 0.400 -24.162
v -31.797 0.400 -16.072
v 2.322 0.400 35.553
v 24.056 0.400 21.189
v 31.797 0.400 16.072
v 29.666 0.400 12.847
v -2.322 0.400 -35.553
# 32 vertices

vn 0.000 1.000 0.000
vn 0.000 -1.000 0.000
vn -0.551 0.000 -0.834
vn -0.834 0.000 0.551
vn 0.551 0.000 0.834
vn 0.834 0.000 -0.551
# 6 vertex normals

g CityEngineMaterial
s off
usemtl CityEngineMaterial
f 1//1 2//1 3//1 4//1
f 2//1 5//1 6//1 3//1
f 5//1 7//1 8//1 6//1
f 7//1 9//1 10//1 8//1
f 9//1 11//1 12//1 10//1
f 11//1 13//1 14//1 12//1
f 13//1 15//1 16//1 14//1
f 15//1 1//1 4//1 16//1
f 19//2 17//2 18//2 24//2 23//2 22//2 21//2 20//2
f 25//1 26//1 27//1 28//1 29//1 30//1 31//1 32//1
f 17//3 19//3 26//3 25//3
f 19//3 20//3 27//3 26//3
f 20//4 21//4 28//4 27//4
f 21//5 22//5 29//5 28//5
f 22//5 23//5 30//5 29//5
f 23//6 24//6 31//6 30//6
f 24//6 18//6 32//6 31//6
f 18//3 17//3 25//3 32//3
# 18 faces

