# created with CityEngine 2019.0.5403 0409R (based on Esri Procedural Runtime 2.0.5403, build date: Tue 04/09/2019 10:26 AM)
# creation date: Mon Mar 14 20:01:06 2022

mtllib 20220314_Building_interact_SGP.mtl

# mesh 'mesh_CityEngineMaterial_3' from geometry 'mesh_CityEngineMaterial_3'
v -55.675 0.000 12.545
v -65.236 0.000 24.209
v -64.924 0.000 24.458
v -56.323 0.000 13.966
v -66.946 0.000 26.409
v -66.625 0.000 26.649
v -68.404 0.000 28.428
v -68.076 0.000 28.656
v -69.794 0.000 30.498
v -69.458 0.000 30.715
v -71.114 0.000 32.618
v -70.771 0.000 32.823
v -72.363 0.000 34.786
v -72.013 0.000 34.980
v -73.541 0.000 37.002
v -73.174 0.000 37.165
v -74.028 0.000 38.350
v -73.642 0.000 38.458
v -74.322 0.000 39.790
v -73.925 0.000 39.843
v -74.420 0.000 41.304
v -74.020 0.000 41.305
v -74.321 0.000 42.873
v -73.923 0.000 42.823
v -74.025 0.000 44.474
v -73.636 0.000 44.379
v -73.537 0.000 46.087
v -73.160 0.000 45.951
v -72.863 0.000 47.691
v -72.501 0.000 47.518
v -72.011 0.000 49.265
v -71.668 0.000 49.058
v -70.994 0.000 50.787
v -70.671 0.000 50.550
v -69.824 0.000 52.237
v -69.524 0.000 51.973
v -68.517 0.000 53.597
v -68.241 0.000 53.308
v -67.091 0.000 54.848
v -66.834 0.000 54.542
v -45.277 0.000 72.388
v -45.044 0.000 72.063
v -43.405 0.000 73.585
v -43.207 0.000 73.237
v -41.441 0.000 74.567
v -41.282 0.000 74.200
v -39.421 0.000 75.315
v -39.304 0.000 74.932
v -37.384 0.000 75.817
v -37.312 0.000 75.423
v -35.366 0.000 76.062
v -35.344 0.000 75.661
v -33.405 0.000 76.046
v -33.436 0.000 75.646
v -31.537 0.000 75.769
v -31.625 0.000 75.378
v -29.796 0.000 75.237
v -29.944 0.000 74.864
v -28.216 0.000 74.459
v -28.423 0.000 74.115
v -26.824 0.000 73.451
v -27.087 0.000 73.147
v -25.646 0.000 72.229
v -25.946 0.000 71.964
v 48.907 0.000 -20.406
v 48.585 0.000 -20.644
v 49.195 0.000 -20.834
v 48.843 0.000 -21.029
v 49.408 0.000 -21.310
v 49.029 0.000 -21.443
v 49.543 0.000 -21.825
v 49.149 0.000 -21.897
v 49.599 0.000 -22.373
v 49.198 0.000 -22.384
v 49.574 0.000 -22.942
v 49.176 0.000 -22.897
v 49.468 0.000 -23.523
v 49.079 0.000 -23.427
v 49.353 0.000 -23.888
v 48.901 0.000 -23.991
v 50.007 0.000 -24.586
v 49.968 0.000 -25.130
v 53.604 0.000 -21.691
v 53.543 0.000 -22.253
v 55.175 0.000 -23.643
v 55.114 0.000 -24.205
v 55.341 0.000 -23.509
v 55.280 0.000 -24.072
v 72.191 0.000 -44.447
v 71.870 0.000 -44.685
v 72.779 0.000 -45.309
v 72.430 0.000 -45.508
v 73.077 0.000 -45.942
v 72.729 0.000 -46.142
v 73.434 0.000 -46.463
v 73.087 0.000 -46.664
v 73.907 0.000 -47.446
v 73.534 0.000 -47.592
v 74.233 0.000 -48.501
v 73.842 0.000 -48.591
v 74.405 0.000 -49.610
v 74.005 0.000 -49.644
v 74.420 0.000 -50.754
v 74.020 0.000 -50.732
v 74.279 0.000 -51.913
v 73.885 0.000 -51.839
v 73.984 0.000 -53.068
v 73.603 0.000 -52.945
v 73.539 0.000 -54.199
v 73.176 0.000 -54.030
v 72.953 0.000 -55.286
v 72.612 0.000 -55.076
v 72.235 0.000 -56.311
v 71.921 0.000 -56.063
v 71.398 0.000 -57.256
v 71.113 0.000 -56.974
v 70.456 0.000 -58.106
v 70.196 0.000 -57.801
v 57.417 0.000 -68.579
v 57.173 0.000 -68.262
v 56.602 0.000 -69.176
v 56.371 0.000 -68.850
v 55.770 0.000 -69.748
v 55.549 0.000 -69.414
v 54.922 0.000 -70.293
v 54.711 0.000 -69.953
v 54.059 0.000 -70.811
v 53.858 0.000 -70.465
v 53.182 0.000 -71.302
v 52.992 0.000 -70.950
v 52.292 0.000 -71.765
v 52.113 0.000 -71.407
v 51.391 0.000 -72.199
v 51.223 0.000 -71.836
v 50.478 0.000 -72.604
v 50.322 0.000 -72.236
v 49.556 0.000 -72.980
v 49.411 0.000 -72.607
v 48.627 0.000 -73.325
v 48.493 0.000 -72.948
v 47.690 0.000 -73.639
v 47.584 0.000 -73.253
v 36.773 0.000 -75.929
v 36.709 0.000 -75.534
v 35.919 0.000 -76.030
v 35.888 0.000 -75.631
v 35.067 0.000 -76.062
v 35.069 0.000 -75.661
v 34.223 0.000 -76.024
v 34.258 0.000 -75.625
v 33.394 0.000 -75.917
v 33.462 0.000 -75.522
v 32.584 0.000 -75.741
v 32.685 0.000 -75.354
v 31.799 0.000 -75.499
v 31.934 0.000 -75.122
v 31.046 0.000 -75.191
v 31.214 0.000 -74.827
v 30.328 0.000 -74.819
v 30.528 0.000 -74.472
v 29.652 0.000 -74.387
v 29.882 0.000 -74.060
v 29.021 0.000 -73.897
v 29.281 0.000 -73.592
v 28.440 0.000 -73.352
v 28.727 0.000 -73.073
v 27.914 0.000 -72.757
v 28.219 0.000 -72.499
v 26.604 0.000 -71.130
v 26.800 0.000 -70.736
v 22.065 0.000 -70.980
v 22.131 0.000 -70.582
v 14.773 0.000 -68.765
v 14.940 0.000 -68.397
v 8.303 0.000 -64.738
v 8.559 0.000 -64.427
v 3.095 0.000 -59.174
v 3.423 0.000 -58.940
v -0.495 0.000 -52.452
v -0.117 0.000 -52.310
v -2.222 0.000 -45.030
v -1.821 0.000 -44.991
v -1.970 0.000 -37.413
v -1.572 0.000 -37.479
v 0.244 0.000 -30.122
v 0.612 0.000 -30.288
v 4.271 0.000 -23.651
v 4.583 0.000 -23.907
v 5.210 0.000 -22.773
v 5.680 0.000 -22.880
v 5.001 0.000 -22.233
v 5.365 0.000 -22.064
v 4.539 0.000 -21.380
v 4.879 0.000 -21.168
v 3.967 0.000 -20.576
v 4.280 0.000 -20.325
v 3.304 0.000 -19.846
v 3.584 0.000 -19.559
v 2.570 0.000 -19.212
v 2.812 0.000 -18.893
v 1.787 0.000 -18.694
v 1.985 0.000 -18.345
v 0.980 0.000 -18.307
v 1.125 0.000 -17.933
v 0.172 0.000 -18.064
v 0.254 0.000 -17.671
v -0.611 0.000 -17.971
v -0.605 0.000 -17.569
v -2.216 0.000 -18.112
v -2.274 0.000 -17.715
v -16.280 0.000 -21.000
v -16.349 0.000 -20.606
v -18.449 0.000 -21.319
v -18.487 0.000 -20.920
v -19.752 0.000 -21.375
v -19.749 0.000 -20.974
v -21.064 0.000 -21.295
v -21.019 0.000 -20.897
v -22.368 0.000 -21.079
v -22.283 0.000 -20.688
v -23.653 0.000 -20.731
v -23.528 0.000 -20.350
v -24.903 0.000 -20.252
v -24.742 0.000 -19.886
v -26.107 0.000 -19.650
v -25.911 0.000 -19.301
v -27.252 0.000 -18.929
v -27.022 0.000 -18.601
v -28.325 0.000 -18.097
v -28.064 0.000 -17.793
v -29.315 0.000 -17.164
v -29.026 0.000 -16.886
v -30.212 0.000 -16.139
v -29.898 0.000 -15.890
v -31.006 0.000 -15.032
v -30.670 0.000 -14.815
v -34.696 0.000 -8.648
v -34.468 0.000 -8.244
v -37.081 0.000 -8.684
v -37.009 0.000 -8.283
v -43.031 0.000 -6.375
v -42.823 0.000 -6.027
v -48.344 0.000 -1.823
v -48.042 0.000 -1.555
v -52.660 0.000 4.664
v -52.301 0.000 4.848
v -55.700 0.000 12.691
v -56.786 0.000 16.689
v -56.339 0.000 14.001
v -56.814 0.000 16.789
v -64.916 0.000 24.464
v -66.617 0.000 26.655
v -68.068 0.000 28.662
v -69.450 0.000 30.720
v -70.762 0.000 32.828
v -72.004 0.000 34.985
v -73.165 0.000 37.169
v -73.632 0.000 38.461
v -73.915 0.000 39.845
v -74.010 0.000 41.305
v -73.913 0.000 42.822
v -73.626 0.000 44.377
v -73.151 0.000 45.948
v -72.492 0.000 47.514
v -71.660 0.000 49.053
v -70.663 0.000 50.544
v -69.516 0.000 51.966
v -68.234 0.000 53.300
v -66.827 0.000 54.534
v -45.038 0.000 72.055
v -43.202 0.000 73.228
v -41.278 0.000 74.190
v -39.301 0.000 74.923
v -37.310 0.000 75.413
v -35.343 0.000 75.651
v -33.437 0.000 75.636
v -31.628 0.000 75.368
v -29.948 0.000 74.855
v -28.428 0.000 74.107
v -27.094 0.000 73.140
v -25.954 0.000 71.958
v 48.577 0.000 -20.650
v 48.835 0.000 -21.034
v 49.020 0.000 -21.446
v 49.139 0.000 -21.899
v 49.188 0.000 -22.384
v 49.166 0.000 -22.896
v 49.070 0.000 -23.424
v 48.890 0.000 -23.993
v 49.967 0.000 -25.144
v 53.541 0.000 -22.267
v 55.112 0.000 -24.219
v 55.279 0.000 -24.086
v 71.862 0.000 -44.691
v 72.421 0.000 -45.513
v 72.720 0.000 -46.147
v 73.078 0.000 -46.669
v 73.525 0.000 -47.596
v 73.832 0.000 -48.593
v 73.995 0.000 -49.644
v 74.010 0.000 -50.732
v 73.876 0.000 -51.837
v 73.593 0.000 -52.942
v 73.167 0.000 -54.026
v 72.604 0.000 -55.070
v 71.913 0.000 -56.057
v 71.106 0.000 -56.967
v 70.190 0.000 -57.793
v 57.167 0.000 -68.254
v 56.365 0.000 -68.842
v 55.543 0.000 -69.406
v 54.706 0.000 -69.945
v 53.853 0.000 -70.457
v 52.987 0.000 -70.941
v 52.109 0.000 -71.399
v 51.218 0.000 -71.827
v 50.318 0.000 -72.227
v 49.408 0.000 -72.598
v 48.490 0.000 -72.938
v 47.582 0.000 -73.243
v 36.707 0.000 -75.524
v 35.887 0.000 -75.621
v 35.069 0.000 -75.651
v 34.259 0.000 -75.615
v 33.463 0.000 -75.512
v 32.688 0.000 -75.344
v 31.938 0.000 -75.112
v 31.218 0.000 -74.818
v 30.533 0.000 -74.464
v 29.888 0.000 -74.052
v 29.287 0.000 -73.585
v 28.735 0.000 -73.066
v 28.227 0.000 -72.493
v 26.805 0.000 -70.726
v 22.132 0.000 -70.572
v 14.944 0.000 -68.388
v 8.565 0.000 -64.419
v 3.432 0.000 -58.934
v -0.108 0.000 -52.307
v -1.811 0.000 -44.990
v -1.562 0.000 -37.481
v 0.621 0.000 -30.292
v 4.590 0.000 -23.914
v 5.692 0.000 -22.883
v 5.374 0.000 -22.060
v 4.887 0.000 -21.163
v 4.287 0.000 -20.319
v 3.591 0.000 -19.552
v 2.818 0.000 -18.885
v 1.990 0.000 -18.337
v 1.128 0.000 -17.924
v 0.256 0.000 -17.661
v -0.605 0.000 -17.559
v -2.275 0.000 -17.705
v -16.351 0.000 -20.596
v -18.488 0.000 -20.910
v -19.749 0.000 -20.964
v -21.018 0.000 -20.887
v -22.281 0.000 -20.678
v -23.525 0.000 -20.340
v -24.738 0.000 -19.877
v -25.906 0.000 -19.292
v -27.016 0.000 -18.593
v -28.058 0.000 -17.785
v -29.019 0.000 -16.879
v -29.890 0.000 -15.884
v -30.661 0.000 -14.809
v -34.462 0.000 -8.234
v -37.008 0.000 -8.273
v -42.818 0.000 -6.018
v -48.035 0.000 -1.549
v -52.293 0.000 4.852
v -56.339 0.400 14.001
v -64.916 0.400 24.464
v -66.617 0.400 26.655
v -68.068 0.400 28.662
v -69.450 0.400 30.720
v -70.762 0.400 32.828
v -72.004 0.400 34.985
v -73.165 0.400 37.169
v -73.632 0.400 38.461
v -73.915 0.400 39.845
v -74.010 0.400 41.305
v -73.913 0.400 42.822
v -73.626 0.400 44.377
v -73.151 0.400 45.948
v -72.492 0.400 47.514
v -71.660 0.400 49.053
v -70.663 0.400 50.544
v -69.516 0.400 51.966
v -68.234 0.400 53.300
v -66.827 0.400 54.534
v -45.038 0.400 72.055
v -43.202 0.400 73.228
v -41.278 0.400 74.190
v -39.301 0.400 74.923
v -37.310 0.400 75.413
v -35.343 0.400 75.651
v -33.437 0.400 75.636
v -31.628 0.400 75.368
v -29.948 0.400 74.855
v -28.428 0.400 74.107
v -27.094 0.400 73.140
v -25.954 0.400 71.958
v 48.577 0.400 -20.650
v 48.835 0.400 -21.034
v 49.020 0.400 -21.446
v 49.139 0.400 -21.899
v 49.188 0.400 -22.384
v 49.166 0.400 -22.896
v 49.070 0.400 -23.424
v 48.890 0.400 -23.993
v 49.967 0.400 -25.144
v 53.541 0.400 -22.267
v 55.112 0.400 -24.219
v 55.279 0.400 -24.086
v 71.862 0.400 -44.691
v 72.421 0.400 -45.513
v 72.720 0.400 -46.147
v 73.078 0.400 -46.669
v 73.525 0.400 -47.596
v 73.832 0.400 -48.593
v 73.995 0.400 -49.644
v 74.010 0.400 -50.732
v 73.876 0.400 -51.837
v 73.593 0.400 -52.942
v 73.167 0.400 -54.026
v 72.604 0.400 -55.070
v 71.913 0.400 -56.057
v 71.106 0.400 -56.967
v 70.190 0.400 -57.793
v 57.167 0.400 -68.254
v 56.365 0.400 -68.842
v 55.543 0.400 -69.406
v 54.706 0.400 -69.945
v 53.853 0.400 -70.457
v 52.987 0.400 -70.941
v 52.109 0.400 -71.399
v 51.218 0.400 -71.827
v 50.318 0.400 -72.227
v 49.408 0.400 -72.598
v 48.490 0.400 -72.938
v 47.582 0.400 -73.243
v 36.707 0.400 -75.524
v 35.887 0.400 -75.621
v 35.069 0.400 -75.651
v 34.259 0.400 -75.615
v 33.463 0.400 -75.512
v 32.688 0.400 -75.344
v 31.938 0.400 -75.112
v 31.218 0.400 -74.818
v 30.533 0.400 -74.464
v 29.888 0.400 -74.052
v 29.287 0.400 -73.585
v 28.735 0.400 -73.066
v 28.227 0.400 -72.493
v 26.805 0.400 -70.726
v 22.132 0.400 -70.572
v 14.944 0.400 -68.388
v 8.565 0.400 -64.419
v 3.432 0.400 -58.934
v -0.108 0.400 -52.307
v -1.811 0.400 -44.990
v -1.562 0.400 -37.481
v 0.621 0.400 -30.292
v 4.590 0.400 -23.914
v 5.692 0.400 -22.883
v 5.374 0.400 -22.060
v 4.887 0.400 -21.163
v 4.287 0.400 -20.319
v 3.591 0.400 -19.552
v 2.818 0.400 -18.885
v 1.990 0.400 -18.337
v 1.128 0.400 -17.924
v 0.256 0.400 -17.661
v -0.605 0.400 -17.559
v -2.275 0.400 -17.705
v -16.351 0.400 -20.596
v -18.488 0.400 -20.910
v -19.749 0.400 -20.964
v -21.018 0.400 -20.887
v -22.281 0.400 -20.678
v -23.525 0.400 -20.340
v -24.738 0.400 -19.877
v -25.906 0.400 -19.292
v -27.016 0.400 -18.593
v -28.058 0.400 -17.785
v -29.019 0.400 -16.879
v -29.890 0.400 -15.884
v -30.661 0.400 -14.809
v -34.462 0.400 -8.234
v -37.008 0.400 -8.273
v -42.818 0.400 -6.018
v -48.035 0.400 -1.549
v -52.293 0.400 4.852
v -56.814 0.400 16.789
# 496 vertices

vn 0.000 1.000 0.000
vn 0.000 -1.000 0.000
vn -0.773 0.000 -0.634
vn -0.790 0.000 -0.613
vn -0.810 0.000 -0.586
vn -0.830 0.000 -0.557
vn -0.849 0.000 -0.529
vn -0.867 0.000 -0.499
vn -0.883 0.000 -0.469
vn -0.940 0.000 -0.340
vn -0.980 0.000 -0.200
vn -0.998 0.000 -0.065
vn -0.998 0.000 0.063
vn -0.983 0.000 0.182
vn -0.957 0.000 0.290
vn -0.922 0.000 0.388
vn -0.880 0.000 0.476
vn -0.831 0.000 0.556
vn -0.778 0.000 0.628
vn -0.721 0.000 0.693
vn -0.659 0.000 0.752
vn -0.627 0.000 0.779
vn -0.539 0.000 0.843
vn -0.447 0.000 0.894
vn -0.348 0.000 0.938
vn -0.239 0.000 0.971
vn -0.120 0.000 0.993
vn 0.008 0.000 1.000
vn 0.146 0.000 0.989
vn 0.292 0.000 0.956
vn 0.441 0.000 0.897
vn 0.587 0.000 0.810
vn 0.720 0.000 0.694
vn 0.779 0.000 0.627
vn 0.830 0.000 0.558
vn 0.913 0.000 0.409
vn 0.967 0.000 0.254
vn 0.995 0.000 0.101
vn 0.999 0.000 -0.044
vn 0.984 0.000 -0.179
vn 0.954 0.000 -0.301
vn 0.730 0.000 0.683
vn 0.826 0.000 0.563
vn 0.905 0.000 0.426
vn 0.825 0.000 0.565
vn 0.901 0.000 0.434
vn 0.956 0.000 0.295
vn 0.988 0.000 0.153
vn 1.000 0.000 0.014
vn 0.993 0.000 -0.121
vn 0.969 0.000 -0.248
vn 0.931 0.000 -0.366
vn 0.880 0.000 -0.475
vn 0.819 0.000 -0.574
vn 0.749 0.000 -0.663
vn 0.670 0.000 -0.743
vn 0.626 0.000 -0.780
vn 0.591 0.000 -0.807
vn 0.566 0.000 -0.824
vn 0.541 0.000 -0.841
vn 0.515 0.000 -0.857
vn 0.489 0.000 -0.873
vn 0.461 0.000 -0.887
vn 0.434 0.000 -0.901
vn 0.406 0.000 -0.914
vn 0.377 0.000 -0.926
vn 0.348 0.000 -0.938
vn 0.318 0.000 -0.948
vn 0.205 0.000 -0.979
vn 0.117 0.000 -0.993
vn 0.037 0.000 -0.999
vn -0.045 0.000 -0.999
vn -0.128 0.000 -0.992
vn -0.212 0.000 -0.977
vn -0.296 0.000 -0.955
vn -0.378 0.000 -0.926
vn -0.460 0.000 -0.888
vn -0.539 0.000 -0.843
vn -0.613 0.000 -0.790
vn -0.684 0.000 -0.729
vn -0.749 0.000 -0.663
vn -0.779 0.000 -0.627
vn -0.033 0.000 -0.999
vn -0.291 0.000 -0.957
vn -0.528 0.000 -0.849
vn -0.730 0.000 -0.683
vn -0.882 0.000 -0.471
vn -0.974 0.000 -0.227
vn -0.999 0.000 0.033
vn -0.957 0.000 0.291
vn -0.849 0.000 0.528
vn -0.683 0.000 0.730
vn -0.933 0.000 -0.361
vn -0.879 0.000 -0.477
vn -0.815 0.000 -0.579
vn -0.740 0.000 -0.672
vn -0.653 0.000 -0.757
vn -0.552 0.000 -0.834
vn -0.432 0.000 -0.902
vn -0.289 0.000 -0.957
vn -0.118 0.000 -0.993
vn 0.087 0.000 -0.996
vn 0.201 0.000 -0.980
vn 0.145 0.000 -0.989
vn 0.043 0.000 -0.999
vn -0.061 0.000 -0.998
vn -0.163 0.000 -0.987
vn -0.262 0.000 -0.965
vn -0.357 0.000 -0.934
vn -0.448 0.000 -0.894
vn -0.533 0.000 -0.846
vn -0.613 0.000 -0.790
vn -0.686 0.000 -0.728
vn -0.753 0.000 -0.658
vn -0.812 0.000 -0.583
vn -0.866 0.000 -0.500
vn 0.015 0.000 -1.000
vn -0.362 0.000 -0.932
vn -0.651 0.000 -0.759
vn -0.833 0.000 -0.554
vn -0.935 0.000 -0.354
vn 0.986 0.000 0.168
# 122 vertex normals

g CityEngineMaterial
s off
usemtl CityEngineMaterial
f 1//1 2//1 3//1 4//1
f 2//1 5//1 6//1 3//1
f 5//1 7//1 8//1 6//1
f 7//1 9//1 10//1 8//1
f 9//1 11//1 12//1 10//1
f 11//1 13//1 14//1 12//1
f 13//1 15//1 16//1 14//1
f 15//1 17//1 18//1 16//1
f 17//1 19//1 20//1 18//1
f 19//1 21//1 22//1 20//1
f 21//1 23//1 24//1 22//1
f 23//1 25//1 26//1 24//1
f 25//1 27//1 28//1 26//1
f 27//1 29//1 30//1 28//1
f 29//1 31//1 32//1 30//1
f 31//1 33//1 34//1 32//1
f 33//1 35//1 36//1 34//1
f 35//1 37//1 38//1 36//1
f 37//1 39//1 40//1 38//1
f 39//1 41//1 42//1 40//1
f 41//1 43//1 44//1 42//1
f 43//1 45//1 46//1 44//1
f 45//1 47//1 48//1 46//1
f 47//1 49//1 50//1 48//1
f 49//1 51//1 52//1 50//1
f 51//1 53//1 54//1 52//1
f 53//1 55//1 56//1 54//1
f 55//1 57//1 58//1 56//1
f 57//1 59//1 60//1 58//1
f 59//1 61//1 62//1 60//1
f 61//1 63//1 64//1 62//1
f 63//1 65//1 66//1 64//1
f 65//1 67//1 68//1 66//1
f 67//1 69//1 70//1 68//1
f 69//1 71//1 72//1 70//1
f 71//1 73//1 74//1 72//1
f 73//1 75//1 76//1 74//1
f 75//1 77//1 78//1 76//1
f 77//1 79//1 80//1 78//1
f 79//1 81//1 82//1 80//1
f 81//1 83//1 84//1 82//1
f 83//1 85//1 86//1 84//1
f 85//1 87//1 88//1 86//1
f 87//1 89//1 90//1 88//1
f 89//1 91//1 92//1 90//1
f 91//1 93//1 94//1 92//1
f 93//1 95//1 96//1 94//1
f 95//1 97//1 98//1 96//1
f 97//1 99//1 100//1 98//1
f 99//1 101//1 102//1 100//1
f 101//1 103//1 104//1 102//1
f 103//1 105//1 106//1 104//1
f 105//1 107//1 108//1 106//1
f 107//1 109//1 110//1 108//1
f 109//1 111//1 112//1 110//1
f 111//1 113//1 114//1 112//1
f 113//1 115//1 116//1 114//1
f 115//1 117//1 118//1 116//1
f 117//1 119//1 120//1 118//1
f 119//1 121//1 122//1 120//1
f 121//1 123//1 124//1 122//1
f 123//1 125//1 126//1 124//1
f 125//1 127//1 128//1 126//1
f 127//1 129//1 130//1 128//1
f 129//1 131//1 132//1 130//1
f 131//1 133//1 134//1 132//1
f 133//1 135//1 136//1 134//1
f 135//1 137//1 138//1 136//1
f 137//1 139//1 140//1 138//1
f 139//1 141//1 142//1 140//1
f 141//1 143//1 144//1 142//1
f 143//1 145//1 146//1 144//1
f 145//1 147//1 148//1 146//1
f 147//1 149//1 150//1 148//1
f 149//1 151//1 152//1 150//1
f 151//1 153//1 154//1 152//1
f 153//1 155//1 156//1 154//1
f 155//1 157//1 158//1 156//1
f 157//1 159//1 160//1 158//1
f 159//1 161//1 162//1 160//1
f 161//1 163//1 164//1 162//1
f 163//1 165//1 166//1 164//1
f 165//1 167//1 168//1 166//1
f 167//1 169//1 170//1 168//1
f 169//1 171//1 172//1 170//1
f 171//1 173//1 174//1 172//1
f 173//1 175//1 176//1 174//1
f 175//1 177//1 178//1 176//1
f 177//1 179//1 180//1 178//1
f 179//1 181//1 182//1 180//1
f 181//1 183//1 184//1 182//1
f 183//1 185//1 186//1 184//1
f 185//1 187//1 188//1 186//1
f 187//1 189//1 190//1 188//1
f 189//1 191//1 192//1 190//1
f 191//1 193//1 194//1 192//1
f 193//1 195//1 196//1 194//1
f 195//1 197//1 198//1 196//1
f 197//1 199//1 200//1 198//1
f 199//1 201//1 202//1 200//1
f 201//1 203//1 204//1 202//1
f 203//1 205//1 206//1 204//1
f 205//1 207//1 208//1 206//1
f 207//1 209//1 210//1 208//1
f 209//1 211//1 212//1 210//1
f 211//1 213//1 214//1 212//1
f 213//1 215//1 216//1 214//1
f 215//1 217//1 218//1 216//1
f 217//1 219//1 220//1 218//1
f 219//1 221//1 222//1 220//1
f 221//1 223//1 224//1 222//1
f 223//1 225//1 226//1 224//1
f 225//1 227//1 228//1 226//1
f 227//1 229//1 230//1 228//1
f 229//1 231//1 232//1 230//1
f 231//1 233//1 234//1 232//1
f 233//1 235//1 236//1 234//1
f 235//1 237//1 238//1 236//1
f 237//1 239//1 240//1 238//1
f 239//1 241//1 242//1 240//1
f 241//1 243//1 244//1 242//1
f 243//1 245//1 246//1 244//1
f 245//1 247//1 248//1 246//1
f 247//1 1//1 4//1 248//1
f 251//2 249//2 250//2 372//2 371//2 370//2 369//2 368//2 367//2 366//2 365//2 364//2 363//2 362//2 361//2 360//2 359//2 358//2 357//2 356//2 355//2 354//2 353//2 352//2 351//2 350//2 349//2 348//2 347//2 346//2 345//2 344//2 343//2 342//2 341//2 340//2 339//2 338//2 337//2 336//2 335//2 334//2 333//2 332//2 331//2 330//2 329//2 328//2 327//2 326//2 325//2 324//2 323//2 322//2 321//2 320//2 319//2 318//2 317//2 316//2 315//2 314//2 313//2 312//2 311//2 310//2 309//2 308//2 307//2 306//2 305//2 304//2 303//2 302//2 301//2 300//2 299//2 298//2 297//2 296//2 295//2 294//2 293//2 292//2 291//2 290//2 289//2 288//2 287//2 286//2 285//2 284//2 283//2 282//2 281//2 280//2 279//2 278//2 277//2 276//2 275//2 274//2 273//2 272//2 271//2 270//2 269//2 268//2 267//2 266//2 265//2 264//2 263//2 262//2 261//2 260//2 259//2 258//2 257//2 256//2 255//2 254//2 253//2 252//2
f 373//1 374//1 375//1 376//1 377//1 378//1 379//1 380//1 381//1 382//1 383//1 384//1 385//1 386//1 387//1 388//1 389//1 390//1 391//1 392//1 393//1 394//1 395//1 396//1 397//1 398//1 399//1 400//1 401//1 402//1 403//1 404//1 405//1 406//1 407//1 408//1 409//1 410//1 411//1 412//1 413//1 414//1 415//1 416//1 417//1 418//1 419//1 420//1 421//1 422//1 423//1 424//1 425//1 426//1 427//1 428//1 429//1 430//1 431//1 432//1 433//1 434//1 435//1 436//1 437//1 438//1 439//1 440//1 441//1 442//1 443//1 444//1 445//1 446//1 447//1 448//1 449//1 450//1 451//1 452//1 453//1 454//1 455//1 456//1 457//1 458//1 459//1 460//1 461//1 462//1 463//1 464//1 465//1 466//1 467//1 468//1 469//1 470//1 471//1 472//1 473//1 474//1 475//1 476//1 477//1 478//1 479//1 480//1 481//1 482//1 483//1 484//1 485//1 486//1 487//1 488//1 489//1 490//1 491//1 492//1 493//1 494//1 495//1 496//1
f 249//3 251//3 374//3 373//3
f 251//4 252//4 375//4 374//4
f 252//5 253//5 376//5 375//5
f 253//6 254//6 377//6 376//6
f 254//7 255//7 378//7 377//7
f 255//8 256//8 379//8 378//8
f 256//9 257//9 380//9 379//9
f 257//10 258//10 381//10 380//10
f 258//11 259//11 382//11 381//11
f 259//12 260//12 383//12 382//12
f 260//13 261//13 384//13 383//13
f 261//14 262//14 385//14 384//14
f 262//15 263//15 386//15 385//15
f 263//16 264//16 387//16 386//16
f 264//17 265//17 388//17 387//17
f 265//18 266//18 389//18 388//18
f 266//19 267//19 390//19 389//19
f 267//20 268//20 391//20 390//20
f 268//21 269//21 392//21 391//21
f 269//22 270//22 393//22 392//22
f 270//23 271//23 394//23 393//23
f 271//24 272//24 395//24 394//24
f 272//25 273//25 396//25 395//25
f 273//26 274//26 397//26 396//26
f 274//27 275//27 398//27 397//27
f 275//28 276//28 399//28 398//28
f 276//29 277//29 400//29 399//29
f 277//30 278//30 401//30 400//30
f 278//31 279//31 402//31 401//31
f 279//32 280//32 403//32 402//32
f 280//33 281//33 404//33 403//33
f 281//34 282//34 405//34 404//34
f 282//35 283//35 406//35 405//35
f 283//36 284//36 407//36 406//36
f 284//37 285//37 408//37 407//37
f 285//38 286//38 409//38 408//38
f 286//39 287//39 410//39 409//39
f 287//40 288//40 411//40 410//40
f 288//41 289//41 412//41 411//41
f 289//42 290//42 413//42 412//42
f 290//22 291//22 414//22 413//22
f 291//34 292//34 415//34 414//34
f 292//22 293//22 416//22 415//22
f 293//34 294//34 417//34 416//34
f 294//43 295//43 418//43 417//43
f 295//44 296//44 419//44 418//44
f 296//45 297//45 420//45 419//45
f 297//46 298//46 421//46 420//46
f 298//47 299//47 422//47 421//47
f 299//48 300//48 423//48 422//48
f 300//49 301//49 424//49 423//49
f 301//50 302//50 425//50 424//50
f 302//51 303//51 426//51 425//51
f 303//52 304//52 427//52 426//52
f 304//53 305//53 428//53 427//53
f 305//54 306//54 429//54 428//54
f 306//55 307//55 430//55 429//55
f 307//56 308//56 431//56 430//56
f 308//57 309//57 432//57 431//57
f 309//58 310//58 433//58 432//58
f 310//59 311//59 434//59 433//59
f 311//60 312//60 435//60 434//60
f 312//61 313//61 436//61 435//61
f 313//62 314//62 437//62 436//62
f 314//63 315//63 438//63 437//63
f 315//64 316//64 439//64 438//64
f 316//65 317//65 440//65 439//65
f 317//66 318//66 441//66 440//66
f 318//67 319//67 442//67 441//67
f 319//68 320//68 443//68 442//68
f 320//69 321//69 444//69 443//69
f 321//70 322//70 445//70 444//70
f 322//71 323//71 446//71 445//71
f 323//72 324//72 447//72 446//72
f 324//73 325//73 448//73 447//73
f 325//74 326//74 449//74 448//74
f 326//75 327//75 450//75 449//75
f 327//76 328//76 451//76 450//76
f 328//77 329//77 452//77 451//77
f 329//78 330//78 453//78 452//78
f 330//79 331//79 454//79 453//79
f 331//80 332//80 455//80 454//80
f 332//81 333//81 456//81 455//81
f 333//82 334//82 457//82 456//82
f 334//83 335//83 458//83 457//83
f 335//84 336//84 459//84 458//84
f 336//85 337//85 460//85 459//85
f 337//86 338//86 461//86 460//86
f 338//87 339//87 462//87 461//87
f 339//88 340//88 463//88 462//88
f 340//89 341//89 464//89 463//89
f 341//90 342//90 465//90 464//90
f 342//91 343//91 466//91 465//91
f 343//92 344//92 467//92 466//92
f 344//93 345//93 468//93 467//93
f 345//94 346//94 469//94 468//94
f 346//95 347//95 470//95 469//95
f 347//96 348//96 471//96 470//96
f 348//97 349//97 472//97 471//97
f 349//98 350//98 473//98 472//98
f 350//99 351//99 474//99 473//99
f 351//100 352//100 475//100 474//100
f 352//101 353//101 476//101 475//101
f 353//102 354//102 477//102 476//102
f 354//103 355//103 478//103 477//103
f 355//104 356//104 479//104 478//104
f 356//105 357//105 480//105 479//105
f 357//106 358//106 481//106 480//106
f 358//107 359//107 482//107 481//107
f 359//108 360//108 483//108 482//108
f 360//109 361//109 484//109 483//109
f 361//110 362//110 485//110 484//110
f 362//111 363//111 486//111 485//111
f 363//112 364//112 487//112 486//112
f 364//113 365//113 488//113 487//113
f 365//114 366//114 489//114 488//114
f 366//115 367//115 490//115 489//115
f 367//116 368//116 491//116 490//116
f 368//117 369//117 492//117 491//117
f 369//118 370//118 493//118 492//118
f 370//119 371//119 494//119 493//119
f 371//120 372//120 495//120 494//120
f 372//121 250//121 496//121 495//121
f 250//122 249//122 373//122 496//122
# 250 faces

