# created with CityEngine 2019.0.5403 0409R (based on Esri Procedural Runtime 2.0.5403, build date: Tue 04/09/2019 10:26 AM)
# creation date: Mon Mar 14 20:01:06 2022

mtllib 20220314_Building_interact_SGP.mtl

# mesh 'mesh_CityEngineMaterial_10' from geometry 'mesh_CityEngineMaterial_10'
v 11.344 0.000 5.741
v 2.860 0.000 -15.311
v 2.545 0.000 -15.024
v 11.116 0.000 6.245
v -10.331 0.000 -22.168
v -10.183 0.000 -21.641
v -18.449 0.000 -8.817
v -18.001 0.000 -8.784
v -5.301 0.000 22.168
v -5.085 0.000 21.653
v 4.502 0.000 18.305
v 4.355 0.000 17.933
v 14.780 0.000 14.254
v 14.633 0.000 13.882
v 18.449 0.000 12.798
v 17.930 0.000 12.574
v 15.122 0.000 4.415
v 14.892 0.000 4.919
v 11.110 0.000 6.257
v 14.886 0.000 4.932
v 2.537 0.000 -15.017
v -10.180 0.000 -21.628
v -17.989 0.000 -8.783
v -5.079 0.000 21.640
v 4.352 0.000 17.923
v 14.629 0.000 13.873
v 17.917 0.000 12.568
v 11.110 0.400 6.257
v 2.537 0.400 -15.017
v -10.180 0.400 -21.628
v -17.989 0.400 -8.783
v -5.079 0.400 21.640
v 4.352 0.400 17.923
v 14.629 0.400 13.873
v 17.917 0.400 12.568
v 14.886 0.400 4.932
# 36 vertices

vn 0.000 1.000 0.000
vn 0.000 -1.000 0.000
vn 0.928 0.000 -0.374
vn 0.461 0.000 -0.887
vn -0.854 0.000 -0.520
vn -0.921 0.000 0.391
vn 0.367 0.000 0.930
vn 0.369 0.000 0.929
vn 0.929 0.000 -0.369
vn -0.331 0.000 -0.944
# 10 vertex normals

g CityEngineMaterial
s off
usemtl CityEngineMaterial
f 1//1 2//1 3//1 4//1
f 2//1 5//1 6//1 3//1
f 5//1 7//1 8//1 6//1
f 7//1 9//1 10//1 8//1
f 9//1 11//1 12//1 10//1
f 11//1 13//1 14//1 12//1
f 13//1 15//1 16//1 14//1
f 15//1 17//1 18//1 16//1
f 17//1 1//1 4//1 18//1
f 21//2 19//2 20//2 27//2 26//2 25//2 24//2 23//2 22//2
f 28//1 29//1 30//1 31//1 32//1 33//1 34//1 35//1 36//1
f 19//3 21//3 29//3 28//3
f 21//4 22//4 30//4 29//4
f 22//5 23//5 31//5 30//5
f 23//6 24//6 32//6 31//6
f 24//7 25//7 33//7 32//7
f 25//7 26//7 34//7 33//7
f 26//8 27//8 35//8 34//8
f 27//9 20//9 36//9 35//9
f 20//10 19//10 28//10 36//10
# 20 faces

