# created with CityEngine 2019.0.5403 0409R (based on Esri Procedural Runtime 2.0.5403, build date: Tue 04/09/2019 10:26 AM)
# creation date: Mon Mar 14 20:01:07 2022

mtllib 20220314_Building_interact_SGP.mtl

# mesh 'mesh_CityEngineMaterial_26' from geometry 'mesh_CityEngineMaterial_26'
v -24.997 0.000 16.300
v 26.603 0.000 13.580
v 26.182 0.000 13.202
v -24.618 0.000 15.880
v 25.028 0.000 -16.300
v 24.649 0.000 -15.884
v -26.603 0.000 -14.170
v -26.182 0.000 -13.787
v -24.609 0.000 15.869
v -26.172 0.000 -13.778
v 26.172 0.000 13.192
v 24.640 0.000 -15.874
v -24.609 0.400 15.869
v 26.172 0.400 13.192
v 24.640 0.400 -15.874
v -26.172 0.400 -13.778
# 16 vertices

vn 0.000 1.000 0.000
vn 0.000 -1.000 0.000
vn 0.053 0.000 0.999
vn 0.999 0.000 -0.053
vn -0.041 0.000 -0.999
vn -0.999 0.000 0.053
# 6 vertex normals

g CityEngineMaterial
s off
usemtl CityEngineMaterial
f 1//1 2//1 3//1 4//1
f 2//1 5//1 6//1 3//1
f 5//1 7//1 8//1 6//1
f 7//1 1//1 4//1 8//1
f 11//2 9//2 10//2 12//2
f 13//1 14//1 15//1 16//1
f 9//3 11//3 14//3 13//3
f 11//4 12//4 15//4 14//4
f 12//5 10//5 16//5 15//5
f 10//6 9//6 13//6 16//6
# 10 faces

