# created with CityEngine 2019.0.5403 0409R (based on Esri Procedural Runtime 2.0.5403, build date: Tue 04/09/2019 10:26 AM)
# creation date: Mon Mar 14 20:01:09 2022

mtllib 20220314_Building_interact_SGP.mtl

# mesh 'mesh_CityEngineMaterial_41' from geometry 'mesh_CityEngineMaterial_41'
v 23.507 0.000 -4.240
v 4.232 0.000 -25.060
v 3.939 0.000 -24.788
v 23.213 0.000 -3.968
v 3.427 0.000 -25.930
v 3.441 0.000 -25.325
v -0.207 0.000 -21.607
v 0.099 0.000 -21.350
v -1.117 0.000 -20.526
v -0.810 0.000 -20.268
v -1.589 0.000 -19.964
v -1.282 0.000 -19.707
v -2.935 0.000 -18.362
v -2.635 0.000 -18.097
v -5.601 0.000 -15.487
v -5.307 0.000 -15.215
v -6.489 0.000 -14.529
v -6.196 0.000 -14.257
v -7.378 0.000 -13.571
v -7.084 0.000 -13.299
v -9.154 0.000 -11.655
v -8.861 0.000 -11.383
v -10.043 0.000 -10.696
v -9.756 0.000 -10.417
v -14.972 0.000 -5.875
v -14.692 0.000 -5.589
v -15.636 0.000 -5.226
v -15.356 0.000 -4.940
v -16.568 0.000 -4.314
v -16.288 0.000 -4.028
v -17.500 0.000 -3.402
v -17.227 0.000 -3.109
v -24.479 0.000 2.786
v -24.213 0.000 3.085
v -25.190 0.000 3.416
v -24.927 0.000 3.717
v -25.198 0.000 3.424
v -24.935 0.000 3.725
v -25.476 0.000 3.670
v -25.472 0.000 3.675
v -24.945 0.000 3.734
v -25.481 0.000 3.673
v -17.176 0.000 15.240
v -16.851 0.000 15.007
v -17.017 0.000 15.462
v -16.692 0.000 15.228
v -9.500 0.000 25.930
v -9.499 0.000 25.921
v -9.459 0.000 25.698
v -9.424 0.000 25.499
v -9.403 0.000 25.379
v -9.495 0.000 25.926
v -9.364 0.000 25.837
v -9.248 0.000 25.757
v -8.436 0.000 25.202
v -8.662 0.000 24.872
v -7.377 0.000 24.479
v -7.603 0.000 24.148
v -4.201 0.000 22.308
v -4.427 0.000 21.977
v -3.142 0.000 21.584
v -3.368 0.000 21.254
v -1.025 0.000 20.137
v -1.251 0.000 19.806
v 0.034 0.000 19.413
v -0.200 0.000 19.089
v 3.352 0.000 16.886
v 3.109 0.000 16.568
v 4.458 0.000 16.044
v 4.215 0.000 15.726
v 8.881 0.000 12.675
v 8.631 0.000 12.363
v 17.387 0.000 5.480
v 17.121 0.000 5.181
v 24.199 0.000 -0.905
v 23.926 0.000 -1.197
v 24.473 0.000 -1.162
v 24.199 0.000 -1.453
v 25.481 0.000 -2.107
v 24.918 0.000 -2.127
v 24.969 0.000 -2.660
v 24.675 0.000 -2.389
v 23.206 0.000 -3.961
v 24.668 0.000 -2.382
v 3.931 0.000 -24.781
v 3.441 0.000 -25.310
v 0.107 0.000 -21.343
v -0.803 0.000 -20.262
v -1.275 0.000 -19.700
v -2.628 0.000 -18.091
v -5.300 0.000 -15.209
v -6.188 0.000 -14.250
v -7.077 0.000 -13.292
v -8.854 0.000 -11.376
v -9.749 0.000 -10.410
v -14.685 0.000 -5.582
v -15.349 0.000 -4.932
v -16.281 0.000 -4.021
v -17.220 0.000 -3.102
v -24.207 0.000 3.092
v -24.920 0.000 3.725
v -24.929 0.000 3.732
v -24.932 0.000 3.735
v -16.843 0.000 15.001
v -16.684 0.000 15.223
v -9.401 0.000 25.365
v -8.667 0.000 24.864
v -7.609 0.000 24.140
v -4.432 0.000 21.969
v -3.374 0.000 21.245
v -1.256 0.000 19.798
v -0.206 0.000 19.080
v 3.103 0.000 16.560
v 4.209 0.000 15.718
v 8.625 0.000 12.355
v 17.115 0.000 5.173
v 23.919 0.000 -1.204
v 24.193 0.000 -1.461
v 24.904 0.000 -2.127
v 23.206 0.400 -3.961
v 3.931 0.400 -24.781
v 3.441 0.400 -25.310
v 0.107 0.400 -21.343
v -0.803 0.400 -20.262
v -1.275 0.400 -19.700
v -2.628 0.400 -18.091
v -5.300 0.400 -15.209
v -6.188 0.400 -14.250
v -7.077 0.400 -13.292
v -8.854 0.400 -11.376
v -9.749 0.400 -10.410
v -14.685 0.400 -5.582
v -15.349 0.400 -4.932
v -16.281 0.400 -4.021
v -17.220 0.400 -3.102
v -24.207 0.400 3.092
v -24.920 0.400 3.725
v -24.929 0.400 3.732
v -24.932 0.400 3.735
v -16.843 0.400 15.001
v -16.684 0.400 15.223
v -9.401 0.400 25.365
v -8.667 0.400 24.864
v -7.609 0.400 24.140
v -4.432 0.400 21.969
v -3.374 0.400 21.245
v -1.256 0.400 19.798
v -0.206 0.400 19.080
v 3.103 0.400 16.560
v 4.209 0.400 15.718
v 8.625 0.400 12.355
v 17.115 0.400 5.173
v 23.919 0.400 -1.204
v 24.193 0.400 -1.461
v 24.904 0.400 -2.127
v 24.668 0.400 -2.382
# 156 vertices

vn 0.000 1.000 0.000
vn 0.000 -1.000 0.000
vn 0.734 0.000 -0.679
vn -0.765 0.000 -0.643
vn -0.733 0.000 -0.680
vn -0.699 0.000 -0.715
vn -0.663 0.000 -0.748
vn -0.652 0.000 -0.758
vn -0.812 0.000 0.583
vn 0.564 0.000 0.826
vn 0.606 0.000 0.796
vn 0.646 0.000 0.764
vn 0.684 0.000 0.730
# 13 vertex normals

g CityEngineMaterial
s off
usemtl CityEngineMaterial
f 1//1 2//1 3//1 4//1
f 2//1 5//1 6//1 3//1
f 5//1 7//1 8//1 6//1
f 7//1 9//1 10//1 8//1
f 9//1 11//1 12//1 10//1
f 11//1 13//1 14//1 12//1
f 13//1 15//1 16//1 14//1
f 15//1 17//1 18//1 16//1
f 17//1 19//1 20//1 18//1
f 19//1 21//1 22//1 20//1
f 21//1 23//1 24//1 22//1
f 23//1 25//1 26//1 24//1
f 25//1 27//1 28//1 26//1
f 27//1 29//1 30//1 28//1
f 29//1 31//1 32//1 30//1
f 31//1 33//1 34//1 32//1
f 33//1 35//1 36//1 34//1
f 35//1 37//1 38//1 36//1
f 37//1 39//1 40//1 41//1 38//1
f 39//1 42//1 40//1
f 42//1 43//1 44//1 41//1 40//1
f 43//1 45//1 46//1 44//1
f 45//1 47//1 48//1 49//1 50//1 51//1 46//1
f 47//1 52//1 48//1
f 52//1 53//1 49//1 48//1
f 53//1 54//1 50//1 49//1
f 54//1 55//1 56//1 51//1 50//1
f 55//1 57//1 58//1 56//1
f 57//1 59//1 60//1 58//1
f 59//1 61//1 62//1 60//1
f 61//1 63//1 64//1 62//1
f 63//1 65//1 66//1 64//1
f 65//1 67//1 68//1 66//1
f 67//1 69//1 70//1 68//1
f 69//1 71//1 72//1 70//1
f 71//1 73//1 74//1 72//1
f 73//1 75//1 76//1 74//1
f 75//1 77//1 78//1 76//1
f 77//1 79//1 80//1 78//1
f 79//1 81//1 82//1 80//1
f 81//1 1//1 4//1 82//1
f 85//2 83//2 84//2 119//2 118//2 117//2 116//2 115//2 114//2 113//2 112//2 111//2 110//2 109//2 108//2 107//2 106//2 105//2 104//2 103//2 102//2 101//2 100//2 99//2 98//2 97//2 96//2 95//2 94//2 93//2 92//2 91//2 90//2 89//2 88//2 87//2 86//2
f 120//1 121//1 122//1 123//1 124//1 125//1 126//1 127//1 128//1 129//1 130//1 131//1 132//1 133//1 134//1 135//1 136//1 137//1 138//1 139//1 140//1 141//1 142//1 143//1 144//1 145//1 146//1 147//1 148//1 149//1 150//1 151//1 152//1 153//1 154//1 155//1 156//1
f 83//3 85//3 121//3 120//3
f 85//3 86//3 122//3 121//3
f 86//4 87//4 123//4 122//4
f 87//4 88//4 124//4 123//4
f 88//4 89//4 125//4 124//4
f 89//4 90//4 126//4 125//4
f 90//5 91//5 127//5 126//5
f 91//5 92//5 128//5 127//5
f 92//5 93//5 129//5 128//5
f 93//5 94//5 130//5 129//5
f 94//5 95//5 131//5 130//5
f 95//6 96//6 132//6 131//6
f 96//6 97//6 133//6 132//6
f 97//6 98//6 134//6 133//6
f 98//6 99//6 135//6 134//6
f 99//7 100//7 136//7 135//7
f 100//7 101//7 137//7 136//7
f 101//8 102//8 138//8 137//8
f 102//7 103//7 139//7 138//7
f 103//9 104//9 140//9 139//9
f 104//9 105//9 141//9 140//9
f 105//9 106//9 142//9 141//9
f 106//10 107//10 143//10 142//10
f 107//10 108//10 144//10 143//10
f 108//10 109//10 145//10 144//10
f 109//10 110//10 146//10 145//10
f 110//10 111//10 147//10 146//10
f 111//10 112//10 148//10 147//10
f 112//11 113//11 149//11 148//11
f 113//11 114//11 150//11 149//11
f 114//11 115//11 151//11 150//11
f 115//12 116//12 152//12 151//12
f 116//13 117//13 153//13 152//13
f 117//13 118//13 154//13 153//13
f 118//13 119//13 155//13 154//13
f 119//3 84//3 156//3 155//3
f 84//3 83//3 120//3 156//3
# 80 faces

