# created with CityEngine 2019.0.5403 0409R (based on Esri Procedural Runtime 2.0.5403, build date: Tue 04/09/2019 10:26 AM)
# creation date: Mon Mar 14 20:01:08 2022

mtllib 20220314_Building_interact_SGP.mtl

# mesh 'mesh_CityEngineMaterial_31' from geometry 'mesh_CityEngineMaterial_31'
v 10.619 0.000 -28.409
v 6.300 0.000 -34.573
v 6.229 0.000 -34.515
v 6.184 0.000 -34.042
v 10.275 0.000 -28.203
v 6.232 0.000 -34.646
v 4.253 0.000 -32.729
v 4.493 0.000 -32.405
v 1.559 0.000 -31.231
v 1.754 0.000 -30.881
v 1.142 0.000 -30.999
v 1.336 0.000 -30.649
v 0.826 0.000 -30.823
v 0.974 0.000 -30.448
v -2.978 0.000 -29.868
v -2.932 0.000 -29.468
v -6.900 0.000 -29.931
v -6.959 0.000 -29.532
v -10.671 0.000 -31.007
v -10.831 0.000 -30.636
v -12.966 0.000 -32.381
v -12.970 0.000 -32.374
v -12.930 0.000 -32.255
v -12.775 0.000 -31.800
v -12.974 0.000 -32.386
v -13.013 0.000 -32.288
v -15.773 0.000 -25.286
v -15.391 0.000 -25.165
v -17.523 0.000 -17.966
v -17.127 0.000 -17.900
v -18.226 0.000 -10.473
v -17.825 0.000 -10.463
v -17.870 0.000 -2.955
v -17.472 0.000 -3.002
v -16.462 0.000 4.438
v -16.074 0.000 4.336
v -16.018 0.000 5.738
v -15.639 0.000 5.608
v -14.028 0.000 11.560
v -13.659 0.000 11.404
v -10.619 0.000 18.270
v -10.275 0.000 18.063
v -6.300 0.000 24.434
v -5.989 0.000 24.181
v -1.159 0.000 29.930
v -0.886 0.000 29.636
v 4.700 0.000 34.646
v 4.633 0.000 34.078
v 7.879 0.000 30.529
v 7.562 0.000 30.284
v 9.296 0.000 28.692
v 8.962 0.000 28.470
v 13.013 0.000 22.148
v 12.651 0.000 21.975
v 15.773 0.000 15.146
v 15.391 0.000 15.026
v 17.523 0.000 7.826
v 17.127 0.000 7.761
v 18.226 0.000 0.333
v 17.825 0.000 0.324
v 17.955 0.000 -5.391
v 17.556 0.000 -5.372
v 17.870 0.000 -7.184
v 17.472 0.000 -7.137
v 16.462 0.000 -14.578
v 16.074 0.000 -14.475
v 14.028 0.000 -21.700
v 13.659 0.000 -21.543
v 10.266 0.000 -28.197
v 13.650 0.000 -21.540
v 6.182 0.000 -34.027
v 4.499 0.000 -32.397
v 1.759 0.000 -30.873
v 1.341 0.000 -30.641
v 0.978 0.000 -30.438
v -2.931 0.000 -29.458
v -6.960 0.000 -29.522
v -10.835 0.000 -30.627
v -12.770 0.000 -31.786
v -15.381 0.000 -25.162
v -17.117 0.000 -17.899
v -17.815 0.000 -10.463
v -17.462 0.000 -3.003
v -16.064 0.000 4.333
v -15.630 0.000 5.605
v -13.650 0.000 11.400
v -10.266 0.000 18.058
v -5.981 0.000 24.175
v -0.879 0.000 29.629
v 4.631 0.000 34.064
v 7.554 0.000 30.278
v 8.954 0.000 28.465
v 12.642 0.000 21.971
v 15.381 0.000 15.023
v 17.117 0.000 7.759
v 17.815 0.000 0.324
v 17.546 0.000 -5.372
v 17.462 0.000 -7.136
v 16.064 0.000 -14.472
v 10.266 0.400 -28.197
v 6.182 0.400 -34.027
v 4.499 0.400 -32.397
v 1.759 0.400 -30.873
v 1.341 0.400 -30.641
v 0.978 0.400 -30.438
v -2.931 0.400 -29.458
v -6.960 0.400 -29.522
v -10.835 0.400 -30.627
v -12.770 0.400 -31.786
v -15.381 0.400 -25.162
v -17.117 0.400 -17.899
v -17.815 0.400 -10.463
v -17.462 0.400 -3.003
v -16.064 0.400 4.333
v -15.630 0.400 5.605
v -13.650 0.400 11.400
v -10.266 0.400 18.058
v -5.981 0.400 24.175
v -0.879 0.400 29.629
v 4.631 0.400 34.064
v 7.554 0.400 30.278
v 8.954 0.400 28.465
v 12.642 0.400 21.971
v 15.381 0.400 15.023
v 17.117 0.400 7.759
v 17.815 0.400 0.324
v 17.546 0.400 -5.372
v 17.462 0.400 -7.136
v 16.064 0.400 -14.472
v 13.650 0.400 -21.540
# 130 vertices

vn 0.000 1.000 0.000
vn 0.000 -1.000 0.000
vn 0.819 0.000 -0.574
vn -0.696 0.000 -0.718
vn -0.486 0.000 -0.874
vn -0.243 0.000 -0.970
vn 0.016 0.000 -1.000
vn 0.274 0.000 -0.962
vn 0.514 0.000 -0.858
vn -0.930 0.000 -0.367
vn -0.973 0.000 -0.232
vn -0.996 0.000 -0.094
vn -0.999 0.000 0.047
vn -0.982 0.000 0.187
vn -0.946 0.000 0.323
vn -0.891 0.000 0.453
vn -0.819 0.000 0.574
vn -0.730 0.000 0.683
vn -0.627 0.000 0.779
vn 0.792 0.000 0.611
vn 0.870 0.000 0.494
vn 0.930 0.000 0.367
vn 0.973 0.000 0.232
vn 0.996 0.000 0.093
vn 0.999 0.000 -0.047
vn 0.982 0.000 -0.187
vn 0.946 0.000 -0.323
vn 0.891 0.000 -0.453
# 28 vertex normals

g CityEngineMaterial
s off
usemtl CityEngineMaterial
f 1//1 2//1 3//1 4//1 5//1
f 2//1 6//1 3//1
f 6//1 7//1 8//1 4//1 3//1
f 7//1 9//1 10//1 8//1
f 9//1 11//1 12//1 10//1
f 11//1 13//1 14//1 12//1
f 13//1 15//1 16//1 14//1
f 15//1 17//1 18//1 16//1
f 17//1 19//1 20//1 18//1
f 19//1 21//1 22//1 23//1 24//1 20//1
f 21//1 25//1 22//1
f 25//1 26//1 23//1 22//1
f 26//1 27//1 28//1 24//1 23//1
f 27//1 29//1 30//1 28//1
f 29//1 31//1 32//1 30//1
f 31//1 33//1 34//1 32//1
f 33//1 35//1 36//1 34//1
f 35//1 37//1 38//1 36//1
f 37//1 39//1 40//1 38//1
f 39//1 41//1 42//1 40//1
f 41//1 43//1 44//1 42//1
f 43//1 45//1 46//1 44//1
f 45//1 47//1 48//1 46//1
f 47//1 49//1 50//1 48//1
f 49//1 51//1 52//1 50//1
f 51//1 53//1 54//1 52//1
f 53//1 55//1 56//1 54//1
f 55//1 57//1 58//1 56//1
f 57//1 59//1 60//1 58//1
f 59//1 61//1 62//1 60//1
f 61//1 63//1 64//1 62//1
f 63//1 65//1 66//1 64//1
f 65//1 67//1 68//1 66//1
f 67//1 1//1 5//1 68//1
f 71//2 69//2 70//2 99//2 98//2 97//2 96//2 95//2 94//2 93//2 92//2 91//2 90//2 89//2 88//2 87//2 86//2 85//2 84//2 83//2 82//2 81//2 80//2 79//2 78//2 77//2 76//2 75//2 74//2 73//2 72//2
f 100//1 101//1 102//1 103//1 104//1 105//1 106//1 107//1 108//1 109//1 110//1 111//1 112//1 113//1 114//1 115//1 116//1 117//1 118//1 119//1 120//1 121//1 122//1 123//1 124//1 125//1 126//1 127//1 128//1 129//1 130//1
f 69//3 71//3 101//3 100//3
f 71//4 72//4 102//4 101//4
f 72//5 73//5 103//5 102//5
f 73//5 74//5 104//5 103//5
f 74//5 75//5 105//5 104//5
f 75//6 76//6 106//6 105//6
f 76//7 77//7 107//7 106//7
f 77//8 78//8 108//8 107//8
f 78//9 79//9 109//9 108//9
f 79//10 80//10 110//10 109//10
f 80//11 81//11 111//11 110//11
f 81//12 82//12 112//12 111//12
f 82//13 83//13 113//13 112//13
f 83//14 84//14 114//14 113//14
f 84//15 85//15 115//15 114//15
f 85//15 86//15 116//15 115//15
f 86//16 87//16 117//16 116//16
f 87//17 88//17 118//17 117//17
f 88//18 89//18 119//18 118//18
f 89//19 90//19 120//19 119//19
f 90//20 91//20 121//20 120//20
f 91//20 92//20 122//20 121//20
f 92//21 93//21 123//21 122//21
f 93//22 94//22 124//22 123//22
f 94//23 95//23 125//23 124//23
f 95//24 96//24 126//24 125//24
f 96//25 97//25 127//25 126//25
f 97//25 98//25 128//25 127//25
f 98//26 99//26 129//26 128//26
f 99//27 70//27 130//27 129//27
f 70//28 69//28 100//28 130//28
# 67 faces

