# created with CityEngine 2019.0.5403 0409R (based on Esri Procedural Runtime 2.0.5403, build date: Tue 04/09/2019 10:26 AM)
# creation date: Mon Mar 14 20:01:08 2022

mtllib 20220314_Building_interact_SGP.mtl

# mesh 'mesh_CityEngineMaterial_30' from geometry 'mesh_CityEngineMaterial_30'
v 22.713 0.000 -31.948
v 20.778 0.000 -33.709
v 20.521 0.000 -33.402
v 22.437 0.000 -31.658
v 18.696 0.000 -35.295
v 18.468 0.000 -34.967
v 16.485 0.000 -36.694
v 16.286 0.000 -36.347
v 14.159 0.000 -37.895
v 13.991 0.000 -37.531
v 11.739 0.000 -38.888
v 11.603 0.000 -38.511
v 9.240 0.000 -39.667
v 9.138 0.000 -39.280
v 6.684 0.000 -40.224
v 6.615 0.000 -39.830
v 4.088 0.000 -40.557
v 4.055 0.000 -40.158
v 1.473 0.000 -40.663
v 1.475 0.000 -40.262
v -1.140 0.000 -40.540
v -1.104 0.000 -40.141
v -3.734 0.000 -40.190
v -3.663 0.000 -39.796
v -6.287 0.000 -39.615
v -6.190 0.000 -39.226
v -39.055 0.000 -30.717
v -38.942 0.000 -30.333
v -39.554 0.000 -30.558
v -39.415 0.000 -30.182
v -40.036 0.000 -30.356
v -39.866 0.000 -29.994
v -40.499 0.000 -30.113
v -40.298 0.000 -29.767
v -40.939 0.000 -29.831
v -40.708 0.000 -29.504
v -41.353 0.000 -29.511
v -41.095 0.000 -29.205
v -41.738 0.000 -29.157
v -41.454 0.000 -28.874
v -42.090 0.000 -28.770
v -41.782 0.000 -28.514
v -42.407 0.000 -28.354
v -42.078 0.000 -28.125
v -42.686 0.000 -27.912
v -42.339 0.000 -27.713
v -42.926 0.000 -27.447
v -42.563 0.000 -27.279
v -43.125 0.000 -26.963
v -42.748 0.000 -26.828
v -43.280 0.000 -26.464
v -42.896 0.000 -26.353
v -59.043 0.000 33.156
v -58.652 0.000 33.242
v -59.221 0.000 34.186
v -58.821 0.000 34.220
v -59.218 0.000 35.231
v -58.818 0.000 35.195
v -59.033 0.000 36.260
v -58.645 0.000 36.155
v -58.672 0.000 37.241
v -58.309 0.000 37.070
v -58.147 0.000 38.144
v -57.818 0.000 37.913
v -57.472 0.000 38.942
v -57.189 0.000 38.657
v -56.669 0.000 39.611
v -56.440 0.000 39.282
v -55.763 0.000 40.131
v -55.594 0.000 39.766
v -54.780 0.000 40.485
v -54.677 0.000 40.097
v -53.750 0.000 40.663
v -53.716 0.000 40.263
v -52.705 0.000 40.659
v -52.741 0.000 40.259
v -51.676 0.000 40.475
v -51.764 0.000 40.084
v -4.102 0.000 27.586
v -4.194 0.000 27.197
v -2.818 0.000 27.326
v -2.889 0.000 26.933
v -1.525 0.000 27.123
v -1.579 0.000 26.726
v -0.224 0.000 26.976
v -0.261 0.000 26.578
v 1.082 0.000 26.886
v 1.063 0.000 26.487
v 2.390 0.000 26.853
v 2.389 0.000 26.453
v 3.699 0.000 26.877
v 3.715 0.000 26.478
v 5.006 0.000 26.959
v 5.040 0.000 26.560
v 6.308 0.000 27.097
v 6.359 0.000 26.700
v 7.602 0.000 27.292
v 7.671 0.000 26.897
v 8.887 0.000 27.543
v 8.977 0.000 27.153
v 45.214 0.000 37.118
v 45.304 0.000 36.728
v 45.984 0.000 37.268
v 46.035 0.000 36.871
v 46.767 0.000 37.317
v 46.765 0.000 36.916
v 47.549 0.000 37.263
v 47.495 0.000 36.866
v 48.318 0.000 37.107
v 48.213 0.000 36.721
v 49.059 0.000 36.853
v 48.905 0.000 36.483
v 49.761 0.000 36.504
v 49.560 0.000 36.157
v 50.412 0.000 36.066
v 50.167 0.000 35.749
v 51.000 0.000 35.547
v 50.715 0.000 35.264
v 51.515 0.000 34.956
v 51.196 0.000 34.713
v 51.948 0.000 34.302
v 51.601 0.000 34.103
v 52.293 0.000 33.598
v 51.922 0.000 33.445
v 52.543 0.000 32.854
v 52.159 0.000 32.739
v 59.022 0.000 8.347
v 58.633 0.000 8.253
v 59.133 0.000 7.836
v 58.739 0.000 7.768
v 59.200 0.000 7.317
v 58.801 0.000 7.284
v 59.221 0.000 6.795
v 58.821 0.000 6.796
v 59.197 0.000 6.272
v 58.798 0.000 6.308
v 59.127 0.000 5.754
v 58.733 0.000 5.825
v 59.012 0.000 5.244
v 58.625 0.000 5.349
v 58.853 0.000 4.745
v 58.477 0.000 4.884
v 58.651 0.000 4.263
v 58.289 0.000 4.433
v 58.408 0.000 3.800
v 58.062 0.000 4.001
v 58.125 0.000 3.360
v 57.798 0.000 3.590
v 57.806 0.000 2.946
v 57.500 0.000 3.204
v 57.451 0.000 2.561
v 57.163 0.000 2.839
v 22.430 0.000 -31.651
v 57.156 0.000 2.846
v 20.515 0.000 -33.394
v 18.462 0.000 -34.958
v 16.281 0.000 -36.338
v 13.987 0.000 -37.522
v 11.600 0.000 -38.502
v 9.135 0.000 -39.270
v 6.614 0.000 -39.820
v 4.054 0.000 -40.148
v 1.475 0.000 -40.252
v -1.103 0.000 -40.131
v -3.661 0.000 -39.786
v -6.188 0.000 -39.217
v -38.939 0.000 -30.324
v -39.412 0.000 -30.173
v -39.861 0.000 -29.985
v -40.293 0.000 -29.759
v -40.703 0.000 -29.496
v -41.088 0.000 -29.198
v -41.446 0.000 -28.867
v -41.774 0.000 -28.507
v -42.070 0.000 -28.120
v -42.330 0.000 -27.708
v -42.554 0.000 -27.275
v -42.738 0.000 -26.824
v -42.886 0.000 -26.350
v -58.642 0.000 33.244
v -58.811 0.000 34.221
v -58.808 0.000 35.194
v -58.636 0.000 36.152
v -58.300 0.000 37.066
v -57.810 0.000 37.907
v -57.182 0.000 38.650
v -56.434 0.000 39.273
v -55.590 0.000 39.757
v -54.674 0.000 40.087
v -53.715 0.000 40.253
v -52.742 0.000 40.250
v -51.766 0.000 40.074
v -4.196 0.000 27.187
v -2.891 0.000 26.923
v -1.580 0.000 26.717
v -0.261 0.000 26.568
v 1.062 0.000 26.477
v 2.389 0.000 26.443
v 3.716 0.000 26.468
v 5.040 0.000 26.550
v 6.360 0.000 26.690
v 7.672 0.000 26.888
v 8.979 0.000 27.143
v 45.306 0.000 36.718
v 46.036 0.000 36.861
v 46.765 0.000 36.906
v 47.494 0.000 36.856
v 48.210 0.000 36.711
v 48.901 0.000 36.474
v 49.555 0.000 36.149
v 50.161 0.000 35.741
v 50.708 0.000 35.257
v 51.188 0.000 34.707
v 51.592 0.000 34.098
v 51.913 0.000 33.442
v 52.150 0.000 32.736
v 58.623 0.000 8.251
v 58.729 0.000 7.766
v 58.791 0.000 7.283
v 58.811 0.000 6.796
v 58.788 0.000 6.309
v 58.723 0.000 5.826
v 58.616 0.000 5.351
v 58.468 0.000 4.887
v 58.280 0.000 4.438
v 58.053 0.000 4.006
v 57.790 0.000 3.596
v 57.492 0.000 3.211
v 22.430 0.400 -31.651
v 20.515 0.400 -33.394
v 18.462 0.400 -34.958
v 16.281 0.400 -36.338
v 13.987 0.400 -37.522
v 11.600 0.400 -38.502
v 9.135 0.400 -39.270
v 6.614 0.400 -39.820
v 4.054 0.400 -40.148
v 1.475 0.400 -40.252
v -1.103 0.400 -40.131
v -3.661 0.400 -39.786
v -6.188 0.400 -39.217
v -38.939 0.400 -30.324
v -39.412 0.400 -30.173
v -39.861 0.400 -29.985
v -40.293 0.400 -29.759
v -40.703 0.400 -29.496
v -41.088 0.400 -29.198
v -41.446 0.400 -28.867
v -41.774 0.400 -28.507
v -42.070 0.400 -28.120
v -42.330 0.400 -27.708
v -42.554 0.400 -27.275
v -42.738 0.400 -26.824
v -42.886 0.400 -26.350
v -58.642 0.400 33.244
v -58.811 0.400 34.221
v -58.808 0.400 35.194
v -58.636 0.400 36.152
v -58.300 0.400 37.066
v -57.810 0.400 37.907
v -57.182 0.400 38.650
v -56.434 0.400 39.273
v -55.590 0.400 39.757
v -54.674 0.400 40.087
v -53.715 0.400 40.253
v -52.742 0.400 40.250
v -51.766 0.400 40.074
v -4.196 0.400 27.187
v -2.891 0.400 26.923
v -1.580 0.400 26.717
v -0.261 0.400 26.568
v 1.062 0.400 26.477
v 2.389 0.400 26.443
v 3.716 0.400 26.468
v 5.040 0.400 26.550
v 6.360 0.400 26.690
v 7.672 0.400 26.888
v 8.979 0.400 27.143
v 45.306 0.400 36.718
v 46.036 0.400 36.861
v 46.765 0.400 36.906
v 47.494 0.400 36.856
v 48.210 0.400 36.711
v 48.901 0.400 36.474
v 49.555 0.400 36.149
v 50.161 0.400 35.741
v 50.708 0.400 35.257
v 51.188 0.400 34.707
v 51.592 0.400 34.098
v 51.913 0.400 33.442
v 52.150 0.400 32.736
v 58.623 0.400 8.251
v 58.729 0.400 7.766
v 58.791 0.400 7.283
v 58.811 0.400 6.796
v 58.788 0.400 6.309
v 58.723 0.400 5.826
v 58.616 0.400 5.351
v 58.468 0.400 4.887
v 58.280 0.400 4.438
v 58.053 0.400 4.006
v 57.790 0.400 3.596
v 57.492 0.400 3.211
v 57.156 0.400 2.846
# 304 vertices

vn 0.000 1.000 0.000
vn 0.000 -1.000 0.000
vn 0.673 0.000 -0.740
vn 0.606 0.000 -0.795
vn 0.534 0.000 -0.845
vn 0.459 0.000 -0.889
vn 0.380 0.000 -0.925
vn 0.298 0.000 -0.955
vn 0.213 0.000 -0.977
vn 0.127 0.000 -0.992
vn 0.040 0.000 -0.999
vn -0.047 0.000 -0.999
vn -0.134 0.000 -0.991
vn -0.220 0.000 -0.976
vn -0.262 0.000 -0.965
vn -0.304 0.000 -0.953
vn -0.386 0.000 -0.923
vn -0.465 0.000 -0.885
vn -0.540 0.000 -0.842
vn -0.611 0.000 -0.791
vn -0.678 0.000 -0.735
vn -0.740 0.000 -0.673
vn -0.795 0.000 -0.606
vn -0.845 0.000 -0.534
vn -0.889 0.000 -0.459
vn -0.925 0.000 -0.380
vn -0.955 0.000 -0.297
vn -0.967 0.000 -0.256
vn -0.985 0.000 -0.170
vn -1.000 0.000 0.003
vn -0.984 0.000 0.177
vn -0.939 0.000 0.345
vn -0.864 0.000 0.503
vn -0.764 0.000 0.645
vn -0.640 0.000 0.768
vn -0.497 0.000 0.868
vn -0.339 0.000 0.941
vn -0.170 0.000 0.985
vn 0.003 0.000 1.000
vn 0.177 0.000 0.984
vn 0.261 0.000 0.965
vn 0.198 0.000 0.980
vn 0.155 0.000 0.988
vn 0.112 0.000 0.994
vn 0.069 0.000 0.998
vn 0.025 0.000 1.000
vn -0.018 0.000 1.000
vn -0.062 0.000 0.998
vn -0.106 0.000 0.994
vn -0.149 0.000 0.989
vn -0.192 0.000 0.981
vn -0.255 0.000 0.967
vn 0.325 0.000 0.946
vn 0.445 0.000 0.895
vn 0.558 0.000 0.830
vn 0.662 0.000 0.750
vn 0.754 0.000 0.657
vn 0.833 0.000 0.553
vn 0.898 0.000 0.439
vn 0.948 0.000 0.318
vn 0.967 0.000 0.256
vn 0.977 0.000 0.213
vn 0.992 0.000 0.127
vn 0.999 0.000 0.040
vn 0.999 0.000 -0.047
vn 0.991 0.000 -0.134
vn 0.976 0.000 -0.220
vn 0.953 0.000 -0.304
vn 0.923 0.000 -0.386
vn 0.885 0.000 -0.465
vn 0.842 0.000 -0.540
vn 0.791 0.000 -0.611
vn 0.735 0.000 -0.678
vn 0.705 0.000 -0.709
# 74 vertex normals

g CityEngineMaterial
s off
usemtl CityEngineMaterial
f 1//1 2//1 3//1 4//1
f 2//1 5//1 6//1 3//1
f 5//1 7//1 8//1 6//1
f 7//1 9//1 10//1 8//1
f 9//1 11//1 12//1 10//1
f 11//1 13//1 14//1 12//1
f 13//1 15//1 16//1 14//1
f 15//1 17//1 18//1 16//1
f 17//1 19//1 20//1 18//1
f 19//1 21//1 22//1 20//1
f 21//1 23//1 24//1 22//1
f 23//1 25//1 26//1 24//1
f 25//1 27//1 28//1 26//1
f 27//1 29//1 30//1 28//1
f 29//1 31//1 32//1 30//1
f 31//1 33//1 34//1 32//1
f 33//1 35//1 36//1 34//1
f 35//1 37//1 38//1 36//1
f 37//1 39//1 40//1 38//1
f 39//1 41//1 42//1 40//1
f 41//1 43//1 44//1 42//1
f 43//1 45//1 46//1 44//1
f 45//1 47//1 48//1 46//1
f 47//1 49//1 50//1 48//1
f 49//1 51//1 52//1 50//1
f 51//1 53//1 54//1 52//1
f 53//1 55//1 56//1 54//1
f 55//1 57//1 58//1 56//1
f 57//1 59//1 60//1 58//1
f 59//1 61//1 62//1 60//1
f 61//1 63//1 64//1 62//1
f 63//1 65//1 66//1 64//1
f 65//1 67//1 68//1 66//1
f 67//1 69//1 70//1 68//1
f 69//1 71//1 72//1 70//1
f 71//1 73//1 74//1 72//1
f 73//1 75//1 76//1 74//1
f 75//1 77//1 78//1 76//1
f 77//1 79//1 80//1 78//1
f 79//1 81//1 82//1 80//1
f 81//1 83//1 84//1 82//1
f 83//1 85//1 86//1 84//1
f 85//1 87//1 88//1 86//1
f 87//1 89//1 90//1 88//1
f 89//1 91//1 92//1 90//1
f 91//1 93//1 94//1 92//1
f 93//1 95//1 96//1 94//1
f 95//1 97//1 98//1 96//1
f 97//1 99//1 100//1 98//1
f 99//1 101//1 102//1 100//1
f 101//1 103//1 104//1 102//1
f 103//1 105//1 106//1 104//1
f 105//1 107//1 108//1 106//1
f 107//1 109//1 110//1 108//1
f 109//1 111//1 112//1 110//1
f 111//1 113//1 114//1 112//1
f 113//1 115//1 116//1 114//1
f 115//1 117//1 118//1 116//1
f 117//1 119//1 120//1 118//1
f 119//1 121//1 122//1 120//1
f 121//1 123//1 124//1 122//1
f 123//1 125//1 126//1 124//1
f 125//1 127//1 128//1 126//1
f 127//1 129//1 130//1 128//1
f 129//1 131//1 132//1 130//1
f 131//1 133//1 134//1 132//1
f 133//1 135//1 136//1 134//1
f 135//1 137//1 138//1 136//1
f 137//1 139//1 140//1 138//1
f 139//1 141//1 142//1 140//1
f 141//1 143//1 144//1 142//1
f 143//1 145//1 146//1 144//1
f 145//1 147//1 148//1 146//1
f 147//1 149//1 150//1 148//1
f 149//1 151//1 152//1 150//1
f 151//1 1//1 4//1 152//1
f 155//2 153//2 154//2 228//2 227//2 226//2 225//2 224//2 223//2 222//2 221//2 220//2 219//2 218//2 217//2 216//2 215//2 214//2 213//2 212//2 211//2 210//2 209//2 208//2 207//2 206//2 205//2 204//2 203//2 202//2 201//2 200//2 199//2 198//2 197//2 196//2 195//2 194//2 193//2 192//2 191//2 190//2 189//2 188//2 187//2 186//2 185//2 184//2 183//2 182//2 181//2 180//2 179//2 178//2 177//2 176//2 175//2 174//2 173//2 172//2 171//2 170//2 169//2 168//2 167//2 166//2 165//2 164//2 163//2 162//2 161//2 160//2 159//2 158//2 157//2 156//2
f 229//1 230//1 231//1 232//1 233//1 234//1 235//1 236//1 237//1 238//1 239//1 240//1 241//1 242//1 243//1 244//1 245//1 246//1 247//1 248//1 249//1 250//1 251//1 252//1 253//1 254//1 255//1 256//1 257//1 258//1 259//1 260//1 261//1 262//1 263//1 264//1 265//1 266//1 267//1 268//1 269//1 270//1 271//1 272//1 273//1 274//1 275//1 276//1 277//1 278//1 279//1 280//1 281//1 282//1 283//1 284//1 285//1 286//1 287//1 288//1 289//1 290//1 291//1 292//1 293//1 294//1 295//1 296//1 297//1 298//1 299//1 300//1 301//1 302//1 303//1 304//1
f 153//3 155//3 230//3 229//3
f 155//4 156//4 231//4 230//4
f 156//5 157//5 232//5 231//5
f 157//6 158//6 233//6 232//6
f 158//7 159//7 234//7 233//7
f 159//8 160//8 235//8 234//8
f 160//9 161//9 236//9 235//9
f 161//10 162//10 237//10 236//10
f 162//11 163//11 238//11 237//11
f 163//12 164//12 239//12 238//12
f 164//13 165//13 240//13 239//13
f 165//14 166//14 241//14 240//14
f 166//15 167//15 242//15 241//15
f 167//16 168//16 243//16 242//16
f 168//17 169//17 244//17 243//17
f 169//18 170//18 245//18 244//18
f 170//19 171//19 246//19 245//19
f 171//20 172//20 247//20 246//20
f 172//21 173//21 248//21 247//21
f 173//22 174//22 249//22 248//22
f 174//23 175//23 250//23 249//23
f 175//24 176//24 251//24 250//24
f 176//25 177//25 252//25 251//25
f 177//26 178//26 253//26 252//26
f 178//27 179//27 254//27 253//27
f 179//28 180//28 255//28 254//28
f 180//29 181//29 256//29 255//29
f 181//30 182//30 257//30 256//30
f 182//31 183//31 258//31 257//31
f 183//32 184//32 259//32 258//32
f 184//33 185//33 260//33 259//33
f 185//34 186//34 261//34 260//34
f 186//35 187//35 262//35 261//35
f 187//36 188//36 263//36 262//36
f 188//37 189//37 264//37 263//37
f 189//38 190//38 265//38 264//38
f 190//39 191//39 266//39 265//39
f 191//40 192//40 267//40 266//40
f 192//41 193//41 268//41 267//41
f 193//42 194//42 269//42 268//42
f 194//43 195//43 270//43 269//43
f 195//44 196//44 271//44 270//44
f 196//45 197//45 272//45 271//45
f 197//46 198//46 273//46 272//46
f 198//47 199//47 274//47 273//47
f 199//48 200//48 275//48 274//48
f 200//49 201//49 276//49 275//49
f 201//50 202//50 277//50 276//50
f 202//51 203//51 278//51 277//51
f 203//52 204//52 279//52 278//52
f 204//51 205//51 280//51 279//51
f 205//48 206//48 281//48 280//48
f 206//45 207//45 282//45 281//45
f 207//42 208//42 283//42 282//42
f 208//53 209//53 284//53 283//53
f 209//54 210//54 285//54 284//54
f 210//55 211//55 286//55 285//55
f 211//56 212//56 287//56 286//56
f 212//57 213//57 288//57 287//57
f 213//58 214//58 289//58 288//58
f 214//59 215//59 290//59 289//59
f 215//60 216//60 291//60 290//60
f 216//61 217//61 292//61 291//61
f 217//62 218//62 293//62 292//62
f 218//63 219//63 294//63 293//63
f 219//64 220//64 295//64 294//64
f 220//65 221//65 296//65 295//65
f 221//66 222//66 297//66 296//66
f 222//67 223//67 298//67 297//67
f 223//68 224//68 299//68 298//68
f 224//69 225//69 300//69 299//69
f 225//70 226//70 301//70 300//70
f 226//71 227//71 302//71 301//71
f 227//72 228//72 303//72 302//72
f 228//73 154//73 304//73 303//73
f 154//74 153//74 229//74 304//74
# 154 faces

