# created with CityEngine 2019.0.5403 0409R (based on Esri Procedural Runtime 2.0.5403, build date: Tue 04/09/2019 10:26 AM)
# creation date: Mon Mar 14 20:01:06 2022

mtllib 20220314_Building_interact_SGP.mtl

# mesh 'mesh_CityEngineMaterial_20' from geometry 'mesh_CityEngineMaterial_20'
v -14.939 0.000 22.299
v 24.873 0.000 -4.383
v 24.333 0.000 -4.503
v -14.795 0.000 21.721
v 14.025 0.000 -22.299
v 13.900 0.000 -21.733
v -24.873 0.000 3.771
v -24.349 0.000 3.901
v -14.792 0.000 21.706
v -24.336 0.000 3.904
v 24.320 0.000 -4.506
v 13.897 0.000 -21.719
v -14.792 0.400 21.706
v 24.320 0.400 -4.506
v 13.897 0.400 -21.719
v -24.336 0.400 3.904
# 16 vertices

vn 0.000 1.000 0.000
vn 0.000 -1.000 0.000
vn 0.557 0.000 0.831
vn 0.855 0.000 -0.518
vn -0.557 0.000 -0.831
vn -0.881 0.000 0.473
# 6 vertex normals

g CityEngineMaterial
s off
usemtl CityEngineMaterial
f 1//1 2//1 3//1 4//1
f 2//1 5//1 6//1 3//1
f 5//1 7//1 8//1 6//1
f 7//1 1//1 4//1 8//1
f 11//2 9//2 10//2 12//2
f 13//1 14//1 15//1 16//1
f 9//3 11//3 14//3 13//3
f 11//4 12//4 15//4 14//4
f 12//5 10//5 16//5 15//5
f 10//6 9//6 13//6 16//6
# 10 faces

