# created with CityEngine 2019.0.5403 0409R (based on Esri Procedural Runtime 2.0.5403, build date: Tue 04/09/2019 10:26 AM)
# creation date: Mon Mar 14 20:01:08 2022

mtllib 20220314_Building_interact_SGP.mtl

# mesh 'mesh_CityEngineMaterial_33' from geometry 'mesh_CityEngineMaterial_33'
v 0.142 0.000 23.676
v 22.036 0.000 8.666
v 21.480 0.000 8.563
v 0.246 0.000 23.120
v -0.136 0.000 -23.676
v -0.240 0.000 -23.120
v -22.036 0.000 -8.661
v -21.480 0.000 -8.558
v 0.248 0.000 23.106
v -21.466 0.000 -8.555
v 21.467 0.000 8.560
v -0.243 0.000 -23.106
v 0.248 0.400 23.106
v 21.467 0.400 8.560
v -0.243 0.400 -23.106
v -21.466 0.400 -8.555
# 16 vertices

vn 0.000 1.000 0.000
vn 0.000 -1.000 0.000
vn 0.565 0.000 0.825
vn 0.825 0.000 -0.565
vn -0.565 0.000 -0.825
vn -0.825 0.000 0.566
# 6 vertex normals

g CityEngineMaterial
s off
usemtl CityEngineMaterial
f 1//1 2//1 3//1 4//1
f 2//1 5//1 6//1 3//1
f 5//1 7//1 8//1 6//1
f 7//1 1//1 4//1 8//1
f 11//2 9//2 10//2 12//2
f 13//1 14//1 15//1 16//1
f 9//3 11//3 14//3 13//3
f 11//4 12//4 15//4 14//4
f 12//5 10//5 16//5 15//5
f 10//6 9//6 13//6 16//6
# 10 faces

