# created with CityEngine 2019.0.5403 0409R (based on Esri Procedural Runtime 2.0.5403, build date: Tue 04/09/2019 10:26 AM)
# creation date: Mon Mar 14 20:01:06 2022

mtllib 20220314_Building_interact_SGP.mtl

# mesh 'mesh_CityEngineMaterial_9' from geometry 'mesh_CityEngineMaterial_9'
v -5.054 0.000 23.000
v 17.937 0.000 10.485
v 17.427 0.000 10.308
v -5.011 0.000 22.521
v 3.728 0.000 -23.000
v 3.664 0.000 -22.126
v -17.937 0.000 12.632
v -17.413 0.000 12.540
v -5.010 0.000 22.509
v -17.400 0.000 12.538
v 17.414 0.000 10.303
v 3.663 0.000 -22.104
v -5.010 0.400 22.509
v 17.414 0.400 10.303
v 3.663 0.400 -22.104
v -17.400 0.400 12.538
# 16 vertices

vn 0.000 1.000 0.000
vn 0.000 -1.000 0.000
vn 0.478 0.000 0.878
vn 0.921 0.000 -0.391
vn -0.854 0.000 -0.520
vn -0.627 0.000 0.779
# 6 vertex normals

g CityEngineMaterial
s off
usemtl CityEngineMaterial
f 1//1 2//1 3//1 4//1
f 2//1 5//1 6//1 3//1
f 5//1 7//1 8//1 6//1
f 7//1 1//1 4//1 8//1
f 11//2 9//2 10//2 12//2
f 13//1 14//1 15//1 16//1
f 9//3 11//3 14//3 13//3
f 11//4 12//4 15//4 14//4
f 12//5 10//5 16//5 15//5
f 10//6 9//6 13//6 16//6
# 10 faces

