# created with CityEngine 2019.0.5403 0409R (based on Esri Procedural Runtime 2.0.5403, build date: Tue 04/09/2019 10:26 AM)
# creation date: Mon Mar 14 20:01:10 2022

mtllib 20220314_Building_interact_SGP.mtl

# mesh 'mesh_CityEngineMaterial_62' from geometry 'mesh_CityEngineMaterial_62'
v 6.941 0.000 21.829
v 7.986 0.000 21.826
v 7.949 0.000 21.426
v 6.974 0.000 21.429
v 9.014 0.000 21.641
v 8.909 0.000 21.254
v 9.995 0.000 21.280
v 9.824 0.000 20.917
v 10.898 0.000 20.755
v 10.667 0.000 20.427
v 11.696 0.000 20.081
v 11.411 0.000 19.798
v 12.365 0.000 19.278
v 12.036 0.000 19.049
v 12.885 0.000 18.371
v 12.520 0.000 18.203
v 13.239 0.000 17.388
v 12.857 0.000 17.269
v 21.623 0.000 -14.322
v 21.232 0.000 -14.407
v 21.801 0.000 -15.353
v 21.401 0.000 -15.387
v 21.798 0.000 -16.398
v 21.398 0.000 -16.362
v 21.613 0.000 -17.426
v 21.226 0.000 -17.321
v 21.252 0.000 -18.407
v 20.889 0.000 -18.236
v 20.727 0.000 -19.310
v 20.399 0.000 -19.079
v 20.053 0.000 -20.109
v 19.770 0.000 -19.824
v 19.250 0.000 -20.778
v 19.021 0.000 -20.448
v 18.430 0.000 -21.248
v 18.231 0.000 -20.901
v 18.343 0.000 -21.297
v 18.175 0.000 -20.932
v 17.360 0.000 -21.651
v 17.257 0.000 -21.263
v 16.330 0.000 -21.829
v 16.297 0.000 -21.429
v 15.285 0.000 -21.826
v 15.322 0.000 -21.426
v 14.257 0.000 -21.641
v 14.345 0.000 -21.250
v -17.397 0.000 -13.046
v -17.275 0.000 -12.665
v -18.379 0.000 -12.685
v -18.208 0.000 -12.322
v -19.282 0.000 -12.160
v -19.051 0.000 -11.832
v -20.081 0.000 -11.485
v -19.796 0.000 -11.202
v -20.750 0.000 -10.683
v -20.420 0.000 -10.453
v -21.269 0.000 -9.776
v -20.905 0.000 -9.607
v -21.623 0.000 -8.793
v -21.235 0.000 -8.690
v -21.801 0.000 -7.763
v -21.401 0.000 -7.729
v -21.798 0.000 -6.718
v -21.398 0.000 -6.754
v -21.613 0.000 -5.690
v -21.226 0.000 -5.795
v -21.252 0.000 -4.709
v -20.889 0.000 -4.880
v -20.727 0.000 -3.806
v -20.399 0.000 -4.037
v -20.053 0.000 -3.007
v -19.758 0.000 -3.279
v 3.218 0.000 20.109
v 3.488 0.000 19.813
v 4.021 0.000 20.778
v 4.250 0.000 20.448
v 4.928 0.000 21.297
v 5.096 0.000 20.933
v 5.911 0.000 21.651
v 6.014 0.000 21.263
v 6.975 0.000 21.419
v 6.016 0.000 21.253
v 7.948 0.000 21.416
v 8.906 0.000 21.244
v 9.820 0.000 20.908
v 10.661 0.000 20.419
v 11.404 0.000 19.790
v 12.028 0.000 19.043
v 12.511 0.000 18.198
v 12.847 0.000 17.266
v 21.222 0.000 -14.410
v 21.391 0.000 -15.387
v 21.388 0.000 -16.361
v 21.216 0.000 -17.318
v 20.880 0.000 -18.232
v 20.391 0.000 -19.073
v 19.762 0.000 -19.817
v 19.015 0.000 -20.440
v 18.226 0.000 -20.892
v 18.171 0.000 -20.923
v 17.255 0.000 -21.253
v 16.296 0.000 -21.419
v 15.323 0.000 -21.416
v 14.347 0.000 -21.241
v -17.272 0.000 -12.656
v -18.204 0.000 -12.313
v -19.045 0.000 -11.823
v -19.789 0.000 -11.195
v -20.412 0.000 -10.448
v -20.896 0.000 -9.603
v -21.225 0.000 -8.688
v -21.391 0.000 -7.728
v -21.388 0.000 -6.755
v -21.216 0.000 -5.797
v -20.880 0.000 -4.884
v -20.391 0.000 -4.043
v -19.751 0.000 -3.285
v 3.494 0.000 19.805
v 4.256 0.000 20.440
v 5.100 0.000 20.924
v 6.975 0.400 21.419
v 7.948 0.400 21.416
v 8.906 0.400 21.244
v 9.820 0.400 20.908
v 10.661 0.400 20.419
v 11.404 0.400 19.790
v 12.028 0.400 19.043
v 12.511 0.400 18.198
v 12.847 0.400 17.266
v 21.222 0.400 -14.410
v 21.391 0.400 -15.387
v 21.388 0.400 -16.361
v 21.216 0.400 -17.318
v 20.880 0.400 -18.232
v 20.391 0.400 -19.073
v 19.762 0.400 -19.817
v 19.015 0.400 -20.440
v 18.226 0.400 -20.892
v 18.171 0.400 -20.923
v 17.255 0.400 -21.253
v 16.296 0.400 -21.419
v 15.323 0.400 -21.416
v 14.347 0.400 -21.241
v -17.272 0.400 -12.656
v -18.204 0.400 -12.313
v -19.045 0.400 -11.823
v -19.789 0.400 -11.195
v -20.412 0.400 -10.448
v -20.896 0.400 -9.603
v -21.225 0.400 -8.688
v -21.391 0.400 -7.728
v -21.388 0.400 -6.755
v -21.216 0.400 -5.797
v -20.880 0.400 -4.884
v -20.391 0.400 -4.043
v -19.751 0.400 -3.285
v 3.494 0.400 19.805
v 4.256 0.400 20.440
v 5.100 0.400 20.924
v 6.016 0.400 21.253
# 160 vertices

vn 0.000 1.000 0.000
vn 0.000 -1.000 0.000
vn 0.003 0.000 1.000
vn 0.177 0.000 0.984
vn 0.345 0.000 0.939
vn 0.503 0.000 0.864
vn 0.645 0.000 0.764
vn 0.768 0.000 0.640
vn 0.868 0.000 0.497
vn 0.941 0.000 0.339
vn 0.967 0.000 0.256
vn 0.985 0.000 0.170
vn 1.000 0.000 -0.003
vn 0.984 0.000 -0.177
vn 0.939 0.000 -0.345
vn 0.864 0.000 -0.503
vn 0.764 0.000 -0.645
vn 0.640 0.000 -0.768
vn 0.497 0.000 -0.868
vn 0.339 0.000 -0.941
vn 0.170 0.000 -0.985
vn -0.003 0.000 -1.000
vn -0.177 0.000 -0.984
vn -0.262 0.000 -0.965
vn -0.345 0.000 -0.939
vn -0.503 0.000 -0.864
vn -0.645 0.000 -0.764
vn -0.768 0.000 -0.640
vn -0.868 0.000 -0.497
vn -0.941 0.000 -0.339
vn -0.985 0.000 -0.170
vn -1.000 0.000 0.003
vn -0.984 0.000 0.177
vn -0.939 0.000 0.345
vn -0.864 0.000 0.503
vn -0.764 0.000 0.645
vn -0.705 0.000 0.709
vn -0.640 0.000 0.768
vn -0.497 0.000 0.868
vn -0.339 0.000 0.941
vn -0.170 0.000 0.985
# 41 vertex normals

g CityEngineMaterial
s off
usemtl CityEngineMaterial
f 1//1 2//1 3//1 4//1
f 2//1 5//1 6//1 3//1
f 5//1 7//1 8//1 6//1
f 7//1 9//1 10//1 8//1
f 9//1 11//1 12//1 10//1
f 11//1 13//1 14//1 12//1
f 13//1 15//1 16//1 14//1
f 15//1 17//1 18//1 16//1
f 17//1 19//1 20//1 18//1
f 19//1 21//1 22//1 20//1
f 21//1 23//1 24//1 22//1
f 23//1 25//1 26//1 24//1
f 25//1 27//1 28//1 26//1
f 27//1 29//1 30//1 28//1
f 29//1 31//1 32//1 30//1
f 31//1 33//1 34//1 32//1
f 33//1 35//1 36//1 34//1
f 35//1 37//1 38//1 36//1
f 37//1 39//1 40//1 38//1
f 39//1 41//1 42//1 40//1
f 41//1 43//1 44//1 42//1
f 43//1 45//1 46//1 44//1
f 45//1 47//1 48//1 46//1
f 47//1 49//1 50//1 48//1
f 49//1 51//1 52//1 50//1
f 51//1 53//1 54//1 52//1
f 53//1 55//1 56//1 54//1
f 55//1 57//1 58//1 56//1
f 57//1 59//1 60//1 58//1
f 59//1 61//1 62//1 60//1
f 61//1 63//1 64//1 62//1
f 63//1 65//1 66//1 64//1
f 65//1 67//1 68//1 66//1
f 67//1 69//1 70//1 68//1
f 69//1 71//1 72//1 70//1
f 71//1 73//1 74//1 72//1
f 73//1 75//1 76//1 74//1
f 75//1 77//1 78//1 76//1
f 77//1 79//1 80//1 78//1
f 79//1 1//1 4//1 80//1
f 83//2 81//2 82//2 120//2 119//2 118//2 117//2 116//2 115//2 114//2 113//2 112//2 111//2 110//2 109//2 108//2 107//2 106//2 105//2 104//2 103//2 102//2 101//2 100//2 99//2 98//2 97//2 96//2 95//2 94//2 93//2 92//2 91//2 90//2 89//2 88//2 87//2 86//2 85//2 84//2
f 121//1 122//1 123//1 124//1 125//1 126//1 127//1 128//1 129//1 130//1 131//1 132//1 133//1 134//1 135//1 136//1 137//1 138//1 139//1 140//1 141//1 142//1 143//1 144//1 145//1 146//1 147//1 148//1 149//1 150//1 151//1 152//1 153//1 154//1 155//1 156//1 157//1 158//1 159//1 160//1
f 81//3 83//3 122//3 121//3
f 83//4 84//4 123//4 122//4
f 84//5 85//5 124//5 123//5
f 85//6 86//6 125//6 124//6
f 86//7 87//7 126//7 125//7
f 87//8 88//8 127//8 126//8
f 88//9 89//9 128//9 127//9
f 89//10 90//10 129//10 128//10
f 90//11 91//11 130//11 129//11
f 91//12 92//12 131//12 130//12
f 92//13 93//13 132//13 131//13
f 93//14 94//14 133//14 132//14
f 94//15 95//15 134//15 133//15
f 95//16 96//16 135//16 134//16
f 96//17 97//17 136//17 135//17
f 97//18 98//18 137//18 136//18
f 98//19 99//19 138//19 137//19
f 99//19 100//19 139//19 138//19
f 100//20 101//20 140//20 139//20
f 101//21 102//21 141//21 140//21
f 102//22 103//22 142//22 141//22
f 103//23 104//23 143//23 142//23
f 104//24 105//24 144//24 143//24
f 105//25 106//25 145//25 144//25
f 106//26 107//26 146//26 145//26
f 107//27 108//27 147//27 146//27
f 108//28 109//28 148//28 147//28
f 109//29 110//29 149//29 148//29
f 110//30 111//30 150//30 149//30
f 111//31 112//31 151//31 150//31
f 112//32 113//32 152//32 151//32
f 113//33 114//33 153//33 152//33
f 114//34 115//34 154//34 153//34
f 115//35 116//35 155//35 154//35
f 116//36 117//36 156//36 155//36
f 117//37 118//37 157//37 156//37
f 118//38 119//38 158//38 157//38
f 119//39 120//39 159//39 158//39
f 120//40 82//40 160//40 159//40
f 82//41 81//41 121//41 160//41
# 82 faces

