# created with CityEngine 2019.0.5403 0409R (based on Esri Procedural Runtime 2.0.5403, build date: Tue 04/09/2019 10:26 AM)
# creation date: Mon Mar 14 20:01:08 2022

mtllib 20220314_Building_interact_SGP.mtl

# mesh 'mesh_CityEngineMaterial_38' from geometry 'mesh_CityEngineMaterial_38'
v 11.023 0.000 -12.138
v 9.927 0.000 -12.845
v 9.715 0.000 -12.505
v 10.801 0.000 -11.805
v 8.808 0.000 -13.517
v 8.607 0.000 -13.171
v 8.020 0.000 -13.957
v 7.826 0.000 -13.608
v 7.693 0.000 -14.140
v 7.497 0.000 -13.791
v 7.667 0.000 -14.155
v 7.476 0.000 -13.803
v 6.505 0.000 -14.755
v 6.327 0.000 -14.397
v 5.329 0.000 -15.317
v 5.162 0.000 -14.953
v 4.245 0.000 -15.793
v 4.085 0.000 -15.427
v 4.212 0.000 -15.808
v 4.052 0.000 -15.441
v 4.127 0.000 -15.845
v 3.972 0.000 -15.476
v 3.872 0.000 -15.947
v 3.723 0.000 -15.576
v 2.921 0.000 -16.330
v 2.847 0.000 -16.151
v 2.951 0.000 -15.886
v 2.750 0.000 -16.402
v 0.892 0.000 -12.386
v 1.087 0.000 -11.855
v -2.100 0.000 -13.770
v -2.247 0.000 -13.397
v -3.376 0.000 -14.190
v -3.485 0.000 -13.805
v -5.692 0.000 -14.739
v -5.767 0.000 -14.346
v -8.031 0.000 -15.085
v -8.072 0.000 -14.687
v -10.372 0.000 -15.225
v -10.378 0.000 -14.825
v -12.692 0.000 -15.157
v -12.663 0.000 -14.757
v -13.926 0.000 -15.008
v -13.879 0.000 -14.610
v -14.971 0.000 -14.881
v -14.904 0.000 -14.486
v -17.196 0.000 -14.399
v -17.076 0.000 -14.016
v -18.121 0.000 -14.016
v -17.944 0.000 -13.657
v -18.969 0.000 -13.531
v -18.748 0.000 -13.197
v -19.735 0.000 -12.946
v -19.471 0.000 -12.645
v -20.406 0.000 -12.273
v -20.102 0.000 -12.010
v -20.972 0.000 -11.520
v -20.635 0.000 -11.302
v -21.424 0.000 -10.699
v -21.060 0.000 -10.530
v -21.757 0.000 -9.822
v -21.373 0.000 -9.706
v -21.964 0.000 -8.903
v -21.568 0.000 -8.842
v -22.043 0.000 -7.956
v -21.642 0.000 -7.949
v -21.992 0.000 -6.994
v -21.594 0.000 -7.041
v -21.813 0.000 -6.033
v -21.425 0.000 -6.131
v -21.506 0.000 -5.080
v -21.136 0.000 -5.237
v -20.432 0.000 -3.072
v -20.088 0.000 -3.278
v -19.167 0.000 -1.158
v -18.843 0.000 -1.394
v -17.716 0.000 0.654
v -17.415 0.000 0.391
v -16.094 0.000 2.348
v -15.817 0.000 2.058
v -14.315 0.000 3.906
v -14.064 0.000 3.594
v -12.397 0.000 5.315
v -12.174 0.000 4.982
v -11.250 0.000 6.015
v -11.061 0.000 5.662
v -8.258 0.000 7.399
v -7.727 0.000 7.204
v -10.114 0.000 11.412
v -9.592 0.000 11.235
v -9.042 0.000 11.976
v -8.856 0.000 11.622
v -8.799 0.000 12.104
v -8.619 0.000 11.747
v -8.683 0.000 12.161
v -8.508 0.000 11.801
v -8.508 0.000 12.246
v -8.333 0.000 11.886
v -7.623 0.000 12.676
v -7.454 0.000 12.313
v -6.429 0.000 13.210
v -6.271 0.000 12.843
v -5.327 0.000 13.662
v -5.175 0.000 13.292
v -5.219 0.000 13.706
v -5.073 0.000 13.334
v -3.994 0.000 14.163
v -3.860 0.000 13.786
v -2.757 0.000 14.581
v -2.635 0.000 14.199
v -1.509 0.000 14.958
v -1.399 0.000 14.573
v -0.255 0.000 15.293
v -0.178 0.000 15.012
v -0.151 0.000 14.907
v -0.251 0.000 15.294
v -0.184 0.000 15.310
v -0.093 0.000 14.920
v 1.015 0.000 15.589
v 1.100 0.000 15.198
v 2.287 0.000 15.843
v 2.359 0.000 15.450
v 3.563 0.000 16.055
v 3.622 0.000 15.659
v 4.842 0.000 16.225
v 4.888 0.000 15.827
v 6.511 0.000 16.387
v 6.533 0.000 15.987
v 6.973 0.000 16.391
v 6.977 0.000 15.992
v 8.180 0.000 16.402
v 8.166 0.000 16.002
v 9.826 0.000 16.269
v 9.775 0.000 15.872
v 11.433 0.000 15.989
v 11.345 0.000 15.598
v 11.524 0.000 15.964
v 11.419 0.000 15.578
v 12.985 0.000 15.564
v 12.861 0.000 15.184
v 14.470 0.000 14.999
v 14.309 0.000 14.632
v 15.871 0.000 14.299
v 15.674 0.000 13.950
v 17.178 0.000 13.470
v 16.946 0.000 13.144
v 18.376 0.000 12.521
v 18.111 0.000 12.220
v 19.456 0.000 11.459
v 19.160 0.000 11.189
v 20.406 0.000 10.296
v 20.082 0.000 10.060
v 21.227 0.000 9.027
v 20.861 0.000 8.858
v 21.637 0.000 7.663
v 21.254 0.000 7.548
v 21.662 0.000 7.580
v 21.273 0.000 7.486
v 21.933 0.000 6.102
v 21.536 0.000 6.051
v 22.043 0.000 4.592
v 21.642 0.000 4.585
v 21.990 0.000 3.064
v 21.591 0.000 3.099
v 21.776 0.000 1.532
v 21.383 0.000 1.608
v 21.402 0.000 0.010
v 21.018 0.000 0.125
v 20.871 0.000 -1.487
v 20.501 0.000 -1.335
v 20.189 0.000 -2.945
v 19.835 0.000 -2.758
v 19.362 0.000 -4.350
v 19.027 0.000 -4.132
v 18.398 0.000 -5.691
v 18.084 0.000 -5.442
v 17.608 0.000 -6.604
v 17.305 0.000 -6.342
v 17.306 0.000 -6.953
v 17.015 0.000 -6.677
v 16.329 0.000 -7.899
v 16.050 0.000 -7.612
v 16.101 0.000 -8.119
v 15.828 0.000 -7.827
v 15.435 0.000 -8.721
v 15.167 0.000 -8.424
v 15.143 0.000 -8.984
v 14.880 0.000 -8.683
v 14.155 0.000 -9.819
v 13.902 0.000 -9.510
v 13.138 0.000 -10.624
v 12.895 0.000 -10.306
v 12.149 0.000 -11.356
v 11.911 0.000 -11.035
v 12.094 0.000 -11.397
v 11.861 0.000 -11.072
v 11.970 0.000 -11.483
v 11.742 0.000 -11.154
v 10.795 0.000 -11.797
v 11.736 0.000 -11.146
v 9.710 0.000 -12.497
v 8.602 0.000 -13.163
v 7.821 0.000 -13.599
v 7.492 0.000 -13.782
v 7.472 0.000 -13.794
v 6.322 0.000 -14.388
v 5.158 0.000 -14.944
v 4.081 0.000 -15.417
v 4.048 0.000 -15.432
v 3.968 0.000 -15.467
v 3.720 0.000 -15.567
v 2.957 0.000 -15.873
v 1.092 0.000 -11.842
v -2.251 0.000 -13.388
v -3.488 0.000 -13.795
v -5.769 0.000 -14.336
v -8.073 0.000 -14.677
v -10.378 0.000 -14.815
v -12.662 0.000 -14.747
v -13.877 0.000 -14.601
v -14.903 0.000 -14.477
v -17.073 0.000 -14.006
v -17.940 0.000 -13.648
v -18.742 0.000 -13.188
v -19.464 0.000 -12.637
v -20.095 0.000 -12.004
v -20.626 0.000 -11.296
v -21.051 0.000 -10.526
v -21.363 0.000 -9.704
v -21.558 0.000 -8.840
v -21.632 0.000 -7.949
v -21.584 0.000 -7.043
v -21.415 0.000 -6.134
v -21.127 0.000 -5.241
v -20.080 0.000 -3.283
v -18.835 0.000 -1.400
v -17.407 0.000 0.384
v -15.810 0.000 2.051
v -14.058 0.000 3.586
v -12.168 0.000 4.974
v -11.057 0.000 5.653
v -7.714 0.000 7.199
v -9.579 0.000 11.231
v -8.851 0.000 11.613
v -8.614 0.000 11.738
v -8.504 0.000 11.792
v -8.329 0.000 11.877
v -7.449 0.000 12.304
v -6.267 0.000 12.833
v -5.171 0.000 13.283
v -5.069 0.000 13.324
v -3.857 0.000 13.777
v -2.632 0.000 14.190
v -1.396 0.000 14.563
v -0.149 0.000 14.897
v -0.091 0.000 14.910
v 1.102 0.000 15.189
v 2.360 0.000 15.440
v 3.623 0.000 15.649
v 4.889 0.000 15.817
v 6.533 0.000 15.977
v 6.977 0.000 15.982
v 8.166 0.000 15.992
v 9.774 0.000 15.862
v 11.343 0.000 15.588
v 11.416 0.000 15.568
v 12.858 0.000 15.174
v 14.305 0.000 14.623
v 15.669 0.000 13.942
v 16.940 0.000 13.136
v 18.104 0.000 12.213
v 19.152 0.000 11.183
v 20.074 0.000 10.054
v 20.851 0.000 8.853
v 21.244 0.000 7.545
v 21.263 0.000 7.483
v 21.526 0.000 6.050
v 21.632 0.000 4.584
v 21.581 0.000 3.100
v 21.373 0.000 1.610
v 21.008 0.000 0.128
v 20.491 0.000 -1.331
v 19.826 0.000 -2.754
v 19.018 0.000 -4.126
v 18.076 0.000 -5.436
v 17.298 0.000 -6.335
v 17.008 0.000 -6.671
v 16.043 0.000 -7.604
v 15.821 0.000 -7.820
v 15.160 0.000 -8.416
v 14.873 0.000 -8.675
v 13.896 0.000 -9.502
v 12.889 0.000 -10.298
v 11.905 0.000 -11.027
v 11.855 0.000 -11.064
v 10.795 0.400 -11.797
v 9.710 0.400 -12.497
v 8.602 0.400 -13.163
v 7.821 0.400 -13.599
v 7.492 0.400 -13.782
v 7.472 0.400 -13.794
v 6.322 0.400 -14.388
v 5.158 0.400 -14.944
v 4.081 0.400 -15.417
v 4.048 0.400 -15.432
v 3.968 0.400 -15.467
v 3.720 0.400 -15.567
v 2.957 0.400 -15.873
v 1.092 0.400 -11.842
v -2.251 0.400 -13.388
v -3.488 0.400 -13.795
v -5.769 0.400 -14.336
v -8.073 0.400 -14.677
v -10.378 0.400 -14.815
v -12.662 0.400 -14.747
v -13.877 0.400 -14.601
v -14.903 0.400 -14.477
v -17.073 0.400 -14.006
v -17.940 0.400 -13.648
v -18.742 0.400 -13.188
v -19.464 0.400 -12.637
v -20.095 0.400 -12.004
v -20.626 0.400 -11.296
v -21.051 0.400 -10.526
v -21.363 0.400 -9.704
v -21.558 0.400 -8.840
v -21.632 0.400 -7.949
v -21.584 0.400 -7.043
v -21.415 0.400 -6.134
v -21.127 0.400 -5.241
v -20.080 0.400 -3.283
v -18.835 0.400 -1.400
v -17.407 0.400 0.384
v -15.810 0.400 2.051
v -14.058 0.400 3.586
v -12.168 0.400 4.974
v -11.057 0.400 5.653
v -7.714 0.400 7.199
v -9.579 0.400 11.231
v -8.851 0.400 11.613
v -8.614 0.400 11.738
v -8.504 0.400 11.792
v -8.329 0.400 11.877
v -7.449 0.400 12.304
v -6.267 0.400 12.833
v -5.171 0.400 13.283
v -5.069 0.400 13.324
v -3.857 0.400 13.777
v -2.632 0.400 14.190
v -1.396 0.400 14.563
v -0.149 0.400 14.897
v -0.091 0.400 14.910
v 1.102 0.400 15.189
v 2.360 0.400 15.440
v 3.623 0.400 15.649
v 4.889 0.400 15.817
v 6.533 0.400 15.977
v 6.977 0.400 15.982
v 8.166 0.400 15.992
v 9.774 0.400 15.862
v 11.343 0.400 15.588
v 11.416 0.400 15.568
v 12.858 0.400 15.174
v 14.305 0.400 14.623
v 15.669 0.400 13.942
v 16.940 0.400 13.136
v 18.104 0.400 12.213
v 19.152 0.400 11.183
v 20.074 0.400 10.054
v 20.851 0.400 8.853
v 21.244 0.400 7.545
v 21.263 0.400 7.483
v 21.526 0.400 6.050
v 21.632 0.400 4.584
v 21.581 0.400 3.100
v 21.373 0.400 1.610
v 21.008 0.400 0.128
v 20.491 0.400 -1.331
v 19.826 0.400 -2.754
v 19.018 0.400 -4.126
v 18.076 0.400 -5.436
v 17.298 0.400 -6.335
v 17.008 0.400 -6.671
v 16.043 0.400 -7.604
v 15.821 0.400 -7.820
v 15.160 0.400 -8.416
v 14.873 0.400 -8.675
v 13.896 0.400 -9.502
v 12.889 0.400 -10.298
v 11.905 0.400 -11.027
v 11.855 0.400 -11.064
v 11.736 0.400 -11.146
# 392 vertices

vn 0.000 1.000 0.000
vn 0.000 -1.000 0.000
vn 0.542 0.000 -0.840
vn 0.515 0.000 -0.857
vn 0.488 0.000 -0.873
vn 0.491 0.000 -0.871
vn 0.459 0.000 -0.888
vn 0.431 0.000 -0.902
vn 0.402 0.000 -0.916
vn 0.401 0.000 -0.916
vn 0.373 0.000 -0.928
vn -0.908 0.000 -0.420
vn 0.420 0.000 -0.908
vn 0.313 0.000 -0.950
vn 0.231 0.000 -0.973
vn 0.146 0.000 -0.989
vn 0.060 0.000 -0.998
vn -0.029 0.000 -1.000
vn -0.120 0.000 -0.993
vn -0.212 0.000 -0.977
vn -0.382 0.000 -0.924
vn -0.497 0.000 -0.868
vn -0.607 0.000 -0.795
vn -0.709 0.000 -0.705
vn -0.799 0.000 -0.601
vn -0.876 0.000 -0.483
vn -0.935 0.000 -0.355
vn -0.976 0.000 -0.220
vn -0.997 0.000 -0.083
vn -0.999 0.000 0.053
vn -0.983 0.000 0.183
vn -0.952 0.000 0.307
vn -0.882 0.000 0.472
vn -0.834 0.000 0.551
vn -0.781 0.000 0.625
vn -0.722 0.000 0.692
vn -0.659 0.000 0.752
vn -0.592 0.000 0.806
vn -0.521 0.000 0.853
vn -0.420 0.000 0.908
vn -0.466 0.000 0.885
vn -0.438 0.000 0.899
vn -0.408 0.000 0.913
vn -0.379 0.000 0.925
vn -0.350 0.000 0.937
vn -0.320 0.000 0.948
vn -0.289 0.000 0.957
vn -0.258 0.000 0.966
vn -0.227 0.000 0.974
vn -0.196 0.000 0.981
vn -0.164 0.000 0.986
vn -0.132 0.000 0.991
vn -0.097 0.000 0.995
vn -0.009 0.000 1.000
vn 0.081 0.000 0.997
vn 0.172 0.000 0.985
vn 0.264 0.000 0.965
vn 0.356 0.000 0.935
vn 0.447 0.000 0.895
vn 0.536 0.000 0.844
vn 0.621 0.000 0.784
vn 0.701 0.000 0.713
vn 0.774 0.000 0.633
vn 0.839 0.000 0.544
vn 0.958 0.000 0.288
vn 0.984 0.000 0.181
vn 0.997 0.000 0.073
vn 0.999 0.000 -0.034
vn 0.990 0.000 -0.139
vn 0.971 0.000 -0.239
vn 0.943 0.000 -0.334
vn 0.906 0.000 -0.424
vn 0.862 0.000 -0.507
vn 0.812 0.000 -0.584
vn 0.756 0.000 -0.654
vn 0.696 0.000 -0.718
vn 0.670 0.000 -0.742
vn 0.646 0.000 -0.764
vn 0.621 0.000 -0.784
vn 0.595 0.000 -0.804
vn 0.569 0.000 -0.822
# 81 vertex normals

g CityEngineMaterial
s off
usemtl CityEngineMaterial
f 1//1 2//1 3//1 4//1
f 2//1 5//1 6//1 3//1
f 5//1 7//1 8//1 6//1
f 7//1 9//1 10//1 8//1
f 9//1 11//1 12//1 10//1
f 11//1 13//1 14//1 12//1
f 13//1 15//1 16//1 14//1
f 15//1 17//1 18//1 16//1
f 17//1 19//1 20//1 18//1
f 19//1 21//1 22//1 20//1
f 21//1 23//1 24//1 22//1
f 23//1 25//1 26//1 27//1 24//1
f 25//1 28//1 26//1
f 28//1 29//1 30//1 27//1 26//1
f 29//1 31//1 32//1 30//1
f 31//1 33//1 34//1 32//1
f 33//1 35//1 36//1 34//1
f 35//1 37//1 38//1 36//1
f 37//1 39//1 40//1 38//1
f 39//1 41//1 42//1 40//1
f 41//1 43//1 44//1 42//1
f 43//1 45//1 46//1 44//1
f 45//1 47//1 48//1 46//1
f 47//1 49//1 50//1 48//1
f 49//1 51//1 52//1 50//1
f 51//1 53//1 54//1 52//1
f 53//1 55//1 56//1 54//1
f 55//1 57//1 58//1 56//1
f 57//1 59//1 60//1 58//1
f 59//1 61//1 62//1 60//1
f 61//1 63//1 64//1 62//1
f 63//1 65//1 66//1 64//1
f 65//1 67//1 68//1 66//1
f 67//1 69//1 70//1 68//1
f 69//1 71//1 72//1 70//1
f 71//1 73//1 74//1 72//1
f 73//1 75//1 76//1 74//1
f 75//1 77//1 78//1 76//1
f 77//1 79//1 80//1 78//1
f 79//1 81//1 82//1 80//1
f 81//1 83//1 84//1 82//1
f 83//1 85//1 86//1 84//1
f 85//1 87//1 88//1 86//1
f 87//1 89//1 90//1 88//1
f 89//1 91//1 92//1 90//1
f 91//1 93//1 94//1 92//1
f 93//1 95//1 96//1 94//1
f 95//1 97//1 98//1 96//1
f 97//1 99//1 100//1 98//1
f 99//1 101//1 102//1 100//1
f 101//1 103//1 104//1 102//1
f 103//1 105//1 106//1 104//1
f 105//1 107//1 108//1 106//1
f 107//1 109//1 110//1 108//1
f 109//1 111//1 112//1 110//1
f 111//1 113//1 114//1 115//1 112//1
f 113//1 116//1 114//1
f 116//1 117//1 118//1 115//1 114//1
f 117//1 119//1 120//1 118//1
f 119//1 121//1 122//1 120//1
f 121//1 123//1 124//1 122//1
f 123//1 125//1 126//1 124//1
f 125//1 127//1 128//1 126//1
f 127//1 129//1 130//1 128//1
f 129//1 131//1 132//1 130//1
f 131//1 133//1 134//1 132//1
f 133//1 135//1 136//1 134//1
f 135//1 137//1 138//1 136//1
f 137//1 139//1 140//1 138//1
f 139//1 141//1 142//1 140//1
f 141//1 143//1 144//1 142//1
f 143//1 145//1 146//1 144//1
f 145//1 147//1 148//1 146//1
f 147//1 149//1 150//1 148//1
f 149//1 151//1 152//1 150//1
f 151//1 153//1 154//1 152//1
f 153//1 155//1 156//1 154//1
f 155//1 157//1 158//1 156//1
f 157//1 159//1 160//1 158//1
f 159//1 161//1 162//1 160//1
f 161//1 163//1 164//1 162//1
f 163//1 165//1 166//1 164//1
f 165//1 167//1 168//1 166//1
f 167//1 169//1 170//1 168//1
f 169//1 171//1 172//1 170//1
f 171//1 173//1 174//1 172//1
f 173//1 175//1 176//1 174//1
f 175//1 177//1 178//1 176//1
f 177//1 179//1 180//1 178//1
f 179//1 181//1 182//1 180//1
f 181//1 183//1 184//1 182//1
f 183//1 185//1 186//1 184//1
f 185//1 187//1 188//1 186//1
f 187//1 189//1 190//1 188//1
f 189//1 191//1 192//1 190//1
f 191//1 193//1 194//1 192//1
f 193//1 195//1 196//1 194//1
f 195//1 197//1 198//1 196//1
f 197//1 1//1 4//1 198//1
f 201//2 199//2 200//2 295//2 294//2 293//2 292//2 291//2 290//2 289//2 288//2 287//2 286//2 285//2 284//2 283//2 282//2 281//2 280//2 279//2 278//2 277//2 276//2 275//2 274//2 273//2 272//2 271//2 270//2 269//2 268//2 267//2 266//2 265//2 264//2 263//2 262//2 261//2 260//2 259//2 258//2 257//2 256//2 255//2 254//2 253//2 252//2 251//2 250//2 249//2 248//2 247//2 246//2 245//2 244//2 243//2 242//2 241//2 240//2 239//2 238//2 237//2 236//2 235//2 234//2 233//2 232//2 231//2 230//2 229//2 228//2 227//2 226//2 225//2 224//2 223//2 222//2 221//2 220//2 219//2 218//2 217//2 216//2 215//2 214//2 213//2 212//2 211//2 210//2 209//2 208//2 207//2 206//2 205//2 204//2 203//2 202//2
f 296//1 297//1 298//1 299//1 300//1 301//1 302//1 303//1 304//1 305//1 306//1 307//1 308//1 309//1 310//1 311//1 312//1 313//1 314//1 315//1 316//1 317//1 318//1 319//1 320//1 321//1 322//1 323//1 324//1 325//1 326//1 327//1 328//1 329//1 330//1 331//1 332//1 333//1 334//1 335//1 336//1 337//1 338//1 339//1 340//1 341//1 342//1 343//1 344//1 345//1 346//1 347//1 348//1 349//1 350//1 351//1 352//1 353//1 354//1 355//1 356//1 357//1 358//1 359//1 360//1 361//1 362//1 363//1 364//1 365//1 366//1 367//1 368//1 369//1 370//1 371//1 372//1 373//1 374//1 375//1 376//1 377//1 378//1 379//1 380//1 381//1 382//1 383//1 384//1 385//1 386//1 387//1 388//1 389//1 390//1 391//1 392//1
f 199//3 201//3 297//3 296//3
f 201//4 202//4 298//4 297//4
f 202//5 203//5 299//5 298//5
f 203//5 204//5 300//5 299//5
f 204//6 205//6 301//6 300//6
f 205//7 206//7 302//7 301//7
f 206//8 207//8 303//8 302//8
f 207//9 208//9 304//9 303//9
f 208//10 209//10 305//10 304//10
f 209//9 210//9 306//9 305//9
f 210//11 211//11 307//11 306//11
f 211//11 212//11 308//11 307//11
f 212//12 213//12 309//12 308//12
f 213//13 214//13 310//13 309//13
f 214//14 215//14 311//14 310//14
f 215//15 216//15 312//15 311//15
f 216//16 217//16 313//16 312//16
f 217//17 218//17 314//17 313//17
f 218//18 219//18 315//18 314//18
f 219//19 220//19 316//19 315//19
f 220//19 221//19 317//19 316//19
f 221//20 222//20 318//20 317//20
f 222//21 223//21 319//21 318//21
f 223//22 224//22 320//22 319//22
f 224//23 225//23 321//23 320//23
f 225//24 226//24 322//24 321//24
f 226//25 227//25 323//25 322//25
f 227//26 228//26 324//26 323//26
f 228//27 229//27 325//27 324//27
f 229//28 230//28 326//28 325//28
f 230//29 231//29 327//29 326//29
f 231//30 232//30 328//30 327//30
f 232//31 233//31 329//31 328//31
f 233//32 234//32 330//32 329//32
f 234//33 235//33 331//33 330//33
f 235//34 236//34 332//34 331//34
f 236//35 237//35 333//35 332//35
f 237//36 238//36 334//36 333//36
f 238//37 239//37 335//37 334//37
f 239//38 240//38 336//38 335//38
f 240//39 241//39 337//39 336//39
f 241//40 242//40 338//40 337//40
f 242//12 243//12 339//12 338//12
f 243//41 244//41 340//41 339//41
f 244//41 245//41 341//41 340//41
f 245//42 246//42 342//42 341//42
f 246//42 247//42 343//42 342//42
f 247//42 248//42 344//42 343//42
f 248//43 249//43 345//43 344//43
f 249//44 250//44 346//44 345//44
f 250//44 251//44 347//44 346//44
f 251//45 252//45 348//45 347//45
f 252//46 253//46 349//46 348//46
f 253//47 254//47 350//47 349//47
f 254//48 255//48 351//48 350//48
f 255//49 256//49 352//49 351//49
f 256//49 257//49 353//49 352//49
f 257//50 258//50 354//50 353//50
f 258//51 259//51 355//51 354//51
f 259//52 260//52 356//52 355//52
f 260//53 261//53 357//53 356//53
f 261//54 262//54 358//54 357//54
f 262//54 263//54 359//54 358//54
f 263//55 264//55 360//55 359//55
f 264//56 265//56 361//56 360//56
f 265//57 266//57 362//57 361//57
f 266//57 267//57 363//57 362//57
f 267//58 268//58 364//58 363//58
f 268//59 269//59 365//59 364//59
f 269//60 270//60 366//60 365//60
f 270//61 271//61 367//61 366//61
f 271//62 272//62 368//62 367//62
f 272//63 273//63 369//63 368//63
f 273//64 274//64 370//64 369//64
f 274//65 275//65 371//65 370//65
f 275//65 276//65 372//65 371//65
f 276//66 277//66 373//66 372//66
f 277//67 278//67 374//67 373//67
f 278//68 279//68 375//68 374//68
f 279//69 280//69 376//69 375//69
f 280//70 281//70 377//70 376//70
f 281//71 282//71 378//71 377//71
f 282//72 283//72 379//72 378//72
f 283//73 284//73 380//73 379//73
f 284//74 285//74 381//74 380//74
f 285//75 286//75 382//75 381//75
f 286//75 287//75 383//75 382//75
f 287//76 288//76 384//76 383//76
f 288//76 289//76 385//76 384//76
f 289//77 290//77 386//77 385//77
f 290//77 291//77 387//77 386//77
f 291//78 292//78 388//78 387//78
f 292//79 293//79 389//79 388//79
f 293//80 294//80 390//80 389//80
f 294//80 295//80 391//80 390//80
f 295//81 200//81 392//81 391//81
f 200//81 199//81 296//81 392//81
# 198 faces

