# created with CityEngine 2019.0.5403 0409R (based on Esri Procedural Runtime 2.0.5403, build date: Tue 04/09/2019 10:26 AM)
# creation date: Mon Mar 14 20:01:09 2022

mtllib 20220314_Building_interact_SGP.mtl

# mesh 'mesh_CityEngineMaterial_49' from geometry 'mesh_CityEngineMaterial_49'
v 3.392 0.000 35.240
v 9.342 0.000 32.931
v 9.133 0.000 32.583
v 3.320 0.000 34.839
v 14.655 0.000 28.379
v 14.353 0.000 28.111
v 18.970 0.000 21.892
v 18.612 0.000 21.708
v 21.992 0.000 13.913
v 21.604 0.000 13.808
v 23.515 0.000 4.986
v 23.115 0.000 4.954
v 23.436 0.000 -4.281
v 23.036 0.000 -4.242
v 21.760 0.000 -13.256
v 21.373 0.000 -13.145
v 18.600 0.000 -21.328
v 18.243 0.000 -21.141
v 16.386 0.000 -24.637
v 16.054 0.000 -24.414
v 14.173 0.000 -27.946
v 13.869 0.000 -27.679
v 8.780 0.000 -32.659
v 8.566 0.000 -32.315
v 2.789 0.000 -35.147
v 2.706 0.000 -34.748
v -1.010 0.000 -35.204
v -1.016 0.000 -34.804
v -3.392 0.000 -35.240
v -3.320 0.000 -34.839
v -3.761 0.000 -35.097
v -3.617 0.000 -34.724
v -4.210 0.000 -34.922
v -4.066 0.000 -34.549
v -9.342 0.000 -32.931
v -9.133 0.000 -32.583
v -14.655 0.000 -28.379
v -14.353 0.000 -28.111
v -18.970 0.000 -21.892
v -18.612 0.000 -21.708
v -21.992 0.000 -13.913
v -21.604 0.000 -13.808
v -22.139 0.000 -13.051
v -21.745 0.000 -12.984
v -23.515 0.000 -4.986
v -23.115 0.000 -4.954
v -23.436 0.000 4.281
v -23.036 0.000 4.242
v -21.759 0.000 13.256
v -21.373 0.000 13.145
v -18.600 0.000 21.328
v -18.243 0.000 21.141
v -14.172 0.000 27.946
v -13.869 0.000 27.679
v -8.780 0.000 32.659
v -8.566 0.000 32.315
v -2.789 0.000 35.147
v -2.706 0.000 34.748
v 3.318 0.000 34.829
v -2.704 0.000 34.738
v 9.128 0.000 32.575
v 14.345 0.000 28.105
v 18.603 0.000 21.704
v 21.595 0.000 13.805
v 23.105 0.000 4.953
v 23.026 0.000 -4.241
v 21.364 0.000 -13.143
v 18.234 0.000 -21.137
v 16.045 0.000 -24.409
v 13.862 0.000 -27.673
v 8.560 0.000 -32.306
v 2.704 0.000 -34.738
v -1.016 0.000 -34.794
v -3.318 0.000 -34.829
v -3.613 0.000 -34.714
v -4.062 0.000 -34.540
v -9.128 0.000 -32.575
v -14.345 0.000 -28.105
v -18.603 0.000 -21.704
v -21.595 0.000 -13.805
v -21.735 0.000 -12.982
v -23.105 0.000 -4.953
v -23.026 0.000 4.241
v -21.363 0.000 13.143
v -18.234 0.000 21.137
v -13.862 0.000 27.673
v -8.560 0.000 32.306
v 3.318 0.400 34.829
v 9.128 0.400 32.575
v 14.345 0.400 28.105
v 18.603 0.400 21.704
v 21.595 0.400 13.805
v 23.105 0.400 4.953
v 23.026 0.400 -4.241
v 21.364 0.400 -13.143
v 18.234 0.400 -21.137
v 16.045 0.400 -24.409
v 13.862 0.400 -27.673
v 8.560 0.400 -32.306
v 2.704 0.400 -34.738
v -1.016 0.400 -34.794
v -3.318 0.400 -34.829
v -3.613 0.400 -34.714
v -4.062 0.400 -34.540
v -9.128 0.400 -32.575
v -14.345 0.400 -28.105
v -18.603 0.400 -21.704
v -21.595 0.400 -13.805
v -21.735 0.400 -12.982
v -23.105 0.400 -4.953
v -23.026 0.400 4.241
v -21.363 0.400 13.143
v -18.234 0.400 21.137
v -13.862 0.400 27.673
v -8.560 0.400 32.306
v -2.704 0.400 34.738
# 116 vertices

vn 0.000 1.000 0.000
vn 0.000 -1.000 0.000
vn 0.362 0.000 0.932
vn 0.651 0.000 0.759
vn 0.833 0.000 0.554
vn 0.935 0.000 0.354
vn 0.986 0.000 0.168
vn 1.000 0.000 -0.009
vn 0.983 0.000 -0.184
vn 0.931 0.000 -0.365
vn 0.831 0.000 -0.556
vn 0.658 0.000 -0.753
vn 0.384 0.000 -0.924
vn 0.015 0.000 -1.000
vn -0.362 0.000 -0.932
vn -0.651 0.000 -0.759
vn -0.833 0.000 -0.554
vn -0.935 0.000 -0.354
vn -0.986 0.000 -0.168
vn -1.000 0.000 0.009
vn -0.983 0.000 0.184
vn -0.931 0.000 0.365
vn -0.831 0.000 0.556
vn -0.658 0.000 0.753
vn -0.384 0.000 0.924
vn -0.015 0.000 1.000
# 26 vertex normals

g CityEngineMaterial
s off
usemtl CityEngineMaterial
f 1//1 2//1 3//1 4//1
f 2//1 5//1 6//1 3//1
f 5//1 7//1 8//1 6//1
f 7//1 9//1 10//1 8//1
f 9//1 11//1 12//1 10//1
f 11//1 13//1 14//1 12//1
f 13//1 15//1 16//1 14//1
f 15//1 17//1 18//1 16//1
f 17//1 19//1 20//1 18//1
f 19//1 21//1 22//1 20//1
f 21//1 23//1 24//1 22//1
f 23//1 25//1 26//1 24//1
f 25//1 27//1 28//1 26//1
f 27//1 29//1 30//1 28//1
f 29//1 31//1 32//1 30//1
f 31//1 33//1 34//1 32//1
f 33//1 35//1 36//1 34//1
f 35//1 37//1 38//1 36//1
f 37//1 39//1 40//1 38//1
f 39//1 41//1 42//1 40//1
f 41//1 43//1 44//1 42//1
f 43//1 45//1 46//1 44//1
f 45//1 47//1 48//1 46//1
f 47//1 49//1 50//1 48//1
f 49//1 51//1 52//1 50//1
f 51//1 53//1 54//1 52//1
f 53//1 55//1 56//1 54//1
f 55//1 57//1 58//1 56//1
f 57//1 1//1 4//1 58//1
f 61//2 59//2 60//2 87//2 86//2 85//2 84//2 83//2 82//2 81//2 80//2 79//2 78//2 77//2 76//2 75//2 74//2 73//2 72//2 71//2 70//2 69//2 68//2 67//2 66//2 65//2 64//2 63//2 62//2
f 88//1 89//1 90//1 91//1 92//1 93//1 94//1 95//1 96//1 97//1 98//1 99//1 100//1 101//1 102//1 103//1 104//1 105//1 106//1 107//1 108//1 109//1 110//1 111//1 112//1 113//1 114//1 115//1 116//1
f 59//3 61//3 89//3 88//3
f 61//4 62//4 90//4 89//4
f 62//5 63//5 91//5 90//5
f 63//6 64//6 92//6 91//6
f 64//7 65//7 93//7 92//7
f 65//8 66//8 94//8 93//8
f 66//9 67//9 95//9 94//9
f 67//10 68//10 96//10 95//10
f 68//11 69//11 97//11 96//11
f 69//11 70//11 98//11 97//11
f 70//12 71//12 99//12 98//12
f 71//13 72//13 100//13 99//13
f 72//14 73//14 101//14 100//14
f 73//14 74//14 102//14 101//14
f 74//15 75//15 103//15 102//15
f 75//15 76//15 104//15 103//15
f 76//15 77//15 105//15 104//15
f 77//16 78//16 106//16 105//16
f 78//17 79//17 107//17 106//17
f 79//18 80//18 108//18 107//18
f 80//19 81//19 109//19 108//19
f 81//19 82//19 110//19 109//19
f 82//20 83//20 111//20 110//20
f 83//21 84//21 112//21 111//21
f 84//22 85//22 113//22 112//22
f 85//23 86//23 114//23 113//23
f 86//24 87//24 115//24 114//24
f 87//25 60//25 116//25 115//25
f 60//26 59//26 88//26 116//26
# 60 faces

