# created with CityEngine 2019.0.5403 0409R (based on Esri Procedural Runtime 2.0.5403, build date: Tue 04/09/2019 10:26 AM)
# creation date: Mon Mar 14 20:01:07 2022

mtllib 20220314_Building_interact_SGP.mtl

# mesh 'mesh_CityEngineMaterial_22' from geometry 'mesh_CityEngineMaterial_22'
v -6.624 0.000 14.392
v -6.183 0.000 14.390
v -6.203 0.000 13.990
v -6.609 0.000 13.992
v -5.744 0.000 14.349
v -5.798 0.000 13.952
v -5.225 0.000 14.255
v -5.348 0.000 13.871
v 5.515 0.000 9.219
v 5.246 0.000 8.903
v 10.171 0.000 2.379
v 9.823 0.000 2.179
v 10.622 0.000 1.440
v 10.254 0.000 1.282
v 10.982 0.000 0.499
v 10.602 0.000 0.371
v 11.264 0.000 -0.469
v 10.876 0.000 -0.565
v 11.466 0.000 -1.456
v 11.071 0.000 -1.520
v 11.587 0.000 -2.457
v 11.188 0.000 -2.488
v 11.626 0.000 -3.464
v 11.225 0.000 -3.463
v 11.582 0.000 -4.471
v 11.183 0.000 -4.437
v 11.456 0.000 -5.471
v 11.062 0.000 -5.404
v 11.249 0.000 -6.457
v 10.861 0.000 -6.359
v 10.963 0.000 -7.423
v 10.584 0.000 -7.294
v 10.598 0.000 -8.363
v 10.231 0.000 -8.202
v 10.139 0.000 -9.308
v 9.793 0.000 -9.103
v 10.037 0.000 -9.451
v 9.711 0.000 -9.218
v 9.736 0.000 -9.871
v 9.418 0.000 -9.629
v 9.336 0.000 -10.367
v 9.032 0.000 -10.107
v 8.908 0.000 -10.839
v 8.620 0.000 -10.562
v 8.554 0.000 -11.187
v 8.274 0.000 -10.901
v 8.453 0.000 -11.286
v 8.181 0.000 -10.992
v 7.973 0.000 -11.705
v 7.719 0.000 -11.396
v 7.469 0.000 -12.095
v 7.233 0.000 -11.772
v 6.944 0.000 -12.456
v 6.727 0.000 -12.119
v 6.398 0.000 -12.785
v 6.201 0.000 -12.437
v 5.834 0.000 -13.082
v 5.658 0.000 -12.723
v 5.254 0.000 -13.346
v 5.099 0.000 -12.977
v 4.659 0.000 -13.575
v 4.526 0.000 -13.198
v 4.066 0.000 -13.765
v 3.949 0.000 -13.383
v 1.948 0.000 -14.376
v 1.887 0.000 -13.978
v 1.322 0.000 -14.392
v 1.320 0.000 -13.992
v 0.804 0.000 -14.384
v 0.818 0.000 -13.984
v 0.286 0.000 -14.356
v 0.316 0.000 -13.957
v -0.230 0.000 -14.307
v -0.184 0.000 -13.909
v -0.744 0.000 -14.237
v -0.682 0.000 -13.842
v -1.254 0.000 -14.147
v -1.177 0.000 -13.754
v -1.761 0.000 -14.036
v -1.668 0.000 -13.647
v -2.263 0.000 -13.905
v -2.154 0.000 -13.520
v -2.759 0.000 -13.755
v -2.635 0.000 -13.374
v -3.248 0.000 -13.584
v -3.109 0.000 -13.209
v -3.731 0.000 -13.394
v -3.577 0.000 -13.025
v -4.196 0.000 -13.189
v -4.031 0.000 -12.825
v -5.758 0.000 -12.463
v -5.581 0.000 -12.105
v -6.063 0.000 -12.303
v -5.859 0.000 -11.958
v -6.370 0.000 -12.101
v -6.134 0.000 -11.777
v -6.657 0.000 -11.869
v -6.390 0.000 -11.570
v -6.919 0.000 -11.611
v -6.625 0.000 -11.339
v -7.155 0.000 -11.328
v -6.836 0.000 -11.086
v -7.363 0.000 -11.023
v -7.021 0.000 -10.814
v -7.539 0.000 -10.699
v -7.178 0.000 -10.525
v -7.683 0.000 -10.360
v -7.307 0.000 -10.222
v -7.793 0.000 -10.008
v -7.405 0.000 -9.908
v -7.868 0.000 -9.647
v -7.472 0.000 -9.585
v -7.907 0.000 -9.281
v -7.507 0.000 -9.258
v -7.911 0.000 -8.819
v -7.511 0.000 -8.873
v -5.443 0.000 -0.127
v -5.006 0.000 -0.052
v -10.976 0.000 7.715
v -10.642 0.000 7.936
v -11.191 0.000 8.060
v -10.839 0.000 8.252
v -11.365 0.000 8.426
v -10.994 0.000 8.577
v -11.497 0.000 8.810
v -11.111 0.000 8.919
v -11.584 0.000 9.207
v -11.188 0.000 9.271
v -11.626 0.000 9.611
v -11.226 0.000 9.629
v -11.621 0.000 10.017
v -11.222 0.000 9.990
v -11.571 0.000 10.420
v -11.177 0.000 10.348
v -11.475 0.000 10.814
v -11.092 0.000 10.698
v -11.335 0.000 11.196
v -10.968 0.000 11.036
v -11.153 0.000 11.559
v -10.806 0.000 11.359
v -10.931 0.000 11.898
v -10.608 0.000 11.660
v -10.671 0.000 12.211
v -10.371 0.000 11.947
v -10.127 0.000 12.795
v -9.841 0.000 12.516
v -9.828 0.000 13.089
v -9.560 0.000 12.792
v -9.488 0.000 13.370
v -9.247 0.000 13.051
v -9.125 0.000 13.621
v -8.913 0.000 13.281
v -8.742 0.000 13.838
v -8.559 0.000 13.482
v -8.341 0.000 14.022
v -8.190 0.000 13.651
v -7.925 0.000 14.170
v -7.807 0.000 13.788
v -7.499 0.000 14.282
v -7.414 0.000 13.891
v -7.064 0.000 14.356
v -7.014 0.000 13.959
v -6.608 0.000 13.982
v -7.013 0.000 13.949
v -6.203 0.000 13.980
v -5.799 0.000 13.942
v -5.351 0.000 13.861
v 5.239 0.000 8.895
v 9.815 0.000 2.174
v 10.245 0.000 1.278
v 10.593 0.000 0.368
v 10.866 0.000 -0.568
v 11.061 0.000 -1.522
v 11.178 0.000 -2.489
v 11.215 0.000 -3.463
v 11.173 0.000 -4.436
v 11.052 0.000 -5.403
v 10.852 0.000 -6.356
v 10.574 0.000 -7.290
v 10.222 0.000 -8.198
v 9.785 0.000 -9.098
v 9.703 0.000 -9.212
v 9.410 0.000 -9.623
v 9.025 0.000 -10.100
v 8.613 0.000 -10.555
v 8.267 0.000 -10.894
v 8.175 0.000 -10.985
v 7.712 0.000 -11.388
v 7.228 0.000 -11.764
v 6.722 0.000 -12.111
v 6.196 0.000 -12.428
v 5.654 0.000 -12.714
v 5.095 0.000 -12.968
v 4.523 0.000 -13.188
v 3.946 0.000 -13.373
v 1.885 0.000 -13.968
v 1.320 0.000 -13.982
v 0.818 0.000 -13.974
v 0.317 0.000 -13.947
v -0.183 0.000 -13.899
v -0.680 0.000 -13.832
v -1.175 0.000 -13.744
v -1.665 0.000 -13.637
v -2.151 0.000 -13.511
v -2.632 0.000 -13.365
v -3.106 0.000 -13.200
v -3.573 0.000 -13.016
v -4.027 0.000 -12.816
v -5.576 0.000 -12.096
v -5.854 0.000 -11.950
v -6.128 0.000 -11.769
v -6.383 0.000 -11.563
v -6.617 0.000 -11.333
v -6.828 0.000 -11.080
v -7.012 0.000 -10.809
v -7.169 0.000 -10.521
v -7.297 0.000 -10.218
v -7.395 0.000 -9.905
v -7.462 0.000 -9.584
v -7.497 0.000 -9.257
v -7.501 0.000 -8.874
v -4.995 0.000 -0.050
v -10.634 0.000 7.942
v -10.831 0.000 8.257
v -10.985 0.000 8.581
v -11.101 0.000 8.921
v -11.179 0.000 9.272
v -11.216 0.000 9.630
v -11.212 0.000 9.989
v -11.167 0.000 10.346
v -11.082 0.000 10.695
v -10.958 0.000 11.032
v -10.797 0.000 11.354
v -10.600 0.000 11.654
v -10.363 0.000 11.940
v -9.833 0.000 12.509
v -9.553 0.000 12.785
v -9.241 0.000 13.043
v -8.907 0.000 13.273
v -8.555 0.000 13.473
v -8.186 0.000 13.642
v -7.804 0.000 13.778
v -7.412 0.000 13.881
v -6.608 0.400 13.982
v -6.203 0.400 13.980
v -5.799 0.400 13.942
v -5.351 0.400 13.861
v 5.239 0.400 8.895
v 9.815 0.400 2.174
v 10.245 0.400 1.278
v 10.593 0.400 0.368
v 10.866 0.400 -0.568
v 11.061 0.400 -1.522
v 11.178 0.400 -2.489
v 11.215 0.400 -3.463
v 11.173 0.400 -4.436
v 11.052 0.400 -5.403
v 10.852 0.400 -6.356
v 10.574 0.400 -7.290
v 10.222 0.400 -8.198
v 9.785 0.400 -9.098
v 9.703 0.400 -9.212
v 9.410 0.400 -9.623
v 9.025 0.400 -10.100
v 8.613 0.400 -10.555
v 8.267 0.400 -10.894
v 8.175 0.400 -10.985
v 7.712 0.400 -11.388
v 7.228 0.400 -11.764
v 6.722 0.400 -12.111
v 6.196 0.400 -12.428
v 5.654 0.400 -12.714
v 5.095 0.400 -12.968
v 4.523 0.400 -13.188
v 3.946 0.400 -13.373
v 1.885 0.400 -13.968
v 1.320 0.400 -13.982
v 0.818 0.400 -13.974
v 0.317 0.400 -13.947
v -0.183 0.400 -13.899
v -0.680 0.400 -13.832
v -1.175 0.400 -13.744
v -1.665 0.400 -13.637
v -2.151 0.400 -13.511
v -2.632 0.400 -13.365
v -3.106 0.400 -13.200
v -3.573 0.400 -13.016
v -4.027 0.400 -12.816
v -5.576 0.400 -12.096
v -5.854 0.400 -11.950
v -6.128 0.400 -11.769
v -6.383 0.400 -11.563
v -6.617 0.400 -11.333
v -6.828 0.400 -11.080
v -7.012 0.400 -10.809
v -7.169 0.400 -10.521
v -7.297 0.400 -10.218
v -7.395 0.400 -9.905
v -7.462 0.400 -9.584
v -7.497 0.400 -9.257
v -7.501 0.400 -8.874
v -4.995 0.400 -0.050
v -10.634 0.400 7.942
v -10.831 0.400 8.257
v -10.985 0.400 8.581
v -11.101 0.400 8.921
v -11.179 0.400 9.272
v -11.216 0.400 9.630
v -11.212 0.400 9.989
v -11.167 0.400 10.346
v -11.082 0.400 10.695
v -10.958 0.400 11.032
v -10.797 0.400 11.354
v -10.600 0.400 11.654
v -10.363 0.400 11.940
v -9.833 0.400 12.509
v -9.553 0.400 12.785
v -9.241 0.400 13.043
v -8.907 0.400 13.273
v -8.555 0.400 13.473
v -8.186 0.400 13.642
v -7.804 0.400 13.778
v -7.412 0.400 13.881
v -7.013 0.400 13.949
# 324 vertices

vn 0.000 1.000 0.000
vn 0.000 -1.000 0.000
vn 0.005 0.000 1.000
vn 0.092 0.000 0.996
vn 0.178 0.000 0.984
vn 0.425 0.000 0.905
vn 0.827 0.000 0.563
vn 0.902 0.000 0.433
vn 0.934 0.000 0.357
vn 0.960 0.000 0.280
vn 0.980 0.000 0.201
vn 0.993 0.000 0.120
vn 0.999 0.000 0.039
vn 0.999 0.000 -0.043
vn 0.992 0.000 -0.125
vn 0.979 0.000 -0.205
vn 0.959 0.000 -0.285
vn 0.932 0.000 -0.362
vn 0.899 0.000 -0.437
vn 0.814 0.000 -0.581
vn 0.779 0.000 -0.628
vn 0.741 0.000 -0.672
vn 0.700 0.000 -0.714
vn 0.658 0.000 -0.753
vn 0.613 0.000 -0.790
vn 0.566 0.000 -0.825
vn 0.517 0.000 -0.856
vn 0.466 0.000 -0.885
vn 0.414 0.000 -0.910
vn 0.360 0.000 -0.933
vn 0.305 0.000 -0.952
vn 0.277 0.000 -0.961
vn 0.025 0.000 -1.000
vn -0.015 0.000 -1.000
vn -0.055 0.000 -0.999
vn -0.095 0.000 -0.995
vn -0.134 0.000 -0.991
vn -0.174 0.000 -0.985
vn -0.213 0.000 -0.977
vn -0.252 0.000 -0.968
vn -0.291 0.000 -0.957
vn -0.329 0.000 -0.944
vn -0.366 0.000 -0.931
vn -0.403 0.000 -0.915
vn -0.421 0.000 -0.907
vn -0.465 0.000 -0.885
vn -0.550 0.000 -0.835
vn -0.629 0.000 -0.778
vn -0.702 0.000 -0.713
vn -0.768 0.000 -0.640
vn -0.827 0.000 -0.562
vn -0.878 0.000 -0.478
vn -0.921 0.000 -0.390
vn -0.955 0.000 -0.298
vn -0.979 0.000 -0.204
vn -0.994 0.000 -0.107
vn -1.000 0.000 -0.009
vn -0.962 0.000 0.273
vn -0.817 0.000 -0.576
vn -0.849 0.000 -0.529
vn -0.903 0.000 -0.430
vn -0.946 0.000 -0.324
vn -0.977 0.000 -0.215
vn -0.995 0.000 -0.103
vn -1.000 0.000 0.011
vn -0.992 0.000 0.124
vn -0.972 0.000 0.236
vn -0.939 0.000 0.345
vn -0.894 0.000 0.449
vn -0.837 0.000 0.548
vn -0.769 0.000 0.639
vn -0.732 0.000 0.681
vn -0.701 0.000 0.713
vn -0.637 0.000 0.771
vn -0.568 0.000 0.823
vn -0.494 0.000 0.869
vn -0.417 0.000 0.909
vn -0.336 0.000 0.942
vn -0.253 0.000 0.967
vn -0.168 0.000 0.986
vn -0.082 0.000 0.997
# 81 vertex normals

g CityEngineMaterial
s off
usemtl CityEngineMaterial
f 1//1 2//1 3//1 4//1
f 2//1 5//1 6//1 3//1
f 5//1 7//1 8//1 6//1
f 7//1 9//1 10//1 8//1
f 9//1 11//1 12//1 10//1
f 11//1 13//1 14//1 12//1
f 13//1 15//1 16//1 14//1
f 15//1 17//1 18//1 16//1
f 17//1 19//1 20//1 18//1
f 19//1 21//1 22//1 20//1
f 21//1 23//1 24//1 22//1
f 23//1 25//1 26//1 24//1
f 25//1 27//1 28//1 26//1
f 27//1 29//1 30//1 28//1
f 29//1 31//1 32//1 30//1
f 31//1 33//1 34//1 32//1
f 33//1 35//1 36//1 34//1
f 35//1 37//1 38//1 36//1
f 37//1 39//1 40//1 38//1
f 39//1 41//1 42//1 40//1
f 41//1 43//1 44//1 42//1
f 43//1 45//1 46//1 44//1
f 45//1 47//1 48//1 46//1
f 47//1 49//1 50//1 48//1
f 49//1 51//1 52//1 50//1
f 51//1 53//1 54//1 52//1
f 53//1 55//1 56//1 54//1
f 55//1 57//1 58//1 56//1
f 57//1 59//1 60//1 58//1
f 59//1 61//1 62//1 60//1
f 61//1 63//1 64//1 62//1
f 63//1 65//1 66//1 64//1
f 65//1 67//1 68//1 66//1
f 67//1 69//1 70//1 68//1
f 69//1 71//1 72//1 70//1
f 71//1 73//1 74//1 72//1
f 73//1 75//1 76//1 74//1
f 75//1 77//1 78//1 76//1
f 77//1 79//1 80//1 78//1
f 79//1 81//1 82//1 80//1
f 81//1 83//1 84//1 82//1
f 83//1 85//1 86//1 84//1
f 85//1 87//1 88//1 86//1
f 87//1 89//1 90//1 88//1
f 89//1 91//1 92//1 90//1
f 91//1 93//1 94//1 92//1
f 93//1 95//1 96//1 94//1
f 95//1 97//1 98//1 96//1
f 97//1 99//1 100//1 98//1
f 99//1 101//1 102//1 100//1
f 101//1 103//1 104//1 102//1
f 103//1 105//1 106//1 104//1
f 105//1 107//1 108//1 106//1
f 107//1 109//1 110//1 108//1
f 109//1 111//1 112//1 110//1
f 111//1 113//1 114//1 112//1
f 113//1 115//1 116//1 114//1
f 115//1 117//1 118//1 116//1
f 117//1 119//1 120//1 118//1
f 119//1 121//1 122//1 120//1
f 121//1 123//1 124//1 122//1
f 123//1 125//1 126//1 124//1
f 125//1 127//1 128//1 126//1
f 127//1 129//1 130//1 128//1
f 129//1 131//1 132//1 130//1
f 131//1 133//1 134//1 132//1
f 133//1 135//1 136//1 134//1
f 135//1 137//1 138//1 136//1
f 137//1 139//1 140//1 138//1
f 139//1 141//1 142//1 140//1
f 141//1 143//1 144//1 142//1
f 143//1 145//1 146//1 144//1
f 145//1 147//1 148//1 146//1
f 147//1 149//1 150//1 148//1
f 149//1 151//1 152//1 150//1
f 151//1 153//1 154//1 152//1
f 153//1 155//1 156//1 154//1
f 155//1 157//1 158//1 156//1
f 157//1 159//1 160//1 158//1
f 159//1 161//1 162//1 160//1
f 161//1 1//1 4//1 162//1
f 165//2 163//2 164//2 243//2 242//2 241//2 240//2 239//2 238//2 237//2 236//2 235//2 234//2 233//2 232//2 231//2 230//2 229//2 228//2 227//2 226//2 225//2 224//2 223//2 222//2 221//2 220//2 219//2 218//2 217//2 216//2 215//2 214//2 213//2 212//2 211//2 210//2 209//2 208//2 207//2 206//2 205//2 204//2 203//2 202//2 201//2 200//2 199//2 198//2 197//2 196//2 195//2 194//2 193//2 192//2 191//2 190//2 189//2 188//2 187//2 186//2 185//2 184//2 183//2 182//2 181//2 180//2 179//2 178//2 177//2 176//2 175//2 174//2 173//2 172//2 171//2 170//2 169//2 168//2 167//2 166//2
f 244//1 245//1 246//1 247//1 248//1 249//1 250//1 251//1 252//1 253//1 254//1 255//1 256//1 257//1 258//1 259//1 260//1 261//1 262//1 263//1 264//1 265//1 266//1 267//1 268//1 269//1 270//1 271//1 272//1 273//1 274//1 275//1 276//1 277//1 278//1 279//1 280//1 281//1 282//1 283//1 284//1 285//1 286//1 287//1 288//1 289//1 290//1 291//1 292//1 293//1 294//1 295//1 296//1 297//1 298//1 299//1 300//1 301//1 302//1 303//1 304//1 305//1 306//1 307//1 308//1 309//1 310//1 311//1 312//1 313//1 314//1 315//1 316//1 317//1 318//1 319//1 320//1 321//1 322//1 323//1 324//1
f 163//3 165//3 245//3 244//3
f 165//4 166//4 246//4 245//4
f 166//5 167//5 247//5 246//5
f 167//6 168//6 248//6 247//6
f 168//7 169//7 249//7 248//7
f 169//8 170//8 250//8 249//8
f 170//9 171//9 251//9 250//9
f 171//10 172//10 252//10 251//10
f 172//11 173//11 253//11 252//11
f 173//12 174//12 254//12 253//12
f 174//13 175//13 255//13 254//13
f 175//14 176//14 256//14 255//14
f 176//15 177//15 257//15 256//15
f 177//16 178//16 258//16 257//16
f 178//17 179//17 259//17 258//17
f 179//18 180//18 260//18 259//18
f 180//19 181//19 261//19 260//19
f 181//20 182//20 262//20 261//20
f 182//20 183//20 263//20 262//20
f 183//21 184//21 264//21 263//21
f 184//22 185//22 265//22 264//22
f 185//23 186//23 266//23 265//23
f 186//23 187//23 267//23 266//23
f 187//24 188//24 268//24 267//24
f 188//25 189//25 269//25 268//25
f 189//26 190//26 270//26 269//26
f 190//27 191//27 271//27 270//27
f 191//28 192//28 272//28 271//28
f 192//29 193//29 273//29 272//29
f 193//30 194//30 274//30 273//30
f 194//31 195//31 275//31 274//31
f 195//32 196//32 276//32 275//32
f 196//33 197//33 277//33 276//33
f 197//34 198//34 278//34 277//34
f 198//35 199//35 279//35 278//35
f 199//36 200//36 280//36 279//36
f 200//37 201//37 281//37 280//37
f 201//38 202//38 282//38 281//38
f 202//39 203//39 283//39 282//39
f 203//40 204//40 284//40 283//40
f 204//41 205//41 285//41 284//41
f 205//42 206//42 286//42 285//42
f 206//43 207//43 287//43 286//43
f 207//44 208//44 288//44 287//44
f 208//45 209//45 289//45 288//45
f 209//46 210//46 290//46 289//46
f 210//47 211//47 291//47 290//47
f 211//48 212//48 292//48 291//48
f 212//49 213//49 293//49 292//49
f 213//50 214//50 294//50 293//50
f 214//51 215//51 295//51 294//51
f 215//52 216//52 296//52 295//52
f 216//53 217//53 297//53 296//53
f 217//54 218//54 298//54 297//54
f 218//55 219//55 299//55 298//55
f 219//56 220//56 300//56 299//56
f 220//57 221//57 301//57 300//57
f 221//58 222//58 302//58 301//58
f 222//59 223//59 303//59 302//59
f 223//60 224//60 304//60 303//60
f 224//61 225//61 305//61 304//61
f 225//62 226//62 306//62 305//62
f 226//63 227//63 307//63 306//63
f 227//64 228//64 308//64 307//64
f 228//65 229//65 309//65 308//65
f 229//66 230//66 310//66 309//66
f 230//67 231//67 311//67 310//67
f 231//68 232//68 312//68 311//68
f 232//69 233//69 313//69 312//69
f 233//70 234//70 314//70 313//70
f 234//71 235//71 315//71 314//71
f 235//72 236//72 316//72 315//72
f 236//73 237//73 317//73 316//73
f 237//74 238//74 318//74 317//74
f 238//75 239//75 319//75 318//75
f 239//76 240//76 320//76 319//76
f 240//77 241//77 321//77 320//77
f 241//78 242//78 322//78 321//78
f 242//79 243//79 323//79 322//79
f 243//80 164//80 324//80 323//80
f 164//81 163//81 244//81 324//81
# 164 faces

