# created with CityEngine 2019.0.5403 0409R (based on Esri Procedural Runtime 2.0.5403, build date: Tue 04/09/2019 10:26 AM)
# creation date: Mon Mar 14 20:01:10 2022

mtllib 20220314_Building_interact_SGP.mtl

# mesh 'mesh_CityEngineMaterial_63' from geometry 'mesh_CityEngineMaterial_63'
v -83.966 0.000 -82.008
v -39.587 0.000 -17.042
v -39.356 0.000 -17.413
v -83.420 0.000 -81.918
v -33.737 0.000 -16.209
v -33.650 0.000 -16.600
v -30.815 0.000 -15.320
v -30.565 0.000 -15.662
v -27.879 0.000 -11.037
v -27.775 0.000 -11.593
v -27.530 0.000 -11.276
v -27.420 0.000 -11.836
v -17.928 0.000 3.343
v -17.813 0.000 2.789
v -13.749 0.000 0.598
v -13.634 0.000 0.044
v -3.313 0.000 16.487
v -2.759 0.000 16.602
v -7.492 0.000 19.232
v -6.938 0.000 19.347
v 2.763 0.000 34.844
v 3.086 0.000 34.607
v 18.319 0.000 53.904
v 18.634 0.000 53.657
v 31.283 0.000 71.143
v 31.641 0.000 70.953
v 33.273 0.000 76.966
v 33.642 0.000 76.810
v 36.682 0.000 83.675
v 37.026 0.000 83.469
v 41.001 0.000 89.839
v 41.312 0.000 89.587
v 46.142 0.000 95.335
v 46.415 0.000 95.042
v 52.001 0.000 100.052
v 51.934 0.000 99.484
v 55.182 0.000 95.931
v 55.081 0.000 95.408
v 58.276 0.000 97.748
v 58.053 0.000 97.154
v 58.573 0.000 96.861
v 58.303 0.000 96.408
v 65.270 0.000 98.032
v 65.333 0.000 97.637
v 66.598 0.000 98.220
v 66.641 0.000 97.822
v 67.943 0.000 98.319
v 67.960 0.000 97.919
v 69.292 0.000 98.330
v 69.282 0.000 97.930
v 70.638 0.000 98.252
v 70.602 0.000 97.853
v 71.976 0.000 98.085
v 71.914 0.000 97.690
v 73.301 0.000 97.830
v 73.212 0.000 97.440
v 74.605 0.000 97.489
v 74.491 0.000 97.105
v 75.884 0.000 97.062
v 75.745 0.000 96.687
v 77.133 0.000 96.552
v 76.969 0.000 96.186
v 78.345 0.000 95.960
v 78.157 0.000 95.606
v 79.515 0.000 95.290
v 79.305 0.000 94.949
v 80.632 0.000 94.548
v 80.401 0.000 94.221
v 85.751 0.000 90.693
v 85.209 0.000 90.601
v 65.256 0.000 60.016
v 64.862 0.000 60.146
v 65.171 0.000 58.221
v 64.773 0.000 58.268
v 63.763 0.000 50.828
v 63.375 0.000 50.931
v 61.329 0.000 43.706
v 60.960 0.000 43.862
v 57.920 0.000 36.997
v 57.576 0.000 37.203
v 53.601 0.000 30.833
v 53.530 0.000 30.891
v 53.485 0.000 31.363
v 53.533 0.000 30.760
v 51.554 0.000 32.676
v 51.794 0.000 33.000
v 48.856 0.000 34.177
v 48.722 0.000 34.709
v 39.534 0.000 19.632
v 39.200 0.000 19.853
v 25.260 0.000 -1.189
v 24.924 0.000 -0.972
v -8.527 0.000 -57.195
v -8.864 0.000 -56.980
v -10.245 0.000 -59.740
v -10.572 0.000 -59.510
v -12.062 0.000 -62.219
v -12.380 0.000 -61.976
v -13.975 0.000 -64.624
v -14.283 0.000 -64.369
v -15.978 0.000 -66.950
v -16.277 0.000 -66.685
v -21.016 0.000 -72.498
v -21.652 0.000 -72.604
v -19.063 0.000 -73.571
v -19.667 0.000 -73.696
v -23.746 0.000 -79.592
v -24.044 0.000 -79.324
v -29.155 0.000 -84.825
v -29.413 0.000 -84.518
v -35.246 0.000 -89.246
v -35.458 0.000 -88.906
v -41.897 0.000 -92.767
v -42.059 0.000 -92.401
v -48.977 0.000 -95.319
v -49.086 0.000 -94.934
v -55.043 0.000 -96.581
v -55.205 0.000 -96.206
v -60.002 0.000 -100.052
v -59.993 0.000 -99.557
v -63.631 0.000 -97.319
v -63.509 0.000 -96.910
v -63.857 0.000 -97.333
v -63.854 0.000 -96.933
v -71.360 0.000 -96.755
v -71.302 0.000 -96.359
v -78.709 0.000 -95.129
v -78.595 0.000 -94.744
v -85.751 0.000 -92.488
v -85.228 0.000 -92.257
v -82.967 0.000 -85.500
v -82.606 0.000 -85.675
v -81.871 0.000 -83.585
v -81.348 0.000 -83.478
v -83.407 0.000 -81.916
v -81.335 0.000 -83.475
v -39.350 0.000 -17.422
v -33.648 0.000 -16.610
v -30.558 0.000 -15.671
v -27.773 0.000 -11.607
v -27.417 0.000 -11.850
v -17.811 0.000 2.775
v -13.631 0.000 0.030
v -2.745 0.000 16.605
v -6.924 0.000 19.350
v 3.094 0.000 34.602
v 18.642 0.000 53.651
v 31.650 0.000 70.948
v 33.651 0.000 76.806
v 37.035 0.000 83.464
v 41.320 0.000 89.580
v 46.422 0.000 95.034
v 51.932 0.000 99.470
v 55.078 0.000 95.395
v 58.048 0.000 97.139
v 58.296 0.000 96.397
v 65.334 0.000 97.627
v 66.642 0.000 97.812
v 67.960 0.000 97.909
v 69.282 0.000 97.920
v 70.601 0.000 97.844
v 71.912 0.000 97.680
v 73.210 0.000 97.430
v 74.488 0.000 97.096
v 75.742 0.000 96.677
v 76.965 0.000 96.177
v 78.153 0.000 95.597
v 79.299 0.000 94.941
v 80.395 0.000 94.213
v 85.195 0.000 90.599
v 64.852 0.000 60.149
v 64.763 0.000 58.270
v 63.365 0.000 50.933
v 60.951 0.000 43.866
v 57.567 0.000 37.208
v 53.483 0.000 31.379
v 51.800 0.000 33.009
v 48.719 0.000 34.723
v 39.192 0.000 19.859
v 24.915 0.000 -0.967
v -8.872 0.000 -56.974
v -10.580 0.000 -59.504
v -12.388 0.000 -61.970
v -14.291 0.000 -64.362
v -16.285 0.000 -66.678
v -21.668 0.000 -72.607
v -19.682 0.000 -73.699
v -24.052 0.000 -79.318
v -29.419 0.000 -84.510
v -35.463 0.000 -88.897
v -42.063 0.000 -92.392
v -49.089 0.000 -94.924
v -55.209 0.000 -96.197
v -59.993 0.000 -99.545
v -63.506 0.000 -96.900
v -63.854 0.000 -96.922
v -71.300 0.000 -96.349
v -78.592 0.000 -94.735
v -85.215 0.000 -92.251
v -82.597 0.000 -85.679
v -83.407 0.400 -81.916
v -39.350 0.400 -17.422
v -33.648 0.400 -16.610
v -30.558 0.400 -15.671
v -27.773 0.400 -11.607
v -27.417 0.400 -11.850
v -17.811 0.400 2.775
v -13.631 0.400 0.030
v -2.745 0.400 16.605
v -6.924 0.400 19.350
v 3.094 0.400 34.602
v 18.642 0.400 53.651
v 31.650 0.400 70.948
v 33.651 0.400 76.806
v 37.035 0.400 83.464
v 41.320 0.400 89.580
v 46.422 0.400 95.034
v 51.932 0.400 99.470
v 55.078 0.400 95.395
v 58.048 0.400 97.139
v 58.296 0.400 96.397
v 65.334 0.400 97.627
v 66.642 0.400 97.812
v 67.960 0.400 97.909
v 69.282 0.400 97.920
v 70.601 0.400 97.844
v 71.912 0.400 97.680
v 73.210 0.400 97.430
v 74.488 0.400 97.096
v 75.742 0.400 96.677
v 76.965 0.400 96.177
v 78.153 0.400 95.597
v 79.299 0.400 94.941
v 80.395 0.400 94.213
v 85.195 0.400 90.599
v 64.852 0.400 60.149
v 64.763 0.400 58.270
v 63.365 0.400 50.933
v 60.951 0.400 43.866
v 57.567 0.400 37.208
v 53.483 0.400 31.379
v 51.800 0.400 33.009
v 48.719 0.400 34.723
v 39.192 0.400 19.859
v 24.915 0.400 -0.967
v -8.872 0.400 -56.974
v -10.580 0.400 -59.504
v -12.388 0.400 -61.970
v -14.291 0.400 -64.362
v -16.285 0.400 -66.678
v -21.668 0.400 -72.607
v -19.682 0.400 -73.699
v -24.052 0.400 -79.318
v -29.419 0.400 -84.510
v -35.463 0.400 -88.897
v -42.063 0.400 -92.392
v -49.089 0.400 -94.924
v -55.209 0.400 -96.197
v -59.993 0.400 -99.545
v -63.506 0.400 -96.900
v -63.854 0.400 -96.922
v -71.300 0.400 -96.349
v -78.592 0.400 -94.735
v -85.215 0.400 -92.251
v -82.597 0.400 -85.679
v -81.335 0.400 -83.475
# 266 vertices

vn 0.000 1.000 0.000
vn 0.000 -1.000 0.000
vn -0.826 0.000 0.564
vn -0.141 0.000 0.990
vn -0.291 0.000 0.957
vn -0.825 0.000 0.565
vn 0.565 0.000 0.825
vn -0.836 0.000 0.549
vn 0.549 0.000 0.836
vn -0.549 0.000 -0.836
vn -0.775 0.000 0.632
vn -0.799 0.000 0.601
vn -0.946 0.000 0.323
vn -0.891 0.000 0.453
vn -0.819 0.000 0.574
vn -0.730 0.000 0.683
vn -0.627 0.000 0.779
vn 0.792 0.000 0.611
vn -0.506 0.000 0.862
vn 0.948 0.000 0.317
vn -0.172 0.000 0.985
vn -0.140 0.000 0.990
vn -0.074 0.000 0.997
vn -0.008 0.000 1.000
vn 0.058 0.000 0.998
vn 0.124 0.000 0.992
vn 0.189 0.000 0.982
vn 0.253 0.000 0.967
vn 0.317 0.000 0.949
vn 0.378 0.000 0.926
vn 0.439 0.000 0.899
vn 0.497 0.000 0.868
vn 0.553 0.000 0.833
vn 0.602 0.000 0.799
vn 0.832 0.000 -0.556
vn 0.999 0.000 -0.047
vn 0.982 0.000 -0.187
vn 0.946 0.000 -0.323
vn 0.891 0.000 -0.453
vn 0.819 0.000 -0.574
vn -0.696 0.000 -0.718
vn -0.486 0.000 -0.874
vn 0.842 0.000 -0.540
vn 0.825 0.000 -0.565
vn 0.856 0.000 -0.517
vn 0.829 0.000 -0.559
vn 0.806 0.000 -0.591
vn 0.783 0.000 -0.622
vn 0.758 0.000 -0.653
vn 0.740 0.000 -0.672
vn 0.482 0.000 0.876
vn 0.789 0.000 -0.614
vn 0.695 0.000 -0.719
vn 0.587 0.000 -0.809
vn 0.468 0.000 -0.884
vn 0.339 0.000 -0.941
vn 0.204 0.000 -0.979
vn 0.573 0.000 -0.819
vn -0.602 0.000 -0.799
vn 0.064 0.000 -0.998
vn -0.077 0.000 -0.997
vn -0.216 0.000 -0.976
vn -0.351 0.000 -0.936
vn -0.929 0.000 0.370
vn -0.868 0.000 0.497
# 65 vertex normals

g CityEngineMaterial
s off
usemtl CityEngineMaterial
f 1//1 2//1 3//1 4//1
f 2//1 5//1 6//1 3//1
f 5//1 7//1 8//1 6//1
f 7//1 9//1 10//1 8//1
f 9//1 11//1 12//1 10//1
f 11//1 13//1 14//1 12//1
f 13//1 15//1 16//1 14//1
f 15//1 17//1 18//1 16//1
f 17//1 19//1 20//1 18//1
f 19//1 21//1 22//1 20//1
f 21//1 23//1 24//1 22//1
f 23//1 25//1 26//1 24//1
f 25//1 27//1 28//1 26//1
f 27//1 29//1 30//1 28//1
f 29//1 31//1 32//1 30//1
f 31//1 33//1 34//1 32//1
f 33//1 35//1 36//1 34//1
f 35//1 37//1 38//1 36//1
f 37//1 39//1 40//1 38//1
f 39//1 41//1 42//1 40//1
f 41//1 43//1 44//1 42//1
f 43//1 45//1 46//1 44//1
f 45//1 47//1 48//1 46//1
f 47//1 49//1 50//1 48//1
f 49//1 51//1 52//1 50//1
f 51//1 53//1 54//1 52//1
f 53//1 55//1 56//1 54//1
f 55//1 57//1 58//1 56//1
f 57//1 59//1 60//1 58//1
f 59//1 61//1 62//1 60//1
f 61//1 63//1 64//1 62//1
f 63//1 65//1 66//1 64//1
f 65//1 67//1 68//1 66//1
f 67//1 69//1 70//1 68//1
f 69//1 71//1 72//1 70//1
f 71//1 73//1 74//1 72//1
f 73//1 75//1 76//1 74//1
f 75//1 77//1 78//1 76//1
f 77//1 79//1 80//1 78//1
f 79//1 81//1 82//1 83//1 80//1
f 81//1 84//1 82//1
f 84//1 85//1 86//1 83//1 82//1
f 85//1 87//1 88//1 86//1
f 87//1 89//1 90//1 88//1
f 89//1 91//1 92//1 90//1
f 91//1 93//1 94//1 92//1
f 93//1 95//1 96//1 94//1
f 95//1 97//1 98//1 96//1
f 97//1 99//1 100//1 98//1
f 99//1 101//1 102//1 100//1
f 101//1 103//1 104//1 102//1
f 103//1 105//1 106//1 104//1
f 105//1 107//1 108//1 106//1
f 107//1 109//1 110//1 108//1
f 109//1 111//1 112//1 110//1
f 111//1 113//1 114//1 112//1
f 113//1 115//1 116//1 114//1
f 115//1 117//1 118//1 116//1
f 117//1 119//1 120//1 118//1
f 119//1 121//1 122//1 120//1
f 121//1 123//1 124//1 122//1
f 123//1 125//1 126//1 124//1
f 125//1 127//1 128//1 126//1
f 127//1 129//1 130//1 128//1
f 129//1 131//1 132//1 130//1
f 131//1 133//1 134//1 132//1
f 133//1 1//1 4//1 134//1
f 137//2 135//2 136//2 200//2 199//2 198//2 197//2 196//2 195//2 194//2 193//2 192//2 191//2 190//2 189//2 188//2 187//2 186//2 185//2 184//2 183//2 182//2 181//2 180//2 179//2 178//2 177//2 176//2 175//2 174//2 173//2 172//2 171//2 170//2 169//2 168//2 167//2 166//2 165//2 164//2 163//2 162//2 161//2 160//2 159//2 158//2 157//2 156//2 155//2 154//2 153//2 152//2 151//2 150//2 149//2 148//2 147//2 146//2 145//2 144//2 143//2 142//2 141//2 140//2 139//2 138//2
f 201//1 202//1 203//1 204//1 205//1 206//1 207//1 208//1 209//1 210//1 211//1 212//1 213//1 214//1 215//1 216//1 217//1 218//1 219//1 220//1 221//1 222//1 223//1 224//1 225//1 226//1 227//1 228//1 229//1 230//1 231//1 232//1 233//1 234//1 235//1 236//1 237//1 238//1 239//1 240//1 241//1 242//1 243//1 244//1 245//1 246//1 247//1 248//1 249//1 250//1 251//1 252//1 253//1 254//1 255//1 256//1 257//1 258//1 259//1 260//1 261//1 262//1 263//1 264//1 265//1 266//1
f 135//3 137//3 202//3 201//3
f 137//4 138//4 203//4 202//4
f 138//5 139//5 204//5 203//5
f 139//6 140//6 205//6 204//6
f 140//7 141//7 206//7 205//7
f 141//8 142//8 207//8 206//8
f 142//9 143//9 208//9 207//9
f 143//8 144//8 209//8 208//8
f 144//10 145//10 210//10 209//10
f 145//8 146//8 211//8 210//8
f 146//11 147//11 212//11 211//11
f 147//12 148//12 213//12 212//12
f 148//13 149//13 214//13 213//13
f 149//14 150//14 215//14 214//14
f 150//15 151//15 216//15 215//15
f 151//16 152//16 217//16 216//16
f 152//17 153//17 218//17 217//17
f 153//18 154//18 219//18 218//18
f 154//19 155//19 220//19 219//19
f 155//20 156//20 221//20 220//20
f 156//21 157//21 222//21 221//21
f 157//22 158//22 223//22 222//22
f 158//23 159//23 224//23 223//23
f 159//24 160//24 225//24 224//24
f 160//25 161//25 226//25 225//25
f 161//26 162//26 227//26 226//26
f 162//27 163//27 228//27 227//27
f 163//28 164//28 229//28 228//28
f 164//29 165//29 230//29 229//29
f 165//30 166//30 231//30 230//30
f 166//31 167//31 232//31 231//31
f 167//32 168//32 233//32 232//32
f 168//33 169//33 234//33 233//33
f 169//34 170//34 235//34 234//34
f 170//35 171//35 236//35 235//35
f 171//36 172//36 237//36 236//36
f 172//37 173//37 238//37 237//37
f 173//38 174//38 239//38 238//38
f 174//39 175//39 240//39 239//39
f 175//40 176//40 241//40 240//40
f 176//41 177//41 242//41 241//41
f 177//42 178//42 243//42 242//42
f 178//43 179//43 244//43 243//43
f 179//44 180//44 245//44 244//44
f 180//45 181//45 246//45 245//45
f 181//46 182//46 247//46 246//46
f 182//47 183//47 248//47 247//47
f 183//48 184//48 249//48 248//48
f 184//49 185//49 250//49 249//49
f 185//50 186//50 251//50 250//50
f 186//51 187//51 252//51 251//51
f 187//52 188//52 253//52 252//52
f 188//53 189//53 254//53 253//53
f 189//54 190//54 255//54 254//54
f 190//55 191//55 256//55 255//55
f 191//56 192//56 257//56 256//56
f 192//57 193//57 258//57 257//57
f 193//58 194//58 259//58 258//58
f 194//59 195//59 260//59 259//59
f 195//60 196//60 261//60 260//60
f 196//61 197//61 262//61 261//61
f 197//62 198//62 263//62 262//62
f 198//63 199//63 264//63 263//63
f 199//64 200//64 265//64 264//64
f 200//65 136//65 266//65 265//65
f 136//59 135//59 201//59 266//59
# 135 faces

