# created with CityEngine 2019.0.5403 0409R (based on Esri Procedural Runtime 2.0.5403, build date: Tue 04/09/2019 10:26 AM)
# creation date: Mon Mar 14 20:01:10 2022

mtllib 20220314_Building_interact_SGP.mtl

# mesh 'mesh_CityEngineMaterial_59' from geometry 'mesh_CityEngineMaterial_59'
v 26.401 0.000 -0.787
v 26.626 0.000 -0.957
v 26.226 0.000 -1.018
v 19.110 0.000 -11.426
v 18.785 0.000 -11.192
v 26.073 0.000 -1.042
v 18.951 0.000 -11.647
v 18.626 0.000 -11.414
v 10.644 0.000 -23.215
v 10.530 0.000 -22.689
v 1.408 0.000 -17.926
v 1.598 0.000 -17.574
v -0.548 0.000 -16.929
v -0.367 0.000 -16.573
v -0.916 0.000 -16.742
v -0.734 0.000 -16.386
v -3.128 0.000 -15.615
v -2.947 0.000 -15.259
v -7.887 0.000 -13.191
v -7.714 0.000 -12.830
v -17.422 0.000 -8.906
v -17.267 0.000 -8.538
v -21.369 0.000 -7.359
v -21.223 0.000 -6.986
v -22.685 0.000 -6.843
v -22.539 0.000 -6.470
v -25.316 0.000 -5.811
v -25.170 0.000 -5.438
v -26.200 0.000 -5.464
v -26.054 0.000 -5.092
v -26.626 0.000 -5.297
v -26.471 0.000 -5.240
v -26.058 0.000 -5.090
v -26.567 0.000 -5.188
v -23.566 0.000 0.324
v -23.215 0.000 0.133
v -23.484 0.000 0.475
v -23.133 0.000 0.283
v -11.102 0.000 23.215
v -10.941 0.000 22.675
v -1.326 0.000 17.970
v -1.524 0.000 17.623
v -0.134 0.000 17.250
v -0.341 0.000 16.908
v 8.210 0.000 12.210
v 7.994 0.000 11.873
v 9.361 0.000 11.431
v 9.137 0.000 11.100
v 10.513 0.000 10.653
v 10.289 0.000 10.321
v 12.816 0.000 9.095
v 12.592 0.000 8.764
v 13.968 0.000 8.316
v 13.744 0.000 7.985
v 16.271 0.000 6.759
v 16.047 0.000 6.427
v 17.423 0.000 5.980
v 17.190 0.000 5.655
v 26.060 0.000 -1.044
v 17.184 0.000 5.646
v 18.777 0.000 -11.187
v 18.618 0.000 -11.408
v 10.527 0.000 -22.675
v 1.603 0.000 -17.565
v -0.362 0.000 -16.564
v -0.730 0.000 -16.377
v -2.942 0.000 -15.250
v -7.710 0.000 -12.821
v -17.263 0.000 -8.528
v -21.220 0.000 -6.977
v -22.535 0.000 -6.461
v -25.166 0.000 -5.429
v -26.044 0.000 -5.085
v -23.206 0.000 0.128
v -23.124 0.000 0.279
v -10.937 0.000 22.661
v -1.529 0.000 17.614
v -0.346 0.000 16.899
v 7.989 0.000 11.864
v 9.132 0.000 11.092
v 10.283 0.000 10.313
v 12.587 0.000 8.755
v 13.738 0.000 7.977
v 16.041 0.000 6.419
v 26.060 0.400 -1.044
v 18.777 0.400 -11.187
v 18.618 0.400 -11.408
v 10.527 0.400 -22.675
v 1.603 0.400 -17.565
v -0.362 0.400 -16.564
v -0.730 0.400 -16.377
v -2.942 0.400 -15.250
v -7.710 0.400 -12.821
v -17.263 0.400 -8.528
v -21.220 0.400 -6.977
v -22.535 0.400 -6.461
v -25.166 0.400 -5.429
v -26.044 0.400 -5.085
v -23.206 0.400 0.128
v -23.124 0.400 0.279
v -10.937 0.400 22.661
v -1.529 0.400 17.614
v -0.346 0.400 16.899
v 7.989 0.400 11.864
v 9.132 0.400 11.092
v 10.283 0.400 10.313
v 12.587 0.400 8.755
v 13.738 0.400 7.977
v 16.041 0.400 6.419
v 17.184 0.400 5.646
# 110 vertices

vn 0.000 1.000 0.000
vn 0.000 -1.000 0.000
vn 0.812 0.000 -0.583
vn -0.497 0.000 -0.868
vn -0.454 0.000 -0.891
vn -0.410 0.000 -0.912
vn -0.365 0.000 -0.931
vn -0.878 0.000 0.478
vn 0.473 0.000 0.881
vn 0.517 0.000 0.856
vn 0.560 0.000 0.828
vn 0.602 0.000 0.799
# 12 vertex normals

g CityEngineMaterial
s off
usemtl CityEngineMaterial
f 1//1 2//1 3//1
f 2//1 4//1 5//1 6//1 3//1
f 4//1 7//1 8//1 5//1
f 7//1 9//1 10//1 8//1
f 9//1 11//1 12//1 10//1
f 11//1 13//1 14//1 12//1
f 13//1 15//1 16//1 14//1
f 15//1 17//1 18//1 16//1
f 17//1 19//1 20//1 18//1
f 19//1 21//1 22//1 20//1
f 21//1 23//1 24//1 22//1
f 23//1 25//1 26//1 24//1
f 25//1 27//1 28//1 26//1
f 27//1 29//1 30//1 28//1
f 29//1 31//1 32//1 33//1 30//1
f 31//1 34//1 32//1
f 34//1 35//1 36//1 33//1 32//1
f 35//1 37//1 38//1 36//1
f 37//1 39//1 40//1 38//1
f 39//1 41//1 42//1 40//1
f 41//1 43//1 44//1 42//1
f 43//1 45//1 46//1 44//1
f 45//1 47//1 48//1 46//1
f 47//1 49//1 50//1 48//1
f 49//1 51//1 52//1 50//1
f 51//1 53//1 54//1 52//1
f 53//1 55//1 56//1 54//1
f 55//1 57//1 58//1 56//1
f 57//1 1//1 3//1 6//1 58//1
f 61//2 59//2 60//2 84//2 83//2 82//2 81//2 80//2 79//2 78//2 77//2 76//2 75//2 74//2 73//2 72//2 71//2 70//2 69//2 68//2 67//2 66//2 65//2 64//2 63//2 62//2
f 85//1 86//1 87//1 88//1 89//1 90//1 91//1 92//1 93//1 94//1 95//1 96//1 97//1 98//1 99//1 100//1 101//1 102//1 103//1 104//1 105//1 106//1 107//1 108//1 109//1 110//1
f 59//3 61//3 86//3 85//3
f 61//3 62//3 87//3 86//3
f 62//3 63//3 88//3 87//3
f 63//4 64//4 89//4 88//4
f 64//5 65//5 90//5 89//5
f 65//5 66//5 91//5 90//5
f 66//5 67//5 92//5 91//5
f 67//5 68//5 93//5 92//5
f 68//6 69//6 94//6 93//6
f 69//7 70//7 95//7 94//7
f 70//7 71//7 96//7 95//7
f 71//7 72//7 97//7 96//7
f 72//7 73//7 98//7 97//7
f 73//8 74//8 99//8 98//8
f 74//8 75//8 100//8 99//8
f 75//8 76//8 101//8 100//8
f 76//9 77//9 102//9 101//9
f 77//10 78//10 103//10 102//10
f 78//10 79//10 104//10 103//10
f 79//11 80//11 105//11 104//11
f 80//11 81//11 106//11 105//11
f 81//11 82//11 107//11 106//11
f 82//11 83//11 108//11 107//11
f 83//11 84//11 109//11 108//11
f 84//11 60//11 110//11 109//11
f 60//12 59//12 85//12 110//12
# 57 faces

