# created with CityEngine 2019.0.5403 0409R (based on Esri Procedural Runtime 2.0.5403, build date: Tue 04/09/2019 10:26 AM)
# creation date: Mon Mar 14 20:01:06 2022

mtllib 20220314_Building_interact_SGP.mtl

# mesh 'mesh_CityEngineMaterial_4' from geometry 'mesh_CityEngineMaterial_4'
v 67.805 0.000 -5.962
v 46.237 0.000 -21.336
v 46.345 0.000 -20.768
v 67.259 0.000 -5.860
v 43.484 0.000 -17.092
v 43.854 0.000 -16.926
v 42.918 0.000 -15.017
v 43.152 0.000 -14.359
v 41.139 0.000 -16.286
v 40.680 0.000 -16.122
v 41.704 0.000 -18.354
v 41.245 0.000 -18.193
v 23.444 0.000 -31.589
v 23.547 0.000 -31.020
v 21.147 0.000 -28.112
v 21.254 0.000 -27.549
v 9.219 0.000 -36.456
v 8.832 0.000 -36.238
v 8.886 0.000 -41.764
v 8.498 0.000 -41.549
v -27.656 0.000 -67.831
v -27.716 0.000 -67.382
v -33.733 0.000 -65.588
v -33.248 0.000 -65.340
v -33.105 0.000 -63.348
v -32.576 0.000 -62.945
v -48.450 0.000 -63.435
v -48.188 0.000 -63.034
v -48.570 0.000 -63.156
v -48.305 0.000 -62.761
v -55.104 0.000 -63.036
v -54.797 0.000 -62.642
v -60.580 0.000 -42.998
v -60.134 0.000 -43.113
v -58.257 0.000 -40.611
v -57.784 0.000 -40.698
v -67.805 0.000 -18.391
v -67.279 0.000 -18.603
v -47.227 0.000 -9.696
v -47.251 0.000 -10.140
v -34.862 0.000 -16.566
v -34.789 0.000 -17.064
v -34.616 0.000 -16.313
v -34.363 0.000 -16.627
v 0.561 0.000 5.489
v 1.346 0.000 5.505
v -3.705 0.000 7.900
v -3.303 0.000 8.133
v -3.537 0.000 27.628
v -3.139 0.000 27.405
v 2.988 0.000 31.707
v 3.527 0.000 31.572
v -8.192 0.000 51.212
v -7.713 0.000 51.181
v 4.467 0.000 67.831
v 4.661 0.000 67.424
v 12.324 0.000 67.587
v 12.144 0.000 67.192
v 25.522 0.000 53.394
v 25.401 0.000 52.936
v 28.164 0.000 54.231
v 27.996 0.000 53.758
v 67.245 0.000 -5.858
v 27.992 0.000 53.746
v 46.348 0.000 -20.753
v 43.863 0.000 -16.922
v 43.158 0.000 -14.342
v 40.668 0.000 -16.118
v 41.234 0.000 -18.189
v 23.550 0.000 -31.006
v 21.257 0.000 -27.535
v 8.822 0.000 -36.233
v 8.489 0.000 -41.544
v -27.718 0.000 -67.371
v -33.236 0.000 -65.334
v -32.563 0.000 -62.935
v -48.181 0.000 -63.024
v -48.298 0.000 -62.751
v -54.789 0.000 -62.632
v -60.123 0.000 -43.116
v -57.773 0.000 -40.701
v -67.265 0.000 -18.608
v -47.252 0.000 -10.151
v -34.787 0.000 -17.077
v -34.357 0.000 -16.635
v 1.365 0.000 5.505
v -3.293 0.000 8.138
v -3.129 0.000 27.400
v 3.540 0.000 31.569
v -7.701 0.000 51.180
v 4.665 0.000 67.414
v 12.140 0.000 67.182
v 25.398 0.000 52.925
v 67.245 0.400 -5.858
v 46.348 0.400 -20.753
v 43.863 0.400 -16.922
v 43.158 0.400 -14.342
v 40.668 0.400 -16.118
v 41.234 0.400 -18.189
v 23.550 0.400 -31.006
v 21.257 0.400 -27.535
v 8.822 0.400 -36.233
v 8.489 0.400 -41.544
v -27.718 0.400 -67.371
v -33.236 0.400 -65.334
v -32.563 0.400 -62.935
v -48.181 0.400 -63.024
v -48.298 0.400 -62.751
v -54.789 0.400 -62.632
v -60.123 0.400 -43.116
v -57.773 0.400 -40.701
v -67.265 0.400 -18.608
v -47.252 0.400 -10.151
v -34.787 0.400 -17.077
v -34.357 0.400 -16.635
v 1.365 0.400 5.505
v -3.293 0.400 8.138
v -3.129 0.400 27.400
v 3.540 0.400 31.569
v -7.701 0.400 51.180
v 4.665 0.400 67.414
v 12.140 0.400 67.182
v 25.398 0.400 52.925
v 27.992 0.400 53.746
# 124 vertices

vn 0.000 1.000 0.000
vn 0.000 -1.000 0.000
vn 0.580 0.000 -0.814
vn -0.839 0.000 -0.544
vn -0.965 0.000 -0.264
vn 0.965 0.000 0.264
vn 0.587 0.000 -0.810
vn -0.834 0.000 -0.551
vn 0.573 0.000 -0.819
vn 0.998 0.000 -0.063
vn -0.346 0.000 -0.938
vn -0.963 0.000 0.270
vn 0.006 0.000 -1.000
vn -0.919 0.000 -0.395
vn -0.018 0.000 -1.000
vn -0.717 0.000 0.697
vn -0.389 0.000 0.921
vn 0.486 0.000 0.874
vn -0.527 0.000 0.850
vn -0.492 0.000 -0.871
vn -1.000 0.000 0.009
vn -0.530 0.000 0.848
vn -0.868 0.000 -0.497
vn -0.795 0.000 0.606
vn 0.031 0.000 1.000
vn 0.732 0.000 0.681
vn -0.302 0.000 0.953
vn 0.835 0.000 0.550
# 28 vertex normals

g CityEngineMaterial
s off
usemtl CityEngineMaterial
f 1//1 2//1 3//1 4//1
f 2//1 5//1 6//1 3//1
f 5//1 7//1 8//1 6//1
f 7//1 9//1 10//1 8//1
f 9//1 11//1 12//1 10//1
f 11//1 13//1 14//1 12//1
f 13//1 15//1 16//1 14//1
f 15//1 17//1 18//1 16//1
f 17//1 19//1 20//1 18//1
f 19//1 21//1 22//1 20//1
f 21//1 23//1 24//1 22//1
f 23//1 25//1 26//1 24//1
f 25//1 27//1 28//1 26//1
f 27//1 29//1 30//1 28//1
f 29//1 31//1 32//1 30//1
f 31//1 33//1 34//1 32//1
f 33//1 35//1 36//1 34//1
f 35//1 37//1 38//1 36//1
f 37//1 39//1 40//1 38//1
f 39//1 41//1 42//1 40//1
f 41//1 43//1 44//1 42//1
f 43//1 45//1 46//1 44//1
f 45//1 47//1 48//1 46//1
f 47//1 49//1 50//1 48//1
f 49//1 51//1 52//1 50//1
f 51//1 53//1 54//1 52//1
f 53//1 55//1 56//1 54//1
f 55//1 57//1 58//1 56//1
f 57//1 59//1 60//1 58//1
f 59//1 61//1 62//1 60//1
f 61//1 1//1 4//1 62//1
f 65//2 63//2 64//2 93//2 92//2 91//2 90//2 89//2 88//2 87//2 86//2 85//2 84//2 83//2 82//2 81//2 80//2 79//2 78//2 77//2 76//2 75//2 74//2 73//2 72//2 71//2 70//2 69//2 68//2 67//2 66//2
f 94//1 95//1 96//1 97//1 98//1 99//1 100//1 101//1 102//1 103//1 104//1 105//1 106//1 107//1 108//1 109//1 110//1 111//1 112//1 113//1 114//1 115//1 116//1 117//1 118//1 119//1 120//1 121//1 122//1 123//1 124//1
f 63//3 65//3 95//3 94//3
f 65//4 66//4 96//4 95//4
f 66//5 67//5 97//5 96//5
f 67//3 68//3 98//3 97//3
f 68//6 69//6 99//6 98//6
f 69//7 70//7 100//7 99//7
f 70//8 71//8 101//8 100//8
f 71//9 72//9 102//9 101//9
f 72//10 73//10 103//10 102//10
f 73//3 74//3 104//3 103//3
f 74//11 75//11 105//11 104//11
f 75//12 76//12 106//12 105//12
f 76//13 77//13 107//13 106//13
f 77//14 78//14 108//14 107//14
f 78//15 79//15 109//15 108//15
f 79//5 80//5 110//5 109//5
f 80//16 81//16 111//16 110//16
f 81//14 82//14 112//14 111//14
f 82//17 83//17 113//17 112//17
f 83//18 84//18 114//18 113//18
f 84//16 85//16 115//16 114//16
f 85//19 86//19 116//19 115//19
f 86//20 87//20 117//20 116//20
f 87//21 88//21 118//21 117//21
f 88//22 89//22 119//22 118//22
f 89//23 90//23 120//23 119//23
f 90//24 91//24 121//24 120//24
f 91//25 92//25 122//25 121//25
f 92//26 93//26 123//26 122//26
f 93//27 64//27 124//27 123//27
f 64//28 63//28 94//28 124//28
# 64 faces

