# created with CityEngine 2019.0.5403 0409R (based on Esri Procedural Runtime 2.0.5403, build date: Tue 04/09/2019 10:26 AM)
# creation date: Mon Mar 14 20:01:09 2022

mtllib 20220314_Building_interact_SGP.mtl

# mesh 'mesh_CityEngineMaterial_51' from geometry 'mesh_CityEngineMaterial_51'
v 33.011 0.000 -6.911
v 32.152 0.000 -8.210
v 31.819 0.000 -7.990
v 32.457 0.000 -7.024
v 32.501 0.000 -7.015
v 19.298 0.000 -27.660
v 19.296 0.000 -27.651
v 19.185 0.000 -27.106
v 19.293 0.000 -27.656
v -33.011 0.000 6.911
v -32.457 0.000 7.024
v -23.734 0.000 20.948
v -23.401 0.000 20.727
v -19.298 0.000 27.660
v -19.185 0.000 27.106
v 32.704 0.000 -6.708
v 31.810 0.000 -7.984
v 32.443 0.000 -7.027
v 19.182 0.000 -27.092
v -32.443 0.000 7.027
v -23.392 0.000 20.722
v -19.182 0.000 27.092
v 31.810 0.400 -7.984
v 19.182 0.400 -27.092
v -32.443 0.400 7.027
v -23.392 0.400 20.722
v -19.182 0.400 27.092
v 32.443 0.400 -7.027
# 28 vertices

vn 0.000 1.000 0.000
vn 0.000 -1.000 0.000
vn 0.834 0.000 -0.551
vn -0.551 0.000 -0.834
vn -0.834 0.000 0.551
vn 0.551 0.000 0.834
# 6 vertex normals

g CityEngineMaterial
s off
usemtl CityEngineMaterial
f 1//1 2//1 3//1 4//1 5//1
f 2//1 6//1 7//1 8//1 3//1
f 6//1 9//1 7//1
f 9//1 10//1 11//1 8//1 7//1
f 10//1 12//1 13//1 11//1
f 12//1 14//1 15//1 13//1
f 14//1 16//1 5//1 4//1 15//1
f 16//1 1//1 5//1
f 19//2 17//2 18//2 22//2 21//2 20//2
f 23//1 24//1 25//1 26//1 27//1 28//1
f 17//3 19//3 24//3 23//3
f 19//4 20//4 25//4 24//4
f 20//5 21//5 26//5 25//5
f 21//5 22//5 27//5 26//5
f 22//6 18//6 28//6 27//6
f 18//3 17//3 23//3 28//3
# 16 faces

