# created with CityEngine 2019.0.5403 0409R (based on Esri Procedural Runtime 2.0.5403, build date: Tue 04/09/2019 10:26 AM)
# creation date: Mon Mar 14 20:01:09 2022

mtllib 20220314_Building_interact_SGP.mtl

# mesh 'mesh_CityEngineMaterial_39' from geometry 'mesh_CityEngineMaterial_39'
v -14.298 0.000 35.106
v -13.960 0.000 34.873
v -14.187 0.000 34.544
v -14.195 0.000 34.549
v -12.836 0.000 34.096
v -13.063 0.000 33.767
v -11.369 0.000 33.083
v -11.597 0.000 32.754
v -6.970 0.000 30.043
v -7.197 0.000 29.714
v -5.504 0.000 29.030
v -5.731 0.000 28.701
v -2.571 0.000 27.004
v -2.798 0.000 26.675
v -1.105 0.000 25.991
v -1.340 0.000 25.667
v 11.192 0.000 16.595
v 10.941 0.000 16.283
v 18.140 0.000 10.741
v 17.883 0.000 10.435
v 23.058 0.000 6.598
v 22.793 0.000 6.298
v 34.396 0.000 -3.911
v 33.834 0.000 -3.936
v 6.237 0.000 -35.106
v 6.243 0.000 -34.502
v 4.953 0.000 -33.622
v 5.255 0.000 -33.360
v 2.377 0.000 -30.644
v 2.680 0.000 -30.382
v 1.090 0.000 -29.155
v 1.392 0.000 -28.893
v -2.774 0.000 -24.688
v -2.477 0.000 -24.420
v -12.790 0.000 -14.112
v -12.506 0.000 -13.830
v -15.263 0.000 -11.726
v -14.986 0.000 -11.439
v -18.279 0.000 -8.818
v -18.002 0.000 -8.530
v -20.637 0.000 -6.544
v -20.360 0.000 -6.256
v -21.945 0.000 -5.282
v -21.667 0.000 -4.995
v -23.253 0.000 -4.021
v -22.982 0.000 -3.727
v -25.521 0.000 -2.025
v -25.257 0.000 -1.724
v -33.006 0.000 4.563
v -32.741 0.000 4.863
v -34.000 0.000 5.438
v -33.735 0.000 5.738
v -34.396 0.000 5.787
v -33.865 0.000 5.853
v -33.948 0.000 6.439
v -33.618 0.000 6.213
v -15.342 0.000 33.582
v -15.013 0.000 33.356
v -14.192 0.000 34.535
v -15.004 0.000 33.351
v -13.069 0.000 33.759
v -11.602 0.000 32.746
v -7.203 0.000 29.706
v -5.737 0.000 28.693
v -2.804 0.000 26.667
v -1.346 0.000 25.659
v 10.935 0.000 16.275
v 17.876 0.000 10.427
v 22.786 0.000 6.291
v 33.820 0.000 -3.937
v 6.243 0.000 -34.487
v 5.263 0.000 -33.354
v 2.687 0.000 -30.376
v 1.400 0.000 -28.887
v -2.470 0.000 -24.413
v -12.499 0.000 -13.823
v -14.979 0.000 -11.431
v -17.995 0.000 -8.523
v -20.353 0.000 -6.249
v -21.661 0.000 -4.987
v -22.975 0.000 -3.719
v -25.250 0.000 -1.717
v -32.735 0.000 4.871
v -33.729 0.000 5.746
v -33.852 0.000 5.854
v -33.610 0.000 6.208
v -14.192 0.400 34.535
v -13.069 0.400 33.759
v -11.602 0.400 32.746
v -7.203 0.400 29.706
v -5.737 0.400 28.693
v -2.804 0.400 26.667
v -1.346 0.400 25.659
v 10.935 0.400 16.275
v 17.876 0.400 10.427
v 22.786 0.400 6.291
v 33.820 0.400 -3.937
v 6.243 0.400 -34.487
v 5.263 0.400 -33.354
v 2.687 0.400 -30.376
v 1.400 0.400 -28.887
v -2.470 0.400 -24.413
v -12.499 0.400 -13.823
v -14.979 0.400 -11.431
v -17.995 0.400 -8.523
v -20.353 0.400 -6.249
v -21.661 0.400 -4.987
v -22.975 0.400 -3.719
v -25.250 0.400 -1.717
v -32.735 0.400 4.871
v -33.729 0.400 5.746
v -33.852 0.400 5.854
v -33.610 0.400 6.208
v -15.004 0.400 33.351
# 114 vertices

vn 0.000 1.000 0.000
vn 0.000 -1.000 0.000
vn 0.568 0.000 0.823
vn 0.607 0.000 0.795
vn 0.644 0.000 0.765
vn 0.680 0.000 0.733
vn 0.742 0.000 -0.670
vn -0.756 0.000 -0.654
vn -0.726 0.000 -0.688
vn -0.694 0.000 -0.720
vn -0.661 0.000 -0.751
vn -0.825 0.000 0.565
# 12 vertex normals

g CityEngineMaterial
s off
usemtl CityEngineMaterial
f 1//1 2//1 3//1 4//1
f 2//1 5//1 6//1 3//1
f 5//1 7//1 8//1 6//1
f 7//1 9//1 10//1 8//1
f 9//1 11//1 12//1 10//1
f 11//1 13//1 14//1 12//1
f 13//1 15//1 16//1 14//1
f 15//1 17//1 18//1 16//1
f 17//1 19//1 20//1 18//1
f 19//1 21//1 22//1 20//1
f 21//1 23//1 24//1 22//1
f 23//1 25//1 26//1 24//1
f 25//1 27//1 28//1 26//1
f 27//1 29//1 30//1 28//1
f 29//1 31//1 32//1 30//1
f 31//1 33//1 34//1 32//1
f 33//1 35//1 36//1 34//1
f 35//1 37//1 38//1 36//1
f 37//1 39//1 40//1 38//1
f 39//1 41//1 42//1 40//1
f 41//1 43//1 44//1 42//1
f 43//1 45//1 46//1 44//1
f 45//1 47//1 48//1 46//1
f 47//1 49//1 50//1 48//1
f 49//1 51//1 52//1 50//1
f 51//1 53//1 54//1 52//1
f 53//1 55//1 56//1 54//1
f 55//1 57//1 58//1 56//1
f 57//1 1//1 4//1 58//1
f 61//2 59//2 60//2 86//2 85//2 84//2 83//2 82//2 81//2 80//2 79//2 78//2 77//2 76//2 75//2 74//2 73//2 72//2 71//2 70//2 69//2 68//2 67//2 66//2 65//2 64//2 63//2 62//2
f 87//1 88//1 89//1 90//1 91//1 92//1 93//1 94//1 95//1 96//1 97//1 98//1 99//1 100//1 101//1 102//1 103//1 104//1 105//1 106//1 107//1 108//1 109//1 110//1 111//1 112//1 113//1 114//1
f 59//3 61//3 88//3 87//3
f 61//3 62//3 89//3 88//3
f 62//3 63//3 90//3 89//3
f 63//3 64//3 91//3 90//3
f 64//3 65//3 92//3 91//3
f 65//3 66//3 93//3 92//3
f 66//4 67//4 94//4 93//4
f 67//5 68//5 95//5 94//5
f 68//5 69//5 96//5 95//5
f 69//6 70//6 97//6 96//6
f 70//7 71//7 98//7 97//7
f 71//8 72//8 99//8 98//8
f 72//8 73//8 100//8 99//8
f 73//8 74//8 101//8 100//8
f 74//8 75//8 102//8 101//8
f 75//9 76//9 103//9 102//9
f 76//10 77//10 104//10 103//10
f 77//10 78//10 105//10 104//10
f 78//10 79//10 106//10 105//10
f 79//10 80//10 107//10 106//10
f 80//10 81//10 108//10 107//10
f 81//11 82//11 109//11 108//11
f 82//11 83//11 110//11 109//11
f 83//11 84//11 111//11 110//11
f 84//11 85//11 112//11 111//11
f 85//12 86//12 113//12 112//12
f 86//12 60//12 114//12 113//12
f 60//12 59//12 87//12 114//12
# 59 faces

