# created with CityEngine 2019.0.5403 0409R (based on Esri Procedural Runtime 2.0.5403, build date: Tue 04/09/2019 10:26 AM)
# creation date: Mon Mar 14 20:01:08 2022

mtllib 20220314_Building_interact_SGP.mtl

# mesh 'mesh_CityEngineMaterial_35' from geometry 'mesh_CityEngineMaterial_35'
v -3.939 0.000 -20.541
v -11.226 0.000 -21.009
v -11.252 0.000 -20.610
v -3.993 0.000 -20.144
v -11.450 0.000 -21.023
v -11.447 0.000 -20.622
v -13.328 0.000 -20.878
v -13.297 0.000 -20.480
v -18.953 0.000 -20.445
v -18.895 0.000 -20.048
v -19.060 0.000 -20.421
v -18.974 0.000 -20.031
v -23.424 0.000 -19.456
v -23.337 0.000 -19.065
v -26.302 0.000 -18.818
v -26.188 0.000 -18.434
v -33.243 0.000 -16.215
v -33.206 0.000 -16.116
v -32.821 0.000 -15.946
v -33.344 0.000 -16.177
v -31.953 0.000 -12.686
v -31.582 0.000 -12.834
v -30.560 0.000 -9.190
v -30.199 0.000 -9.364
v -29.466 0.000 -7.279
v -29.119 0.000 -7.478
v -26.820 0.000 -2.659
v -26.487 0.000 -2.882
v -22.200 0.000 3.282
v -21.901 0.000 3.014
v -19.495 0.000 5.898
v -19.217 0.000 5.611
v -16.791 0.000 8.515
v -16.533 0.000 8.207
v -10.700 0.000 12.936
v -10.488 0.000 12.595
v -4.048 0.000 16.457
v -3.886 0.000 16.090
v 3.032 0.000 19.009
v 3.141 0.000 18.623
v 10.400 0.000 20.541
v 10.454 0.000 20.144
v 17.911 0.000 21.023
v 17.909 0.000 20.622
v 25.520 0.000 20.437
v 25.020 0.000 20.074
v 24.880 0.000 17.830
v 24.479 0.000 17.874
v 24.962 0.000 13.909
v 24.563 0.000 13.848
v 26.056 0.000 10.143
v 25.686 0.000 9.981
v 28.087 0.000 6.788
v 27.772 0.000 6.536
v 30.917 0.000 4.073
v 30.679 0.000 3.748
v 31.397 0.000 3.810
v 31.204 0.000 3.459
v 33.344 0.000 2.739
v 32.740 0.000 2.615
v 28.661 0.000 -3.282
v 28.363 0.000 -3.014
v 27.307 0.000 -4.591
v 27.029 0.000 -4.304
v 23.252 0.000 -8.515
v 22.994 0.000 -8.207
v 17.161 0.000 -12.936
v 16.949 0.000 -12.595
v 10.510 0.000 -16.457
v 10.348 0.000 -16.090
v 3.430 0.000 -19.009
v 3.321 0.000 -18.623
v -2.635 0.000 -20.270
v -2.717 0.000 -19.879
v -3.994 0.000 -20.134
v -2.719 0.000 -19.869
v -11.252 0.000 -20.600
v -11.447 0.000 -20.612
v -13.296 0.000 -20.470
v -18.893 0.000 -20.038
v -18.972 0.000 -20.021
v -23.335 0.000 -19.055
v -26.185 0.000 -18.424
v -32.808 0.000 -15.940
v -31.572 0.000 -12.838
v -30.190 0.000 -9.369
v -29.110 0.000 -7.483
v -26.479 0.000 -2.888
v -21.894 0.000 3.007
v -19.210 0.000 5.603
v -16.526 0.000 8.200
v -10.482 0.000 12.587
v -3.882 0.000 16.081
v 3.144 0.000 18.614
v 10.456 0.000 20.134
v 17.908 0.000 20.612
v 25.007 0.000 20.065
v 24.469 0.000 17.875
v 24.553 0.000 13.847
v 25.677 0.000 9.977
v 27.764 0.000 6.530
v 30.673 0.000 3.740
v 31.199 0.000 3.450
v 32.725 0.000 2.611
v 28.355 0.000 -3.007
v 27.022 0.000 -4.297
v 22.988 0.000 -8.200
v 16.944 0.000 -12.587
v 10.344 0.000 -16.081
v 3.318 0.000 -18.614
v -3.994 0.400 -20.134
v -11.252 0.400 -20.600
v -11.447 0.400 -20.612
v -13.296 0.400 -20.470
v -18.893 0.400 -20.038
v -18.972 0.400 -20.021
v -23.335 0.400 -19.055
v -26.185 0.400 -18.424
v -32.808 0.400 -15.940
v -31.572 0.400 -12.838
v -30.190 0.400 -9.369
v -29.110 0.400 -7.483
v -26.479 0.400 -2.888
v -21.894 0.400 3.007
v -19.210 0.400 5.603
v -16.526 0.400 8.200
v -10.482 0.400 12.587
v -3.882 0.400 16.081
v 3.144 0.400 18.614
v 10.456 0.400 20.134
v 17.908 0.400 20.612
v 25.007 0.400 20.065
v 24.469 0.400 17.875
v 24.553 0.400 13.847
v 25.677 0.400 9.977
v 27.764 0.400 6.530
v 30.673 0.400 3.740
v 31.199 0.400 3.450
v 32.725 0.400 2.611
v 28.355 0.400 -3.007
v 27.022 0.400 -4.297
v 22.988 0.400 -8.200
v 16.944 0.400 -12.587
v 10.344 0.400 -16.081
v 3.318 0.400 -18.614
v -2.719 0.400 -19.869
# 146 vertices

vn 0.000 1.000 0.000
vn 0.000 -1.000 0.000
vn 0.064 0.000 -0.998
vn -0.077 0.000 -0.997
vn -0.216 0.000 -0.976
vn -0.351 0.000 -0.936
vn -0.929 0.000 0.370
vn -0.868 0.000 0.497
vn -0.789 0.000 0.614
vn -0.695 0.000 0.719
vn -0.587 0.000 0.809
vn -0.468 0.000 0.884
vn -0.339 0.000 0.941
vn -0.204 0.000 0.979
vn -0.064 0.000 0.998
vn 0.077 0.000 0.997
vn 0.971 0.000 -0.239
vn 1.000 0.000 0.021
vn 0.960 0.000 0.279
vn 0.855 0.000 0.518
vn 0.692 0.000 0.722
vn 0.482 0.000 0.876
vn 0.789 0.000 -0.614
vn 0.695 0.000 -0.719
vn 0.587 0.000 -0.809
vn 0.468 0.000 -0.884
vn 0.339 0.000 -0.941
vn 0.204 0.000 -0.979
# 28 vertex normals

g CityEngineMaterial
s off
usemtl CityEngineMaterial
f 1//1 2//1 3//1 4//1
f 2//1 5//1 6//1 3//1
f 5//1 7//1 8//1 6//1
f 7//1 9//1 10//1 8//1
f 9//1 11//1 12//1 10//1
f 11//1 13//1 14//1 12//1
f 13//1 15//1 16//1 14//1
f 15//1 17//1 18//1 19//1 16//1
f 17//1 20//1 18//1
f 20//1 21//1 22//1 19//1 18//1
f 21//1 23//1 24//1 22//1
f 23//1 25//1 26//1 24//1
f 25//1 27//1 28//1 26//1
f 27//1 29//1 30//1 28//1
f 29//1 31//1 32//1 30//1
f 31//1 33//1 34//1 32//1
f 33//1 35//1 36//1 34//1
f 35//1 37//1 38//1 36//1
f 37//1 39//1 40//1 38//1
f 39//1 41//1 42//1 40//1
f 41//1 43//1 44//1 42//1
f 43//1 45//1 46//1 44//1
f 45//1 47//1 48//1 46//1
f 47//1 49//1 50//1 48//1
f 49//1 51//1 52//1 50//1
f 51//1 53//1 54//1 52//1
f 53//1 55//1 56//1 54//1
f 55//1 57//1 58//1 56//1
f 57//1 59//1 60//1 58//1
f 59//1 61//1 62//1 60//1
f 61//1 63//1 64//1 62//1
f 63//1 65//1 66//1 64//1
f 65//1 67//1 68//1 66//1
f 67//1 69//1 70//1 68//1
f 69//1 71//1 72//1 70//1
f 71//1 73//1 74//1 72//1
f 73//1 1//1 4//1 74//1
f 77//2 75//2 76//2 110//2 109//2 108//2 107//2 106//2 105//2 104//2 103//2 102//2 101//2 100//2 99//2 98//2 97//2 96//2 95//2 94//2 93//2 92//2 91//2 90//2 89//2 88//2 87//2 86//2 85//2 84//2 83//2 82//2 81//2 80//2 79//2 78//2
f 111//1 112//1 113//1 114//1 115//1 116//1 117//1 118//1 119//1 120//1 121//1 122//1 123//1 124//1 125//1 126//1 127//1 128//1 129//1 130//1 131//1 132//1 133//1 134//1 135//1 136//1 137//1 138//1 139//1 140//1 141//1 142//1 143//1 144//1 145//1 146//1
f 75//3 77//3 112//3 111//3
f 77//3 78//3 113//3 112//3
f 78//4 79//4 114//4 113//4
f 79//4 80//4 115//4 114//4
f 80//5 81//5 116//5 115//5
f 81//5 82//5 117//5 116//5
f 82//5 83//5 118//5 117//5
f 83//6 84//6 119//6 118//6
f 84//7 85//7 120//7 119//7
f 85//7 86//7 121//7 120//7
f 86//8 87//8 122//8 121//8
f 87//8 88//8 123//8 122//8
f 88//9 89//9 124//9 123//9
f 89//10 90//10 125//10 124//10
f 90//10 91//10 126//10 125//10
f 91//11 92//11 127//11 126//11
f 92//12 93//12 128//12 127//12
f 93//13 94//13 129//13 128//13
f 94//14 95//14 130//14 129//14
f 95//15 96//15 131//15 130//15
f 96//16 97//16 132//16 131//16
f 97//17 98//17 133//17 132//17
f 98//18 99//18 134//18 133//18
f 99//19 100//19 135//19 134//19
f 100//20 101//20 136//20 135//20
f 101//21 102//21 137//21 136//21
f 102//22 103//22 138//22 137//22
f 103//22 104//22 139//22 138//22
f 104//23 105//23 140//23 139//23
f 105//24 106//24 141//24 140//24
f 106//24 107//24 142//24 141//24
f 107//25 108//25 143//25 142//25
f 108//26 109//26 144//26 143//26
f 109//27 110//27 145//27 144//27
f 110//28 76//28 146//28 145//28
f 76//28 75//28 111//28 146//28
# 75 faces

