# created with CityEngine 2019.0.5403 0409R (based on Esri Procedural Runtime 2.0.5403, build date: Tue 04/09/2019 10:26 AM)
# creation date: Tue Mar 29 18:59:06 2022

mtllib 20220329_GF_Border.mtl

# mesh 'mesh_CityEngineMaterial_4' from geometry 'mesh_CityEngineMaterial_4'
v -691168.232 0.000 1187222.046
v -691189.800 0.000 1187206.672
v -691189.692 0.000 1187207.241
v -691168.778 0.000 1187222.148
v -691192.553 0.000 1187210.917
v -691192.183 0.000 1187211.082
v -691193.120 0.000 1187212.991
v -691192.885 0.000 1187213.650
v -691194.898 0.000 1187211.722
v -691195.358 0.000 1187211.886
v -691194.333 0.000 1187209.654
v -691194.792 0.000 1187209.816
v -691212.594 0.000 1187196.419
v -691212.490 0.000 1187196.988
v -691214.890 0.000 1187199.896
v -691214.783 0.000 1187200.460
v -691226.818 0.000 1187191.553
v -691227.205 0.000 1187191.770
v -691227.152 0.000 1187186.244
v -691227.539 0.000 1187186.459
v -691263.693 0.000 1187160.178
v -691263.753 0.000 1187160.626
v -691269.771 0.000 1187162.421
v -691269.286 0.000 1187162.668
v -691269.142 0.000 1187164.660
v -691268.613 0.000 1187165.063
v -691284.488 0.000 1187164.573
v -691284.225 0.000 1187164.975
v -691284.608 0.000 1187164.852
v -691284.342 0.000 1187165.247
v -691291.141 0.000 1187164.972
v -691290.834 0.000 1187165.367
v -691296.617 0.000 1187185.010
v -691296.171 0.000 1187184.895
v -691294.295 0.000 1187187.397
v -691293.822 0.000 1187187.310
v -691303.842 0.000 1187209.617
v -691303.316 0.000 1187209.406
v -691283.265 0.000 1187218.313
v -691283.289 0.000 1187217.868
v -691270.899 0.000 1187211.442
v -691270.826 0.000 1187210.944
v -691270.653 0.000 1187211.695
v -691270.401 0.000 1187211.381
v -691235.476 0.000 1187233.497
v -691234.692 0.000 1187233.513
v -691239.742 0.000 1187235.909
v -691239.340 0.000 1187236.141
v -691239.575 0.000 1187255.636
v -691239.176 0.000 1187255.413
v -691233.049 0.000 1187259.716
v -691232.511 0.000 1187259.581
v -691244.229 0.000 1187279.221
v -691243.750 0.000 1187279.189
v -691231.570 0.000 1187295.839
v -691231.377 0.000 1187295.433
v -691223.714 0.000 1187295.595
v -691223.893 0.000 1187295.200
v -691210.516 0.000 1187281.402
v -691210.636 0.000 1187280.945
v -691207.873 0.000 1187282.239
v -691208.041 0.000 1187281.767
# 62 vertices

vn 0.000 1.000 0.000
# 1 vertex normal

g CityEngineMaterial
s off
usemtl CityEngineMaterial
f 1//1 2//1 3//1 4//1
f 2//1 5//1 6//1 3//1
f 5//1 7//1 8//1 6//1
f 7//1 9//1 10//1 8//1
f 9//1 11//1 12//1 10//1
f 11//1 13//1 14//1 12//1
f 13//1 15//1 16//1 14//1
f 15//1 17//1 18//1 16//1
f 17//1 19//1 20//1 18//1
f 19//1 21//1 22//1 20//1
f 21//1 23//1 24//1 22//1
f 23//1 25//1 26//1 24//1
f 25//1 27//1 28//1 26//1
f 27//1 29//1 30//1 28//1
f 29//1 31//1 32//1 30//1
f 31//1 33//1 34//1 32//1
f 33//1 35//1 36//1 34//1
f 35//1 37//1 38//1 36//1
f 37//1 39//1 40//1 38//1
f 39//1 41//1 42//1 40//1
f 41//1 43//1 44//1 42//1
f 43//1 45//1 46//1 44//1
f 45//1 47//1 48//1 46//1
f 47//1 49//1 50//1 48//1
f 49//1 51//1 52//1 50//1
f 51//1 53//1 54//1 52//1
f 53//1 55//1 56//1 54//1
f 55//1 57//1 58//1 56//1
f 57//1 59//1 60//1 58//1
f 59//1 61//1 62//1 60//1
f 61//1 1//1 4//1 62//1
# 31 faces

