# created with CityEngine 2019.0.5403 0409R (based on Esri Procedural Runtime 2.0.5403, build date: Tue 04/09/2019 10:26 AM)
# creation date: Tue Mar 29 18:59:06 2022

mtllib 20220329_GF_Border.mtl

# mesh 'mesh_CityEngineMaterial_20' from geometry 'mesh_CityEngineMaterial_20'
v -691250.976 0.000 1187250.307
v -691211.164 0.000 1187223.625
v -691211.704 0.000 1187223.506
v -691250.832 0.000 1187249.729
v -691222.012 0.000 1187205.709
v -691222.137 0.000 1187206.275
v -691260.910 0.000 1187231.779
v -691260.387 0.000 1187231.909
# 8 vertices

vn 0.000 1.000 0.000
# 1 vertex normal

g CityEngineMaterial
s off
usemtl CityEngineMaterial
f 1//1 2//1 3//1 4//1
f 2//1 5//1 6//1 3//1
f 5//1 7//1 8//1 6//1
f 7//1 1//1 4//1 8//1
# 4 faces

