# created with CityEngine 2019.0.5403 0409R (based on Esri Procedural Runtime 2.0.5403, build date: Tue 04/09/2019 10:26 AM)
# creation date: Tue Mar 29 18:59:06 2022

mtllib 20220329_GF_Border.mtl

# mesh 'mesh_CityEngineMaterial_14' from geometry 'mesh_CityEngineMaterial_14'
v -691212.875 0.000 1187221.602
v -691239.559 0.000 1187180.998
v -691239.679 0.000 1187181.543
v -691213.429 0.000 1187221.487
v -691276.649 0.000 1187203.926
v -691276.098 0.000 1187204.056
v -691269.503 0.000 1187215.486
v -691269.373 0.000 1187214.935
v -691243.656 0.000 1187199.508
v -691243.536 0.000 1187198.963
v -691231.904 0.000 1187217.391
v -691231.350 0.000 1187217.506
v -691257.810 0.000 1187234.417
v -691257.256 0.000 1187234.531
v -691231.127 0.000 1187275.018
v -691231.009 0.000 1187274.471
v -691195.426 0.000 1187252.501
v -691195.975 0.000 1187252.374
v -691202.572 0.000 1187240.950
v -691202.702 0.000 1187241.501
v -691227.229 0.000 1187256.205
v -691227.350 0.000 1187256.750
v -691238.989 0.000 1187238.310
v -691239.543 0.000 1187238.196
v -691224.440 0.000 1187228.748
v -691224.325 0.000 1187228.194
v -691224.232 0.000 1187229.065
v -691224.117 0.000 1187228.511
# 28 vertices

vn 0.000 1.000 0.000
# 1 vertex normal

g CityEngineMaterial
s off
usemtl CityEngineMaterial
f 1//1 2//1 3//1 4//1
f 2//1 5//1 6//1 3//1
f 5//1 7//1 8//1 6//1
f 7//1 9//1 10//1 8//1
f 9//1 11//1 12//1 10//1
f 11//1 13//1 14//1 12//1
f 13//1 15//1 16//1 14//1
f 15//1 17//1 18//1 16//1
f 17//1 19//1 20//1 18//1
f 19//1 21//1 22//1 20//1
f 21//1 23//1 24//1 22//1
f 23//1 25//1 26//1 24//1
f 25//1 27//1 28//1 26//1
f 27//1 1//1 4//1 28//1
# 14 faces

