# created with CityEngine 2019.0.5403 0409R (based on Esri Procedural Runtime 2.0.5403, build date: Tue 04/09/2019 10:26 AM)
# creation date: Tue Mar 29 19:00:06 2022

mtllib 20220329_GF_Base.mtl

# mesh 'mesh_CityEngineMaterial_8' from geometry 'mesh_CityEngineMaterial_8'
v -691231.513 0.000 1187241.806
v -691238.855 0.000 1187233.969
v -691226.909 0.000 1187235.916
v -691235.656 0.000 1187214.211
v -691245.165 0.000 1187217.959
v -691231.513 0.400 1187241.806
v -691226.909 0.400 1187235.916
v -691235.656 0.400 1187214.211
v -691245.165 0.400 1187217.959
v -691238.855 0.400 1187233.969
# 10 vertices

vn 0.000 -1.000 0.000
vn 0.000 1.000 0.000
vn 0.788 0.000 0.616
vn 0.928 0.000 -0.374
vn -0.367 0.000 -0.930
vn -0.930 0.000 0.367
vn -0.730 0.000 0.684
# 7 vertex normals

g CityEngineMaterial
s off
usemtl CityEngineMaterial
f 3//1 1//1 2//1 5//1 4//1
f 6//2 7//2 8//2 9//2 10//2
f 1//3 3//3 7//3 6//3
f 3//4 4//4 8//4 7//4
f 4//5 5//5 9//5 8//5
f 5//6 2//6 10//6 9//6
f 2//7 1//7 6//7 10//7
# 7 faces

