# created with CityEngine 2019.0.5403 0409R (based on Esri Procedural Runtime 2.0.5403, build date: Tue 04/09/2019 10:26 AM)
# creation date: Tue Mar 29 18:57:59 2022

mtllib 20220329_UF_Border.mtl

# mesh 'mesh_CityEngineMaterial_27' from geometry 'mesh_CityEngineMaterial_27'
v -691204.406 0.000 1187300.285
v -691205.729 0.000 1187299.023
v -691206.043 0.000 1187299.276
v -691204.644 0.000 1187300.611
v -691206.680 0.000 1187297.461
v -691207.049 0.000 1187297.624
v -691207.194 0.000 1187295.706
v -691207.593 0.000 1187295.768
v -691207.237 0.000 1187293.878
v -691207.638 0.000 1187293.834
v -691206.805 0.000 1187292.101
v -691207.181 0.000 1187291.955
v -691205.928 0.000 1187290.496
v -691206.253 0.000 1187290.258
v -691204.665 0.000 1187289.174
v -691204.918 0.000 1187288.859
v -691203.103 0.000 1187288.223
v -691203.266 0.000 1187287.853
v -691201.349 0.000 1187287.709
v -691201.411 0.000 1187287.310
v -691199.520 0.000 1187287.666
v -691199.477 0.000 1187287.264
v -691197.743 0.000 1187288.098
v -691197.606 0.000 1187287.719
v -691196.075 0.000 1187288.918
v -691196.262 0.000 1187288.380
v -691195.261 0.000 1187287.217
v -691195.624 0.000 1187287.050
v -691194.534 0.000 1187285.575
v -691194.904 0.000 1187285.424
v -691193.894 0.000 1187283.864
v -691194.273 0.000 1187283.735
v -691193.356 0.000 1187282.116
v -691193.742 0.000 1187282.010
v -691192.921 0.000 1187280.337
v -691193.312 0.000 1187280.254
v -691192.591 0.000 1187278.532
v -691192.986 0.000 1187278.472
v -691192.366 0.000 1187276.708
v -691192.764 0.000 1187276.670
v -691192.247 0.000 1187274.869
v -691192.647 0.000 1187274.854
v -691192.234 0.000 1187273.022
v -691192.635 0.000 1187273.030
v -691192.328 0.000 1187271.172
v -691192.727 0.000 1187271.204
v -691192.528 0.000 1187269.326
v -691192.925 0.000 1187269.380
v -691192.834 0.000 1187267.488
v -691193.226 0.000 1187267.565
v -691193.237 0.000 1187265.693
v -691193.626 0.000 1187265.786
v -691201.257 0.000 1187234.236
v -691201.640 0.000 1187234.353
v -691201.782 0.000 1187232.763
v -691202.145 0.000 1187232.935
v -691202.863 0.000 1187230.967
v -691203.189 0.000 1187231.202
v -691203.981 0.000 1187229.655
v -691204.263 0.000 1187229.941
v -691205.500 0.000 1187228.407
v -691205.726 0.000 1187228.739
v -691207.143 0.000 1187227.493
v -691207.307 0.000 1187227.860
v -691208.920 0.000 1187226.875
v -691209.018 0.000 1187227.264
v -691210.710 0.000 1187226.584
v -691210.740 0.000 1187226.984
v -691212.753 0.000 1187226.607
v -691212.709 0.000 1187227.006
v -691214.603 0.000 1187226.998
v -691214.483 0.000 1187227.381
v -691216.337 0.000 1187227.724
v -691216.147 0.000 1187228.078
v -691217.891 0.000 1187228.764
v -691217.633 0.000 1187229.072
v -691219.414 0.000 1187230.348
v -691219.114 0.000 1187230.614
v -691234.990 0.000 1187249.373
v -691234.674 0.000 1187249.618
v -691236.118 0.000 1187250.898
v -691235.784 0.000 1187251.120
v -691237.114 0.000 1187252.569
v -691236.760 0.000 1187252.757
v -691237.941 0.000 1187254.330
v -691237.570 0.000 1187254.482
v -691238.591 0.000 1187256.167
v -691238.207 0.000 1187256.282
v -691239.058 0.000 1187258.063
v -691238.665 0.000 1187258.140
v -691239.339 0.000 1187260.001
v -691238.941 0.000 1187260.039
v -691239.432 0.000 1187261.963
v -691239.031 0.000 1187261.963
v -691239.335 0.000 1187263.933
v -691238.937 0.000 1187263.895
v -691239.051 0.000 1187265.893
v -691238.658 0.000 1187265.816
v -691238.545 0.000 1187267.935
v -691238.161 0.000 1187267.822
v -691237.934 0.000 1187269.717
v -691237.561 0.000 1187269.569
v -691237.129 0.000 1187271.505
v -691236.768 0.000 1187271.332
v -691230.882 0.000 1187283.857
v -691230.708 0.000 1187283.314
v -691229.276 0.000 1187283.016
v -691229.426 0.000 1187282.644
v -691227.521 0.000 1187282.502
v -691227.583 0.000 1187282.104
v -691225.693 0.000 1187282.460
v -691225.650 0.000 1187282.059
v -691223.916 0.000 1187282.892
v -691223.770 0.000 1187282.515
v -691222.311 0.000 1187283.769
v -691222.073 0.000 1187283.443
v -691220.989 0.000 1187285.032
v -691220.674 0.000 1187284.779
v -691220.038 0.000 1187286.593
v -691219.669 0.000 1187286.430
v -691219.523 0.000 1187288.348
v -691219.125 0.000 1187288.286
v -691219.481 0.000 1187290.177
v -691219.080 0.000 1187290.220
v -691219.913 0.000 1187291.953
v -691219.537 0.000 1187292.099
v -691220.790 0.000 1187293.558
v -691220.464 0.000 1187293.796
v -691222.053 0.000 1187294.881
v -691221.800 0.000 1187295.195
v -691223.615 0.000 1187295.832
v -691223.452 0.000 1187296.201
v -691225.370 0.000 1187296.346
v -691225.308 0.000 1187296.745
v -691227.198 0.000 1187296.389
v -691227.241 0.000 1187296.790
v -691228.975 0.000 1187295.957
v -691229.120 0.000 1187296.333
v -691230.579 0.000 1187295.080
v -691230.817 0.000 1187295.405
v -691231.817 0.000 1187293.898
v -691232.110 0.000 1187294.171
v -691232.774 0.000 1187292.749
v -691232.826 0.000 1187293.312
v -691243.209 0.000 1187301.438
v -691242.946 0.000 1187301.739
v -691244.657 0.000 1187302.760
v -691244.373 0.000 1187303.043
v -691246.002 0.000 1187304.237
v -691245.694 0.000 1187304.493
v -691247.200 0.000 1187305.825
v -691246.870 0.000 1187306.051
v -691248.239 0.000 1187307.512
v -691247.888 0.000 1187307.705
v -691249.109 0.000 1187309.282
v -691248.741 0.000 1187309.439
v -691249.852 0.000 1187311.298
v -691249.470 0.000 1187311.420
v -691250.260 0.000 1187312.809
v -691249.869 0.000 1187312.896
v -691250.638 0.000 1187314.935
v -691250.240 0.000 1187314.984
v -691250.771 0.000 1187316.879
v -691250.370 0.000 1187316.887
v -691250.711 0.000 1187318.824
v -691250.312 0.000 1187318.792
v -691250.460 0.000 1187320.753
v -691250.066 0.000 1187320.682
v -691250.045 0.000 1187322.538
v -691249.657 0.000 1187322.438
v -691243.166 0.000 1187346.663
v -691242.786 0.000 1187346.535
v -691242.517 0.000 1187348.303
v -691242.159 0.000 1187348.120
v -691241.503 0.000 1187349.875
v -691241.188 0.000 1187349.625
v -691240.199 0.000 1187351.230
v -691239.937 0.000 1187350.925
v -691238.655 0.000 1187352.324
v -691238.454 0.000 1187351.976
v -691236.926 0.000 1187353.120
v -691236.792 0.000 1187352.742
v -691235.072 0.000 1187353.596
v -691235.008 0.000 1187353.200
v -691233.157 0.000 1187353.736
v -691233.163 0.000 1187353.335
v -691231.231 0.000 1187353.534
v -691231.308 0.000 1187353.140
v -691229.396 0.000 1187353.007
v -691229.540 0.000 1187352.633
v -691227.676 0.000 1187352.162
v -691227.885 0.000 1187351.819
v -691226.143 0.000 1187351.028
v -691226.410 0.000 1187350.728
v -691224.931 0.000 1187349.730
v -691225.236 0.000 1187349.471
v -691205.229 0.000 1187324.195
v -691205.549 0.000 1187323.955
v -691204.146 0.000 1187322.707
v -691204.476 0.000 1187322.481
v -691203.137 0.000 1187321.142
v -691203.479 0.000 1187320.935
v -691202.220 0.000 1187319.526
v -691202.574 0.000 1187319.339
v -691201.400 0.000 1187317.866
v -691201.764 0.000 1187317.699
v -691200.678 0.000 1187316.166
v -691201.051 0.000 1187316.020
v -691200.057 0.000 1187314.431
v -691200.438 0.000 1187314.307
v -691199.540 0.000 1187312.667
v -691199.927 0.000 1187312.565
v -691199.126 0.000 1187310.879
v -691199.519 0.000 1187310.800
v -691198.819 0.000 1187309.073
v -691199.216 0.000 1187309.018
v -691198.619 0.000 1187307.255
v -691199.018 0.000 1187307.223
v -691198.527 0.000 1187305.431
v -691198.928 0.000 1187305.426
v -691198.625 0.000 1187301.516
v -691199.014 0.000 1187301.929
v -691201.025 0.000 1187301.595
v -691201.069 0.000 1187301.996
v -691202.891 0.000 1187301.114
v -691203.039 0.000 1187301.489
# 226 vertices

vn 0.000 1.000 0.000
# 1 vertex normal

g CityEngineMaterial
s off
usemtl CityEngineMaterial
f 1//1 2//1 3//1 4//1
f 2//1 5//1 6//1 3//1
f 5//1 7//1 8//1 6//1
f 7//1 9//1 10//1 8//1
f 9//1 11//1 12//1 10//1
f 11//1 13//1 14//1 12//1
f 13//1 15//1 16//1 14//1
f 15//1 17//1 18//1 16//1
f 17//1 19//1 20//1 18//1
f 19//1 21//1 22//1 20//1
f 21//1 23//1 24//1 22//1
f 23//1 25//1 26//1 24//1
f 25//1 27//1 28//1 26//1
f 27//1 29//1 30//1 28//1
f 29//1 31//1 32//1 30//1
f 31//1 33//1 34//1 32//1
f 33//1 35//1 36//1 34//1
f 35//1 37//1 38//1 36//1
f 37//1 39//1 40//1 38//1
f 39//1 41//1 42//1 40//1
f 41//1 43//1 44//1 42//1
f 43//1 45//1 46//1 44//1
f 45//1 47//1 48//1 46//1
f 47//1 49//1 50//1 48//1
f 49//1 51//1 52//1 50//1
f 51//1 53//1 54//1 52//1
f 53//1 55//1 56//1 54//1
f 55//1 57//1 58//1 56//1
f 57//1 59//1 60//1 58//1
f 59//1 61//1 62//1 60//1
f 61//1 63//1 64//1 62//1
f 63//1 65//1 66//1 64//1
f 65//1 67//1 68//1 66//1
f 67//1 69//1 70//1 68//1
f 69//1 71//1 72//1 70//1
f 71//1 73//1 74//1 72//1
f 73//1 75//1 76//1 74//1
f 75//1 77//1 78//1 76//1
f 77//1 79//1 80//1 78//1
f 79//1 81//1 82//1 80//1
f 81//1 83//1 84//1 82//1
f 83//1 85//1 86//1 84//1
f 85//1 87//1 88//1 86//1
f 87//1 89//1 90//1 88//1
f 89//1 91//1 92//1 90//1
f 91//1 93//1 94//1 92//1
f 93//1 95//1 96//1 94//1
f 95//1 97//1 98//1 96//1
f 97//1 99//1 100//1 98//1
f 99//1 101//1 102//1 100//1
f 101//1 103//1 104//1 102//1
f 103//1 105//1 106//1 104//1
f 105//1 107//1 108//1 106//1
f 107//1 109//1 110//1 108//1
f 109//1 111//1 112//1 110//1
f 111//1 113//1 114//1 112//1
f 113//1 115//1 116//1 114//1
f 115//1 117//1 118//1 116//1
f 117//1 119//1 120//1 118//1
f 119//1 121//1 122//1 120//1
f 121//1 123//1 124//1 122//1
f 123//1 125//1 126//1 124//1
f 125//1 127//1 128//1 126//1
f 127//1 129//1 130//1 128//1
f 129//1 131//1 132//1 130//1
f 131//1 133//1 134//1 132//1
f 133//1 135//1 136//1 134//1
f 135//1 137//1 138//1 136//1
f 137//1 139//1 140//1 138//1
f 139//1 141//1 142//1 140//1
f 141//1 143//1 144//1 142//1
f 143//1 145//1 146//1 144//1
f 145//1 147//1 148//1 146//1
f 147//1 149//1 150//1 148//1
f 149//1 151//1 152//1 150//1
f 151//1 153//1 154//1 152//1
f 153//1 155//1 156//1 154//1
f 155//1 157//1 158//1 156//1
f 157//1 159//1 160//1 158//1
f 159//1 161//1 162//1 160//1
f 161//1 163//1 164//1 162//1
f 163//1 165//1 166//1 164//1
f 165//1 167//1 168//1 166//1
f 167//1 169//1 170//1 168//1
f 169//1 171//1 172//1 170//1
f 171//1 173//1 174//1 172//1
f 173//1 175//1 176//1 174//1
f 175//1 177//1 178//1 176//1
f 177//1 179//1 180//1 178//1
f 179//1 181//1 182//1 180//1
f 181//1 183//1 184//1 182//1
f 183//1 185//1 186//1 184//1
f 185//1 187//1 188//1 186//1
f 187//1 189//1 190//1 188//1
f 189//1 191//1 192//1 190//1
f 191//1 193//1 194//1 192//1
f 193//1 195//1 196//1 194//1
f 195//1 197//1 198//1 196//1
f 197//1 199//1 200//1 198//1
f 199//1 201//1 202//1 200//1
f 201//1 203//1 204//1 202//1
f 203//1 205//1 206//1 204//1
f 205//1 207//1 208//1 206//1
f 207//1 209//1 210//1 208//1
f 209//1 211//1 212//1 210//1
f 211//1 213//1 214//1 212//1
f 213//1 215//1 216//1 214//1
f 215//1 217//1 218//1 216//1
f 217//1 219//1 220//1 218//1
f 219//1 221//1 222//1 220//1
f 221//1 223//1 224//1 222//1
f 223//1 225//1 226//1 224//1
f 225//1 1//1 4//1 226//1
# 113 faces

