# created with CityEngine 2019.0.5403 0409R (based on Esri Procedural Runtime 2.0.5403, build date: Tue 04/09/2019 10:26 AM)
# creation date: Tue Mar 29 18:57:59 2022

mtllib 20220329_UF_Border.mtl

# mesh 'mesh_CityEngineMaterial_11' from geometry 'mesh_CityEngineMaterial_11'
v -691210.849 0.000 1187270.203
v -691210.284 0.000 1187264.122
v -691210.719 0.000 1187264.484
v -691211.210 0.000 1187269.768
v -691228.382 0.000 1187262.437
v -691228.419 0.000 1187262.835
v -691234.577 0.000 1187261.860
v -691234.615 0.000 1187262.258
v -691257.914 0.000 1187259.686
v -691257.553 0.000 1187260.122
v -691258.480 0.000 1187265.770
v -691258.045 0.000 1187265.409
v -691257.346 0.000 1187265.876
v -691256.911 0.000 1187265.514
v -691258.280 0.000 1187275.899
v -691257.882 0.000 1187275.936
v -691258.282 0.000 1187275.922
v -691257.884 0.000 1187275.960
v -691258.367 0.000 1187276.833
v -691257.969 0.000 1187276.870
v -691258.430 0.000 1187277.507
v -691258.069 0.000 1187277.942
v -691259.264 0.000 1187277.429
v -691259.291 0.000 1187277.730
v -691259.203 0.000 1187277.837
v -691259.564 0.000 1187277.401
v -691259.345 0.000 1187277.665
v -691259.586 0.000 1187277.642
v -691260.131 0.000 1187283.485
v -691259.695 0.000 1187283.124
v -691242.128 0.000 1187285.158
v -691241.693 0.000 1187284.796
v -691245.227 0.000 1187318.418
v -691244.792 0.000 1187318.057
v -691239.139 0.000 1187318.985
v -691239.500 0.000 1187318.549
v -691239.024 0.000 1187317.748
v -691239.385 0.000 1187317.313
v -691227.398 0.000 1187318.831
v -691226.962 0.000 1187318.470
v -691227.513 0.000 1187320.067
v -691227.077 0.000 1187319.706
v -691221.432 0.000 1187320.634
v -691221.793 0.000 1187320.198
v -691219.334 0.000 1187298.124
v -691219.695 0.000 1187297.689
v -691185.090 0.000 1187301.313
v -691185.451 0.000 1187300.877
v -691184.523 0.000 1187295.229
v -691184.958 0.000 1187295.589
v -691185.758 0.000 1187295.109
v -691186.193 0.000 1187295.469
v -691184.677 0.000 1187283.483
v -691185.038 0.000 1187283.048
v -691183.441 0.000 1187283.598
v -691183.802 0.000 1187283.163
v -691182.874 0.000 1187277.515
v -691183.310 0.000 1187277.876
v -691212.418 0.000 1187274.767
v -691212.853 0.000 1187275.129
v -691211.984 0.000 1187270.098
v -691212.345 0.000 1187269.662
# 62 vertices

vn 0.000 1.000 0.000
# 1 vertex normal

g CityEngineMaterial
s off
usemtl CityEngineMaterial
f 1//1 2//1 3//1 4//1
f 2//1 5//1 6//1 3//1
f 5//1 7//1 8//1 6//1
f 7//1 9//1 10//1 8//1
f 9//1 11//1 12//1 10//1
f 11//1 13//1 14//1 12//1
f 13//1 15//1 16//1 14//1
f 15//1 17//1 18//1 16//1
f 17//1 19//1 20//1 18//1
f 19//1 21//1 22//1 20//1
f 21//1 23//1 24//1 25//1 22//1
f 23//1 26//1 27//1 24//1
f 26//1 28//1 27//1
f 28//1 29//1 30//1 25//1 24//1 27//1
f 29//1 31//1 32//1 30//1
f 31//1 33//1 34//1 32//1
f 33//1 35//1 36//1 34//1
f 35//1 37//1 38//1 36//1
f 37//1 39//1 40//1 38//1
f 39//1 41//1 42//1 40//1
f 41//1 43//1 44//1 42//1
f 43//1 45//1 46//1 44//1
f 45//1 47//1 48//1 46//1
f 47//1 49//1 50//1 48//1
f 49//1 51//1 52//1 50//1
f 51//1 53//1 54//1 52//1
f 53//1 55//1 56//1 54//1
f 55//1 57//1 58//1 56//1
f 57//1 59//1 60//1 58//1
f 59//1 61//1 62//1 60//1
f 61//1 1//1 4//1 62//1
# 31 faces

