# created with CityEngine 2019.0.5403 0409R (based on Esri Procedural Runtime 2.0.5403, build date: Tue 04/09/2019 10:26 AM)
# creation date: Tue Mar 29 18:57:58 2022

mtllib 20220329_UF_Border.mtl

# mesh 'mesh_CityEngineMaterial' from geometry 'mesh_CityEngineMaterial'
v -691210.884 0.000 1187261.751
v -691215.202 0.000 1187255.587
v -691215.274 0.000 1187255.645
v -691215.319 0.000 1187256.118
v -691211.228 0.000 1187261.957
v -691215.271 0.000 1187255.514
v -691217.250 0.000 1187257.431
v -691217.009 0.000 1187257.755
v -691219.943 0.000 1187258.929
v -691219.749 0.000 1187259.279
v -691220.361 0.000 1187259.161
v -691220.166 0.000 1187259.511
v -691220.677 0.000 1187259.337
v -691220.528 0.000 1187259.712
v -691224.481 0.000 1187260.292
v -691224.435 0.000 1187260.692
v -691228.402 0.000 1187260.229
v -691228.461 0.000 1187260.628
v -691232.174 0.000 1187259.153
v -691232.334 0.000 1187259.524
v -691234.468 0.000 1187257.779
v -691234.472 0.000 1187257.786
v -691234.432 0.000 1187257.905
v -691234.277 0.000 1187258.360
v -691234.477 0.000 1187257.774
v -691234.515 0.000 1187257.872
v -691237.276 0.000 1187264.874
v -691236.893 0.000 1187264.995
v -691239.025 0.000 1187272.194
v -691238.630 0.000 1187272.260
v -691239.729 0.000 1187279.687
v -691239.328 0.000 1187279.697
v -691239.373 0.000 1187287.205
v -691238.975 0.000 1187287.158
v -691237.964 0.000 1187294.598
v -691237.577 0.000 1187294.496
v -691237.520 0.000 1187295.898
v -691237.142 0.000 1187295.768
v -691235.531 0.000 1187301.720
v -691235.162 0.000 1187301.564
v -691232.121 0.000 1187308.430
v -691231.778 0.000 1187308.223
v -691227.803 0.000 1187314.594
v -691227.492 0.000 1187314.341
v -691222.661 0.000 1187320.090
v -691222.389 0.000 1187319.796
v -691216.803 0.000 1187324.806
v -691216.870 0.000 1187324.238
v -691213.624 0.000 1187320.689
v -691213.941 0.000 1187320.444
v -691212.206 0.000 1187318.852
v -691212.540 0.000 1187318.630
v -691208.490 0.000 1187312.308
v -691208.851 0.000 1187312.135
v -691205.729 0.000 1187305.306
v -691206.112 0.000 1187305.186
v -691203.980 0.000 1187297.986
v -691204.375 0.000 1187297.921
v -691203.276 0.000 1187290.493
v -691203.677 0.000 1187290.484
v -691203.547 0.000 1187284.769
v -691203.947 0.000 1187284.788
v -691203.632 0.000 1187282.975
v -691204.030 0.000 1187283.023
v -691205.041 0.000 1187275.582
v -691205.428 0.000 1187275.685
v -691207.474 0.000 1187268.460
v -691207.843 0.000 1187268.616
# 68 vertices

vn 0.000 1.000 0.000
# 1 vertex normal

g CityEngineMaterial
s off
usemtl CityEngineMaterial
f 1//1 2//1 3//1 4//1 5//1
f 2//1 6//1 3//1
f 6//1 7//1 8//1 4//1 3//1
f 7//1 9//1 10//1 8//1
f 9//1 11//1 12//1 10//1
f 11//1 13//1 14//1 12//1
f 13//1 15//1 16//1 14//1
f 15//1 17//1 18//1 16//1
f 17//1 19//1 20//1 18//1
f 19//1 21//1 22//1 23//1 24//1 20//1
f 21//1 25//1 22//1
f 25//1 26//1 23//1 22//1
f 26//1 27//1 28//1 24//1 23//1
f 27//1 29//1 30//1 28//1
f 29//1 31//1 32//1 30//1
f 31//1 33//1 34//1 32//1
f 33//1 35//1 36//1 34//1
f 35//1 37//1 38//1 36//1
f 37//1 39//1 40//1 38//1
f 39//1 41//1 42//1 40//1
f 41//1 43//1 44//1 42//1
f 43//1 45//1 46//1 44//1
f 45//1 47//1 48//1 46//1
f 47//1 49//1 50//1 48//1
f 49//1 51//1 52//1 50//1
f 51//1 53//1 54//1 52//1
f 53//1 55//1 56//1 54//1
f 55//1 57//1 58//1 56//1
f 57//1 59//1 60//1 58//1
f 59//1 61//1 62//1 60//1
f 61//1 63//1 64//1 62//1
f 63//1 65//1 66//1 64//1
f 65//1 67//1 68//1 66//1
f 67//1 1//1 5//1 68//1
# 34 faces

