# created with CityEngine 2019.0.5403 0409R (based on Esri Procedural Runtime 2.0.5403, build date: Tue 04/09/2019 10:26 AM)
# creation date: Tue Mar 29 18:59:06 2022

mtllib 20220329_GF_Border.mtl

# mesh 'mesh_CityEngineMaterial_23' from geometry 'mesh_CityEngineMaterial_23'
v -691261.115 0.000 1187237.481
v -691261.736 0.000 1187236.159
v -691262.202 0.000 1187236.106
v -691261.307 0.000 1187238.013
v -691224.123 0.000 1187188.236
v -691224.685 0.000 1187188.304
v -691235.129 0.000 1187179.599
v -691235.061 0.000 1187180.161
v -691278.063 0.000 1187234.302
v -691277.596 0.000 1187234.355
v -691258.288 0.000 1187276.418
v -691258.096 0.000 1187275.885
v -691245.625 0.000 1187270.472
v -691246.157 0.000 1187270.280
v -691255.171 0.000 1187250.140
v -691255.703 0.000 1187249.948
v -691242.523 0.000 1187244.202
v -691242.341 0.000 1187243.675
v -691232.419 0.000 1187264.276
v -691232.238 0.000 1187263.746
v -691194.012 0.000 1187245.836
v -691194.543 0.000 1187245.647
v -691199.954 0.000 1187233.180
v -691200.146 0.000 1187233.713
v -691226.205 0.000 1187245.506
v -691226.387 0.000 1187246.033
v -691229.855 0.000 1187238.254
v -691230.397 0.000 1187238.067
v -691213.890 0.000 1187230.758
v -691214.422 0.000 1187230.566
v -691219.833 0.000 1187218.099
v -691220.025 0.000 1187218.631
# 32 vertices

vn 0.000 1.000 0.000
# 1 vertex normal

g CityEngineMaterial
s off
usemtl CityEngineMaterial
f 1//1 2//1 3//1 4//1
f 2//1 5//1 6//1 3//1
f 5//1 7//1 8//1 6//1
f 7//1 9//1 10//1 8//1
f 9//1 11//1 12//1 10//1
f 11//1 13//1 14//1 12//1
f 13//1 15//1 16//1 14//1
f 15//1 17//1 18//1 16//1
f 17//1 19//1 20//1 18//1
f 19//1 21//1 22//1 20//1
f 21//1 23//1 24//1 22//1
f 23//1 25//1 26//1 24//1
f 25//1 27//1 28//1 26//1
f 27//1 29//1 30//1 28//1
f 29//1 31//1 32//1 30//1
f 31//1 1//1 4//1 32//1
# 16 faces

