# created with CityEngine 2019.0.5403 0409R (based on Esri Procedural Runtime 2.0.5403, build date: Tue 04/09/2019 10:26 AM)
# creation date: Tue Mar 29 18:59:03 2022

mtllib 20220329_GF_Border.mtl

# mesh 'mesh_CityEngineMaterial' from geometry 'mesh_CityEngineMaterial'
v -691194.030 0.000 1187232.412
v -691192.807 0.000 1187231.817
v -691193.003 0.000 1187231.468
v -691194.183 0.000 1187232.042
v -691191.663 0.000 1187231.080
v -691191.900 0.000 1187230.757
v -691190.616 0.000 1187230.212
v -691190.885 0.000 1187229.915
v -691188.543 0.000 1187228.167
v -691188.824 0.000 1187227.883
v -691186.482 0.000 1187226.108
v -691186.765 0.000 1187225.826
v -691186.382 0.000 1187226.008
v -691186.666 0.000 1187225.726
v -691186.333 0.000 1187225.958
v -691186.617 0.000 1187225.676
v -691184.433 0.000 1187224.038
v -691184.719 0.000 1187223.757
v -691182.398 0.000 1187221.954
v -691182.685 0.000 1187221.675
v -691180.376 0.000 1187219.858
v -691180.664 0.000 1187219.581
v -691178.366 0.000 1187217.749
v -691178.657 0.000 1187217.474
v -691176.370 0.000 1187215.628
v -691176.662 0.000 1187215.355
v -691174.387 0.000 1187213.495
v -691174.681 0.000 1187213.224
v -691170.591 0.000 1187209.360
v -691170.888 0.000 1187209.092
v -691170.307 0.000 1187209.037
v -691170.613 0.000 1187208.779
v -691170.037 0.000 1187208.703
v -691170.354 0.000 1187208.459
v -691169.847 0.000 1187208.446
v -691170.170 0.000 1187208.211
v -691169.767 0.000 1187208.334
v -691170.095 0.000 1187208.105
v -691169.541 0.000 1187208.002
v -691169.873 0.000 1187207.778
v -691169.535 0.000 1187207.994
v -691169.420 0.000 1187207.806
v -691169.755 0.000 1187207.587
v -691169.322 0.000 1187207.664
v -691169.653 0.000 1187207.440
v -691169.160 0.000 1187207.419
v -691169.496 0.000 1187207.202
v -691169.003 0.000 1187207.170
v -691169.344 0.000 1187206.960
v -691168.852 0.000 1187206.919
v -691169.196 0.000 1187206.716
v -691168.723 0.000 1187206.696
v -691169.072 0.000 1187206.500
v -691168.564 0.000 1187206.406
v -691168.914 0.000 1187206.213
v -691168.190 0.000 1187205.728
v -691168.549 0.000 1187205.551
v -691168.067 0.000 1187205.451
v -691168.434 0.000 1187205.290
v -691167.580 0.000 1187204.345
v -691167.947 0.000 1187204.184
v -691167.480 0.000 1187204.117
v -691167.846 0.000 1187203.956
v -691167.326 0.000 1187203.768
v -691167.700 0.000 1187203.623
v -691166.641 0.000 1187201.738
v -691167.026 0.000 1187201.627
v -691166.140 0.000 1187199.655
v -691166.533 0.000 1187199.579
v -691165.827 0.000 1187197.535
v -691166.225 0.000 1187197.494
v -691165.723 0.000 1187195.720
v -691166.123 0.000 1187195.711
v -691165.736 0.000 1187194.654
v -691166.136 0.000 1187194.659
v -691165.750 0.000 1187193.603
v -691166.150 0.000 1187193.608
v -691165.763 0.000 1187192.551
v -691166.163 0.000 1187192.556
v -691165.774 0.000 1187191.710
v -691166.174 0.000 1187191.723
v -691165.784 0.000 1187191.531
v -691166.184 0.000 1187191.553
v -691165.797 0.000 1187191.304
v -691166.196 0.000 1187191.328
v -691165.823 0.000 1187190.899
v -691166.222 0.000 1187190.926
v -691165.841 0.000 1187190.658
v -691166.240 0.000 1187190.687
v -691165.853 0.000 1187190.494
v -691166.251 0.000 1187190.524
v -691165.885 0.000 1187190.089
v -691166.284 0.000 1187190.122
v -691165.908 0.000 1187189.830
v -691166.306 0.000 1187189.865
v -691165.921 0.000 1187189.684
v -691166.319 0.000 1187189.721
v -691165.960 0.000 1187189.280
v -691166.358 0.000 1187189.319
v -691165.984 0.000 1187189.041
v -691166.382 0.000 1187189.082
v -691166.002 0.000 1187188.876
v -691166.399 0.000 1187188.918
v -691166.047 0.000 1187188.472
v -691166.444 0.000 1187188.518
v -691166.069 0.000 1187188.286
v -691166.466 0.000 1187188.333
v -691166.095 0.000 1187188.069
v -691166.492 0.000 1187188.118
v -691166.147 0.000 1187187.666
v -691166.543 0.000 1187187.718
v -691166.161 0.000 1187187.560
v -691166.557 0.000 1187187.614
v -691166.201 0.000 1187187.263
v -691166.598 0.000 1187187.318
v -691166.259 0.000 1187186.861
v -691166.653 0.000 1187186.934
v -691166.291 0.000 1187186.722
v -691166.684 0.000 1187186.797
v -691166.300 0.000 1187186.668
v -691166.695 0.000 1187186.730
v -691166.316 0.000 1187186.564
v -691166.711 0.000 1187186.626
v -691166.353 0.000 1187186.326
v -691166.747 0.000 1187186.397
v -691166.675 0.000 1187184.741
v -691167.065 0.000 1187184.829
v -691166.834 0.000 1187184.099
v -691167.223 0.000 1187184.195
v -691167.065 0.000 1187183.171
v -691167.451 0.000 1187183.276
v -691167.523 0.000 1187181.620
v -691167.904 0.000 1187181.742
v -691168.049 0.000 1187180.090
v -691168.424 0.000 1187180.228
v -691168.640 0.000 1187178.585
v -691169.009 0.000 1187178.739
v -691169.296 0.000 1187177.106
v -691169.659 0.000 1187177.277
v -691170.017 0.000 1187175.658
v -691170.371 0.000 1187175.844
v -691170.799 0.000 1187174.243
v -691171.145 0.000 1187174.444
v -691171.643 0.000 1187172.862
v -691171.984 0.000 1187173.072
v -691173.756 0.000 1187169.434
v -691174.085 0.000 1187169.661
v -691176.213 0.000 1187166.243
v -691176.524 0.000 1187166.494
v -691187.281 0.000 1187153.100
v -691187.281 0.000 1187153.602
v -691187.279 0.000 1187153.723
v -691187.531 0.000 1187153.397
v -691193.130 0.000 1187160.409
v -691192.815 0.000 1187160.655
v -691198.542 0.000 1187167.567
v -691198.220 0.000 1187167.804
v -691203.762 0.000 1187174.866
v -691203.434 0.000 1187175.094
v -691208.788 0.000 1187182.300
v -691208.453 0.000 1187182.520
v -691213.614 0.000 1187189.865
v -691213.274 0.000 1187190.076
v -691215.572 0.000 1187193.121
v -691215.229 0.000 1187193.327
v -691218.239 0.000 1187197.556
v -691217.893 0.000 1187197.757
v -691222.658 0.000 1187205.365
v -691222.307 0.000 1187205.558
v -691226.867 0.000 1187213.286
v -691226.360 0.000 1187213.184
v -691224.535 0.000 1187215.194
v -691223.987 0.000 1187215.125
v -691226.618 0.000 1187218.015
v -691226.300 0.000 1187218.258
v -691231.164 0.000 1187223.803
v -691230.853 0.000 1187224.055
v -691235.879 0.000 1187229.454
v -691235.575 0.000 1187229.715
v -691240.760 0.000 1187234.962
v -691240.464 0.000 1187235.232
v -691245.802 0.000 1187240.323
v -691245.515 0.000 1187240.601
v -691251.002 0.000 1187245.531
v -691250.723 0.000 1187245.818
v -691256.353 0.000 1187250.583
v -691256.083 0.000 1187250.878
v -691258.881 0.000 1187252.831
v -691259.011 0.000 1187253.482
v -691260.599 0.000 1187249.278
v -691260.753 0.000 1187249.878
v -691265.241 0.000 1187252.565
v -691265.008 0.000 1187252.890
v -691269.146 0.000 1187255.412
v -691268.907 0.000 1187255.733
v -691273.690 0.000 1187258.838
v -691273.446 0.000 1187259.156
v -691278.178 0.000 1187262.338
v -691277.929 0.000 1187262.652
v -691282.608 0.000 1187265.911
v -691282.355 0.000 1187266.220
v -691286.980 0.000 1187269.555
v -691286.721 0.000 1187269.860
v -691291.292 0.000 1187273.269
v -691291.029 0.000 1187273.570
v -691292.234 0.000 1187274.108
v -691291.969 0.000 1187274.406
v -691293.418 0.000 1187275.161
v -691293.152 0.000 1187275.460
v -691295.544 0.000 1187277.053
v -691295.275 0.000 1187277.349
v -691299.733 0.000 1187280.905
v -691299.460 0.000 1187281.197
v -691306.352 0.000 1187287.193
v -691305.770 0.000 1187287.192
v -691298.313 0.000 1187294.781
v -691298.038 0.000 1187294.490
v -691297.424 0.000 1187295.620
v -691297.149 0.000 1187295.329
v -691297.357 0.000 1187295.683
v -691296.792 0.000 1187295.667
v -691299.163 0.000 1187297.597
v -691298.598 0.000 1187297.580
v -691296.049 0.000 1187300.536
v -691295.782 0.000 1187300.238
v -691295.450 0.000 1187301.051
v -691295.203 0.000 1187300.736
v -691294.779 0.000 1187301.526
v -691294.563 0.000 1187301.189
v -691294.068 0.000 1187301.936
v -691293.884 0.000 1187301.581
v -691293.321 0.000 1187302.279
v -691293.172 0.000 1187301.907
v -691292.546 0.000 1187302.550
v -691292.432 0.000 1187302.166
v -691291.749 0.000 1187302.748
v -691291.671 0.000 1187302.355
v -691290.937 0.000 1187302.870
v -691290.896 0.000 1187302.472
v -691290.117 0.000 1187302.916
v -691290.113 0.000 1187302.516
v -691289.296 0.000 1187302.886
v -691289.329 0.000 1187302.487
v -691288.482 0.000 1187302.779
v -691288.552 0.000 1187302.385
v -691287.681 0.000 1187302.597
v -691287.788 0.000 1187302.211
v -691286.867 0.000 1187302.330
v -691287.020 0.000 1187301.959
v -691286.100 0.000 1187301.946
v -691286.282 0.000 1187301.590
v -691282.970 0.000 1187300.311
v -691283.510 0.000 1187300.142
v -691284.252 0.000 1187297.858
v -691284.792 0.000 1187297.689
v -691283.033 0.000 1187297.221
v -691283.219 0.000 1187296.866
v -691281.908 0.000 1187296.633
v -691282.096 0.000 1187296.280
v -691277.288 0.000 1187294.113
v -691277.482 0.000 1187293.763
v -691272.720 0.000 1187291.514
v -691273.434 0.000 1187291.460
v -691273.821 0.000 1187290.645
v -691274.534 0.000 1187290.591
v -691273.366 0.000 1187290.386
v -691273.567 0.000 1187290.040
v -691272.366 0.000 1187289.793
v -691272.333 0.000 1187289.309
v -691271.273 0.000 1187290.656
v -691271.240 0.000 1187290.172
v -691268.186 0.000 1187288.827
v -691268.393 0.000 1187288.485
v -691263.707 0.000 1187286.063
v -691263.920 0.000 1187285.724
v -691259.279 0.000 1187283.219
v -691259.498 0.000 1187282.885
v -691254.902 0.000 1187280.298
v -691255.142 0.000 1187279.977
v -691254.129 0.000 1187279.648
v -691254.400 0.000 1187279.354
v -691253.419 0.000 1187278.930
v -691253.716 0.000 1187278.662
v -691252.778 0.000 1187278.149
v -691253.099 0.000 1187277.909
v -691252.213 0.000 1187277.312
v -691252.554 0.000 1187277.104
v -691251.726 0.000 1187276.427
v -691252.086 0.000 1187276.251
v -691251.324 0.000 1187275.501
v -691251.698 0.000 1187275.359
v -691250.972 0.000 1187274.431
v -691248.443 0.000 1187265.458
v -691251.001 0.000 1187274.553
v -691250.342 0.000 1187273.504
v -691248.200 0.000 1187272.281
v -691248.455 0.000 1187271.972
v -691240.641 0.000 1187265.955
v -691240.900 0.000 1187265.650
v -691233.179 0.000 1187259.514
v -691233.442 0.000 1187259.213
v -691225.815 0.000 1187252.960
v -691226.083 0.000 1187252.663
v -691218.552 0.000 1187246.295
v -691218.825 0.000 1187246.003
v -691211.392 0.000 1187239.521
v -691211.669 0.000 1187239.232
v -691204.335 0.000 1187232.638
v -691204.617 0.000 1187232.354
v -691203.657 0.000 1187231.956
v -691203.727 0.000 1187231.460
v -691203.277 0.000 1187232.166
v -691203.105 0.000 1187231.805
v -691202.017 0.000 1187232.678
v -691201.889 0.000 1187232.299
v -691200.705 0.000 1187233.036
v -691200.623 0.000 1187232.644
v -691199.359 0.000 1187233.235
v -691199.325 0.000 1187232.836
v -691197.999 0.000 1187233.271
v -691198.013 0.000 1187232.871
v -691196.645 0.000 1187233.144
v -691196.706 0.000 1187232.748
v -691195.316 0.000 1187232.857
v -691195.424 0.000 1187232.471
# 325 vertices

vn 0.000 1.000 0.000
# 1 vertex normal

g CityEngineMaterial
s off
usemtl CityEngineMaterial
f 1//1 2//1 3//1 4//1
f 2//1 5//1 6//1 3//1
f 5//1 7//1 8//1 6//1
f 7//1 9//1 10//1 8//1
f 9//1 11//1 12//1 10//1
f 11//1 13//1 14//1 12//1
f 13//1 15//1 16//1 14//1
f 15//1 17//1 18//1 16//1
f 17//1 19//1 20//1 18//1
f 19//1 21//1 22//1 20//1
f 21//1 23//1 24//1 22//1
f 23//1 25//1 26//1 24//1
f 25//1 27//1 28//1 26//1
f 27//1 29//1 30//1 28//1
f 29//1 31//1 32//1 30//1
f 31//1 33//1 34//1 32//1
f 33//1 35//1 36//1 34//1
f 35//1 37//1 38//1 36//1
f 37//1 39//1 40//1 38//1
f 39//1 41//1 40//1
f 41//1 42//1 43//1 40//1
f 42//1 44//1 45//1 43//1
f 44//1 46//1 47//1 45//1
f 46//1 48//1 49//1 47//1
f 48//1 50//1 51//1 49//1
f 50//1 52//1 53//1 51//1
f 52//1 54//1 55//1 53//1
f 54//1 56//1 57//1 55//1
f 56//1 58//1 59//1 57//1
f 58//1 60//1 61//1 59//1
f 60//1 62//1 63//1 61//1
f 62//1 64//1 65//1 63//1
f 64//1 66//1 67//1 65//1
f 66//1 68//1 69//1 67//1
f 68//1 70//1 71//1 69//1
f 70//1 72//1 73//1 71//1
f 72//1 74//1 75//1 73//1
f 74//1 76//1 77//1 75//1
f 76//1 78//1 79//1 77//1
f 78//1 80//1 81//1 79//1
f 80//1 82//1 83//1 81//1
f 82//1 84//1 85//1 83//1
f 84//1 86//1 87//1 85//1
f 86//1 88//1 89//1 87//1
f 88//1 90//1 91//1 89//1
f 90//1 92//1 93//1 91//1
f 92//1 94//1 95//1 93//1
f 94//1 96//1 97//1 95//1
f 96//1 98//1 99//1 97//1
f 98//1 100//1 101//1 99//1
f 100//1 102//1 103//1 101//1
f 102//1 104//1 105//1 103//1
f 104//1 106//1 107//1 105//1
f 106//1 108//1 109//1 107//1
f 108//1 110//1 111//1 109//1
f 110//1 112//1 113//1 111//1
f 112//1 114//1 115//1 113//1
f 114//1 116//1 117//1 115//1
f 116//1 118//1 119//1 117//1
f 118//1 120//1 121//1 119//1
f 120//1 122//1 123//1 121//1
f 122//1 124//1 125//1 123//1
f 124//1 126//1 127//1 125//1
f 126//1 128//1 129//1 127//1
f 128//1 130//1 131//1 129//1
f 130//1 132//1 133//1 131//1
f 132//1 134//1 135//1 133//1
f 134//1 136//1 137//1 135//1
f 136//1 138//1 139//1 137//1
f 138//1 140//1 141//1 139//1
f 140//1 142//1 143//1 141//1
f 142//1 144//1 145//1 143//1
f 144//1 146//1 147//1 145//1
f 146//1 148//1 149//1 147//1
f 148//1 150//1 151//1 152//1 149//1
f 150//1 153//1 151//1
f 153//1 154//1 155//1 152//1 151//1
f 154//1 156//1 157//1 155//1
f 156//1 158//1 159//1 157//1
f 158//1 160//1 161//1 159//1
f 160//1 162//1 163//1 161//1
f 162//1 164//1 165//1 163//1
f 164//1 166//1 167//1 165//1
f 166//1 168//1 169//1 167//1
f 168//1 170//1 171//1 169//1
f 170//1 172//1 173//1 171//1
f 172//1 174//1 175//1 173//1
f 174//1 176//1 177//1 175//1
f 176//1 178//1 179//1 177//1
f 178//1 180//1 181//1 179//1
f 180//1 182//1 183//1 181//1
f 182//1 184//1 185//1 183//1
f 184//1 186//1 187//1 185//1
f 186//1 188//1 189//1 187//1
f 188//1 190//1 191//1 189//1
f 190//1 192//1 193//1 191//1
f 192//1 194//1 195//1 193//1
f 194//1 196//1 197//1 195//1
f 196//1 198//1 199//1 197//1
f 198//1 200//1 201//1 199//1
f 200//1 202//1 203//1 201//1
f 202//1 204//1 205//1 203//1
f 204//1 206//1 207//1 205//1
f 206//1 208//1 209//1 207//1
f 208//1 210//1 211//1 209//1
f 210//1 212//1 213//1 211//1
f 212//1 214//1 215//1 213//1
f 214//1 216//1 217//1 215//1
f 216//1 218//1 219//1 217//1
f 218//1 220//1 221//1 219//1
f 220//1 222//1 223//1 221//1
f 222//1 224//1 225//1 223//1
f 224//1 226//1 227//1 225//1
f 226//1 228//1 229//1 227//1
f 228//1 230//1 231//1 229//1
f 230//1 232//1 233//1 231//1
f 232//1 234//1 235//1 233//1
f 234//1 236//1 237//1 235//1
f 236//1 238//1 239//1 237//1
f 238//1 240//1 241//1 239//1
f 240//1 242//1 243//1 241//1
f 242//1 244//1 245//1 243//1
f 244//1 246//1 247//1 245//1
f 246//1 248//1 249//1 247//1
f 248//1 250//1 251//1 249//1
f 250//1 252//1 253//1 251//1
f 252//1 254//1 255//1 253//1
f 254//1 256//1 257//1 255//1
f 256//1 258//1 259//1 257//1
f 258//1 260//1 261//1 259//1
f 260//1 262//1 263//1 261//1
f 262//1 264//1 265//1 263//1
f 264//1 266//1 267//1 265//1
f 266//1 268//1 269//1 267//1
f 268//1 270//1 271//1 269//1
f 270//1 272//1 273//1 271//1
f 272//1 274//1 275//1 273//1
f 274//1 276//1 277//1 275//1
f 276//1 278//1 279//1 277//1
f 278//1 280//1 281//1 279//1
f 280//1 282//1 283//1 281//1
f 282//1 284//1 285//1 283//1
f 284//1 286//1 287//1 285//1
f 286//1 288//1 289//1 287//1
f 288//1 290//1 291//1 289//1
f 290//1 292//1 293//1 291//1
f 292//1 294//1 295//1 293//1
f 294//1 296//1 297//1 295//1
f 296//1 298//1 299//1 297//1
f 298//1 300//1 301//1 299//1
f 300//1 302//1 303//1 301//1
f 302//1 304//1 305//1 303//1
f 304//1 306//1 307//1 305//1
f 306//1 308//1 309//1 307//1
f 308//1 310//1 311//1 309//1
f 310//1 312//1 313//1 311//1
f 312//1 314//1 315//1 313//1
f 314//1 316//1 317//1 315//1
f 316//1 318//1 319//1 317//1
f 318//1 320//1 321//1 319//1
f 320//1 322//1 323//1 321//1
f 322//1 324//1 325//1 323//1
f 324//1 1//1 4//1 325//1
# 163 faces

