# created with CityEngine 2019.0.5403 0409R (based on Esri Procedural Runtime 2.0.5403, build date: Tue 04/09/2019 10:26 AM)
# creation date: Tue Mar 29 18:57:17 2022

mtllib 20220329_UF_Base.mtl

# mesh 'mesh_CityEngineMaterial_6' from geometry 'mesh_CityEngineMaterial_6'
v -691199.097 0.000 1187298.406
v -691205.432 0.000 1187301.941
v -691199.384 0.000 1187297.850
v -691199.856 0.000 1187296.937
v -691201.270 0.000 1187294.200
v -691201.742 0.000 1187293.287
v -691202.685 0.000 1187291.462
v -691203.150 0.000 1187290.561
v -691203.716 0.000 1187289.618
v -691206.583 0.000 1187284.847
v -691207.157 0.000 1187283.892
v -691207.723 0.000 1187282.950
v -691211.030 0.000 1187278.166
v -691212.788 0.000 1187275.622
v -691217.618 0.000 1187269.502
v -691218.067 0.000 1187268.933
v -691219.920 0.000 1187270.224
v -691243.908 0.000 1187286.936
v -691238.422 0.000 1187292.122
v -691234.565 0.000 1187296.225
v -691232.613 0.000 1187298.302
v -691231.933 0.000 1187299.118
v -691227.900 0.000 1187303.959
v -691227.220 0.000 1187304.776
v -691225.886 0.000 1187306.592
v -691222.362 0.000 1187311.386
v -691205.548 0.000 1187302.006
v -691199.097 0.400 1187298.406
v -691199.384 0.400 1187297.850
v -691199.856 0.400 1187296.937
v -691201.270 0.400 1187294.200
v -691201.742 0.400 1187293.287
v -691202.685 0.400 1187291.462
v -691203.150 0.400 1187290.561
v -691203.716 0.400 1187289.618
v -691206.583 0.400 1187284.847
v -691207.157 0.400 1187283.892
v -691207.723 0.400 1187282.950
v -691211.030 0.400 1187278.166
v -691212.788 0.400 1187275.622
v -691217.618 0.400 1187269.502
v -691218.067 0.400 1187268.933
v -691219.920 0.400 1187270.224
v -691243.908 0.400 1187286.936
v -691238.422 0.400 1187292.122
v -691234.565 0.400 1187296.225
v -691232.613 0.400 1187298.302
v -691231.933 0.400 1187299.118
v -691227.900 0.400 1187303.959
v -691227.220 0.400 1187304.776
v -691225.886 0.400 1187306.592
v -691222.362 0.400 1187311.386
v -691205.548 0.400 1187302.006
v -691205.432 0.400 1187301.941
# 54 vertices

vn 0.000 -1.000 0.000
vn 0.000 1.000 0.000
vn 0.888 0.000 -0.459
vn 0.857 0.000 -0.515
vn 0.823 0.000 -0.569
vn 0.785 0.000 -0.620
vn -0.572 0.000 -0.821
vn -0.687 0.000 0.727
vn -0.729 0.000 0.685
vn -0.768 0.000 0.640
vn -0.806 0.000 0.592
vn 0.487 0.000 0.873
# 12 vertex normals

g CityEngineMaterial
s off
usemtl CityEngineMaterial
f 3//1 1//1 2//1 27//1 26//1 25//1 24//1 23//1 22//1 21//1 20//1 19//1 18//1 17//1 16//1 15//1 14//1 13//1 12//1 11//1 10//1 9//1 8//1 7//1 6//1 5//1 4//1
f 28//2 29//2 30//2 31//2 32//2 33//2 34//2 35//2 36//2 37//2 38//2 39//2 40//2 41//2 42//2 43//2 44//2 45//2 46//2 47//2 48//2 49//2 50//2 51//2 52//2 53//2 54//2
f 1//3 3//3 29//3 28//3
f 3//3 4//3 30//3 29//3
f 4//3 5//3 31//3 30//3
f 5//3 6//3 32//3 31//3
f 6//3 7//3 33//3 32//3
f 7//3 8//3 34//3 33//3
f 8//4 9//4 35//4 34//4
f 9//4 10//4 36//4 35//4
f 10//4 11//4 37//4 36//4
f 11//4 12//4 38//4 37//4
f 12//5 13//5 39//5 38//5
f 13//5 14//5 40//5 39//5
f 14//6 15//6 41//6 40//6
f 15//6 16//6 42//6 41//6
f 16//7 17//7 43//7 42//7
f 17//7 18//7 44//7 43//7
f 18//8 19//8 45//8 44//8
f 19//9 20//9 46//9 45//9
f 20//9 21//9 47//9 46//9
f 21//10 22//10 48//10 47//10
f 22//10 23//10 49//10 48//10
f 23//10 24//10 50//10 49//10
f 24//11 25//11 51//11 50//11
f 25//11 26//11 52//11 51//11
f 26//12 27//12 53//12 52//12
f 27//12 2//12 54//12 53//12
f 2//12 1//12 28//12 54//12
# 29 faces

