# created with CityEngine 2019.0.5403 0409R (based on Esri Procedural Runtime 2.0.5403, build date: Tue 04/09/2019 10:26 AM)
# creation date: Tue Mar 29 18:57:59 2022

mtllib 20220329_UF_Border.mtl

# mesh 'mesh_CityEngineMaterial_29' from geometry 'mesh_CityEngineMaterial_29'
v -691237.832 0.000 1187311.990
v -691236.787 0.000 1187311.986
v -691236.824 0.000 1187311.586
v -691237.799 0.000 1187311.590
v -691235.759 0.000 1187311.801
v -691235.847 0.000 1187311.411
v -691204.105 0.000 1187303.206
v -691204.226 0.000 1187302.825
v -691203.124 0.000 1187302.846
v -691203.295 0.000 1187302.482
v -691202.220 0.000 1187302.320
v -691202.452 0.000 1187301.992
v -691201.422 0.000 1187301.646
v -691201.707 0.000 1187301.363
v -691200.753 0.000 1187300.843
v -691201.083 0.000 1187300.614
v -691200.234 0.000 1187299.936
v -691200.598 0.000 1187299.768
v -691199.879 0.000 1187298.953
v -691200.268 0.000 1187298.850
v -691199.701 0.000 1187297.923
v -691200.102 0.000 1187297.890
v -691199.705 0.000 1187296.878
v -691200.105 0.000 1187296.915
v -691199.890 0.000 1187295.850
v -691200.277 0.000 1187295.955
v -691200.250 0.000 1187294.869
v -691200.614 0.000 1187295.040
v -691200.776 0.000 1187293.966
v -691201.104 0.000 1187294.197
v -691201.451 0.000 1187293.167
v -691201.745 0.000 1187293.439
v -691224.720 0.000 1187270.052
v -691224.989 0.000 1187270.348
v -691225.523 0.000 1187269.382
v -691225.753 0.000 1187269.712
v -691226.430 0.000 1187268.862
v -691226.599 0.000 1187269.227
v -691227.413 0.000 1187268.508
v -691227.516 0.000 1187268.896
v -691228.443 0.000 1187268.330
v -691228.477 0.000 1187268.730
v -691229.488 0.000 1187268.334
v -691229.452 0.000 1187268.734
v -691230.516 0.000 1187268.519
v -691230.411 0.000 1187268.906
v -691231.497 0.000 1187268.879
v -691231.326 0.000 1187269.243
v -691232.400 0.000 1187269.405
v -691232.169 0.000 1187269.733
v -691233.199 0.000 1187270.079
v -691232.914 0.000 1187270.362
v -691233.868 0.000 1187270.882
v -691233.538 0.000 1187271.111
v -691234.387 0.000 1187271.789
v -691234.023 0.000 1187271.957
v -691234.741 0.000 1187272.772
v -691234.359 0.000 1187272.891
v -691243.125 0.000 1187304.482
v -691242.734 0.000 1187304.567
v -691243.304 0.000 1187305.513
v -691242.904 0.000 1187305.547
v -691243.300 0.000 1187306.558
v -691242.900 0.000 1187306.522
v -691243.115 0.000 1187307.587
v -691242.728 0.000 1187307.482
v -691242.755 0.000 1187308.568
v -691242.391 0.000 1187308.397
v -691242.229 0.000 1187309.471
v -691241.901 0.000 1187309.239
v -691241.555 0.000 1187310.269
v -691241.272 0.000 1187309.984
v -691240.752 0.000 1187310.938
v -691240.523 0.000 1187310.608
v -691239.845 0.000 1187311.458
v -691239.677 0.000 1187311.093
v -691238.862 0.000 1187311.812
v -691238.760 0.000 1187311.423
# 78 vertices

vn 0.000 1.000 0.000
# 1 vertex normal

g CityEngineMaterial
s off
usemtl CityEngineMaterial
f 1//1 2//1 3//1 4//1
f 2//1 5//1 6//1 3//1
f 5//1 7//1 8//1 6//1
f 7//1 9//1 10//1 8//1
f 9//1 11//1 12//1 10//1
f 11//1 13//1 14//1 12//1
f 13//1 15//1 16//1 14//1
f 15//1 17//1 18//1 16//1
f 17//1 19//1 20//1 18//1
f 19//1 21//1 22//1 20//1
f 21//1 23//1 24//1 22//1
f 23//1 25//1 26//1 24//1
f 25//1 27//1 28//1 26//1
f 27//1 29//1 30//1 28//1
f 29//1 31//1 32//1 30//1
f 31//1 33//1 34//1 32//1
f 33//1 35//1 36//1 34//1
f 35//1 37//1 38//1 36//1
f 37//1 39//1 40//1 38//1
f 39//1 41//1 42//1 40//1
f 41//1 43//1 44//1 42//1
f 43//1 45//1 46//1 44//1
f 45//1 47//1 48//1 46//1
f 47//1 49//1 50//1 48//1
f 49//1 51//1 52//1 50//1
f 51//1 53//1 54//1 52//1
f 53//1 55//1 56//1 54//1
f 55//1 57//1 58//1 56//1
f 57//1 59//1 60//1 58//1
f 59//1 61//1 62//1 60//1
f 61//1 63//1 64//1 62//1
f 63//1 65//1 66//1 64//1
f 65//1 67//1 68//1 66//1
f 67//1 69//1 70//1 68//1
f 69//1 71//1 72//1 70//1
f 71//1 73//1 74//1 72//1
f 73//1 75//1 76//1 74//1
f 75//1 77//1 78//1 76//1
f 77//1 1//1 4//1 78//1
# 39 faces

