# created with CityEngine 2019.0.5403 0409R (based on Esri Procedural Runtime 2.0.5403, build date: Tue 04/09/2019 10:26 AM)
# creation date: Tue Mar 29 19:00:06 2022

mtllib 20220329_GF_Base.mtl

# mesh 'mesh_CityEngineMaterial_12' from geometry 'mesh_CityEngineMaterial_12'
v -691230.735 0.000 1187239.940
v -691242.478 0.000 1187234.268
v -691229.597 0.000 1187218.923
v -691236.088 0.000 1187216.077
v -691230.735 0.400 1187239.940
v -691229.597 0.400 1187218.923
v -691236.088 0.400 1187216.077
v -691242.478 0.400 1187234.268
# 8 vertices

vn 0.000 -1.000 0.000
vn 0.000 1.000 0.000
vn 0.999 0.000 0.054
vn 0.402 0.000 -0.916
vn -0.943 0.000 -0.331
vn -0.435 0.000 0.900
# 6 vertex normals

g CityEngineMaterial
s off
usemtl CityEngineMaterial
f 3//1 1//1 2//1 4//1
f 5//2 6//2 7//2 8//2
f 1//3 3//3 6//3 5//3
f 3//4 4//4 7//4 6//4
f 4//5 2//5 8//5 7//5
f 2//6 1//6 5//6 8//6
# 6 faces

