# created with CityEngine 2019.0.5403 0409R (based on Esri Procedural Runtime 2.0.5403, build date: Tue 04/09/2019 10:26 AM)
# creation date: Tue Mar 29 18:57:59 2022

mtllib 20220329_UF_Border.mtl

# mesh 'mesh_CityEngineMaterial_16' from geometry 'mesh_CityEngineMaterial_16'
v -691216.786 0.000 1187316.639
v -691214.923 0.000 1187316.359
v -691215.004 0.000 1187315.967
v -691216.813 0.000 1187316.239
v -691213.104 0.000 1187315.879
v -691213.227 0.000 1187315.498
v -691211.312 0.000 1187315.187
v -691211.466 0.000 1187314.817
v -691205.357 0.000 1187312.524
v -691205.520 0.000 1187312.159
v -691189.479 0.000 1187305.426
v -691189.662 0.000 1187305.070
v -691187.990 0.000 1187304.558
v -691188.228 0.000 1187304.234
v -691186.625 0.000 1187303.315
v -691186.924 0.000 1187303.046
v -691185.707 0.000 1187302.063
v -691186.030 0.000 1187301.826
v -691185.518 0.000 1187301.805
v -691185.863 0.000 1187301.599
v -691184.704 0.000 1187300.085
v -691185.081 0.000 1187299.946
v -691184.207 0.000 1187298.261
v -691184.602 0.000 1187298.189
v -691184.023 0.000 1187296.271
v -691184.424 0.000 1187296.266
v -691184.165 0.000 1187294.298
v -691184.562 0.000 1187294.359
v -691184.624 0.000 1187292.368
v -691185.006 0.000 1187292.492
v -691185.384 0.000 1187290.541
v -691185.741 0.000 1187290.724
v -691186.395 0.000 1187288.907
v -691186.717 0.000 1187289.146
v -691187.711 0.000 1187287.424
v -691187.982 0.000 1187287.720
v -691188.211 0.000 1187287.053
v -691188.447 0.000 1187287.376
v -691188.217 0.000 1187287.049
v -691188.453 0.000 1187287.372
v -691189.871 0.000 1187285.823
v -691190.099 0.000 1187286.152
v -691211.670 0.000 1187271.673
v -691211.888 0.000 1187272.009
v -691216.281 0.000 1187268.680
v -691216.490 0.000 1187269.022
v -691219.492 0.000 1187266.845
v -691219.671 0.000 1187267.204
v -691222.868 0.000 1187265.401
v -691223.002 0.000 1187265.779
v -691227.221 0.000 1187264.156
v -691227.302 0.000 1187264.549
v -691230.764 0.000 1187263.691
v -691230.791 0.000 1187264.091
v -691233.420 0.000 1187263.681
v -691233.408 0.000 1187264.081
v -691235.181 0.000 1187263.788
v -691235.143 0.000 1187264.187
v -691236.974 0.000 1187264.016
v -691236.917 0.000 1187264.412
v -691239.658 0.000 1187264.444
v -691239.595 0.000 1187264.839
v -691250.036 0.000 1187266.095
v -691249.952 0.000 1187266.487
v -691250.909 0.000 1187266.334
v -691250.803 0.000 1187266.720
v -691252.016 0.000 1187266.637
v -691251.869 0.000 1187267.011
v -691253.925 0.000 1187267.642
v -691253.701 0.000 1187267.976
v -691255.598 0.000 1187269.042
v -691255.345 0.000 1187269.344
v -691255.341 0.000 1187269.349
v -691255.628 0.000 1187269.068
v -691256.994 0.000 1187270.788
v -691256.656 0.000 1187271.007
v -691257.998 0.000 1187272.724
v -691257.626 0.000 1187272.875
v -691258.017 0.000 1187272.784
v -691257.634 0.000 1187272.901
v -691258.691 0.000 1187274.987
v -691258.299 0.000 1187275.072
v -691258.982 0.000 1187277.311
v -691258.581 0.000 1187277.328
v -691258.885 0.000 1187279.678
v -691258.487 0.000 1187279.629
v -691258.406 0.000 1187282.012
v -691258.020 0.000 1187281.899
v -691257.559 0.000 1187284.235
v -691257.197 0.000 1187284.062
v -691256.373 0.000 1187286.276
v -691256.044 0.000 1187286.046
v -691254.937 0.000 1187288.001
v -691254.641 0.000 1187287.732
v -691251.050 0.000 1187291.923
v -691250.766 0.000 1187291.641
v -691232.689 0.000 1187310.448
v -691232.411 0.000 1187310.160
v -691231.176 0.000 1187311.846
v -691230.918 0.000 1187311.540
v -691229.578 0.000 1187313.078
v -691229.349 0.000 1187312.749
v -691227.893 0.000 1187314.145
v -691227.695 0.000 1187313.797
v -691226.134 0.000 1187315.039
v -691225.970 0.000 1187314.673
v -691224.317 0.000 1187315.749
v -691224.190 0.000 1187315.369
v -691222.457 0.000 1187316.269
v -691222.369 0.000 1187315.878
v -691220.570 0.000 1187316.593
v -691220.534 0.000 1187316.194
# 112 vertices

vn 0.000 1.000 0.000
# 1 vertex normal

g CityEngineMaterial
s off
usemtl CityEngineMaterial
f 1//1 2//1 3//1 4//1
f 2//1 5//1 6//1 3//1
f 5//1 7//1 8//1 6//1
f 7//1 9//1 10//1 8//1
f 9//1 11//1 12//1 10//1
f 11//1 13//1 14//1 12//1
f 13//1 15//1 16//1 14//1
f 15//1 17//1 18//1 16//1
f 17//1 19//1 20//1 18//1
f 19//1 21//1 22//1 20//1
f 21//1 23//1 24//1 22//1
f 23//1 25//1 26//1 24//1
f 25//1 27//1 28//1 26//1
f 27//1 29//1 30//1 28//1
f 29//1 31//1 32//1 30//1
f 31//1 33//1 34//1 32//1
f 33//1 35//1 36//1 34//1
f 35//1 37//1 38//1 36//1
f 37//1 39//1 40//1 38//1
f 39//1 41//1 42//1 40//1
f 41//1 43//1 44//1 42//1
f 43//1 45//1 46//1 44//1
f 45//1 47//1 48//1 46//1
f 47//1 49//1 50//1 48//1
f 49//1 51//1 52//1 50//1
f 51//1 53//1 54//1 52//1
f 53//1 55//1 56//1 54//1
f 55//1 57//1 58//1 56//1
f 57//1 59//1 60//1 58//1
f 59//1 61//1 62//1 60//1
f 61//1 63//1 64//1 62//1
f 63//1 65//1 66//1 64//1
f 65//1 67//1 68//1 66//1
f 67//1 69//1 70//1 68//1
f 69//1 71//1 72//1 73//1 70//1
f 71//1 74//1 72//1
f 74//1 75//1 76//1 73//1 72//1
f 75//1 77//1 78//1 76//1
f 77//1 79//1 80//1 78//1
f 79//1 81//1 82//1 80//1
f 81//1 83//1 84//1 82//1
f 83//1 85//1 86//1 84//1
f 85//1 87//1 88//1 86//1
f 87//1 89//1 90//1 88//1
f 89//1 91//1 92//1 90//1
f 91//1 93//1 94//1 92//1
f 93//1 95//1 96//1 94//1
f 95//1 97//1 98//1 96//1
f 97//1 99//1 100//1 98//1
f 99//1 101//1 102//1 100//1
f 101//1 103//1 104//1 102//1
f 103//1 105//1 106//1 104//1
f 105//1 107//1 108//1 106//1
f 107//1 109//1 110//1 108//1
f 109//1 111//1 112//1 110//1
f 111//1 1//1 4//1 112//1
# 56 faces

