# created with CityEngine 2019.0.5403 0409R (based on Esri Procedural Runtime 2.0.5403, build date: Tue 04/09/2019 10:26 AM)
# creation date: Tue Mar 29 18:57:59 2022

mtllib 20220329_UF_Border.mtl

# mesh 'mesh_CityEngineMaterial_30' from geometry 'mesh_CityEngineMaterial_30'
v -691195.600 0.000 1187295.851
v -691227.471 0.000 1187264.190
v -691227.741 0.000 1187264.486
v -691195.894 0.000 1187296.123
v -691228.274 0.000 1187263.521
v -691228.504 0.000 1187263.851
v -691229.181 0.000 1187263.002
v -691229.350 0.000 1187263.366
v -691230.164 0.000 1187262.647
v -691230.267 0.000 1187263.036
v -691231.194 0.000 1187262.469
v -691231.228 0.000 1187262.870
v -691232.239 0.000 1187262.473
v -691232.203 0.000 1187262.873
v -691233.268 0.000 1187262.658
v -691233.162 0.000 1187263.045
v -691234.248 0.000 1187263.018
v -691234.077 0.000 1187263.382
v -691235.152 0.000 1187263.544
v -691234.920 0.000 1187263.872
v -691235.950 0.000 1187264.218
v -691235.665 0.000 1187264.501
v -691236.619 0.000 1187265.021
v -691236.289 0.000 1187265.250
v -691237.138 0.000 1187265.928
v -691236.774 0.000 1187266.096
v -691237.493 0.000 1187266.911
v -691237.110 0.000 1187267.030
v -691248.976 0.000 1187310.344
v -691248.585 0.000 1187310.429
v -691249.154 0.000 1187311.374
v -691248.754 0.000 1187311.408
v -691249.150 0.000 1187312.419
v -691248.750 0.000 1187312.383
v -691248.965 0.000 1187313.448
v -691248.578 0.000 1187313.342
v -691248.605 0.000 1187314.428
v -691248.241 0.000 1187314.258
v -691248.079 0.000 1187315.332
v -691247.751 0.000 1187315.100
v -691247.405 0.000 1187316.130
v -691247.122 0.000 1187315.845
v -691246.602 0.000 1187316.799
v -691246.373 0.000 1187316.469
v -691245.695 0.000 1187317.318
v -691245.527 0.000 1187316.954
v -691244.712 0.000 1187317.673
v -691244.610 0.000 1187317.284
v -691243.683 0.000 1187317.851
v -691243.649 0.000 1187317.450
v -691242.638 0.000 1187317.847
v -691242.674 0.000 1187317.447
v -691241.609 0.000 1187317.662
v -691241.697 0.000 1187317.272
v -691198.254 0.000 1187305.890
v -691198.376 0.000 1187305.509
v -691197.273 0.000 1187305.529
v -691197.444 0.000 1187305.166
v -691196.370 0.000 1187305.004
v -691196.602 0.000 1187304.676
v -691195.572 0.000 1187304.329
v -691195.857 0.000 1187304.046
v -691194.903 0.000 1187303.527
v -691195.233 0.000 1187303.297
v -691194.383 0.000 1187302.620
v -691194.748 0.000 1187302.452
v -691194.350 0.000 1187302.526
v -691194.726 0.000 1187302.391
v -691194.029 0.000 1187301.637
v -691194.417 0.000 1187301.534
v -691193.851 0.000 1187300.607
v -691194.251 0.000 1187300.573
v -691193.855 0.000 1187299.562
v -691194.255 0.000 1187299.599
v -691194.040 0.000 1187298.534
v -691194.427 0.000 1187298.639
v -691194.400 0.000 1187297.553
v -691194.763 0.000 1187297.724
v -691194.450 0.000 1187297.467
v -691194.796 0.000 1187297.668
v -691194.926 0.000 1187296.650
v -691195.254 0.000 1187296.881
v -691194.990 0.000 1187296.574
v -691195.296 0.000 1187296.832
# 84 vertices

vn 0.000 1.000 0.000
# 1 vertex normal

g CityEngineMaterial
s off
usemtl CityEngineMaterial
f 1//1 2//1 3//1 4//1
f 2//1 5//1 6//1 3//1
f 5//1 7//1 8//1 6//1
f 7//1 9//1 10//1 8//1
f 9//1 11//1 12//1 10//1
f 11//1 13//1 14//1 12//1
f 13//1 15//1 16//1 14//1
f 15//1 17//1 18//1 16//1
f 17//1 19//1 20//1 18//1
f 19//1 21//1 22//1 20//1
f 21//1 23//1 24//1 22//1
f 23//1 25//1 26//1 24//1
f 25//1 27//1 28//1 26//1
f 27//1 29//1 30//1 28//1
f 29//1 31//1 32//1 30//1
f 31//1 33//1 34//1 32//1
f 33//1 35//1 36//1 34//1
f 35//1 37//1 38//1 36//1
f 37//1 39//1 40//1 38//1
f 39//1 41//1 42//1 40//1
f 41//1 43//1 44//1 42//1
f 43//1 45//1 46//1 44//1
f 45//1 47//1 48//1 46//1
f 47//1 49//1 50//1 48//1
f 49//1 51//1 52//1 50//1
f 51//1 53//1 54//1 52//1
f 53//1 55//1 56//1 54//1
f 55//1 57//1 58//1 56//1
f 57//1 59//1 60//1 58//1
f 59//1 61//1 62//1 60//1
f 61//1 63//1 64//1 62//1
f 63//1 65//1 66//1 64//1
f 65//1 67//1 68//1 66//1
f 67//1 69//1 70//1 68//1
f 69//1 71//1 72//1 70//1
f 71//1 73//1 74//1 72//1
f 73//1 75//1 76//1 74//1
f 75//1 77//1 78//1 76//1
f 77//1 79//1 80//1 78//1
f 79//1 81//1 82//1 80//1
f 81//1 83//1 84//1 82//1
f 83//1 1//1 4//1 84//1
# 42 faces

