# created with CityEngine 2019.0.5403 0409R (based on Esri Procedural Runtime 2.0.5403, build date: Tue 04/09/2019 10:26 AM)
# creation date: Tue Mar 29 18:57:18 2022

mtllib 20220329_UF_Base.mtl

# mesh 'mesh_CityEngineMaterial_18' from geometry 'mesh_CityEngineMaterial_18'
v -691218.184 0.000 1187324.989
v -691224.207 0.000 1187324.898
v -691212.374 0.000 1187322.735
v -691207.157 0.000 1187318.265
v -691202.900 0.000 1187311.864
v -691199.908 0.000 1187303.965
v -691198.397 0.000 1187295.113
v -691198.476 0.000 1187285.919
v -691200.139 0.000 1187277.017
v -691203.268 0.000 1187269.023
v -691205.457 0.000 1187265.751
v -691207.641 0.000 1187262.487
v -691212.942 0.000 1187257.854
v -691218.798 0.000 1187255.422
v -691222.519 0.000 1187255.366
v -691224.821 0.000 1187255.331
v -691225.115 0.000 1187255.446
v -691225.565 0.000 1187255.620
v -691230.630 0.000 1187257.585
v -691235.848 0.000 1187262.055
v -691240.105 0.000 1187268.456
v -691243.097 0.000 1187276.355
v -691243.238 0.000 1187277.178
v -691244.608 0.000 1187285.207
v -691244.529 0.000 1187294.401
v -691242.866 0.000 1187303.303
v -691239.737 0.000 1187311.297
v -691235.364 0.000 1187317.833
v -691230.063 0.000 1187322.466
v -691218.184 0.400 1187324.989
v -691212.374 0.400 1187322.735
v -691207.157 0.400 1187318.265
v -691202.900 0.400 1187311.864
v -691199.908 0.400 1187303.965
v -691198.397 0.400 1187295.113
v -691198.476 0.400 1187285.919
v -691200.139 0.400 1187277.017
v -691203.268 0.400 1187269.023
v -691205.457 0.400 1187265.751
v -691207.641 0.400 1187262.487
v -691212.942 0.400 1187257.854
v -691218.798 0.400 1187255.422
v -691222.519 0.400 1187255.366
v -691224.821 0.400 1187255.331
v -691225.115 0.400 1187255.446
v -691225.565 0.400 1187255.620
v -691230.630 0.400 1187257.585
v -691235.848 0.400 1187262.055
v -691240.105 0.400 1187268.456
v -691243.097 0.400 1187276.355
v -691243.238 0.400 1187277.178
v -691244.608 0.400 1187285.207
v -691244.529 0.400 1187294.401
v -691242.866 0.400 1187303.303
v -691239.737 0.400 1187311.297
v -691235.364 0.400 1187317.833
v -691230.063 0.400 1187322.466
v -691224.207 0.400 1187324.898
# 58 vertices

vn 0.000 -1.000 0.000
vn 0.000 1.000 0.000
vn 0.362 0.000 0.932
vn 0.651 0.000 0.759
vn 0.833 0.000 0.554
vn 0.935 0.000 0.354
vn 0.986 0.000 0.168
vn 1.000 0.000 -0.009
vn 0.983 0.000 -0.184
vn 0.931 0.000 -0.365
vn 0.831 0.000 -0.556
vn 0.658 0.000 -0.753
vn 0.384 0.000 -0.924
vn 0.015 0.000 -1.000
vn -0.362 0.000 -0.932
vn -0.651 0.000 -0.759
vn -0.833 0.000 -0.554
vn -0.935 0.000 -0.354
vn -0.986 0.000 -0.168
vn -1.000 0.000 0.009
vn -0.983 0.000 0.184
vn -0.931 0.000 0.365
vn -0.831 0.000 0.556
vn -0.658 0.000 0.753
vn -0.384 0.000 0.924
vn -0.015 0.000 1.000
# 26 vertex normals

g CityEngineMaterial
s off
usemtl CityEngineMaterial
f 3//1 1//1 2//1 29//1 28//1 27//1 26//1 25//1 24//1 23//1 22//1 21//1 20//1 19//1 18//1 17//1 16//1 15//1 14//1 13//1 12//1 11//1 10//1 9//1 8//1 7//1 6//1 5//1 4//1
f 30//2 31//2 32//2 33//2 34//2 35//2 36//2 37//2 38//2 39//2 40//2 41//2 42//2 43//2 44//2 45//2 46//2 47//2 48//2 49//2 50//2 51//2 52//2 53//2 54//2 55//2 56//2 57//2 58//2
f 1//3 3//3 31//3 30//3
f 3//4 4//4 32//4 31//4
f 4//5 5//5 33//5 32//5
f 5//6 6//6 34//6 33//6
f 6//7 7//7 35//7 34//7
f 7//8 8//8 36//8 35//8
f 8//9 9//9 37//9 36//9
f 9//10 10//10 38//10 37//10
f 10//11 11//11 39//11 38//11
f 11//11 12//11 40//11 39//11
f 12//12 13//12 41//12 40//12
f 13//13 14//13 42//13 41//13
f 14//14 15//14 43//14 42//14
f 15//14 16//14 44//14 43//14
f 16//15 17//15 45//15 44//15
f 17//15 18//15 46//15 45//15
f 18//15 19//15 47//15 46//15
f 19//16 20//16 48//16 47//16
f 20//17 21//17 49//17 48//17
f 21//18 22//18 50//18 49//18
f 22//19 23//19 51//19 50//19
f 23//19 24//19 52//19 51//19
f 24//20 25//20 53//20 52//20
f 25//21 26//21 54//21 53//21
f 26//22 27//22 55//22 54//22
f 27//23 28//23 56//23 55//23
f 28//24 29//24 57//24 56//24
f 29//25 2//25 58//25 57//25
f 2//26 1//26 30//26 58//26
# 31 faces

