# created with CityEngine 2019.0.5403 0409R (based on Esri Procedural Runtime 2.0.5403, build date: Tue 04/09/2019 10:26 AM)
# creation date: Tue Mar 29 18:57:59 2022

mtllib 20220329_UF_Border.mtl

# mesh 'mesh_CityEngineMaterial_23' from geometry 'mesh_CityEngineMaterial_23'
v -691223.575 0.000 1187266.390
v -691225.354 0.000 1187265.121
v -691225.813 0.000 1187265.285
v -691223.341 0.000 1187267.048
v -691224.790 0.000 1187263.058
v -691225.374 0.000 1187263.676
v -691241.527 0.000 1187268.675
v -691241.125 0.000 1187268.962
v -691241.490 0.000 1187273.078
v -691241.090 0.000 1187273.075
v -691241.142 0.000 1187313.947
v -691240.745 0.000 1187313.626
v -691236.839 0.000 1187314.903
v -691236.752 0.000 1187314.513
v -691226.227 0.000 1187317.261
v -691226.409 0.000 1187316.811
v -691208.984 0.000 1187291.079
v -691209.318 0.000 1187290.859
v -691201.478 0.000 1187279.681
v -691202.024 0.000 1187279.783
v -691223.010 0.000 1187264.322
v -691222.776 0.000 1187264.980
# 22 vertices

vn 0.000 1.000 0.000
# 1 vertex normal

g CityEngineMaterial
s off
usemtl CityEngineMaterial
f 1//1 2//1 3//1 4//1
f 2//1 5//1 6//1 3//1
f 5//1 7//1 8//1 6//1
f 7//1 9//1 10//1 8//1
f 9//1 11//1 12//1 10//1
f 11//1 13//1 14//1 12//1
f 13//1 15//1 16//1 14//1
f 15//1 17//1 18//1 16//1
f 17//1 19//1 20//1 18//1
f 19//1 21//1 22//1 20//1
f 21//1 1//1 4//1 22//1
# 11 faces

