# created with CityEngine 2019.0.5403 0409R (based on Esri Procedural Runtime 2.0.5403, build date: Tue 04/09/2019 10:26 AM)
# creation date: Tue Mar 29 18:57:59 2022

mtllib 20220329_UF_Border.mtl

# mesh 'mesh_CityEngineMaterial_10' from geometry 'mesh_CityEngineMaterial_10'
v -691197.996 0.000 1187285.920
v -691217.270 0.000 1187265.100
v -691217.564 0.000 1187265.372
v -691198.289 0.000 1187286.192
v -691218.076 0.000 1187264.230
v -691218.061 0.000 1187264.835
v -691221.710 0.000 1187268.553
v -691221.403 0.000 1187268.810
v -691222.619 0.000 1187269.634
v -691222.313 0.000 1187269.892
v -691223.091 0.000 1187270.196
v -691222.785 0.000 1187270.453
v -691224.438 0.000 1187271.798
v -691224.138 0.000 1187272.063
v -691227.103 0.000 1187274.673
v -691226.810 0.000 1187274.944
v -691227.992 0.000 1187275.631
v -691227.698 0.000 1187275.903
v -691228.880 0.000 1187276.589
v -691228.587 0.000 1187276.861
v -691230.657 0.000 1187278.505
v -691230.364 0.000 1187278.777
v -691231.545 0.000 1187279.464
v -691231.259 0.000 1187279.743
v -691236.474 0.000 1187284.285
v -691236.195 0.000 1187284.571
v -691237.138 0.000 1187284.934
v -691236.858 0.000 1187285.220
v -691238.070 0.000 1187285.846
v -691237.791 0.000 1187286.132
v -691239.003 0.000 1187286.758
v -691238.730 0.000 1187287.051
v -691245.981 0.000 1187292.946
v -691245.716 0.000 1187293.245
v -691246.692 0.000 1187293.576
v -691246.429 0.000 1187293.877
v -691246.701 0.000 1187293.584
v -691246.438 0.000 1187293.885
v -691246.979 0.000 1187293.830
v -691246.975 0.000 1187293.835
v -691246.448 0.000 1187293.894
v -691246.984 0.000 1187293.833
v -691238.678 0.000 1187305.400
v -691238.353 0.000 1187305.167
v -691238.519 0.000 1187305.622
v -691238.194 0.000 1187305.388
v -691231.003 0.000 1187316.090
v -691231.001 0.000 1187316.081
v -691230.962 0.000 1187315.858
v -691230.927 0.000 1187315.659
v -691230.906 0.000 1187315.539
v -691230.998 0.000 1187316.086
v -691230.867 0.000 1187315.997
v -691230.751 0.000 1187315.917
v -691229.939 0.000 1187315.362
v -691230.164 0.000 1187315.032
v -691228.880 0.000 1187314.639
v -691229.106 0.000 1187314.308
v -691225.704 0.000 1187312.468
v -691225.929 0.000 1187312.137
v -691224.645 0.000 1187311.744
v -691224.871 0.000 1187311.414
v -691222.527 0.000 1187310.297
v -691222.753 0.000 1187309.966
v -691221.469 0.000 1187309.573
v -691221.703 0.000 1187309.249
v -691218.151 0.000 1187307.046
v -691218.393 0.000 1187306.728
v -691217.045 0.000 1187306.204
v -691217.287 0.000 1187305.886
v -691212.621 0.000 1187302.835
v -691212.872 0.000 1187302.523
v -691204.115 0.000 1187295.640
v -691204.381 0.000 1187295.341
v -691197.303 0.000 1187289.255
v -691197.577 0.000 1187288.963
v -691197.030 0.000 1187288.998
v -691197.303 0.000 1187288.706
v -691196.021 0.000 1187288.053
v -691196.585 0.000 1187288.033
v -691196.534 0.000 1187287.500
v -691196.827 0.000 1187287.771
# 82 vertices

vn 0.000 1.000 0.000
# 1 vertex normal

g CityEngineMaterial
s off
usemtl CityEngineMaterial
f 1//1 2//1 3//1 4//1
f 2//1 5//1 6//1 3//1
f 5//1 7//1 8//1 6//1
f 7//1 9//1 10//1 8//1
f 9//1 11//1 12//1 10//1
f 11//1 13//1 14//1 12//1
f 13//1 15//1 16//1 14//1
f 15//1 17//1 18//1 16//1
f 17//1 19//1 20//1 18//1
f 19//1 21//1 22//1 20//1
f 21//1 23//1 24//1 22//1
f 23//1 25//1 26//1 24//1
f 25//1 27//1 28//1 26//1
f 27//1 29//1 30//1 28//1
f 29//1 31//1 32//1 30//1
f 31//1 33//1 34//1 32//1
f 33//1 35//1 36//1 34//1
f 35//1 37//1 38//1 36//1
f 37//1 39//1 40//1 41//1 38//1
f 39//1 42//1 40//1
f 42//1 43//1 44//1 41//1 40//1
f 43//1 45//1 46//1 44//1
f 45//1 47//1 48//1 49//1 50//1 51//1 46//1
f 47//1 52//1 48//1
f 52//1 53//1 49//1 48//1
f 53//1 54//1 50//1 49//1
f 54//1 55//1 56//1 51//1 50//1
f 55//1 57//1 58//1 56//1
f 57//1 59//1 60//1 58//1
f 59//1 61//1 62//1 60//1
f 61//1 63//1 64//1 62//1
f 63//1 65//1 66//1 64//1
f 65//1 67//1 68//1 66//1
f 67//1 69//1 70//1 68//1
f 69//1 71//1 72//1 70//1
f 71//1 73//1 74//1 72//1
f 73//1 75//1 76//1 74//1
f 75//1 77//1 78//1 76//1
f 77//1 79//1 80//1 78//1
f 79//1 81//1 82//1 80//1
f 81//1 1//1 4//1 82//1
# 41 faces

