# created with CityEngine 2019.0.5403 0409R (based on Esri Procedural Runtime 2.0.5403, build date: Tue 04/09/2019 10:26 AM)
# creation date: Tue Mar 29 19:00:01 2022

mtllib 20220329_GF_Base.mtl

# mesh 'mesh_CityEngineMaterial' from geometry 'mesh_CityEngineMaterial'
v -691194.280 0.000 1187231.919
v -691195.519 0.000 1187232.347
v -691193.101 0.000 1187231.345
v -691191.999 0.000 1187230.635
v -691190.985 0.000 1187229.793
v -691188.925 0.000 1187227.762
v -691186.865 0.000 1187225.705
v -691186.766 0.000 1187225.605
v -691186.717 0.000 1187225.555
v -691184.819 0.000 1187223.636
v -691182.785 0.000 1187221.554
v -691180.765 0.000 1187219.460
v -691178.757 0.000 1187217.353
v -691176.763 0.000 1187215.234
v -691174.781 0.000 1187213.103
v -691170.989 0.000 1187208.972
v -691170.713 0.000 1187208.659
v -691170.455 0.000 1187208.338
v -691170.271 0.000 1187208.091
v -691170.196 0.000 1187207.986
v -691169.974 0.000 1187207.659
v -691169.856 0.000 1187207.468
v -691169.755 0.000 1187207.321
v -691169.598 0.000 1187207.082
v -691169.445 0.000 1187206.841
v -691169.298 0.000 1187206.596
v -691169.174 0.000 1187206.381
v -691169.016 0.000 1187206.094
v -691168.651 0.000 1187205.432
v -691168.536 0.000 1187205.172
v -691168.049 0.000 1187204.066
v -691167.948 0.000 1187203.838
v -691167.802 0.000 1187203.505
v -691167.129 0.000 1187201.510
v -691166.636 0.000 1187199.463
v -691166.328 0.000 1187197.379
v -691166.226 0.000 1187195.597
v -691166.239 0.000 1187194.545
v -691166.253 0.000 1187193.494
v -691166.266 0.000 1187192.442
v -691166.277 0.000 1187191.610
v -691166.287 0.000 1187191.440
v -691166.299 0.000 1187191.215
v -691166.325 0.000 1187190.813
v -691166.343 0.000 1187190.574
v -691166.355 0.000 1187190.411
v -691166.387 0.000 1187190.009
v -691166.409 0.000 1187189.752
v -691166.422 0.000 1187189.607
v -691166.461 0.000 1187189.206
v -691166.485 0.000 1187188.969
v -691166.502 0.000 1187188.806
v -691166.547 0.000 1187188.405
v -691166.569 0.000 1187188.221
v -691166.595 0.000 1187188.005
v -691166.646 0.000 1187187.605
v -691166.660 0.000 1187187.501
v -691166.701 0.000 1187187.206
v -691166.756 0.000 1187186.822
v -691166.787 0.000 1187186.685
v -691166.798 0.000 1187186.618
v -691166.814 0.000 1187186.514
v -691166.850 0.000 1187186.285
v -691167.168 0.000 1187184.717
v -691167.325 0.000 1187184.083
v -691167.554 0.000 1187183.165
v -691168.007 0.000 1187181.631
v -691168.526 0.000 1187180.118
v -691169.111 0.000 1187178.629
v -691169.761 0.000 1187177.167
v -691170.473 0.000 1187175.735
v -691171.247 0.000 1187174.335
v -691172.086 0.000 1187172.963
v -691174.187 0.000 1187169.553
v -691176.625 0.000 1187166.386
v -691187.372 0.000 1187153.625
v -691192.900 0.000 1187160.547
v -691198.305 0.000 1187167.696
v -691203.519 0.000 1187174.986
v -691208.538 0.000 1187182.412
v -691213.359 0.000 1187189.967
v -691215.314 0.000 1187193.219
v -691217.978 0.000 1187197.648
v -691222.392 0.000 1187205.448
v -691226.440 0.000 1187213.067
v -691224.067 0.000 1187215.010
v -691226.385 0.000 1187218.150
v -691230.938 0.000 1187223.947
v -691235.661 0.000 1187229.607
v -691240.550 0.000 1187235.124
v -691245.601 0.000 1187240.494
v -691250.809 0.000 1187245.711
v -691256.169 0.000 1187250.771
v -691259.108 0.000 1187253.384
v -691260.850 0.000 1187249.779
v -691265.095 0.000 1187252.784
v -691268.995 0.000 1187255.627
v -691273.533 0.000 1187259.050
v -691278.016 0.000 1187262.546
v -691282.441 0.000 1187266.114
v -691286.808 0.000 1187269.753
v -691291.115 0.000 1187273.463
v -691292.055 0.000 1187274.300
v -691293.238 0.000 1187275.353
v -691295.362 0.000 1187277.243
v -691299.546 0.000 1187281.090
v -691305.849 0.000 1187287.078
v -691298.124 0.000 1187294.369
v -691297.235 0.000 1187295.208
v -691296.871 0.000 1187295.553
v -691298.677 0.000 1187297.466
v -691295.868 0.000 1187300.117
v -691295.290 0.000 1187300.614
v -691294.651 0.000 1187301.066
v -691293.973 0.000 1187301.458
v -691293.261 0.000 1187301.784
v -691292.522 0.000 1187302.042
v -691291.762 0.000 1187302.231
v -691290.988 0.000 1187302.348
v -691290.206 0.000 1187302.392
v -691289.423 0.000 1187302.363
v -691288.647 0.000 1187302.261
v -691287.883 0.000 1187302.087
v -691287.117 0.000 1187301.836
v -691286.380 0.000 1187301.467
v -691283.617 0.000 1187300.023
v -691284.899 0.000 1187297.570
v -691283.316 0.000 1187296.744
v -691282.194 0.000 1187296.157
v -691277.580 0.000 1187293.641
v -691273.545 0.000 1187291.345
v -691274.645 0.000 1187290.475
v -691273.665 0.000 1187289.918
v -691272.425 0.000 1187289.183
v -691271.333 0.000 1187290.046
v -691268.491 0.000 1187288.362
v -691264.019 0.000 1187285.602
v -691259.596 0.000 1187282.762
v -691255.241 0.000 1187279.855
v -691254.500 0.000 1187279.232
v -691253.817 0.000 1187278.541
v -691253.200 0.000 1187277.789
v -691252.656 0.000 1187276.984
v -691252.188 0.000 1187276.132
v -691251.801 0.000 1187275.241
v -691248.473 0.000 1187265.120
v -691250.419 0.000 1187273.364
v -691248.554 0.000 1187271.851
v -691241.000 0.000 1187265.528
v -691233.542 0.000 1187259.091
v -691226.183 0.000 1187252.542
v -691218.925 0.000 1187245.881
v -691211.769 0.000 1187239.111
v -691204.717 0.000 1187232.233
v -691203.822 0.000 1187231.333
v -691203.193 0.000 1187231.682
v -691201.979 0.000 1187232.175
v -691200.714 0.000 1187232.520
v -691199.417 0.000 1187232.712
v -691198.106 0.000 1187232.746
v -691196.801 0.000 1187232.624
v -691194.280 0.400 1187231.919
v -691193.101 0.400 1187231.345
v -691191.999 0.400 1187230.635
v -691190.985 0.400 1187229.793
v -691188.925 0.400 1187227.762
v -691186.865 0.400 1187225.705
v -691186.766 0.400 1187225.605
v -691186.717 0.400 1187225.555
v -691184.819 0.400 1187223.636
v -691182.785 0.400 1187221.554
v -691180.765 0.400 1187219.460
v -691178.757 0.400 1187217.353
v -691176.763 0.400 1187215.234
v -691174.781 0.400 1187213.103
v -691170.989 0.400 1187208.972
v -691170.713 0.400 1187208.659
v -691170.455 0.400 1187208.338
v -691170.271 0.400 1187208.091
v -691170.196 0.400 1187207.986
v -691169.974 0.400 1187207.659
v -691169.856 0.400 1187207.468
v -691169.755 0.400 1187207.321
v -691169.598 0.400 1187207.082
v -691169.445 0.400 1187206.841
v -691169.298 0.400 1187206.596
v -691169.174 0.400 1187206.381
v -691169.016 0.400 1187206.094
v -691168.651 0.400 1187205.432
v -691168.536 0.400 1187205.172
v -691168.049 0.400 1187204.066
v -691167.948 0.400 1187203.838
v -691167.802 0.400 1187203.505
v -691167.129 0.400 1187201.510
v -691166.636 0.400 1187199.463
v -691166.328 0.400 1187197.379
v -691166.226 0.400 1187195.597
v -691166.239 0.400 1187194.545
v -691166.253 0.400 1187193.494
v -691166.266 0.400 1187192.442
v -691166.277 0.400 1187191.610
v -691166.287 0.400 1187191.440
v -691166.299 0.400 1187191.215
v -691166.325 0.400 1187190.813
v -691166.343 0.400 1187190.574
v -691166.355 0.400 1187190.411
v -691166.387 0.400 1187190.009
v -691166.409 0.400 1187189.752
v -691166.422 0.400 1187189.607
v -691166.461 0.400 1187189.206
v -691166.485 0.400 1187188.969
v -691166.502 0.400 1187188.806
v -691166.547 0.400 1187188.405
v -691166.569 0.400 1187188.221
v -691166.595 0.400 1187188.005
v -691166.646 0.400 1187187.605
v -691166.660 0.400 1187187.501
v -691166.701 0.400 1187187.206
v -691166.756 0.400 1187186.822
v -691166.787 0.400 1187186.685
v -691166.798 0.400 1187186.618
v -691166.814 0.400 1187186.514
v -691166.850 0.400 1187186.285
v -691167.168 0.400 1187184.717
v -691167.325 0.400 1187184.083
v -691167.554 0.400 1187183.165
v -691168.007 0.400 1187181.631
v -691168.526 0.400 1187180.118
v -691169.111 0.400 1187178.629
v -691169.761 0.400 1187177.167
v -691170.473 0.400 1187175.735
v -691171.247 0.400 1187174.335
v -691172.086 0.400 1187172.963
v -691174.187 0.400 1187169.553
v -691176.625 0.400 1187166.386
v -691187.372 0.400 1187153.625
v -691192.900 0.400 1187160.547
v -691198.305 0.400 1187167.696
v -691203.519 0.400 1187174.986
v -691208.538 0.400 1187182.412
v -691213.359 0.400 1187189.967
v -691215.314 0.400 1187193.219
v -691217.978 0.400 1187197.648
v -691222.392 0.400 1187205.448
v -691226.440 0.400 1187213.067
v -691224.067 0.400 1187215.010
v -691226.385 0.400 1187218.150
v -691230.938 0.400 1187223.947
v -691235.661 0.400 1187229.607
v -691240.550 0.400 1187235.124
v -691245.601 0.400 1187240.494
v -691250.809 0.400 1187245.711
v -691256.169 0.400 1187250.771
v -691259.108 0.400 1187253.384
v -691260.850 0.400 1187249.779
v -691265.095 0.400 1187252.784
v -691268.995 0.400 1187255.627
v -691273.533 0.400 1187259.050
v -691278.016 0.400 1187262.546
v -691282.441 0.400 1187266.114
v -691286.808 0.400 1187269.753
v -691291.115 0.400 1187273.463
v -691292.055 0.400 1187274.300
v -691293.238 0.400 1187275.353
v -691295.362 0.400 1187277.243
v -691299.546 0.400 1187281.090
v -691305.849 0.400 1187287.078
v -691298.124 0.400 1187294.369
v -691297.235 0.400 1187295.208
v -691296.871 0.400 1187295.553
v -691298.677 0.400 1187297.466
v -691295.868 0.400 1187300.117
v -691295.290 0.400 1187300.614
v -691294.651 0.400 1187301.066
v -691293.973 0.400 1187301.458
v -691293.261 0.400 1187301.784
v -691292.522 0.400 1187302.042
v -691291.762 0.400 1187302.231
v -691290.988 0.400 1187302.348
v -691290.206 0.400 1187302.392
v -691289.423 0.400 1187302.363
v -691288.647 0.400 1187302.261
v -691287.883 0.400 1187302.087
v -691287.117 0.400 1187301.836
v -691286.380 0.400 1187301.467
v -691283.617 0.400 1187300.023
v -691284.899 0.400 1187297.570
v -691283.316 0.400 1187296.744
v -691282.194 0.400 1187296.157
v -691277.580 0.400 1187293.641
v -691273.545 0.400 1187291.345
v -691274.645 0.400 1187290.475
v -691273.665 0.400 1187289.918
v -691272.425 0.400 1187289.183
v -691271.333 0.400 1187290.046
v -691268.491 0.400 1187288.362
v -691264.019 0.400 1187285.602
v -691259.596 0.400 1187282.762
v -691255.241 0.400 1187279.855
v -691254.500 0.400 1187279.232
v -691253.817 0.400 1187278.541
v -691253.200 0.400 1187277.789
v -691252.656 0.400 1187276.984
v -691252.188 0.400 1187276.132
v -691251.801 0.400 1187275.241
v -691248.473 0.400 1187265.120
v -691250.419 0.400 1187273.364
v -691248.554 0.400 1187271.851
v -691241.000 0.400 1187265.528
v -691233.542 0.400 1187259.091
v -691226.183 0.400 1187252.542
v -691218.925 0.400 1187245.881
v -691211.769 0.400 1187239.111
v -691204.717 0.400 1187232.233
v -691203.822 0.400 1187231.333
v -691203.193 0.400 1187231.682
v -691201.979 0.400 1187232.175
v -691200.714 0.400 1187232.520
v -691199.417 0.400 1187232.712
v -691198.106 0.400 1187232.746
v -691196.801 0.400 1187232.624
v -691195.519 0.400 1187232.347
# 322 vertices

vn 0.000 -1.000 0.000
vn 0.000 1.000 0.000
vn 0.437 0.000 0.899
vn 0.542 0.000 0.841
vn 0.638 0.000 0.770
vn 0.702 0.000 0.712
vn 0.707 0.000 0.708
vn 0.711 0.000 0.703
vn 0.715 0.000 0.699
vn 0.720 0.000 0.694
vn 0.724 0.000 0.690
vn 0.728 0.000 0.685
vn 0.732 0.000 0.681
vn 0.737 0.000 0.676
vn 0.751 0.000 0.661
vn 0.778 0.000 0.628
vn 0.804 0.000 0.595
vn 0.814 0.000 0.581
vn 0.827 0.000 0.562
vn 0.851 0.000 0.525
vn 0.823 0.000 0.568
vn 0.835 0.000 0.550
vn 0.846 0.000 0.534
vn 0.857 0.000 0.516
vn 0.867 0.000 0.499
vn 0.876 0.000 0.483
vn 0.915 0.000 0.403
vn 0.947 0.000 0.320
vn 0.972 0.000 0.234
vn 0.989 0.000 0.146
vn 0.998 0.000 0.057
vn 1.000 0.000 -0.013
vn 0.998 0.000 -0.056
vn 0.998 0.000 -0.057
vn 0.998 0.000 -0.064
vn 0.997 0.000 -0.072
vn 0.997 0.000 -0.080
vn 0.996 0.000 -0.088
vn 0.995 0.000 -0.096
vn 0.995 0.000 -0.103
vn 0.994 0.000 -0.111
vn 0.993 0.000 -0.119
vn 0.992 0.000 -0.127
vn 0.991 0.000 -0.134
vn 0.990 0.000 -0.142
vn 0.975 0.000 -0.223
vn 0.988 0.000 -0.156
vn 0.980 0.000 -0.199
vn 0.971 0.000 -0.241
vn 0.959 0.000 -0.283
vn 0.946 0.000 -0.325
vn 0.931 0.000 -0.366
vn 0.914 0.000 -0.406
vn 0.895 0.000 -0.445
vn 0.875 0.000 -0.484
vn 0.853 0.000 -0.522
vn 0.851 0.000 -0.525
vn 0.792 0.000 -0.610
vn 0.765 0.000 -0.644
vn -0.781 0.000 -0.624
vn -0.798 0.000 -0.603
vn -0.813 0.000 -0.582
vn -0.828 0.000 -0.560
vn -0.843 0.000 -0.538
vn -0.857 0.000 -0.515
vn -0.870 0.000 -0.492
vn -0.883 0.000 -0.469
vn -0.633 0.000 0.774
vn -0.804 0.000 -0.594
vn -0.786 0.000 -0.618
vn -0.768 0.000 -0.641
vn -0.748 0.000 -0.663
vn -0.728 0.000 -0.685
vn -0.708 0.000 -0.706
vn -0.686 0.000 -0.727
vn -0.665 0.000 -0.747
vn 0.900 0.000 -0.435
vn -0.578 0.000 -0.816
vn -0.589 0.000 -0.808
vn -0.602 0.000 -0.798
vn -0.615 0.000 -0.789
vn -0.628 0.000 -0.778
vn -0.640 0.000 -0.768
vn -0.653 0.000 -0.758
vn -0.677 0.000 -0.736
vn -0.689 0.000 -0.725
vn -0.686 0.000 0.727
vn -0.727 0.000 -0.686
vn -0.652 0.000 0.758
vn -0.578 0.000 0.816
vn -0.500 0.000 0.866
vn -0.417 0.000 0.909
vn -0.330 0.000 0.944
vn -0.241 0.000 0.971
vn -0.149 0.000 0.989
vn -0.056 0.000 0.998
vn 0.037 0.000 0.999
vn 0.130 0.000 0.992
vn 0.222 0.000 0.975
vn 0.312 0.000 0.950
vn 0.447 0.000 0.894
vn 0.463 0.000 0.886
vn 0.886 0.000 -0.463
vn 0.479 0.000 0.878
vn 0.494 0.000 0.869
vn 0.620 0.000 -0.785
vn 0.510 0.000 0.860
vn -0.620 0.000 0.785
vn 0.525 0.000 0.851
vn 0.540 0.000 0.841
vn 0.555 0.000 0.832
vn 0.643 0.000 0.766
vn 0.773 0.000 0.634
vn 0.828 0.000 0.560
vn 0.876 0.000 0.481
vn 0.917 0.000 0.399
vn 0.950 0.000 0.312
vn -0.973 0.000 -0.230
vn 0.630 0.000 0.777
vn 0.642 0.000 0.767
vn 0.653 0.000 0.757
vn 0.665 0.000 0.747
vn 0.676 0.000 0.737
vn 0.687 0.000 0.726
vn 0.698 0.000 0.716
vn 0.709 0.000 0.705
vn -0.485 0.000 0.875
vn -0.377 0.000 0.926
vn -0.263 0.000 0.965
vn -0.146 0.000 0.989
vn -0.027 0.000 1.000
vn 0.093 0.000 0.996
vn 0.211 0.000 0.977
vn 0.327 0.000 0.945
# 134 vertex normals

g CityEngineMaterial
s off
usemtl CityEngineMaterial
f 3//1 1//1 2//1 161//1 160//1 159//1 158//1 157//1 156//1 155//1 154//1 153//1 152//1 151//1 150//1 149//1 148//1 147//1 146//1 145//1 144//1 143//1 142//1 141//1 140//1 139//1 138//1 137//1 136//1 135//1 134//1 133//1 132//1 131//1 130//1 129//1 128//1 127//1 126//1 125//1 124//1 123//1 122//1 121//1 120//1 119//1 118//1 117//1 116//1 115//1 114//1 113//1 112//1 111//1 110//1 109//1 108//1 107//1 106//1 105//1 104//1 103//1 102//1 101//1 100//1 99//1 98//1 97//1 96//1 95//1 94//1 93//1 92//1 91//1 90//1 89//1 88//1 87//1 86//1 85//1 84//1 83//1 82//1 81//1 80//1 79//1 78//1 77//1 76//1 75//1 74//1 73//1 72//1 71//1 70//1 69//1 68//1 67//1 66//1 65//1 64//1 63//1 62//1 61//1 60//1 59//1 58//1 57//1 56//1 55//1 54//1 53//1 52//1 51//1 50//1 49//1 48//1 47//1 46//1 45//1 44//1 43//1 42//1 41//1 40//1 39//1 38//1 37//1 36//1 35//1 34//1 33//1 32//1 31//1 30//1 29//1 28//1 27//1 26//1 25//1 24//1 23//1 22//1 21//1 20//1 19//1 18//1 17//1 16//1 15//1 14//1 13//1 12//1 11//1 10//1 9//1 8//1 7//1 6//1 5//1 4//1
f 162//2 163//2 164//2 165//2 166//2 167//2 168//2 169//2 170//2 171//2 172//2 173//2 174//2 175//2 176//2 177//2 178//2 179//2 180//2 181//2 182//2 183//2 184//2 185//2 186//2 187//2 188//2 189//2 190//2 191//2 192//2 193//2 194//2 195//2 196//2 197//2 198//2 199//2 200//2 201//2 202//2 203//2 204//2 205//2 206//2 207//2 208//2 209//2 210//2 211//2 212//2 213//2 214//2 215//2 216//2 217//2 218//2 219//2 220//2 221//2 222//2 223//2 224//2 225//2 226//2 227//2 228//2 229//2 230//2 231//2 232//2 233//2 234//2 235//2 236//2 237//2 238//2 239//2 240//2 241//2 242//2 243//2 244//2 245//2 246//2 247//2 248//2 249//2 250//2 251//2 252//2 253//2 254//2 255//2 256//2 257//2 258//2 259//2 260//2 261//2 262//2 263//2 264//2 265//2 266//2 267//2 268//2 269//2 270//2 271//2 272//2 273//2 274//2 275//2 276//2 277//2 278//2 279//2 280//2 281//2 282//2 283//2 284//2 285//2 286//2 287//2 288//2 289//2 290//2 291//2 292//2 293//2 294//2 295//2 296//2 297//2 298//2 299//2 300//2 301//2 302//2 303//2 304//2 305//2 306//2 307//2 308//2 309//2 310//2 311//2 312//2 313//2 314//2 315//2 316//2 317//2 318//2 319//2 320//2 321//2 322//2
f 1//3 3//3 163//3 162//3
f 3//4 4//4 164//4 163//4
f 4//5 5//5 165//5 164//5
f 5//6 6//6 166//6 165//6
f 6//7 7//7 167//7 166//7
f 7//8 8//8 168//8 167//8
f 8//8 9//8 169//8 168//8
f 9//8 10//8 170//8 169//8
f 10//9 11//9 171//9 170//9
f 11//10 12//10 172//10 171//10
f 12//11 13//11 173//11 172//11
f 13//12 14//12 174//12 173//12
f 14//13 15//13 175//13 174//13
f 15//14 16//14 176//14 175//14
f 16//15 17//15 177//15 176//15
f 17//16 18//16 178//16 177//16
f 18//17 19//17 179//17 178//17
f 19//18 20//18 180//18 179//18
f 20//19 21//19 181//19 180//19
f 21//20 22//20 182//20 181//20
f 22//21 23//21 183//21 182//21
f 23//22 24//22 184//22 183//22
f 24//23 25//23 185//23 184//23
f 25//24 26//24 186//24 185//24
f 26//25 27//25 187//25 186//25
f 27//26 28//26 188//26 187//26
f 28//26 29//26 189//26 188//26
f 29//27 30//27 190//27 189//27
f 30//27 31//27 191//27 190//27
f 31//27 32//27 192//27 191//27
f 32//27 33//27 193//27 192//27
f 33//28 34//28 194//28 193//28
f 34//29 35//29 195//29 194//29
f 35//30 36//30 196//30 195//30
f 36//31 37//31 197//31 196//31
f 37//32 38//32 198//32 197//32
f 38//32 39//32 199//32 198//32
f 39//32 40//32 200//32 199//32
f 40//32 41//32 201//32 200//32
f 41//33 42//33 202//33 201//33
f 42//34 43//34 203//34 202//34
f 43//35 44//35 204//35 203//35
f 44//36 45//36 205//36 204//36
f 45//36 46//36 206//36 205//36
f 46//37 47//37 207//37 206//37
f 47//38 48//38 208//38 207//38
f 48//38 49//38 209//38 208//38
f 49//39 50//39 210//39 209//39
f 50//40 51//40 211//40 210//40
f 51//40 52//40 212//40 211//40
f 52//41 53//41 213//41 212//41
f 53//42 54//42 214//42 213//42
f 54//42 55//42 215//42 214//42
f 55//43 56//43 216//43 215//43
f 56//44 57//44 217//44 216//44
f 57//44 58//44 218//44 217//44
f 58//45 59//45 219//45 218//45
f 59//46 60//46 220//46 219//46
f 60//47 61//47 221//47 220//47
f 61//47 62//47 222//47 221//47
f 62//47 63//47 223//47 222//47
f 63//48 64//48 224//48 223//48
f 64//49 65//49 225//49 224//49
f 65//49 66//49 226//49 225//49
f 66//50 67//50 227//50 226//50
f 67//51 68//51 228//51 227//51
f 68//52 69//52 229//52 228//52
f 69//53 70//53 230//53 229//53
f 70//54 71//54 231//54 230//54
f 71//55 72//55 232//55 231//55
f 72//56 73//56 233//56 232//56
f 73//57 74//57 234//57 233//57
f 74//58 75//58 235//58 234//58
f 75//59 76//59 236//59 235//59
f 76//60 77//60 237//60 236//60
f 77//61 78//61 238//61 237//61
f 78//62 79//62 239//62 238//62
f 79//63 80//63 240//63 239//63
f 80//64 81//64 241//64 240//64
f 81//65 82//65 242//65 241//65
f 82//65 83//65 243//65 242//65
f 83//66 84//66 244//66 243//66
f 84//67 85//67 245//67 244//67
f 85//68 86//68 246//68 245//68
f 86//69 87//69 247//69 246//69
f 87//70 88//70 248//70 247//70
f 88//71 89//71 249//71 248//71
f 89//72 90//72 250//72 249//72
f 90//73 91//73 251//73 250//73
f 91//74 92//74 252//74 251//74
f 92//75 93//75 253//75 252//75
f 93//76 94//76 254//76 253//76
f 94//77 95//77 255//77 254//77
f 95//78 96//78 256//78 255//78
f 96//79 97//79 257//79 256//79
f 97//80 98//80 258//80 257//80
f 98//81 99//81 259//81 258//81
f 99//82 100//82 260//82 259//82
f 100//83 101//83 261//83 260//83
f 101//84 102//84 262//84 261//84
f 102//76 103//76 263//76 262//76
f 103//76 104//76 264//76 263//76
f 104//76 105//76 265//76 264//76
f 105//85 106//85 266//85 265//85
f 106//86 107//86 267//86 266//86
f 107//87 108//87 268//87 267//87
f 108//87 109//87 269//87 268//87
f 109//87 110//87 270//87 269//87
f 110//88 111//88 271//88 270//88
f 111//87 112//87 272//87 271//87
f 112//89 113//89 273//89 272//89
f 113//90 114//90 274//90 273//90
f 114//91 115//91 275//91 274//91
f 115//92 116//92 276//92 275//92
f 116//93 117//93 277//93 276//93
f 117//94 118//94 278//94 277//94
f 118//95 119//95 279//95 278//95
f 119//96 120//96 280//96 279//96
f 120//97 121//97 281//97 280//97
f 121//98 122//98 282//98 281//98
f 122//99 123//99 283//99 282//99
f 123//100 124//100 284//100 283//100
f 124//101 125//101 285//101 284//101
f 125//102 126//102 286//102 285//102
f 126//103 127//103 287//103 286//103
f 127//102 128//102 288//102 287//102
f 128//102 129//102 289//102 288//102
f 129//104 130//104 290//104 289//104
f 130//105 131//105 291//105 290//105
f 131//106 132//106 292//106 291//106
f 132//105 133//105 293//105 292//105
f 133//107 134//107 294//107 293//107
f 134//108 135//108 295//108 294//108
f 135//107 136//107 296//107 295//107
f 136//109 137//109 297//109 296//109
f 137//110 138//110 298//110 297//110
f 138//111 139//111 299//111 298//111
f 139//112 140//112 300//112 299//112
f 140//8 141//8 301//8 300//8
f 141//113 142//113 302//113 301//113
f 142//114 143//114 303//114 302//114
f 143//115 144//115 304//115 303//115
f 144//116 145//116 305//116 304//116
f 145//117 146//117 306//117 305//117
f 146//118 147//118 307//118 306//118
f 147//119 148//119 308//119 307//119
f 148//120 149//120 309//120 308//120
f 149//121 150//121 310//121 309//121
f 150//122 151//122 311//122 310//122
f 151//123 152//123 312//123 311//123
f 152//124 153//124 313//124 312//124
f 153//125 154//125 314//125 313//125
f 154//126 155//126 315//126 314//126
f 155//127 156//127 316//127 315//127
f 156//128 157//128 317//128 316//128
f 157//129 158//129 318//129 317//129
f 158//130 159//130 319//130 318//130
f 159//131 160//131 320//131 319//131
f 160//132 161//132 321//132 320//132
f 161//133 2//133 322//133 321//133
f 2//134 1//134 162//134 322//134
# 163 faces

