# created with CityEngine 2019.0.5403 0409R (based on Esri Procedural Runtime 2.0.5403, build date: Tue 04/09/2019 10:26 AM)
# creation date: Tue Mar 29 18:59:06 2022

mtllib 20220329_GF_Border.mtl

# mesh 'mesh_CityEngineMaterial_21' from geometry 'mesh_CityEngineMaterial_21'
v -691237.248 0.000 1187230.438
v -691233.350 0.000 1187227.070
v -691233.958 0.000 1187227.066
v -691237.178 0.000 1187229.848
v -691234.355 0.000 1187226.180
v -691234.640 0.000 1187226.462
v -691234.875 0.000 1187225.579
v -691234.924 0.000 1187226.134
v -691238.724 0.000 1187228.709
v -691238.125 0.000 1187228.737
v -691238.374 0.000 1187229.052
v -691238.086 0.000 1187228.775
v -691237.945 0.000 1187229.525
v -691237.641 0.000 1187229.265
v -691237.545 0.000 1187230.022
v -691237.226 0.000 1187229.780
# 16 vertices

vn 0.000 1.000 0.000
# 1 vertex normal

g CityEngineMaterial
s off
usemtl CityEngineMaterial
f 1//1 2//1 3//1 4//1
f 2//1 5//1 6//1 3//1
f 5//1 7//1 8//1 6//1
f 7//1 9//1 10//1 8//1
f 9//1 11//1 12//1 10//1
f 11//1 13//1 14//1 12//1
f 13//1 15//1 16//1 14//1
f 15//1 1//1 4//1 16//1
# 8 faces

