# created with CityEngine 2019.0.5403 0409R (based on Esri Procedural Runtime 2.0.5403, build date: Tue 04/09/2019 10:26 AM)
# creation date: Tue Mar 29 18:59:06 2022

mtllib 20220329_GF_Border.mtl

# mesh 'mesh_CityEngineMaterial_22' from geometry 'mesh_CityEngineMaterial_22'
v -691242.661 0.000 1187242.400
v -691242.221 0.000 1187242.398
v -691242.240 0.000 1187241.998
v -691242.646 0.000 1187242.000
v -691241.781 0.000 1187242.357
v -691241.835 0.000 1187241.961
v -691241.263 0.000 1187242.263
v -691241.385 0.000 1187241.879
v -691230.522 0.000 1187237.227
v -691230.791 0.000 1187236.911
v -691225.866 0.000 1187230.387
v -691226.214 0.000 1187230.187
v -691225.416 0.000 1187229.448
v -691225.783 0.000 1187229.290
v -691225.055 0.000 1187228.507
v -691225.435 0.000 1187228.379
v -691224.773 0.000 1187227.539
v -691225.162 0.000 1187227.443
v -691224.571 0.000 1187226.552
v -691224.966 0.000 1187226.488
v -691224.450 0.000 1187225.551
v -691224.849 0.000 1187225.520
v -691224.412 0.000 1187224.544
v -691224.812 0.000 1187224.545
v -691224.455 0.000 1187223.538
v -691224.854 0.000 1187223.571
v -691224.581 0.000 1187222.538
v -691224.976 0.000 1187222.604
v -691224.788 0.000 1187221.551
v -691225.176 0.000 1187221.649
v -691225.075 0.000 1187220.585
v -691225.454 0.000 1187220.715
v -691225.440 0.000 1187219.646
v -691225.807 0.000 1187219.806
v -691225.899 0.000 1187218.701
v -691226.244 0.000 1187218.906
v -691226.001 0.000 1187218.558
v -691226.326 0.000 1187218.790
v -691226.301 0.000 1187218.137
v -691226.620 0.000 1187218.379
v -691226.701 0.000 1187217.641
v -691227.005 0.000 1187217.901
v -691227.129 0.000 1187217.169
v -691227.418 0.000 1187217.446
v -691227.483 0.000 1187216.822
v -691227.763 0.000 1187217.107
v -691227.584 0.000 1187216.723
v -691227.856 0.000 1187217.016
v -691228.064 0.000 1187216.304
v -691228.319 0.000 1187216.613
v -691228.568 0.000 1187215.913
v -691228.804 0.000 1187216.236
v -691229.094 0.000 1187215.552
v -691229.310 0.000 1187215.889
v -691229.639 0.000 1187215.223
v -691229.836 0.000 1187215.572
v -691230.203 0.000 1187214.926
v -691230.379 0.000 1187215.286
v -691230.784 0.000 1187214.662
v -691230.938 0.000 1187215.031
v -691231.378 0.000 1187214.433
v -691231.511 0.000 1187214.810
v -691231.972 0.000 1187214.243
v -691232.088 0.000 1187214.626
v -691234.089 0.000 1187213.632
v -691234.150 0.000 1187214.031
v -691234.715 0.000 1187213.616
v -691234.717 0.000 1187214.016
v -691235.233 0.000 1187213.624
v -691235.219 0.000 1187214.024
v -691235.751 0.000 1187213.652
v -691235.721 0.000 1187214.051
v -691236.267 0.000 1187213.702
v -691236.221 0.000 1187214.099
v -691236.781 0.000 1187213.771
v -691236.719 0.000 1187214.167
v -691237.292 0.000 1187213.862
v -691237.214 0.000 1187214.254
v -691237.798 0.000 1187213.972
v -691237.705 0.000 1187214.361
v -691238.300 0.000 1187214.103
v -691238.191 0.000 1187214.488
v -691238.796 0.000 1187214.254
v -691238.672 0.000 1187214.634
v -691239.286 0.000 1187214.424
v -691239.147 0.000 1187214.799
v -691239.768 0.000 1187214.614
v -691239.614 0.000 1187214.983
v -691240.234 0.000 1187214.819
v -691240.069 0.000 1187215.184
v -691241.795 0.000 1187215.545
v -691241.618 0.000 1187215.903
v -691242.100 0.000 1187215.705
v -691241.896 0.000 1187216.050
v -691242.408 0.000 1187215.907
v -691242.171 0.000 1187216.231
v -691242.694 0.000 1187216.139
v -691242.428 0.000 1187216.438
v -691242.957 0.000 1187216.398
v -691242.662 0.000 1187216.669
v -691243.193 0.000 1187216.681
v -691242.873 0.000 1187216.922
v -691243.400 0.000 1187216.985
v -691243.058 0.000 1187217.194
v -691243.576 0.000 1187217.309
v -691243.216 0.000 1187217.483
v -691243.720 0.000 1187217.648
v -691243.344 0.000 1187217.786
v -691243.830 0.000 1187218.000
v -691243.442 0.000 1187218.101
v -691243.905 0.000 1187218.361
v -691243.509 0.000 1187218.423
v -691243.944 0.000 1187218.727
v -691243.545 0.000 1187218.750
v -691243.949 0.000 1187219.189
v -691243.548 0.000 1187219.136
v -691241.481 0.000 1187227.881
v -691241.044 0.000 1187227.956
v -691247.013 0.000 1187235.723
v -691246.680 0.000 1187235.944
v -691247.228 0.000 1187236.068
v -691246.877 0.000 1187236.260
v -691247.403 0.000 1187236.434
v -691247.031 0.000 1187236.586
v -691247.534 0.000 1187236.819
v -691247.148 0.000 1187236.927
v -691247.621 0.000 1187237.215
v -691247.226 0.000 1187237.279
v -691247.663 0.000 1187237.619
v -691247.263 0.000 1187237.638
v -691247.659 0.000 1187238.025
v -691247.259 0.000 1187237.998
v -691247.608 0.000 1187238.428
v -691247.214 0.000 1187238.356
v -691247.512 0.000 1187238.823
v -691247.129 0.000 1187238.706
v -691247.373 0.000 1187239.204
v -691247.005 0.000 1187239.045
v -691247.190 0.000 1187239.567
v -691246.843 0.000 1187239.367
v -691246.968 0.000 1187239.907
v -691246.646 0.000 1187239.669
v -691246.709 0.000 1187240.219
v -691246.408 0.000 1187239.955
v -691246.165 0.000 1187240.803
v -691245.878 0.000 1187240.524
v -691245.866 0.000 1187241.097
v -691245.597 0.000 1187240.800
v -691245.526 0.000 1187241.378
v -691245.284 0.000 1187241.059
v -691245.163 0.000 1187241.629
v -691244.950 0.000 1187241.290
v -691244.779 0.000 1187241.847
v -691244.597 0.000 1187241.490
v -691244.378 0.000 1187242.030
v -691244.227 0.000 1187241.660
v -691243.963 0.000 1187242.179
v -691243.845 0.000 1187241.796
v -691243.536 0.000 1187242.290
v -691243.452 0.000 1187241.899
v -691243.101 0.000 1187242.364
v -691243.051 0.000 1187241.967
# 162 vertices

vn 0.000 1.000 0.000
# 1 vertex normal

g CityEngineMaterial
s off
usemtl CityEngineMaterial
f 1//1 2//1 3//1 4//1
f 2//1 5//1 6//1 3//1
f 5//1 7//1 8//1 6//1
f 7//1 9//1 10//1 8//1
f 9//1 11//1 12//1 10//1
f 11//1 13//1 14//1 12//1
f 13//1 15//1 16//1 14//1
f 15//1 17//1 18//1 16//1
f 17//1 19//1 20//1 18//1
f 19//1 21//1 22//1 20//1
f 21//1 23//1 24//1 22//1
f 23//1 25//1 26//1 24//1
f 25//1 27//1 28//1 26//1
f 27//1 29//1 30//1 28//1
f 29//1 31//1 32//1 30//1
f 31//1 33//1 34//1 32//1
f 33//1 35//1 36//1 34//1
f 35//1 37//1 38//1 36//1
f 37//1 39//1 40//1 38//1
f 39//1 41//1 42//1 40//1
f 41//1 43//1 44//1 42//1
f 43//1 45//1 46//1 44//1
f 45//1 47//1 48//1 46//1
f 47//1 49//1 50//1 48//1
f 49//1 51//1 52//1 50//1
f 51//1 53//1 54//1 52//1
f 53//1 55//1 56//1 54//1
f 55//1 57//1 58//1 56//1
f 57//1 59//1 60//1 58//1
f 59//1 61//1 62//1 60//1
f 61//1 63//1 64//1 62//1
f 63//1 65//1 66//1 64//1
f 65//1 67//1 68//1 66//1
f 67//1 69//1 70//1 68//1
f 69//1 71//1 72//1 70//1
f 71//1 73//1 74//1 72//1
f 73//1 75//1 76//1 74//1
f 75//1 77//1 78//1 76//1
f 77//1 79//1 80//1 78//1
f 79//1 81//1 82//1 80//1
f 81//1 83//1 84//1 82//1
f 83//1 85//1 86//1 84//1
f 85//1 87//1 88//1 86//1
f 87//1 89//1 90//1 88//1
f 89//1 91//1 92//1 90//1
f 91//1 93//1 94//1 92//1
f 93//1 95//1 96//1 94//1
f 95//1 97//1 98//1 96//1
f 97//1 99//1 100//1 98//1
f 99//1 101//1 102//1 100//1
f 101//1 103//1 104//1 102//1
f 103//1 105//1 106//1 104//1
f 105//1 107//1 108//1 106//1
f 107//1 109//1 110//1 108//1
f 109//1 111//1 112//1 110//1
f 111//1 113//1 114//1 112//1
f 113//1 115//1 116//1 114//1
f 115//1 117//1 118//1 116//1
f 117//1 119//1 120//1 118//1
f 119//1 121//1 122//1 120//1
f 121//1 123//1 124//1 122//1
f 123//1 125//1 126//1 124//1
f 125//1 127//1 128//1 126//1
f 127//1 129//1 130//1 128//1
f 129//1 131//1 132//1 130//1
f 131//1 133//1 134//1 132//1
f 133//1 135//1 136//1 134//1
f 135//1 137//1 138//1 136//1
f 137//1 139//1 140//1 138//1
f 139//1 141//1 142//1 140//1
f 141//1 143//1 144//1 142//1
f 143//1 145//1 146//1 144//1
f 145//1 147//1 148//1 146//1
f 147//1 149//1 150//1 148//1
f 149//1 151//1 152//1 150//1
f 151//1 153//1 154//1 152//1
f 153//1 155//1 156//1 154//1
f 155//1 157//1 158//1 156//1
f 157//1 159//1 160//1 158//1
f 159//1 161//1 162//1 160//1
f 161//1 1//1 4//1 162//1
# 81 faces

