# created with CityEngine 2019.0.5403 0409R (based on Esri Procedural Runtime 2.0.5403, build date: Tue 04/09/2019 10:26 AM)
# creation date: Tue Mar 29 18:59:06 2022

mtllib 20220329_GF_Border.mtl

# mesh 'mesh_CityEngineMaterial_3' from geometry 'mesh_CityEngineMaterial_3'
v -691291.712 0.000 1187240.553
v -691301.274 0.000 1187252.217
v -691300.961 0.000 1187252.466
v -691292.360 0.000 1187241.974
v -691302.983 0.000 1187254.417
v -691302.663 0.000 1187254.657
v -691304.442 0.000 1187256.436
v -691304.114 0.000 1187256.665
v -691305.832 0.000 1187258.506
v -691305.496 0.000 1187258.723
v -691307.151 0.000 1187260.626
v -691306.808 0.000 1187260.832
v -691308.401 0.000 1187262.795
v -691308.051 0.000 1187262.988
v -691309.578 0.000 1187265.010
v -691309.211 0.000 1187265.173
v -691310.065 0.000 1187266.358
v -691309.679 0.000 1187266.466
v -691310.360 0.000 1187267.798
v -691309.962 0.000 1187267.852
v -691310.458 0.000 1187269.312
v -691310.057 0.000 1187269.313
v -691310.358 0.000 1187270.881
v -691309.961 0.000 1187270.832
v -691310.063 0.000 1187272.482
v -691309.673 0.000 1187272.388
v -691309.574 0.000 1187274.095
v -691309.198 0.000 1187273.960
v -691308.900 0.000 1187275.699
v -691308.539 0.000 1187275.526
v -691308.049 0.000 1187277.273
v -691307.706 0.000 1187277.066
v -691307.031 0.000 1187278.795
v -691306.709 0.000 1187278.558
v -691305.861 0.000 1187280.245
v -691305.561 0.000 1187279.981
v -691304.555 0.000 1187281.605
v -691304.278 0.000 1187281.316
v -691303.128 0.000 1187282.857
v -691302.871 0.000 1187282.550
v -691281.315 0.000 1187300.397
v -691281.081 0.000 1187300.071
v -691279.442 0.000 1187301.594
v -691279.245 0.000 1187301.245
v -691277.478 0.000 1187302.575
v -691277.319 0.000 1187302.208
v -691275.459 0.000 1187303.324
v -691275.341 0.000 1187302.941
v -691273.421 0.000 1187303.825
v -691273.349 0.000 1187303.431
v -691271.403 0.000 1187304.070
v -691271.381 0.000 1187303.670
v -691269.442 0.000 1187304.054
v -691269.473 0.000 1187303.654
v -691267.574 0.000 1187303.777
v -691267.663 0.000 1187303.386
v -691265.834 0.000 1187303.245
v -691265.981 0.000 1187302.872
v -691264.253 0.000 1187302.468
v -691264.460 0.000 1187302.124
v -691262.861 0.000 1187301.459
v -691263.124 0.000 1187301.156
v -691261.683 0.000 1187300.237
v -691261.984 0.000 1187299.972
v -691187.130 0.000 1187207.602
v -691187.453 0.000 1187207.365
v -691186.843 0.000 1187207.174
v -691187.194 0.000 1187206.980
v -691186.630 0.000 1187206.699
v -691187.008 0.000 1187206.565
v -691186.494 0.000 1187206.183
v -691186.889 0.000 1187206.111
v -691186.438 0.000 1187205.636
v -691186.839 0.000 1187205.624
v -691186.463 0.000 1187205.067
v -691186.862 0.000 1187205.111
v -691186.569 0.000 1187204.485
v -691186.958 0.000 1187204.582
v -691186.684 0.000 1187204.120
v -691187.136 0.000 1187204.018
v -691186.031 0.000 1187203.422
v -691186.069 0.000 1187202.878
v -691182.434 0.000 1187206.317
v -691182.494 0.000 1187205.755
v -691180.862 0.000 1187204.365
v -691180.923 0.000 1187203.803
v -691180.696 0.000 1187204.499
v -691180.757 0.000 1187203.937
v -691163.846 0.000 1187183.562
v -691164.168 0.000 1187183.323
v -691163.259 0.000 1187182.700
v -691163.607 0.000 1187182.501
v -691162.961 0.000 1187182.066
v -691163.309 0.000 1187181.867
v -691162.604 0.000 1187181.546
v -691162.951 0.000 1187181.344
v -691162.130 0.000 1187180.562
v -691162.503 0.000 1187180.416
v -691161.805 0.000 1187179.507
v -691162.195 0.000 1187179.417
v -691161.633 0.000 1187178.398
v -691162.032 0.000 1187178.365
v -691161.617 0.000 1187177.254
v -691162.017 0.000 1187177.276
v -691161.758 0.000 1187176.095
v -691162.152 0.000 1187176.169
v -691162.053 0.000 1187174.940
v -691162.435 0.000 1187175.063
v -691162.498 0.000 1187173.809
v -691162.861 0.000 1187173.978
v -691163.084 0.000 1187172.722
v -691163.425 0.000 1187172.933
v -691163.802 0.000 1187171.697
v -691164.117 0.000 1187171.945
v -691164.639 0.000 1187170.752
v -691164.924 0.000 1187171.034
v -691165.582 0.000 1187169.903
v -691165.841 0.000 1187170.207
v -691178.621 0.000 1187159.429
v -691178.864 0.000 1187159.746
v -691179.435 0.000 1187158.832
v -691179.667 0.000 1187159.158
v -691180.267 0.000 1187158.261
v -691180.488 0.000 1187158.594
v -691181.115 0.000 1187157.715
v -691181.326 0.000 1187158.055
v -691181.978 0.000 1187157.197
v -691182.179 0.000 1187157.543
v -691182.855 0.000 1187156.706
v -691183.045 0.000 1187157.058
v -691183.745 0.000 1187156.243
v -691183.924 0.000 1187156.601
v -691184.647 0.000 1187155.809
v -691184.815 0.000 1187156.172
v -691185.559 0.000 1187155.404
v -691185.716 0.000 1187155.772
v -691186.481 0.000 1187155.029
v -691186.626 0.000 1187155.401
v -691187.411 0.000 1187154.683
v -691187.544 0.000 1187155.061
v -691188.348 0.000 1187154.369
v -691188.453 0.000 1187154.756
v -691199.264 0.000 1187152.079
v -691199.329 0.000 1187152.474
v -691200.118 0.000 1187151.978
v -691200.149 0.000 1187152.377
v -691200.970 0.000 1187151.947
v -691200.969 0.000 1187152.347
v -691201.814 0.000 1187151.984
v -691201.780 0.000 1187152.383
v -691202.644 0.000 1187152.092
v -691202.576 0.000 1187152.486
v -691203.454 0.000 1187152.267
v -691203.352 0.000 1187152.654
v -691204.238 0.000 1187152.510
v -691204.103 0.000 1187152.887
v -691204.992 0.000 1187152.818
v -691204.824 0.000 1187153.181
v -691205.709 0.000 1187153.189
v -691205.509 0.000 1187153.536
v -691206.386 0.000 1187153.621
v -691206.155 0.000 1187153.949
v -691207.016 0.000 1187154.111
v -691206.756 0.000 1187154.416
v -691207.597 0.000 1187154.656
v -691207.310 0.000 1187154.935
v -691208.124 0.000 1187155.251
v -691207.818 0.000 1187155.509
v -691209.434 0.000 1187156.878
v -691209.237 0.000 1187157.272
v -691213.972 0.000 1187157.029
v -691213.907 0.000 1187157.427
v -691221.264 0.000 1187159.243
v -691221.098 0.000 1187159.611
v -691227.734 0.000 1187163.270
v -691227.478 0.000 1187163.582
v -691232.942 0.000 1187168.834
v -691232.614 0.000 1187169.069
v -691236.532 0.000 1187175.556
v -691236.154 0.000 1187175.698
v -691238.260 0.000 1187182.978
v -691237.858 0.000 1187183.018
v -691238.008 0.000 1187190.595
v -691237.610 0.000 1187190.529
v -691235.793 0.000 1187197.887
v -691235.426 0.000 1187197.720
v -691231.766 0.000 1187204.357
v -691231.455 0.000 1187204.101
v -691230.827 0.000 1187205.236
v -691230.357 0.000 1187205.128
v -691231.037 0.000 1187205.776
v -691230.673 0.000 1187205.944
v -691231.499 0.000 1187206.628
v -691231.159 0.000 1187206.840
v -691232.070 0.000 1187207.432
v -691231.758 0.000 1187207.683
v -691232.733 0.000 1187208.162
v -691232.453 0.000 1187208.449
v -691233.467 0.000 1187208.796
v -691233.225 0.000 1187209.115
v -691234.250 0.000 1187209.314
v -691234.052 0.000 1187209.663
v -691235.058 0.000 1187209.701
v -691234.913 0.000 1187210.075
v -691235.865 0.000 1187209.945
v -691235.784 0.000 1187210.338
v -691236.648 0.000 1187210.037
v -691236.642 0.000 1187210.439
v -691238.253 0.000 1187209.897
v -691238.311 0.000 1187210.293
v -691252.317 0.000 1187207.008
v -691252.387 0.000 1187207.402
v -691254.486 0.000 1187206.690
v -691254.524 0.000 1187207.088
v -691255.790 0.000 1187206.633
v -691255.786 0.000 1187207.034
v -691257.101 0.000 1187206.713
v -691257.056 0.000 1187207.111
v -691258.405 0.000 1187206.929
v -691258.320 0.000 1187207.320
v -691259.690 0.000 1187207.278
v -691259.566 0.000 1187207.658
v -691260.941 0.000 1187207.756
v -691260.779 0.000 1187208.122
v -691262.145 0.000 1187208.358
v -691261.948 0.000 1187208.707
v -691263.289 0.000 1187209.079
v -691263.059 0.000 1187209.407
v -691264.362 0.000 1187209.911
v -691264.102 0.000 1187210.215
v -691265.352 0.000 1187210.844
v -691265.064 0.000 1187211.122
v -691266.249 0.000 1187211.870
v -691265.935 0.000 1187212.119
v -691267.043 0.000 1187212.976
v -691266.707 0.000 1187213.193
v -691270.734 0.000 1187219.360
v -691270.505 0.000 1187219.764
v -691273.119 0.000 1187219.325
v -691273.047 0.000 1187219.726
v -691279.068 0.000 1187221.633
v -691278.860 0.000 1187221.981
v -691284.382 0.000 1187226.185
v -691284.079 0.000 1187226.453
v -691288.697 0.000 1187232.672
v -691288.339 0.000 1187232.856
v -691291.737 0.000 1187240.700
v -691292.824 0.000 1187244.697
# 248 vertices

vn 0.000 1.000 0.000
# 1 vertex normal

g CityEngineMaterial
s off
usemtl CityEngineMaterial
f 1//1 2//1 3//1 4//1
f 2//1 5//1 6//1 3//1
f 5//1 7//1 8//1 6//1
f 7//1 9//1 10//1 8//1
f 9//1 11//1 12//1 10//1
f 11//1 13//1 14//1 12//1
f 13//1 15//1 16//1 14//1
f 15//1 17//1 18//1 16//1
f 17//1 19//1 20//1 18//1
f 19//1 21//1 22//1 20//1
f 21//1 23//1 24//1 22//1
f 23//1 25//1 26//1 24//1
f 25//1 27//1 28//1 26//1
f 27//1 29//1 30//1 28//1
f 29//1 31//1 32//1 30//1
f 31//1 33//1 34//1 32//1
f 33//1 35//1 36//1 34//1
f 35//1 37//1 38//1 36//1
f 37//1 39//1 40//1 38//1
f 39//1 41//1 42//1 40//1
f 41//1 43//1 44//1 42//1
f 43//1 45//1 46//1 44//1
f 45//1 47//1 48//1 46//1
f 47//1 49//1 50//1 48//1
f 49//1 51//1 52//1 50//1
f 51//1 53//1 54//1 52//1
f 53//1 55//1 56//1 54//1
f 55//1 57//1 58//1 56//1
f 57//1 59//1 60//1 58//1
f 59//1 61//1 62//1 60//1
f 61//1 63//1 64//1 62//1
f 63//1 65//1 66//1 64//1
f 65//1 67//1 68//1 66//1
f 67//1 69//1 70//1 68//1
f 69//1 71//1 72//1 70//1
f 71//1 73//1 74//1 72//1
f 73//1 75//1 76//1 74//1
f 75//1 77//1 78//1 76//1
f 77//1 79//1 80//1 78//1
f 79//1 81//1 82//1 80//1
f 81//1 83//1 84//1 82//1
f 83//1 85//1 86//1 84//1
f 85//1 87//1 88//1 86//1
f 87//1 89//1 90//1 88//1
f 89//1 91//1 92//1 90//1
f 91//1 93//1 94//1 92//1
f 93//1 95//1 96//1 94//1
f 95//1 97//1 98//1 96//1
f 97//1 99//1 100//1 98//1
f 99//1 101//1 102//1 100//1
f 101//1 103//1 104//1 102//1
f 103//1 105//1 106//1 104//1
f 105//1 107//1 108//1 106//1
f 107//1 109//1 110//1 108//1
f 109//1 111//1 112//1 110//1
f 111//1 113//1 114//1 112//1
f 113//1 115//1 116//1 114//1
f 115//1 117//1 118//1 116//1
f 117//1 119//1 120//1 118//1
f 119//1 121//1 122//1 120//1
f 121//1 123//1 124//1 122//1
f 123//1 125//1 126//1 124//1
f 125//1 127//1 128//1 126//1
f 127//1 129//1 130//1 128//1
f 129//1 131//1 132//1 130//1
f 131//1 133//1 134//1 132//1
f 133//1 135//1 136//1 134//1
f 135//1 137//1 138//1 136//1
f 137//1 139//1 140//1 138//1
f 139//1 141//1 142//1 140//1
f 141//1 143//1 144//1 142//1
f 143//1 145//1 146//1 144//1
f 145//1 147//1 148//1 146//1
f 147//1 149//1 150//1 148//1
f 149//1 151//1 152//1 150//1
f 151//1 153//1 154//1 152//1
f 153//1 155//1 156//1 154//1
f 155//1 157//1 158//1 156//1
f 157//1 159//1 160//1 158//1
f 159//1 161//1 162//1 160//1
f 161//1 163//1 164//1 162//1
f 163//1 165//1 166//1 164//1
f 165//1 167//1 168//1 166//1
f 167//1 169//1 170//1 168//1
f 169//1 171//1 172//1 170//1
f 171//1 173//1 174//1 172//1
f 173//1 175//1 176//1 174//1
f 175//1 177//1 178//1 176//1
f 177//1 179//1 180//1 178//1
f 179//1 181//1 182//1 180//1
f 181//1 183//1 184//1 182//1
f 183//1 185//1 186//1 184//1
f 185//1 187//1 188//1 186//1
f 187//1 189//1 190//1 188//1
f 189//1 191//1 192//1 190//1
f 191//1 193//1 194//1 192//1
f 193//1 195//1 196//1 194//1
f 195//1 197//1 198//1 196//1
f 197//1 199//1 200//1 198//1
f 199//1 201//1 202//1 200//1
f 201//1 203//1 204//1 202//1
f 203//1 205//1 206//1 204//1
f 205//1 207//1 208//1 206//1
f 207//1 209//1 210//1 208//1
f 209//1 211//1 212//1 210//1
f 211//1 213//1 214//1 212//1
f 213//1 215//1 216//1 214//1
f 215//1 217//1 218//1 216//1
f 217//1 219//1 220//1 218//1
f 219//1 221//1 222//1 220//1
f 221//1 223//1 224//1 222//1
f 223//1 225//1 226//1 224//1
f 225//1 227//1 228//1 226//1
f 227//1 229//1 230//1 228//1
f 229//1 231//1 232//1 230//1
f 231//1 233//1 234//1 232//1
f 233//1 235//1 236//1 234//1
f 235//1 237//1 238//1 236//1
f 237//1 239//1 240//1 238//1
f 239//1 241//1 242//1 240//1
f 241//1 243//1 244//1 242//1
f 243//1 245//1 246//1 244//1
f 245//1 247//1 248//1 246//1
f 247//1 1//1 4//1 248//1
# 124 faces

