# created with CityEngine 2019.0.5403 0409R (based on Esri Procedural Runtime 2.0.5403, build date: Tue 04/09/2019 10:26 AM)
# creation date: Tue Mar 29 18:57:18 2022

mtllib 20220329_UF_Base.mtl

# mesh 'mesh_CityEngineMaterial_26' from geometry 'mesh_CityEngineMaterial_26'
v -691189.060 0.000 1187283.132
v -691240.685 0.000 1187317.251
v -691189.261 0.000 1187282.827
v -691192.915 0.000 1187277.299
v -691202.320 0.000 1187263.068
v -691253.945 0.000 1187297.188
v -691189.060 0.400 1187283.132
v -691189.261 0.400 1187282.827
v -691192.915 0.400 1187277.299
v -691202.320 0.400 1187263.068
v -691253.945 0.400 1187297.188
v -691240.685 0.400 1187317.251
# 12 vertices

vn 0.000 -1.000 0.000
vn 0.000 1.000 0.000
vn 0.834 0.000 -0.551
vn -0.551 0.000 -0.834
vn -0.834 0.000 0.551
vn 0.551 0.000 0.834
# 6 vertex normals

g CityEngineMaterial
s off
usemtl CityEngineMaterial
f 3//1 1//1 2//1 6//1 5//1 4//1
f 7//2 8//2 9//2 10//2 11//2 12//2
f 1//3 3//3 8//3 7//3
f 3//3 4//3 9//3 8//3
f 4//3 5//3 10//3 9//3
f 5//4 6//4 11//4 10//4
f 6//5 2//5 12//5 11//5
f 2//6 1//6 7//6 12//6
# 8 faces

