# created with CityEngine 2019.0.5403 0409R (based on Esri Procedural Runtime 2.0.5403, build date: Tue 04/09/2019 10:26 AM)
# creation date: Tue Mar 29 18:57:59 2022

mtllib 20220329_UF_Border.mtl

# mesh 'mesh_CityEngineMaterial_8' from geometry 'mesh_CityEngineMaterial_8'
v -691235.800 0.000 1187325.266
v -691235.463 0.000 1187325.033
v -691235.690 0.000 1187324.704
v -691235.697 0.000 1187324.709
v -691234.338 0.000 1187324.256
v -691234.565 0.000 1187323.927
v -691232.872 0.000 1187323.243
v -691233.099 0.000 1187322.914
v -691228.473 0.000 1187320.203
v -691228.700 0.000 1187319.874
v -691227.006 0.000 1187319.190
v -691227.234 0.000 1187318.861
v -691224.073 0.000 1187317.164
v -691224.301 0.000 1187316.835
v -691222.607 0.000 1187316.151
v -691222.842 0.000 1187315.827
v -691210.311 0.000 1187306.755
v -691210.561 0.000 1187306.443
v -691203.362 0.000 1187300.901
v -691203.620 0.000 1187300.595
v -691198.445 0.000 1187296.758
v -691198.710 0.000 1187296.458
v -691187.107 0.000 1187286.249
v -691187.668 0.000 1187286.224
v -691215.266 0.000 1187255.053
v -691215.259 0.000 1187255.658
v -691216.550 0.000 1187256.538
v -691216.247 0.000 1187256.800
v -691219.125 0.000 1187259.516
v -691218.823 0.000 1187259.778
v -691220.413 0.000 1187261.005
v -691220.110 0.000 1187261.267
v -691224.276 0.000 1187265.472
v -691223.980 0.000 1187265.740
v -691234.293 0.000 1187276.048
v -691234.009 0.000 1187276.330
v -691236.766 0.000 1187278.434
v -691236.488 0.000 1187278.721
v -691239.782 0.000 1187281.342
v -691239.504 0.000 1187281.630
v -691242.140 0.000 1187283.616
v -691241.862 0.000 1187283.904
v -691243.448 0.000 1187284.878
v -691243.170 0.000 1187285.165
v -691244.756 0.000 1187286.139
v -691244.484 0.000 1187286.433
v -691247.024 0.000 1187288.135
v -691246.760 0.000 1187288.436
v -691254.508 0.000 1187294.723
v -691254.244 0.000 1187295.023
v -691255.502 0.000 1187295.598
v -691255.238 0.000 1187295.898
v -691255.898 0.000 1187295.947
v -691255.368 0.000 1187296.013
v -691255.451 0.000 1187296.599
v -691255.121 0.000 1187296.373
v -691236.845 0.000 1187323.742
v -691236.515 0.000 1187323.516
# 58 vertices

vn 0.000 1.000 0.000
# 1 vertex normal

g CityEngineMaterial
s off
usemtl CityEngineMaterial
f 1//1 2//1 3//1 4//1
f 2//1 5//1 6//1 3//1
f 5//1 7//1 8//1 6//1
f 7//1 9//1 10//1 8//1
f 9//1 11//1 12//1 10//1
f 11//1 13//1 14//1 12//1
f 13//1 15//1 16//1 14//1
f 15//1 17//1 18//1 16//1
f 17//1 19//1 20//1 18//1
f 19//1 21//1 22//1 20//1
f 21//1 23//1 24//1 22//1
f 23//1 25//1 26//1 24//1
f 25//1 27//1 28//1 26//1
f 27//1 29//1 30//1 28//1
f 29//1 31//1 32//1 30//1
f 31//1 33//1 34//1 32//1
f 33//1 35//1 36//1 34//1
f 35//1 37//1 38//1 36//1
f 37//1 39//1 40//1 38//1
f 39//1 41//1 42//1 40//1
f 41//1 43//1 44//1 42//1
f 43//1 45//1 46//1 44//1
f 45//1 47//1 48//1 46//1
f 47//1 49//1 50//1 48//1
f 49//1 51//1 52//1 50//1
f 51//1 53//1 54//1 52//1
f 53//1 55//1 56//1 54//1
f 55//1 57//1 58//1 56//1
f 57//1 1//1 4//1 58//1
# 29 faces

