# created with CityEngine 2019.0.5403 0409R (based on Esri Procedural Runtime 2.0.5403, build date: Tue 04/09/2019 10:26 AM)
# creation date: Tue Mar 29 18:57:59 2022

mtllib 20220329_UF_Border.mtl

# mesh 'mesh_CityEngineMaterial_28' from geometry 'mesh_CityEngineMaterial_28'
v -691195.102 0.000 1187289.373
v -691194.876 0.000 1187289.203
v -691195.276 0.000 1187289.142
v -691202.393 0.000 1187278.734
v -691202.718 0.000 1187278.968
v -691195.429 0.000 1187289.118
v -691202.552 0.000 1187278.513
v -691202.877 0.000 1187278.746
v -691210.858 0.000 1187266.945
v -691210.973 0.000 1187267.471
v -691220.094 0.000 1187272.234
v -691219.904 0.000 1187272.586
v -691222.051 0.000 1187273.231
v -691221.869 0.000 1187273.587
v -691222.418 0.000 1187273.418
v -691222.237 0.000 1187273.774
v -691224.631 0.000 1187274.545
v -691224.449 0.000 1187274.901
v -691229.389 0.000 1187276.969
v -691229.217 0.000 1187277.330
v -691238.925 0.000 1187281.254
v -691238.770 0.000 1187281.622
v -691242.872 0.000 1187282.801
v -691242.726 0.000 1187283.174
v -691244.187 0.000 1187283.317
v -691244.041 0.000 1187283.690
v -691246.819 0.000 1187284.349
v -691246.673 0.000 1187284.722
v -691247.703 0.000 1187284.696
v -691247.557 0.000 1187285.068
v -691248.129 0.000 1187284.863
v -691247.974 0.000 1187284.920
v -691247.561 0.000 1187285.070
v -691248.070 0.000 1187284.972
v -691245.069 0.000 1187290.484
v -691244.717 0.000 1187290.293
v -691244.986 0.000 1187290.635
v -691244.635 0.000 1187290.443
v -691232.604 0.000 1187313.375
v -691232.443 0.000 1187312.835
v -691222.829 0.000 1187308.130
v -691223.027 0.000 1187307.783
v -691221.637 0.000 1187307.410
v -691221.844 0.000 1187307.068
v -691213.293 0.000 1187302.370
v -691213.508 0.000 1187302.033
v -691212.141 0.000 1187301.591
v -691212.365 0.000 1187301.260
v -691210.990 0.000 1187300.812
v -691211.214 0.000 1187300.481
v -691208.686 0.000 1187299.255
v -691208.910 0.000 1187298.924
v -691207.535 0.000 1187298.476
v -691207.759 0.000 1187298.145
v -691205.232 0.000 1187296.919
v -691205.456 0.000 1187296.587
v -691204.080 0.000 1187296.140
v -691204.313 0.000 1187295.815
# 58 vertices

vn 0.000 1.000 0.000
# 1 vertex normal

g CityEngineMaterial
s off
usemtl CityEngineMaterial
f 1//1 2//1 3//1
f 2//1 4//1 5//1 6//1 3//1
f 4//1 7//1 8//1 5//1
f 7//1 9//1 10//1 8//1
f 9//1 11//1 12//1 10//1
f 11//1 13//1 14//1 12//1
f 13//1 15//1 16//1 14//1
f 15//1 17//1 18//1 16//1
f 17//1 19//1 20//1 18//1
f 19//1 21//1 22//1 20//1
f 21//1 23//1 24//1 22//1
f 23//1 25//1 26//1 24//1
f 25//1 27//1 28//1 26//1
f 27//1 29//1 30//1 28//1
f 29//1 31//1 32//1 33//1 30//1
f 31//1 34//1 32//1
f 34//1 35//1 36//1 33//1 32//1
f 35//1 37//1 38//1 36//1
f 37//1 39//1 40//1 38//1
f 39//1 41//1 42//1 40//1
f 41//1 43//1 44//1 42//1
f 43//1 45//1 46//1 44//1
f 45//1 47//1 48//1 46//1
f 47//1 49//1 50//1 48//1
f 49//1 51//1 52//1 50//1
f 51//1 53//1 54//1 52//1
f 53//1 55//1 56//1 54//1
f 55//1 57//1 58//1 56//1
f 57//1 1//1 3//1 6//1 58//1
# 29 faces

