# created with CityEngine 2019.0.5403 0409R (based on Esri Procedural Runtime 2.0.5403, build date: Tue 04/09/2019 10:26 AM)
# creation date: Tue Mar 29 18:59:06 2022

mtllib 20220329_GF_Border.mtl

# mesh 'mesh_CityEngineMaterial_13' from geometry 'mesh_CityEngineMaterial_13'
v -691229.509 0.000 1187228.288
v -691250.414 0.000 1187196.997
v -691250.525 0.000 1187197.552
v -691229.619 0.000 1187228.843
v -691295.335 0.000 1187227.007
v -691294.780 0.000 1187227.118
v -691287.785 0.000 1187238.307
v -691287.675 0.000 1187237.753
v -691254.165 0.000 1187215.846
v -691254.055 0.000 1187215.292
v -691232.270 0.000 1187248.620
v -691232.159 0.000 1187248.065
v -691220.970 0.000 1187241.070
v -691221.524 0.000 1187240.960
v -691221.960 0.000 1187239.588
v -691222.514 0.000 1187239.478
v -691207.483 0.000 1187229.917
v -691207.373 0.000 1187229.362
v -691188.040 0.000 1187259.020
v -691187.930 0.000 1187258.465
v -691176.740 0.000 1187251.470
v -691177.295 0.000 1187251.360
v -691203.732 0.000 1187211.067
v -691203.843 0.000 1187211.622
# 24 vertices

vn 0.000 1.000 0.000
# 1 vertex normal

g CityEngineMaterial
s off
usemtl CityEngineMaterial
f 1//1 2//1 3//1 4//1
f 2//1 5//1 6//1 3//1
f 5//1 7//1 8//1 6//1
f 7//1 9//1 10//1 8//1
f 9//1 11//1 12//1 10//1
f 11//1 13//1 14//1 12//1
f 13//1 15//1 16//1 14//1
f 15//1 17//1 18//1 16//1
f 17//1 19//1 20//1 18//1
f 19//1 21//1 22//1 20//1
f 21//1 23//1 24//1 22//1
f 23//1 1//1 4//1 24//1
# 12 faces

