# created with CityEngine 2019.0.5403 0409R (based on Esri Procedural Runtime 2.0.5403, build date: Tue 04/09/2019 10:26 AM)
# creation date: Tue Mar 29 18:59:06 2022

mtllib 20220329_GF_Border.mtl

# mesh 'mesh_CityEngineMaterial_25' from geometry 'mesh_CityEngineMaterial_25'
v -691241.193 0.000 1187137.747
v -691241.624 0.000 1187137.212
v -691241.920 0.000 1187137.483
v -691241.263 0.000 1187138.298
v -691242.208 0.000 1187136.654
v -691242.465 0.000 1187136.961
v -691242.856 0.000 1187136.178
v -691243.072 0.000 1187136.515
v -691243.559 0.000 1187135.791
v -691243.729 0.000 1187136.155
v -691244.304 0.000 1187135.501
v -691244.425 0.000 1187135.884
v -691245.079 0.000 1187135.313
v -691245.148 0.000 1187135.708
v -691245.870 0.000 1187135.230
v -691245.885 0.000 1187135.631
v -691246.664 0.000 1187135.253
v -691246.626 0.000 1187135.652
v -691247.447 0.000 1187135.381
v -691247.369 0.000 1187135.774
v -691425.968 0.000 1187177.153
v -691425.863 0.000 1187177.539
v -691428.464 0.000 1187177.924
v -691428.320 0.000 1187178.297
v -691430.832 0.000 1187179.035
v -691430.636 0.000 1187179.385
v -691433.026 0.000 1187180.465
v -691432.785 0.000 1187180.785
v -691435.008 0.000 1187182.189
v -691434.724 0.000 1187182.473
v -691436.739 0.000 1187184.174
v -691436.420 0.000 1187184.416
v -691438.189 0.000 1187186.384
v -691437.840 0.000 1187186.581
v -691439.330 0.000 1187188.778
v -691438.958 0.000 1187188.926
v -691440.142 0.000 1187191.311
v -691439.753 0.000 1187191.408
v -691440.609 0.000 1187193.938
v -691440.211 0.000 1187193.982
v -691440.723 0.000 1187196.609
v -691440.322 0.000 1187196.599
v -691440.482 0.000 1187199.275
v -691440.086 0.000 1187199.211
v -691432.847 0.000 1187231.985
v -691432.460 0.000 1187231.883
v -691432.208 0.000 1187234.171
v -691431.830 0.000 1187234.038
v -691431.336 0.000 1187236.273
v -691430.975 0.000 1187236.099
v -691430.243 0.000 1187238.261
v -691429.903 0.000 1187238.049
v -691428.943 0.000 1187240.109
v -691428.628 0.000 1187239.861
v -691427.453 0.000 1187241.794
v -691427.168 0.000 1187241.512
v -691425.793 0.000 1187243.292
v -691425.542 0.000 1187242.980
v -691423.985 0.000 1187244.585
v -691423.771 0.000 1187244.246
v -691422.053 0.000 1187245.654
v -691421.880 0.000 1187245.293
v -691420.022 0.000 1187246.487
v -691419.892 0.000 1187246.107
v -691417.920 0.000 1187247.071
v -691417.836 0.000 1187246.679
v -691415.773 0.000 1187247.399
v -691415.737 0.000 1187246.999
v -691413.611 0.000 1187247.466
v -691413.621 0.000 1187247.066
v -691409.782 0.000 1187247.152
v -691409.820 0.000 1187246.754
v -691405.964 0.000 1187246.735
v -691406.012 0.000 1187246.338
v -691402.159 0.000 1187246.216
v -691402.219 0.000 1187245.820
v -691398.371 0.000 1187245.595
v -691398.441 0.000 1187245.201
v -691394.602 0.000 1187244.872
v -691394.682 0.000 1187244.480
v -691390.853 0.000 1187244.048
v -691390.944 0.000 1187243.658
v -691387.128 0.000 1187243.123
v -691387.230 0.000 1187242.736
v -691383.430 0.000 1187242.099
v -691383.542 0.000 1187241.715
v -691379.759 0.000 1187240.975
v -691379.881 0.000 1187240.594
v -691376.119 0.000 1187239.752
v -691376.252 0.000 1187239.375
v -691372.512 0.000 1187238.432
v -691372.631 0.000 1187238.049
v -691312.855 0.000 1187223.260
v -691312.942 0.000 1187222.869
v -691310.792 0.000 1187222.870
v -691310.881 0.000 1187222.479
v -691308.763 0.000 1187222.326
v -691308.881 0.000 1187221.944
v -691306.790 0.000 1187221.635
v -691306.937 0.000 1187221.262
v -691304.893 0.000 1187220.803
v -691305.068 0.000 1187220.443
v -691303.093 0.000 1187219.840
v -691303.296 0.000 1187219.495
v -691301.408 0.000 1187218.755
v -691301.638 0.000 1187218.428
v -691299.855 0.000 1187217.561
v -691300.113 0.000 1187217.255
v -691298.452 0.000 1187216.269
v -691298.737 0.000 1187215.987
v -691297.212 0.000 1187214.892
v -691297.523 0.000 1187214.640
v -691296.150 0.000 1187213.447
v -691296.485 0.000 1187213.227
v -691295.276 0.000 1187211.947
v -691295.633 0.000 1187211.765
v -691294.124 0.000 1187209.349
v -691294.494 0.000 1187209.199
v -691290.828 0.000 1187200.437
v -691291.139 0.000 1187200.124
v -691275.985 0.000 1187195.081
v -691276.047 0.000 1187194.679
v -691265.351 0.000 1187195.497
v -691265.345 0.000 1187195.097
v -691263.681 0.000 1187195.477
v -691263.706 0.000 1187195.077
v -691261.975 0.000 1187195.278
v -691262.042 0.000 1187194.883
v -691260.295 0.000 1187194.904
v -691260.194 0.000 1187194.472
v -691258.142 0.000 1187196.630
v -691257.899 0.000 1187196.312
v -691257.352 0.000 1187197.205
v -691257.131 0.000 1187196.871
v -691256.487 0.000 1187197.722
v -691256.297 0.000 1187197.370
v -691255.554 0.000 1187198.176
v -691255.393 0.000 1187197.809
v -691254.559 0.000 1187198.564
v -691254.428 0.000 1187198.186
v -691253.510 0.000 1187198.883
v -691253.407 0.000 1187198.496
v -691252.413 0.000 1187199.131
v -691252.339 0.000 1187198.738
v -691251.278 0.000 1187199.306
v -691251.230 0.000 1187198.909
v -691250.111 0.000 1187199.407
v -691250.089 0.000 1187199.007
v -691248.921 0.000 1187199.433
v -691248.924 0.000 1187199.033
v -691247.716 0.000 1187199.384
v -691247.744 0.000 1187198.985
v -691246.506 0.000 1187199.261
v -691246.558 0.000 1187198.864
v -691245.298 0.000 1187199.064
v -691245.395 0.000 1187198.674
v -691241.572 0.000 1187197.804
v -691241.720 0.000 1187197.432
v -691232.555 0.000 1187193.704
v -691232.728 0.000 1187193.343
v -691228.092 0.000 1187191.461
v -691228.229 0.000 1187191.083
v -691192.534 0.000 1187183.141
v -691192.632 0.000 1187182.754
v -691191.352 0.000 1187182.819
v -691191.471 0.000 1187182.437
v -691190.199 0.000 1187182.412
v -691190.345 0.000 1187182.040
v -691189.082 0.000 1187181.924
v -691189.255 0.000 1187181.563
v -691188.009 0.000 1187181.358
v -691188.209 0.000 1187181.011
v -691186.988 0.000 1187180.717
v -691187.214 0.000 1187180.386
v -691186.026 0.000 1187180.006
v -691186.276 0.000 1187179.693
v -691185.129 0.000 1187179.230
v -691185.403 0.000 1187178.938
v -691184.304 0.000 1187178.395
v -691184.600 0.000 1187178.125
v -691183.556 0.000 1187177.506
v -691183.873 0.000 1187177.261
v -691182.890 0.000 1187176.569
v -691183.226 0.000 1187176.351
v -691182.312 0.000 1187175.592
v -691182.665 0.000 1187175.403
v -691181.825 0.000 1187174.580
v -691182.194 0.000 1187174.424
v -691177.068 0.000 1187161.583
v -691177.321 0.000 1187161.112
v -691162.855 0.000 1187164.959
v -691162.585 0.000 1187164.612
v -691161.333 0.000 1187167.872
v -691160.981 0.000 1187167.682
v -691159.687 0.000 1187170.821
v -691159.341 0.000 1187170.621
v -691157.959 0.000 1187173.723
v -691157.619 0.000 1187173.514
v -691156.151 0.000 1187176.576
v -691155.817 0.000 1187176.357
v -691154.264 0.000 1187179.379
v -691153.936 0.000 1187179.151
v -691152.299 0.000 1187182.129
v -691151.977 0.000 1187181.892
v -691150.257 0.000 1187184.824
v -691149.926 0.000 1187184.600
v -691122.272 0.000 1187231.206
v -691121.922 0.000 1187231.010
v -691121.420 0.000 1187232.846
v -691121.072 0.000 1187232.648
v -691120.445 0.000 1187234.416
v -691120.113 0.000 1187234.191
v -691119.355 0.000 1187235.899
v -691119.042 0.000 1187235.649
v -691118.162 0.000 1187237.279
v -691117.870 0.000 1187237.006
v -691116.879 0.000 1187238.543
v -691116.610 0.000 1187238.247
v -691115.519 0.000 1187239.677
v -691115.276 0.000 1187239.359
v -691114.097 0.000 1187240.669
v -691113.883 0.000 1187240.330
v -691112.627 0.000 1187241.508
v -691112.445 0.000 1187241.151
v -691111.125 0.000 1187242.186
v -691110.979 0.000 1187241.814
v -691109.607 0.000 1187242.696
v -691109.500 0.000 1187242.310
v -691108.088 0.000 1187243.032
v -691108.024 0.000 1187242.637
v -691107.082 0.000 1187243.138
v -691106.583 0.000 1187242.789
v -691107.244 0.000 1187243.796
v -691106.851 0.000 1187243.873
v -691107.525 0.000 1187245.734
v -691107.126 0.000 1187245.772
v -691107.617 0.000 1187247.696
v -691107.217 0.000 1187247.696
v -691107.521 0.000 1187249.666
v -691107.122 0.000 1187249.627
v -691107.237 0.000 1187251.626
v -691106.844 0.000 1187251.549
v -691106.731 0.000 1187253.668
v -691106.347 0.000 1187253.555
v -691106.119 0.000 1187255.450
v -691105.747 0.000 1187255.302
v -691105.315 0.000 1187257.238
v -691104.954 0.000 1187257.065
v -691103.481 0.000 1187260.864
v -691103.025 0.000 1187260.879
v -691105.586 0.000 1187264.417
v -691105.237 0.000 1187264.612
v -691107.632 0.000 1187268.317
v -691107.301 0.000 1187268.546
v -691128.981 0.000 1187292.337
v -691128.677 0.000 1187292.597
v -691129.666 0.000 1187293.169
v -691129.348 0.000 1187293.412
v -691130.286 0.000 1187294.049
v -691129.951 0.000 1187294.267
v -691130.837 0.000 1187294.971
v -691130.486 0.000 1187295.163
v -691131.314 0.000 1187295.929
v -691130.949 0.000 1187296.093
v -691131.714 0.000 1187296.915
v -691131.338 0.000 1187297.051
v -691132.035 0.000 1187297.924
v -691131.649 0.000 1187298.030
v -691132.274 0.000 1187298.947
v -691131.881 0.000 1187299.023
v -691132.430 0.000 1187299.979
v -691132.032 0.000 1187300.023
v -691132.501 0.000 1187301.012
v -691132.101 0.000 1187301.023
v -691132.487 0.000 1187302.038
v -691132.087 0.000 1187302.016
v -691132.389 0.000 1187303.051
v -691131.992 0.000 1187302.995
v -691132.206 0.000 1187304.043
v -691131.816 0.000 1187303.951
v -691128.654 0.000 1187316.385
v -691128.277 0.000 1187316.249
v -691128.206 0.000 1187317.405
v -691127.843 0.000 1187317.238
v -691127.721 0.000 1187318.407
v -691127.364 0.000 1187318.226
v -691127.201 0.000 1187319.388
v -691126.851 0.000 1187319.194
v -691126.644 0.000 1187320.348
v -691126.302 0.000 1187320.140
v -691126.053 0.000 1187321.285
v -691125.719 0.000 1187321.065
v -691125.429 0.000 1187322.199
v -691125.103 0.000 1187321.967
v -691124.771 0.000 1187323.087
v -691124.454 0.000 1187322.843
v -691124.080 0.000 1187323.950
v -691123.773 0.000 1187323.694
v -691123.358 0.000 1187324.786
v -691123.061 0.000 1187324.518
v -691122.606 0.000 1187325.593
v -691122.318 0.000 1187325.315
v -691121.824 0.000 1187326.372
v -691121.550 0.000 1187326.080
v -691108.187 0.000 1187338.520
v -691107.931 0.000 1187338.212
v -691107.089 0.000 1187339.367
v -691106.867 0.000 1187339.033
v -691105.883 0.000 1187340.056
v -691105.708 0.000 1187339.694
v -691104.588 0.000 1187340.574
v -691104.464 0.000 1187340.193
v -691103.227 0.000 1187340.914
v -691103.156 0.000 1187340.519
v -691101.822 0.000 1187341.069
v -691101.805 0.000 1187340.668
v -691100.400 0.000 1187341.036
v -691100.435 0.000 1187340.637
v -691098.982 0.000 1187340.817
v -691099.069 0.000 1187340.426
v -691097.594 0.000 1187340.415
v -691097.730 0.000 1187340.037
v -691096.260 0.000 1187339.836
v -691096.442 0.000 1187339.479
v -691095.002 0.000 1187339.091
v -691095.227 0.000 1187338.760
v -691093.452 0.000 1187337.891
v -691093.727 0.000 1187337.598
v -691065.170 0.000 1187306.071
v -691065.735 0.000 1187306.104
v -691069.138 0.000 1187302.544
v -691069.618 0.000 1187302.652
v -691068.864 0.000 1187301.899
v -691069.237 0.000 1187301.753
v -691068.786 0.000 1187301.682
v -691069.064 0.000 1187301.271
v -691067.690 0.000 1187301.720
v -691067.702 0.000 1187301.320
v -691066.976 0.000 1187301.652
v -691067.041 0.000 1187301.257
v -691066.283 0.000 1187301.492
v -691066.400 0.000 1187301.108
v -691065.623 0.000 1187301.241
v -691065.790 0.000 1187300.877
v -691065.006 0.000 1187300.905
v -691065.221 0.000 1187300.567
v -691064.443 0.000 1187300.489
v -691064.703 0.000 1187300.184
v -691063.944 0.000 1187300.001
v -691064.240 0.000 1187299.731
v -691031.352 0.000 1187260.158
v -691031.847 0.000 1187260.132
v -691076.407 0.000 1187191.484
v -691076.757 0.000 1187191.681
v -691103.084 0.000 1187135.753
v -691103.438 0.000 1187135.939
v -691110.363 0.000 1187123.129
v -691110.702 0.000 1187123.341
v -691111.652 0.000 1187121.225
v -691111.967 0.000 1187121.473
v -691113.204 0.000 1187119.521
v -691113.481 0.000 1187119.812
v -691114.991 0.000 1187118.050
v -691115.224 0.000 1187118.377
v -691116.979 0.000 1187116.837
v -691117.163 0.000 1187117.193
v -691119.132 0.000 1187115.907
v -691119.265 0.000 1187116.285
v -691121.409 0.000 1187115.275
v -691121.490 0.000 1187115.667
v -691123.770 0.000 1187114.953
v -691123.798 0.000 1187115.353
v -691126.170 0.000 1187114.948
v -691126.145 0.000 1187115.348
v -691128.565 0.000 1187115.259
v -691128.488 0.000 1187115.652
v -691130.911 0.000 1187115.881
v -691130.784 0.000 1187116.261
v -691133.165 0.000 1187116.802
v -691132.988 0.000 1187117.162
v -691159.652 0.000 1187132.057
v -691159.443 0.000 1187132.398
v -691161.391 0.000 1187133.186
v -691161.155 0.000 1187133.510
v -691162.997 0.000 1187134.488
v -691162.729 0.000 1187134.785
v -691164.451 0.000 1187135.947
v -691164.152 0.000 1187136.214
v -691165.732 0.000 1187137.544
v -691165.406 0.000 1187137.778
v -691166.347 0.000 1187138.509
v -691166.162 0.000 1187138.964
v -691179.546 0.000 1187135.374
v -691179.879 0.000 1187135.706
v -691181.196 0.000 1187128.322
v -691181.582 0.000 1187128.427
v -691181.649 0.000 1187126.867
v -691182.022 0.000 1187127.013
v -691182.306 0.000 1187125.486
v -691182.655 0.000 1187125.684
v -691183.158 0.000 1187124.204
v -691183.476 0.000 1187124.449
v -691184.189 0.000 1187123.043
v -691184.470 0.000 1187123.329
v -691185.381 0.000 1187122.021
v -691185.621 0.000 1187122.342
v -691186.715 0.000 1187121.157
v -691186.911 0.000 1187121.507
v -691188.168 0.000 1187120.465
v -691188.316 0.000 1187120.838
v -691189.713 0.000 1187119.958
v -691189.814 0.000 1187120.346
v -691191.326 0.000 1187119.644
v -691191.379 0.000 1187120.041
v -691192.979 0.000 1187119.527
v -691192.983 0.000 1187119.928
v -691194.642 0.000 1187119.611
v -691194.598 0.000 1187120.010
v -691196.289 0.000 1187119.894
v -691196.209 0.000 1187120.287
v -691242.307 0.000 1187130.662
v -691241.826 0.000 1187130.960
v -691240.730 0.000 1187137.400
v -691240.281 0.000 1187137.563
# 424 vertices

vn 0.000 1.000 0.000
# 1 vertex normal

g CityEngineMaterial
s off
usemtl CityEngineMaterial
f 1//1 2//1 3//1 4//1
f 2//1 5//1 6//1 3//1
f 5//1 7//1 8//1 6//1
f 7//1 9//1 10//1 8//1
f 9//1 11//1 12//1 10//1
f 11//1 13//1 14//1 12//1
f 13//1 15//1 16//1 14//1
f 15//1 17//1 18//1 16//1
f 17//1 19//1 20//1 18//1
f 19//1 21//1 22//1 20//1
f 21//1 23//1 24//1 22//1
f 23//1 25//1 26//1 24//1
f 25//1 27//1 28//1 26//1
f 27//1 29//1 30//1 28//1
f 29//1 31//1 32//1 30//1
f 31//1 33//1 34//1 32//1
f 33//1 35//1 36//1 34//1
f 35//1 37//1 38//1 36//1
f 37//1 39//1 40//1 38//1
f 39//1 41//1 42//1 40//1
f 41//1 43//1 44//1 42//1
f 43//1 45//1 46//1 44//1
f 45//1 47//1 48//1 46//1
f 47//1 49//1 50//1 48//1
f 49//1 51//1 52//1 50//1
f 51//1 53//1 54//1 52//1
f 53//1 55//1 56//1 54//1
f 55//1 57//1 58//1 56//1
f 57//1 59//1 60//1 58//1
f 59//1 61//1 62//1 60//1
f 61//1 63//1 64//1 62//1
f 63//1 65//1 66//1 64//1
f 65//1 67//1 68//1 66//1
f 67//1 69//1 70//1 68//1
f 69//1 71//1 72//1 70//1
f 71//1 73//1 74//1 72//1
f 73//1 75//1 76//1 74//1
f 75//1 77//1 78//1 76//1
f 77//1 79//1 80//1 78//1
f 79//1 81//1 82//1 80//1
f 81//1 83//1 84//1 82//1
f 83//1 85//1 86//1 84//1
f 85//1 87//1 88//1 86//1
f 87//1 89//1 90//1 88//1
f 89//1 91//1 92//1 90//1
f 91//1 93//1 94//1 92//1
f 93//1 95//1 96//1 94//1
f 95//1 97//1 98//1 96//1
f 97//1 99//1 100//1 98//1
f 99//1 101//1 102//1 100//1
f 101//1 103//1 104//1 102//1
f 103//1 105//1 106//1 104//1
f 105//1 107//1 108//1 106//1
f 107//1 109//1 110//1 108//1
f 109//1 111//1 112//1 110//1
f 111//1 113//1 114//1 112//1
f 113//1 115//1 116//1 114//1
f 115//1 117//1 118//1 116//1
f 117//1 119//1 120//1 118//1
f 119//1 121//1 122//1 120//1
f 121//1 123//1 124//1 122//1
f 123//1 125//1 126//1 124//1
f 125//1 127//1 128//1 126//1
f 127//1 129//1 130//1 128//1
f 129//1 131//1 132//1 130//1
f 131//1 133//1 134//1 132//1
f 133//1 135//1 136//1 134//1
f 135//1 137//1 138//1 136//1
f 137//1 139//1 140//1 138//1
f 139//1 141//1 142//1 140//1
f 141//1 143//1 144//1 142//1
f 143//1 145//1 146//1 144//1
f 145//1 147//1 148//1 146//1
f 147//1 149//1 150//1 148//1
f 149//1 151//1 152//1 150//1
f 151//1 153//1 154//1 152//1
f 153//1 155//1 156//1 154//1
f 155//1 157//1 158//1 156//1
f 157//1 159//1 160//1 158//1
f 159//1 161//1 162//1 160//1
f 161//1 163//1 164//1 162//1
f 163//1 165//1 166//1 164//1
f 165//1 167//1 168//1 166//1
f 167//1 169//1 170//1 168//1
f 169//1 171//1 172//1 170//1
f 171//1 173//1 174//1 172//1
f 173//1 175//1 176//1 174//1
f 175//1 177//1 178//1 176//1
f 177//1 179//1 180//1 178//1
f 179//1 181//1 182//1 180//1
f 181//1 183//1 184//1 182//1
f 183//1 185//1 186//1 184//1
f 185//1 187//1 188//1 186//1
f 187//1 189//1 190//1 188//1
f 189//1 191//1 192//1 190//1
f 191//1 193//1 194//1 192//1
f 193//1 195//1 196//1 194//1
f 195//1 197//1 198//1 196//1
f 197//1 199//1 200//1 198//1
f 199//1 201//1 202//1 200//1
f 201//1 203//1 204//1 202//1
f 203//1 205//1 206//1 204//1
f 205//1 207//1 208//1 206//1
f 207//1 209//1 210//1 208//1
f 209//1 211//1 212//1 210//1
f 211//1 213//1 214//1 212//1
f 213//1 215//1 216//1 214//1
f 215//1 217//1 218//1 216//1
f 217//1 219//1 220//1 218//1
f 219//1 221//1 222//1 220//1
f 221//1 223//1 224//1 222//1
f 223//1 225//1 226//1 224//1
f 225//1 227//1 228//1 226//1
f 227//1 229//1 230//1 228//1
f 229//1 231//1 232//1 230//1
f 231//1 233//1 234//1 232//1
f 233//1 235//1 236//1 234//1
f 235//1 237//1 238//1 236//1
f 237//1 239//1 240//1 238//1
f 239//1 241//1 242//1 240//1
f 241//1 243//1 244//1 242//1
f 243//1 245//1 246//1 244//1
f 245//1 247//1 248//1 246//1
f 247//1 249//1 250//1 248//1
f 249//1 251//1 252//1 250//1
f 251//1 253//1 254//1 252//1
f 253//1 255//1 256//1 254//1
f 255//1 257//1 258//1 256//1
f 257//1 259//1 260//1 258//1
f 259//1 261//1 262//1 260//1
f 261//1 263//1 264//1 262//1
f 263//1 265//1 266//1 264//1
f 265//1 267//1 268//1 266//1
f 267//1 269//1 270//1 268//1
f 269//1 271//1 272//1 270//1
f 271//1 273//1 274//1 272//1
f 273//1 275//1 276//1 274//1
f 275//1 277//1 278//1 276//1
f 277//1 279//1 280//1 278//1
f 279//1 281//1 282//1 280//1
f 281//1 283//1 284//1 282//1
f 283//1 285//1 286//1 284//1
f 285//1 287//1 288//1 286//1
f 287//1 289//1 290//1 288//1
f 289//1 291//1 292//1 290//1
f 291//1 293//1 294//1 292//1
f 293//1 295//1 296//1 294//1
f 295//1 297//1 298//1 296//1
f 297//1 299//1 300//1 298//1
f 299//1 301//1 302//1 300//1
f 301//1 303//1 304//1 302//1
f 303//1 305//1 306//1 304//1
f 305//1 307//1 308//1 306//1
f 307//1 309//1 310//1 308//1
f 309//1 311//1 312//1 310//1
f 311//1 313//1 314//1 312//1
f 313//1 315//1 316//1 314//1
f 315//1 317//1 318//1 316//1
f 317//1 319//1 320//1 318//1
f 319//1 321//1 322//1 320//1
f 321//1 323//1 324//1 322//1
f 323//1 325//1 326//1 324//1
f 325//1 327//1 328//1 326//1
f 327//1 329//1 330//1 328//1
f 329//1 331//1 332//1 330//1
f 331//1 333//1 334//1 332//1
f 333//1 335//1 336//1 334//1
f 335//1 337//1 338//1 336//1
f 337//1 339//1 340//1 338//1
f 339//1 341//1 342//1 340//1
f 341//1 343//1 344//1 342//1
f 343//1 345//1 346//1 344//1
f 345//1 347//1 348//1 346//1
f 347//1 349//1 350//1 348//1
f 349//1 351//1 352//1 350//1
f 351//1 353//1 354//1 352//1
f 353//1 355//1 356//1 354//1
f 355//1 357//1 358//1 356//1
f 357//1 359//1 360//1 358//1
f 359//1 361//1 362//1 360//1
f 361//1 363//1 364//1 362//1
f 363//1 365//1 366//1 364//1
f 365//1 367//1 368//1 366//1
f 367//1 369//1 370//1 368//1
f 369//1 371//1 372//1 370//1
f 371//1 373//1 374//1 372//1
f 373//1 375//1 376//1 374//1
f 375//1 377//1 378//1 376//1
f 377//1 379//1 380//1 378//1
f 379//1 381//1 382//1 380//1
f 381//1 383//1 384//1 382//1
f 383//1 385//1 386//1 384//1
f 385//1 387//1 388//1 386//1
f 387//1 389//1 390//1 388//1
f 389//1 391//1 392//1 390//1
f 391//1 393//1 394//1 392//1
f 393//1 395//1 396//1 394//1
f 395//1 397//1 398//1 396//1
f 397//1 399//1 400//1 398//1
f 399//1 401//1 402//1 400//1
f 401//1 403//1 404//1 402//1
f 403//1 405//1 406//1 404//1
f 405//1 407//1 408//1 406//1
f 407//1 409//1 410//1 408//1
f 409//1 411//1 412//1 410//1
f 411//1 413//1 414//1 412//1
f 413//1 415//1 416//1 414//1
f 415//1 417//1 418//1 416//1
f 417//1 419//1 420//1 418//1
f 419//1 421//1 422//1 420//1
f 421//1 423//1 424//1 422//1
f 423//1 1//1 4//1 424//1
# 212 faces

