# created with CityEngine 2019.0.5403 0409R (based on Esri Procedural Runtime 2.0.5403, build date: Tue 04/09/2019 10:26 AM)
# creation date: Tue Mar 29 18:59:06 2022

mtllib 20220329_GF_Border.mtl

# mesh 'mesh_CityEngineMaterial_26' from geometry 'mesh_CityEngineMaterial_26'
v -691261.034 0.000 1187244.308
v -691209.434 0.000 1187241.588
v -691209.855 0.000 1187241.210
v -691260.656 0.000 1187243.888
v -691211.010 0.000 1187211.708
v -691211.388 0.000 1187212.124
v -691262.640 0.000 1187213.838
v -691262.220 0.000 1187214.221
# 8 vertices

vn 0.000 1.000 0.000
# 1 vertex normal

g CityEngineMaterial
s off
usemtl CityEngineMaterial
f 1//1 2//1 3//1 4//1
f 2//1 5//1 6//1 3//1
f 5//1 7//1 8//1 6//1
f 7//1 1//1 4//1 8//1
# 4 faces

