# created with CityEngine 2019.0.5403 0409R (based on Esri Procedural Runtime 2.0.5403, build date: Tue 04/09/2019 10:26 AM)
# creation date: Tue Mar 29 18:57:59 2022

mtllib 20220329_UF_Border.mtl

# mesh 'mesh_CityEngineMaterial_20' from geometry 'mesh_CityEngineMaterial_20'
v -691188.492 0.000 1187283.249
v -691189.350 0.000 1187281.950
v -691189.684 0.000 1187282.170
v -691189.046 0.000 1187283.136
v -691189.002 0.000 1187283.145
v -691202.204 0.000 1187262.500
v -691202.206 0.000 1187262.509
v -691202.317 0.000 1187263.054
v -691202.210 0.000 1187262.504
v -691254.514 0.000 1187297.071
v -691253.959 0.000 1187297.184
v -691245.237 0.000 1187311.108
v -691244.903 0.000 1187310.887
v -691240.801 0.000 1187317.820
v -691240.687 0.000 1187317.266
v -691188.799 0.000 1187283.452
# 16 vertices

vn 0.000 1.000 0.000
# 1 vertex normal

g CityEngineMaterial
s off
usemtl CityEngineMaterial
f 1//1 2//1 3//1 4//1 5//1
f 2//1 6//1 7//1 8//1 3//1
f 6//1 9//1 7//1
f 9//1 10//1 11//1 8//1 7//1
f 10//1 12//1 13//1 11//1
f 12//1 14//1 15//1 13//1
f 14//1 16//1 5//1 4//1 15//1
f 16//1 1//1 5//1
# 8 faces

