# created with CityEngine 2019.0.5403 0409R (based on Esri Procedural Runtime 2.0.5403, build date: Tue 04/09/2019 10:26 AM)
# creation date: Tue Mar 29 18:59:06 2022

mtllib 20220329_GF_Border.mtl

# mesh 'mesh_CityEngineMaterial_19' from geometry 'mesh_CityEngineMaterial_19'
v -691242.771 0.000 1187239.818
v -691222.915 0.000 1187228.341
v -691223.458 0.000 1187228.193
v -691242.608 0.000 1187239.261
v -691229.760 0.000 1187216.199
v -691229.910 0.000 1187216.748
v -691249.160 0.000 1187227.412
v -691248.630 0.000 1187227.568
# 8 vertices

vn 0.000 1.000 0.000
# 1 vertex normal

g CityEngineMaterial
s off
usemtl CityEngineMaterial
f 1//1 2//1 3//1 4//1
f 2//1 5//1 6//1 3//1
f 5//1 7//1 8//1 6//1
f 7//1 1//1 4//1 8//1
# 4 faces

