# created with CityEngine 2019.0.5403 0409R (based on Esri Procedural Runtime 2.0.5403, build date: Tue 04/09/2019 10:26 AM)
# creation date: Tue Mar 29 18:59:06 2022

mtllib 20220329_GF_Border.mtl

# mesh 'mesh_CityEngineMaterial_8' from geometry 'mesh_CityEngineMaterial_8'
v -691231.454 0.000 1187242.386
v -691226.409 0.000 1187235.933
v -691226.866 0.000 1187235.868
v -691231.481 0.000 1187241.772
v -691235.397 0.000 1187213.631
v -691235.619 0.000 1187214.148
v -691245.666 0.000 1187217.678
v -691245.147 0.000 1187217.903
v -691239.177 0.000 1187234.143
v -691238.832 0.000 1187233.925
# 10 vertices

vn 0.000 1.000 0.000
# 1 vertex normal

g CityEngineMaterial
s off
usemtl CityEngineMaterial
f 1//1 2//1 3//1 4//1
f 2//1 5//1 6//1 3//1
f 5//1 7//1 8//1 6//1
f 7//1 9//1 10//1 8//1
f 9//1 1//1 4//1 10//1
# 5 faces

