# created with CityEngine 2019.0.5403 0409R (based on Esri Procedural Runtime 2.0.5403, build date: Tue 04/09/2019 10:26 AM)
# creation date: Tue Mar 29 18:57:18 2022

mtllib 20220329_UF_Base.mtl

# mesh 'mesh_CityEngineMaterial_17' from geometry 'mesh_CityEngineMaterial_17'
v -691224.313 0.000 1187318.801
v -691231.630 0.000 1187317.098
v -691216.805 0.000 1187318.553
v -691209.616 0.000 1187316.369
v -691203.238 0.000 1187312.400
v -691199.277 0.000 1187308.169
v -691198.629 0.000 1187307.476
v -691198.104 0.000 1187306.915
v -691194.565 0.000 1187300.288
v -691192.861 0.000 1187292.971
v -691193.110 0.000 1187285.462
v -691195.293 0.000 1187278.274
v -691199.263 0.000 1187271.895
v -691202.005 0.000 1187269.328
v -691204.748 0.000 1187266.761
v -691211.375 0.000 1187263.222
v -691218.692 0.000 1187261.519
v -691221.718 0.000 1187261.619
v -691226.201 0.000 1187261.767
v -691232.475 0.000 1187263.673
v -691233.389 0.000 1187263.951
v -691239.768 0.000 1187267.920
v -691242.034 0.000 1187270.342
v -691244.901 0.000 1187273.405
v -691245.644 0.000 1187274.797
v -691245.678 0.000 1187274.860
v -691248.441 0.000 1187280.032
v -691250.144 0.000 1187287.349
v -691249.895 0.000 1187294.858
v -691247.712 0.000 1187302.046
v -691243.743 0.000 1187308.425
v -691242.845 0.000 1187309.265
v -691238.258 0.000 1187313.559
v -691224.313 0.400 1187318.801
v -691216.805 0.400 1187318.553
v -691209.616 0.400 1187316.369
v -691203.238 0.400 1187312.400
v -691199.277 0.400 1187308.169
v -691198.629 0.400 1187307.476
v -691198.104 0.400 1187306.915
v -691194.565 0.400 1187300.288
v -691192.861 0.400 1187292.971
v -691193.110 0.400 1187285.462
v -691195.293 0.400 1187278.274
v -691199.263 0.400 1187271.895
v -691202.005 0.400 1187269.328
v -691204.748 0.400 1187266.761
v -691211.375 0.400 1187263.222
v -691218.692 0.400 1187261.519
v -691221.718 0.400 1187261.619
v -691226.201 0.400 1187261.767
v -691232.475 0.400 1187263.673
v -691233.389 0.400 1187263.951
v -691239.768 0.400 1187267.920
v -691242.034 0.400 1187270.342
v -691244.901 0.400 1187273.405
v -691245.644 0.400 1187274.797
v -691245.678 0.400 1187274.860
v -691248.441 0.400 1187280.032
v -691250.144 0.400 1187287.349
v -691249.895 0.400 1187294.858
v -691247.712 0.400 1187302.046
v -691243.743 0.400 1187308.425
v -691242.845 0.400 1187309.265
v -691238.258 0.400 1187313.559
v -691231.630 0.400 1187317.098
# 66 vertices

vn 0.000 -1.000 0.000
vn 0.000 1.000 0.000
vn 0.033 0.000 0.999
vn 0.291 0.000 0.957
vn 0.528 0.000 0.849
vn 0.730 0.000 0.683
vn 0.882 0.000 0.471
vn 0.974 0.000 0.227
vn 0.999 0.000 -0.033
vn 0.957 0.000 -0.291
vn 0.849 0.000 -0.528
vn 0.683 0.000 -0.730
vn 0.471 0.000 -0.882
vn 0.227 0.000 -0.974
vn -0.033 0.000 -0.999
vn -0.291 0.000 -0.957
vn -0.528 0.000 -0.849
vn -0.730 0.000 -0.683
vn -0.882 0.000 -0.471
vn -0.883 0.000 -0.470
vn -0.974 0.000 -0.227
vn -0.999 0.000 0.033
vn -0.957 0.000 0.291
vn -0.849 0.000 0.528
vn -0.683 0.000 0.730
vn -0.471 0.000 0.882
vn -0.227 0.000 0.974
# 27 vertex normals

g CityEngineMaterial
s off
usemtl CityEngineMaterial
f 3//1 1//1 2//1 33//1 32//1 31//1 30//1 29//1 28//1 27//1 26//1 25//1 24//1 23//1 22//1 21//1 20//1 19//1 18//1 17//1 16//1 15//1 14//1 13//1 12//1 11//1 10//1 9//1 8//1 7//1 6//1 5//1 4//1
f 34//2 35//2 36//2 37//2 38//2 39//2 40//2 41//2 42//2 43//2 44//2 45//2 46//2 47//2 48//2 49//2 50//2 51//2 52//2 53//2 54//2 55//2 56//2 57//2 58//2 59//2 60//2 61//2 62//2 63//2 64//2 65//2 66//2
f 1//3 3//3 35//3 34//3
f 3//4 4//4 36//4 35//4
f 4//5 5//5 37//5 36//5
f 5//6 6//6 38//6 37//6
f 6//6 7//6 39//6 38//6
f 7//6 8//6 40//6 39//6
f 8//7 9//7 41//7 40//7
f 9//8 10//8 42//8 41//8
f 10//9 11//9 43//9 42//9
f 11//10 12//10 44//10 43//10
f 12//11 13//11 45//11 44//11
f 13//12 14//12 46//12 45//12
f 14//12 15//12 47//12 46//12
f 15//13 16//13 48//13 47//13
f 16//14 17//14 49//14 48//14
f 17//15 18//15 50//15 49//15
f 18//15 19//15 51//15 50//15
f 19//16 20//16 52//16 51//16
f 20//16 21//16 53//16 52//16
f 21//17 22//17 54//17 53//17
f 22//18 23//18 55//18 54//18
f 23//18 24//18 56//18 55//18
f 24//19 25//19 57//19 56//19
f 25//20 26//20 58//20 57//20
f 26//19 27//19 59//19 58//19
f 27//21 28//21 60//21 59//21
f 28//22 29//22 61//22 60//22
f 29//23 30//23 62//23 61//23
f 30//24 31//24 63//24 62//24
f 31//25 32//25 64//25 63//25
f 32//25 33//25 65//25 64//25
f 33//26 2//26 66//26 65//26
f 2//27 1//27 34//27 66//27
# 35 faces

