# created with CityEngine 2019.0.5403 0409R (based on Esri Procedural Runtime 2.0.5403, build date: Tue 04/09/2019 10:26 AM)
# creation date: Tue Mar 29 18:59:06 2022

mtllib 20220329_GF_Border.mtl

# mesh 'mesh_CityEngineMaterial_16' from geometry 'mesh_CityEngineMaterial_16'
v -691218.144 0.000 1187221.941
v -691222.822 0.000 1187214.822
v -691223.382 0.000 1187214.698
v -691218.264 0.000 1187222.486
v -691207.819 0.000 1187205.540
v -691208.369 0.000 1187205.410
v -691214.966 0.000 1187193.987
v -691215.096 0.000 1187194.537
v -691265.188 0.000 1187225.057
v -691265.308 0.000 1187225.602
v -691274.377 0.000 1187211.074
v -691274.492 0.000 1187211.628
v -691285.734 0.000 1187218.538
v -691285.180 0.000 1187218.652
v -691257.152 0.000 1187262.030
v -691257.037 0.000 1187261.476
v -691245.795 0.000 1187254.566
v -691246.349 0.000 1187254.452
v -691257.724 0.000 1187236.414
v -691258.284 0.000 1187236.291
v -691234.384 0.000 1187221.975
v -691234.263 0.000 1187221.430
v -691222.042 0.000 1187240.754
v -691221.923 0.000 1187240.206
v -691186.340 0.000 1187218.237
v -691186.889 0.000 1187218.110
v -691193.487 0.000 1187206.686
v -691193.616 0.000 1187207.237
# 28 vertices

vn 0.000 1.000 0.000
# 1 vertex normal

g CityEngineMaterial
s off
usemtl CityEngineMaterial
f 1//1 2//1 3//1 4//1
f 2//1 5//1 6//1 3//1
f 5//1 7//1 8//1 6//1
f 7//1 9//1 10//1 8//1
f 9//1 11//1 12//1 10//1
f 11//1 13//1 14//1 12//1
f 13//1 15//1 16//1 14//1
f 15//1 17//1 18//1 16//1
f 17//1 19//1 20//1 18//1
f 19//1 21//1 22//1 20//1
f 21//1 23//1 24//1 22//1
f 23//1 25//1 26//1 24//1
f 25//1 27//1 28//1 26//1
f 27//1 1//1 4//1 28//1
# 14 faces

