# created with CityEngine 2019.0.5403 0409R (based on Esri Procedural Runtime 2.0.5403, build date: Tue 04/09/2019 10:26 AM)
# creation date: Tue Mar 29 18:59:07 2022

mtllib 20220329_GF_Border.mtl

# mesh 'mesh_CityEngineMaterial_29' from geometry 'mesh_CityEngineMaterial_29'
v -691257.469 0.000 1187139.596
v -691263.102 0.000 1187130.452
v -691263.436 0.000 1187130.673
v -691257.816 0.000 1187139.795
v -691264.081 0.000 1187129.070
v -691264.392 0.000 1187129.322
v -691265.224 0.000 1187127.826
v -691265.501 0.000 1187128.115
v -691265.862 0.000 1187127.290
v -691266.083 0.000 1187127.626
v -691269.269 0.000 1187125.584
v -691269.425 0.000 1187125.954
v -691270.960 0.000 1187125.000
v -691271.065 0.000 1187125.387
v -691272.696 0.000 1187124.654
v -691272.746 0.000 1187125.052
v -691274.444 0.000 1187124.556
v -691274.437 0.000 1187124.957
v -691276.171 0.000 1187124.710
v -691276.106 0.000 1187125.106
v -691277.845 0.000 1187125.117
v -691277.721 0.000 1187125.498
v -691278.814 0.000 1187125.516
v -691278.632 0.000 1187125.873
v -691295.733 0.000 1187135.941
v -691295.513 0.000 1187136.275
v -691296.837 0.000 1187136.715
v -691296.587 0.000 1187137.029
v -691297.841 0.000 1187137.616
v -691297.556 0.000 1187137.898
v -691298.733 0.000 1187138.632
v -691298.417 0.000 1187138.878
v -691299.502 0.000 1187139.748
v -691299.159 0.000 1187139.956
v -691300.136 0.000 1187140.952
v -691299.771 0.000 1187141.118
v -691300.628 0.000 1187142.226
v -691300.246 0.000 1187142.348
v -691300.970 0.000 1187143.553
v -691300.577 0.000 1187143.631
v -691301.159 0.000 1187144.917
v -691300.760 0.000 1187144.950
v -691301.192 0.000 1187146.299
v -691300.792 0.000 1187146.286
v -691301.069 0.000 1187147.681
v -691300.672 0.000 1187147.623
v -691300.790 0.000 1187149.045
v -691300.403 0.000 1187148.943
v -691300.361 0.000 1187150.372
v -691299.995 0.000 1187150.202
v -691264.797 0.000 1187207.397
v -691264.453 0.000 1187207.193
v -691264.129 0.000 1187208.583
v -691263.787 0.000 1187208.375
v -691263.381 0.000 1187209.721
v -691263.054 0.000 1187209.490
v -691262.561 0.000 1187210.800
v -691262.251 0.000 1187210.546
v -691261.678 0.000 1187211.807
v -691261.387 0.000 1187211.532
v -691260.742 0.000 1187212.732
v -691260.471 0.000 1187212.437
v -691259.761 0.000 1187213.566
v -691259.513 0.000 1187213.251
v -691258.746 0.000 1187214.300
v -691258.525 0.000 1187213.966
v -691257.708 0.000 1187214.925
v -691257.517 0.000 1187214.573
v -691256.659 0.000 1187215.436
v -691256.501 0.000 1187215.068
v -691255.608 0.000 1187215.827
v -691255.488 0.000 1187215.445
v -691254.567 0.000 1187216.095
v -691254.489 0.000 1187215.702
v -691252.842 0.000 1187216.337
v -691252.799 0.000 1187215.939
v -691243.711 0.000 1187217.021
v -691243.527 0.000 1187216.634
v -691241.767 0.000 1187219.090
v -691241.467 0.000 1187218.825
v -691236.390 0.000 1187225.546
v -691236.075 0.000 1187225.299
v -691235.061 0.000 1187227.353
v -691234.617 0.000 1187227.283
v -691237.406 0.000 1187234.486
v -691237.020 0.000 1187234.591
v -691237.958 0.000 1187237.025
v -691237.562 0.000 1187237.087
v -691238.098 0.000 1187238.466
v -691237.697 0.000 1187238.479
v -691238.065 0.000 1187239.471
v -691237.666 0.000 1187239.438
v -691238.006 0.000 1187239.911
v -691237.611 0.000 1187239.844
v -691237.859 0.000 1187240.632
v -691237.470 0.000 1187240.541
v -691237.664 0.000 1187241.360
v -691237.281 0.000 1187241.245
v -691237.421 0.000 1187242.089
v -691237.045 0.000 1187241.951
v -691237.133 0.000 1187242.813
v -691236.765 0.000 1187242.654
v -691236.801 0.000 1187243.527
v -691236.443 0.000 1187243.349
v -691236.427 0.000 1187244.227
v -691236.088 0.000 1187244.012
v -691234.905 0.000 1187246.271
v -691234.597 0.000 1187246.016
v -691233.523 0.000 1187247.777
v -691233.074 0.000 1187247.675
v -691233.775 0.000 1187248.614
v -691233.386 0.000 1187248.708
v -691234.023 0.000 1187249.979
v -691233.626 0.000 1187250.028
v -691234.117 0.000 1187251.367
v -691233.716 0.000 1187251.372
v -691234.056 0.000 1187252.761
v -691233.658 0.000 1187252.694
v -691214.922 0.000 1187317.186
v -691214.536 0.000 1187317.080
v -691214.593 0.000 1187318.507
v -691214.208 0.000 1187318.397
v -691214.175 0.000 1187319.803
v -691213.798 0.000 1187319.667
v -691213.671 0.000 1187321.060
v -691213.305 0.000 1187320.898
v -691213.087 0.000 1187322.266
v -691212.734 0.000 1187322.078
v -691212.430 0.000 1187323.407
v -691212.091 0.000 1187323.194
v -691211.706 0.000 1187324.471
v -691211.384 0.000 1187324.233
v -691210.923 0.000 1187325.448
v -691210.621 0.000 1187325.185
v -691210.089 0.000 1187326.327
v -691209.811 0.000 1187326.038
v -691209.212 0.000 1187327.098
v -691208.963 0.000 1187326.785
v -691208.303 0.000 1187327.755
v -691208.086 0.000 1187327.418
v -691207.371 0.000 1187328.289
v -691207.191 0.000 1187327.931
v -691205.772 0.000 1187328.981
v -691205.625 0.000 1187328.609
v -691198.845 0.000 1187331.460
v -691198.833 0.000 1187331.040
v -691170.882 0.000 1187323.320
v -691171.411 0.000 1187323.058
v -691177.566 0.000 1187305.879
v -691177.978 0.000 1187305.920
v -691177.465 0.000 1187305.272
v -691177.861 0.000 1187305.213
v -691177.295 0.000 1187303.986
v -691177.692 0.000 1187303.940
v -691177.166 0.000 1187302.699
v -691177.565 0.000 1187302.666
v -691177.080 0.000 1187301.412
v -691177.479 0.000 1187301.392
v -691177.026 0.000 1187299.735
v -691177.426 0.000 1187299.740
v -691177.119 0.000 1187298.069
v -691177.517 0.000 1187298.109
v -691177.359 0.000 1187296.435
v -691177.752 0.000 1187296.512
v -691177.742 0.000 1187294.850
v -691178.127 0.000 1187294.963
v -691178.267 0.000 1187293.328
v -691178.639 0.000 1187293.477
v -691178.927 0.000 1187291.884
v -691179.283 0.000 1187292.068
v -691179.717 0.000 1187290.530
v -691180.052 0.000 1187290.750
v -691180.629 0.000 1187289.281
v -691180.939 0.000 1187289.533
v -691181.654 0.000 1187288.146
v -691181.936 0.000 1187288.430
v -691182.783 0.000 1187287.138
v -691183.033 0.000 1187287.451
v -691182.965 0.000 1187287.008
v -691183.327 0.000 1187287.241
v -691185.739 0.000 1187272.819
v -691186.185 0.000 1187272.624
v -691182.371 0.000 1187270.744
v -691182.594 0.000 1187270.411
v -691181.642 0.000 1187270.212
v -691181.904 0.000 1187269.907
v -691181.001 0.000 1187269.568
v -691181.306 0.000 1187269.308
v -691180.457 0.000 1187268.824
v -691180.798 0.000 1187268.612
v -691180.021 0.000 1187267.993
v -691180.388 0.000 1187267.832
v -691179.699 0.000 1187267.087
v -691180.085 0.000 1187266.979
v -691179.497 0.000 1187266.124
v -691179.894 0.000 1187266.067
v -691179.419 0.000 1187265.118
v -691179.819 0.000 1187265.112
v -691179.465 0.000 1187264.089
v -691179.864 0.000 1187264.130
v -691179.636 0.000 1187263.052
v -691180.027 0.000 1187263.140
v -691179.927 0.000 1187262.027
v -691180.306 0.000 1187262.157
v -691180.335 0.000 1187261.029
v -691180.697 0.000 1187261.201
v -691180.853 0.000 1187260.078
v -691181.199 0.000 1187260.278
v -691196.931 0.000 1187233.983
v -691197.078 0.000 1187234.507
v -691198.697 0.000 1187234.882
v -691198.872 0.000 1187235.420
v -691202.685 0.000 1187227.044
v -691203.035 0.000 1187227.236
v -691207.273 0.000 1187219.298
v -691207.612 0.000 1187219.510
v -691207.405 0.000 1187219.098
v -691207.756 0.000 1187219.293
v -691207.505 0.000 1187218.878
v -691207.865 0.000 1187219.053
v -691211.638 0.000 1187210.878
v -691211.988 0.000 1187211.073
v -691216.225 0.000 1187203.244
v -691216.561 0.000 1187203.461
v -691221.305 0.000 1187195.895
v -691221.627 0.000 1187196.133
v -691226.831 0.000 1187188.893
v -691226.912 0.000 1187189.437
v -691229.005 0.000 1187190.408
v -691229.125 0.000 1187190.979
v -691243.885 0.000 1187166.101
v -691244.307 0.000 1187166.178
v -691243.588 0.000 1187164.538
v -691243.986 0.000 1187164.486
v -691243.478 0.000 1187163.028
v -691243.879 0.000 1187163.020
v -691243.531 0.000 1187161.500
v -691243.930 0.000 1187161.535
v -691243.745 0.000 1187159.968
v -691244.139 0.000 1187160.044
v -691244.120 0.000 1187158.446
v -691244.503 0.000 1187158.561
v -691244.650 0.000 1187156.949
v -691245.021 0.000 1187157.101
v -691245.332 0.000 1187155.491
v -691245.687 0.000 1187155.678
v -691246.159 0.000 1187154.085
v -691246.495 0.000 1187154.304
v -691247.123 0.000 1187152.745
v -691247.438 0.000 1187152.993
v -691248.216 0.000 1187151.483
v -691248.507 0.000 1187151.758
v -691249.421 0.000 1187150.316
v -691249.694 0.000 1187150.609
v -691250.378 0.000 1187149.452
v -691250.642 0.000 1187149.753
v -691251.366 0.000 1187148.616
v -691251.620 0.000 1187148.926
v -691252.383 0.000 1187147.812
v -691252.626 0.000 1187148.130
v -691253.553 0.000 1187146.952
v -691253.863 0.000 1187147.220
# 262 vertices

vn 0.000 1.000 0.000
# 1 vertex normal

g CityEngineMaterial
s off
usemtl CityEngineMaterial
f 1//1 2//1 3//1 4//1
f 2//1 5//1 6//1 3//1
f 5//1 7//1 8//1 6//1
f 7//1 9//1 10//1 8//1
f 9//1 11//1 12//1 10//1
f 11//1 13//1 14//1 12//1
f 13//1 15//1 16//1 14//1
f 15//1 17//1 18//1 16//1
f 17//1 19//1 20//1 18//1
f 19//1 21//1 22//1 20//1
f 21//1 23//1 24//1 22//1
f 23//1 25//1 26//1 24//1
f 25//1 27//1 28//1 26//1
f 27//1 29//1 30//1 28//1
f 29//1 31//1 32//1 30//1
f 31//1 33//1 34//1 32//1
f 33//1 35//1 36//1 34//1
f 35//1 37//1 38//1 36//1
f 37//1 39//1 40//1 38//1
f 39//1 41//1 42//1 40//1
f 41//1 43//1 44//1 42//1
f 43//1 45//1 46//1 44//1
f 45//1 47//1 48//1 46//1
f 47//1 49//1 50//1 48//1
f 49//1 51//1 52//1 50//1
f 51//1 53//1 54//1 52//1
f 53//1 55//1 56//1 54//1
f 55//1 57//1 58//1 56//1
f 57//1 59//1 60//1 58//1
f 59//1 61//1 62//1 60//1
f 61//1 63//1 64//1 62//1
f 63//1 65//1 66//1 64//1
f 65//1 67//1 68//1 66//1
f 67//1 69//1 70//1 68//1
f 69//1 71//1 72//1 70//1
f 71//1 73//1 74//1 72//1
f 73//1 75//1 76//1 74//1
f 75//1 77//1 78//1 76//1
f 77//1 79//1 80//1 78//1
f 79//1 81//1 82//1 80//1
f 81//1 83//1 84//1 82//1
f 83//1 85//1 86//1 84//1
f 85//1 87//1 88//1 86//1
f 87//1 89//1 90//1 88//1
f 89//1 91//1 92//1 90//1
f 91//1 93//1 94//1 92//1
f 93//1 95//1 96//1 94//1
f 95//1 97//1 98//1 96//1
f 97//1 99//1 100//1 98//1
f 99//1 101//1 102//1 100//1
f 101//1 103//1 104//1 102//1
f 103//1 105//1 106//1 104//1
f 105//1 107//1 108//1 106//1
f 107//1 109//1 110//1 108//1
f 109//1 111//1 112//1 110//1
f 111//1 113//1 114//1 112//1
f 113//1 115//1 116//1 114//1
f 115//1 117//1 118//1 116//1
f 117//1 119//1 120//1 118//1
f 119//1 121//1 122//1 120//1
f 121//1 123//1 124//1 122//1
f 123//1 125//1 126//1 124//1
f 125//1 127//1 128//1 126//1
f 127//1 129//1 130//1 128//1
f 129//1 131//1 132//1 130//1
f 131//1 133//1 134//1 132//1
f 133//1 135//1 136//1 134//1
f 135//1 137//1 138//1 136//1
f 137//1 139//1 140//1 138//1
f 139//1 141//1 142//1 140//1
f 141//1 143//1 144//1 142//1
f 143//1 145//1 146//1 144//1
f 145//1 147//1 148//1 146//1
f 147//1 149//1 150//1 148//1
f 149//1 151//1 152//1 150//1
f 151//1 153//1 154//1 152//1
f 153//1 155//1 156//1 154//1
f 155//1 157//1 158//1 156//1
f 157//1 159//1 160//1 158//1
f 159//1 161//1 162//1 160//1
f 161//1 163//1 164//1 162//1
f 163//1 165//1 166//1 164//1
f 165//1 167//1 168//1 166//1
f 167//1 169//1 170//1 168//1
f 169//1 171//1 172//1 170//1
f 171//1 173//1 174//1 172//1
f 173//1 175//1 176//1 174//1
f 175//1 177//1 178//1 176//1
f 177//1 179//1 180//1 178//1
f 179//1 181//1 182//1 180//1
f 181//1 183//1 184//1 182//1
f 183//1 185//1 186//1 184//1
f 185//1 187//1 188//1 186//1
f 187//1 189//1 190//1 188//1
f 189//1 191//1 192//1 190//1
f 191//1 193//1 194//1 192//1
f 193//1 195//1 196//1 194//1
f 195//1 197//1 198//1 196//1
f 197//1 199//1 200//1 198//1
f 199//1 201//1 202//1 200//1
f 201//1 203//1 204//1 202//1
f 203//1 205//1 206//1 204//1
f 205//1 207//1 208//1 206//1
f 207//1 209//1 210//1 208//1
f 209//1 211//1 212//1 210//1
f 211//1 213//1 214//1 212//1
f 213//1 215//1 216//1 214//1
f 215//1 217//1 218//1 216//1
f 217//1 219//1 220//1 218//1
f 219//1 221//1 222//1 220//1
f 221//1 223//1 224//1 222//1
f 223//1 225//1 226//1 224//1
f 225//1 227//1 228//1 226//1
f 227//1 229//1 230//1 228//1
f 229//1 231//1 232//1 230//1
f 231//1 233//1 234//1 232//1
f 233//1 235//1 236//1 234//1
f 235//1 237//1 238//1 236//1
f 237//1 239//1 240//1 238//1
f 239//1 241//1 242//1 240//1
f 241//1 243//1 244//1 242//1
f 243//1 245//1 246//1 244//1
f 245//1 247//1 248//1 246//1
f 247//1 249//1 250//1 248//1
f 249//1 251//1 252//1 250//1
f 251//1 253//1 254//1 252//1
f 253//1 255//1 256//1 254//1
f 255//1 257//1 258//1 256//1
f 257//1 259//1 260//1 258//1
f 259//1 261//1 262//1 260//1
f 261//1 1//1 4//1 262//1
# 131 faces

