# created with CityEngine 2019.0.5403 0409R (based on Esri Procedural Runtime 2.0.5403, build date: Tue 04/09/2019 10:26 AM)
# creation date: Tue Mar 29 18:59:06 2022

mtllib 20220329_GF_Border.mtl

# mesh 'mesh_CityEngineMaterial_18' from geometry 'mesh_CityEngineMaterial_18'
v -691241.981 0.000 1187243.979
v -691219.183 0.000 1187229.532
v -691219.740 0.000 1187229.411
v -691241.852 0.000 1187243.424
v -691230.617 0.000 1187212.038
v -691230.736 0.000 1187212.587
v -691252.892 0.000 1187226.153
v -691252.345 0.000 1187226.280
# 8 vertices

vn 0.000 1.000 0.000
# 1 vertex normal

g CityEngineMaterial
s off
usemtl CityEngineMaterial
f 1//1 2//1 3//1 4//1
f 2//1 5//1 6//1 3//1
f 5//1 7//1 8//1 6//1
f 7//1 1//1 4//1 8//1
# 4 faces

