# created with CityEngine 2019.0.5403 0409R (based on Esri Procedural Runtime 2.0.5403, build date: Tue 04/09/2019 10:26 AM)
# creation date: Tue Mar 29 18:57:19 2022

mtllib 20220329_UF_Base.mtl

# mesh 'mesh_CityEngineMaterial_29' from geometry 'mesh_CityEngineMaterial_29'
v -691237.798 0.000 1187311.580
v -691238.757 0.000 1187311.414
v -691236.825 0.000 1187311.576
v -691235.849 0.000 1187311.401
v -691204.229 0.000 1187302.815
v -691203.299 0.000 1187302.473
v -691202.458 0.000 1187301.984
v -691201.714 0.000 1187301.356
v -691201.091 0.000 1187300.608
v -691200.607 0.000 1187299.763
v -691200.277 0.000 1187298.848
v -691200.112 0.000 1187297.889
v -691200.115 0.000 1187296.916
v -691200.287 0.000 1187295.958
v -691200.623 0.000 1187295.044
v -691201.112 0.000 1187294.203
v -691201.752 0.000 1187293.446
v -691224.996 0.000 1187270.355
v -691225.758 0.000 1187269.720
v -691226.603 0.000 1187269.236
v -691227.519 0.000 1187268.906
v -691228.478 0.000 1187268.740
v -691229.451 0.000 1187268.744
v -691230.409 0.000 1187268.916
v -691231.322 0.000 1187269.252
v -691232.163 0.000 1187269.741
v -691232.907 0.000 1187270.369
v -691233.530 0.000 1187271.117
v -691234.014 0.000 1187271.961
v -691234.350 0.000 1187272.894
v -691242.724 0.000 1187304.569
v -691242.894 0.000 1187305.548
v -691242.890 0.000 1187306.521
v -691242.718 0.000 1187307.479
v -691242.382 0.000 1187308.392
v -691241.893 0.000 1187309.233
v -691241.265 0.000 1187309.977
v -691240.517 0.000 1187310.600
v -691239.673 0.000 1187311.084
v -691237.798 0.400 1187311.580
v -691236.825 0.400 1187311.576
v -691235.849 0.400 1187311.401
v -691204.229 0.400 1187302.815
v -691203.299 0.400 1187302.473
v -691202.458 0.400 1187301.984
v -691201.714 0.400 1187301.356
v -691201.091 0.400 1187300.608
v -691200.607 0.400 1187299.763
v -691200.277 0.400 1187298.848
v -691200.112 0.400 1187297.889
v -691200.115 0.400 1187296.916
v -691200.287 0.400 1187295.958
v -691200.623 0.400 1187295.044
v -691201.112 0.400 1187294.203
v -691201.752 0.400 1187293.446
v -691224.996 0.400 1187270.355
v -691225.758 0.400 1187269.720
v -691226.603 0.400 1187269.236
v -691227.519 0.400 1187268.906
v -691228.478 0.400 1187268.740
v -691229.451 0.400 1187268.744
v -691230.409 0.400 1187268.916
v -691231.322 0.400 1187269.252
v -691232.163 0.400 1187269.741
v -691232.907 0.400 1187270.369
v -691233.530 0.400 1187271.117
v -691234.014 0.400 1187271.961
v -691234.350 0.400 1187272.894
v -691242.724 0.400 1187304.569
v -691242.894 0.400 1187305.548
v -691242.890 0.400 1187306.521
v -691242.718 0.400 1187307.479
v -691242.382 0.400 1187308.392
v -691241.893 0.400 1187309.233
v -691241.265 0.400 1187309.977
v -691240.517 0.400 1187310.600
v -691239.673 0.400 1187311.084
v -691238.757 0.400 1187311.414
# 78 vertices

vn 0.000 -1.000 0.000
vn 0.000 1.000 0.000
vn 0.003 0.000 1.000
vn 0.177 0.000 0.984
vn 0.262 0.000 0.965
vn 0.345 0.000 0.939
vn 0.503 0.000 0.864
vn 0.645 0.000 0.764
vn 0.768 0.000 0.640
vn 0.868 0.000 0.497
vn 0.941 0.000 0.339
vn 0.985 0.000 0.170
vn 1.000 0.000 -0.003
vn 0.984 0.000 -0.177
vn 0.939 0.000 -0.345
vn 0.864 0.000 -0.503
vn 0.764 0.000 -0.645
vn 0.705 0.000 -0.709
vn 0.640 0.000 -0.768
vn 0.497 0.000 -0.868
vn 0.339 0.000 -0.941
vn 0.170 0.000 -0.985
vn -0.003 0.000 -1.000
vn -0.177 0.000 -0.984
vn -0.345 0.000 -0.939
vn -0.503 0.000 -0.864
vn -0.645 0.000 -0.764
vn -0.768 0.000 -0.640
vn -0.868 0.000 -0.497
vn -0.941 0.000 -0.339
vn -0.967 0.000 -0.256
vn -0.985 0.000 -0.170
vn -1.000 0.000 0.003
vn -0.984 0.000 0.177
vn -0.939 0.000 0.345
vn -0.864 0.000 0.503
vn -0.764 0.000 0.645
vn -0.640 0.000 0.768
vn -0.497 0.000 0.868
vn -0.339 0.000 0.941
vn -0.170 0.000 0.985
# 41 vertex normals

g CityEngineMaterial
s off
usemtl CityEngineMaterial
f 3//1 1//1 2//1 39//1 38//1 37//1 36//1 35//1 34//1 33//1 32//1 31//1 30//1 29//1 28//1 27//1 26//1 25//1 24//1 23//1 22//1 21//1 20//1 19//1 18//1 17//1 16//1 15//1 14//1 13//1 12//1 11//1 10//1 9//1 8//1 7//1 6//1 5//1 4//1
f 40//2 41//2 42//2 43//2 44//2 45//2 46//2 47//2 48//2 49//2 50//2 51//2 52//2 53//2 54//2 55//2 56//2 57//2 58//2 59//2 60//2 61//2 62//2 63//2 64//2 65//2 66//2 67//2 68//2 69//2 70//2 71//2 72//2 73//2 74//2 75//2 76//2 77//2 78//2
f 1//3 3//3 41//3 40//3
f 3//4 4//4 42//4 41//4
f 4//5 5//5 43//5 42//5
f 5//6 6//6 44//6 43//6
f 6//7 7//7 45//7 44//7
f 7//8 8//8 46//8 45//8
f 8//9 9//9 47//9 46//9
f 9//10 10//10 48//10 47//10
f 10//11 11//11 49//11 48//11
f 11//12 12//12 50//12 49//12
f 12//13 13//13 51//13 50//13
f 13//14 14//14 52//14 51//14
f 14//15 15//15 53//15 52//15
f 15//16 16//16 54//16 53//16
f 16//17 17//17 55//17 54//17
f 17//18 18//18 56//18 55//18
f 18//19 19//19 57//19 56//19
f 19//20 20//20 58//20 57//20
f 20//21 21//21 59//21 58//21
f 21//22 22//22 60//22 59//22
f 22//23 23//23 61//23 60//23
f 23//24 24//24 62//24 61//24
f 24//25 25//25 63//25 62//25
f 25//26 26//26 64//26 63//26
f 26//27 27//27 65//27 64//27
f 27//28 28//28 66//28 65//28
f 28//29 29//29 67//29 66//29
f 29//30 30//30 68//30 67//30
f 30//31 31//31 69//31 68//31
f 31//32 32//32 70//32 69//32
f 32//33 33//33 71//33 70//33
f 33//34 34//34 72//34 71//34
f 34//35 35//35 73//35 72//35
f 35//36 36//36 74//36 73//36
f 36//37 37//37 75//37 74//37
f 37//38 38//38 76//38 75//38
f 38//39 39//39 77//39 76//39
f 39//40 2//40 78//40 77//40
f 2//41 1//41 40//41 78//41
# 41 faces

