# created with CityEngine 2019.0.5403 0409R (based on Esri Procedural Runtime 2.0.5403, build date: Tue 04/09/2019 10:26 AM)
# creation date: Tue Mar 29 19:00:08 2022

mtllib 20220329_GF_Base.mtl

# mesh 'mesh_CityEngineMaterial_29' from geometry 'mesh_CityEngineMaterial_29'
v -691257.758 0.000 1187139.810
v -691253.805 0.000 1187147.237
v -691263.379 0.000 1187130.688
v -691264.334 0.000 1187129.338
v -691265.442 0.000 1187128.133
v -691266.023 0.000 1187127.645
v -691269.363 0.000 1187125.973
v -691271.002 0.000 1187125.406
v -691272.682 0.000 1187125.072
v -691274.371 0.000 1187124.977
v -691276.039 0.000 1187125.126
v -691277.652 0.000 1187125.518
v -691278.561 0.000 1187125.892
v -691295.442 0.000 1187136.293
v -691296.515 0.000 1187137.046
v -691297.483 0.000 1187137.915
v -691298.344 0.000 1187138.894
v -691299.084 0.000 1187139.971
v -691299.696 0.000 1187141.132
v -691300.171 0.000 1187142.361
v -691300.501 0.000 1187143.643
v -691300.684 0.000 1187144.960
v -691300.716 0.000 1187146.296
v -691300.597 0.000 1187147.632
v -691300.327 0.000 1187148.950
v -691299.920 0.000 1187150.207
v -691264.379 0.000 1187207.198
v -691263.713 0.000 1187208.380
v -691262.980 0.000 1187209.494
v -691262.178 0.000 1187210.550
v -691261.314 0.000 1187211.535
v -691260.398 0.000 1187212.440
v -691259.441 0.000 1187213.253
v -691258.454 0.000 1187213.967
v -691257.446 0.000 1187214.575
v -691256.431 0.000 1187215.069
v -691255.419 0.000 1187215.446
v -691254.421 0.000 1187215.702
v -691252.732 0.000 1187215.939
v -691243.456 0.000 1187216.634
v -691241.394 0.000 1187218.828
v -691236.001 0.000 1187225.303
v -691234.540 0.000 1187227.291
v -691236.944 0.000 1187234.603
v -691237.487 0.000 1187237.099
v -691237.621 0.000 1187238.489
v -691237.590 0.000 1187239.447
v -691237.535 0.000 1187239.852
v -691237.394 0.000 1187240.548
v -691237.205 0.000 1187241.252
v -691236.970 0.000 1187241.958
v -691236.690 0.000 1187242.660
v -691236.368 0.000 1187243.354
v -691236.014 0.000 1187244.017
v -691234.523 0.000 1187246.019
v -691232.997 0.000 1187247.682
v -691233.310 0.000 1187248.720
v -691233.550 0.000 1187250.039
v -691233.641 0.000 1187251.382
v -691233.582 0.000 1187252.702
v -691214.461 0.000 1187317.087
v -691214.133 0.000 1187318.404
v -691213.723 0.000 1187319.673
v -691213.230 0.000 1187320.904
v -691212.659 0.000 1187322.084
v -691212.017 0.000 1187323.198
v -691211.310 0.000 1187324.237
v -691210.548 0.000 1187325.188
v -691209.738 0.000 1187326.041
v -691208.890 0.000 1187326.787
v -691208.015 0.000 1187327.420
v -691207.121 0.000 1187327.932
v -691205.556 0.000 1187328.610
v -691198.766 0.000 1187331.040
v -691171.359 0.000 1187323.061
v -691177.923 0.000 1187305.931
v -691177.805 0.000 1187305.221
v -691177.636 0.000 1187303.949
v -691177.509 0.000 1187302.675
v -691177.423 0.000 1187301.401
v -691177.370 0.000 1187299.750
v -691177.461 0.000 1187298.120
v -691177.696 0.000 1187296.523
v -691178.070 0.000 1187294.976
v -691178.582 0.000 1187293.491
v -691179.226 0.000 1187292.083
v -691179.994 0.000 1187290.765
v -691180.881 0.000 1187289.550
v -691181.877 0.000 1187288.447
v -691182.974 0.000 1187287.469
v -691183.271 0.000 1187287.256
v -691186.130 0.000 1187272.629
v -691182.533 0.000 1187270.413
v -691181.844 0.000 1187269.910
v -691181.248 0.000 1187269.311
v -691180.741 0.000 1187268.617
v -691180.332 0.000 1187267.838
v -691180.029 0.000 1187266.986
v -691179.838 0.000 1187266.075
v -691179.764 0.000 1187265.121
v -691179.808 0.000 1187264.141
v -691179.971 0.000 1187263.152
v -691180.250 0.000 1187262.171
v -691180.640 0.000 1187261.215
v -691181.142 0.000 1187260.293
v -691197.016 0.000 1187234.530
v -691198.810 0.000 1187235.443
v -691202.978 0.000 1187227.251
v -691207.554 0.000 1187219.525
v -691207.699 0.000 1187219.307
v -691207.808 0.000 1187219.067
v -691211.931 0.000 1187211.088
v -691216.504 0.000 1187203.476
v -691221.569 0.000 1187196.149
v -691226.848 0.000 1187189.460
v -691229.062 0.000 1187191.003
v -691244.251 0.000 1187166.190
v -691243.930 0.000 1187164.495
v -691243.823 0.000 1187163.030
v -691243.874 0.000 1187161.545
v -691244.083 0.000 1187160.055
v -691244.447 0.000 1187158.574
v -691244.964 0.000 1187157.115
v -691245.630 0.000 1187155.692
v -691246.437 0.000 1187154.319
v -691247.380 0.000 1187153.010
v -691248.448 0.000 1187151.775
v -691249.635 0.000 1187150.626
v -691250.582 0.000 1187149.770
v -691251.560 0.000 1187148.944
v -691252.566 0.000 1187148.148
v -691257.758 0.400 1187139.810
v -691263.379 0.400 1187130.688
v -691264.334 0.400 1187129.338
v -691265.442 0.400 1187128.133
v -691266.023 0.400 1187127.645
v -691269.363 0.400 1187125.973
v -691271.002 0.400 1187125.406
v -691272.682 0.400 1187125.072
v -691274.371 0.400 1187124.977
v -691276.039 0.400 1187125.126
v -691277.652 0.400 1187125.518
v -691278.561 0.400 1187125.892
v -691295.442 0.400 1187136.293
v -691296.515 0.400 1187137.046
v -691297.483 0.400 1187137.915
v -691298.344 0.400 1187138.894
v -691299.084 0.400 1187139.971
v -691299.696 0.400 1187141.132
v -691300.171 0.400 1187142.361
v -691300.501 0.400 1187143.643
v -691300.684 0.400 1187144.960
v -691300.716 0.400 1187146.296
v -691300.597 0.400 1187147.632
v -691300.327 0.400 1187148.950
v -691299.920 0.400 1187150.207
v -691264.379 0.400 1187207.198
v -691263.713 0.400 1187208.380
v -691262.980 0.400 1187209.494
v -691262.178 0.400 1187210.550
v -691261.314 0.400 1187211.535
v -691260.398 0.400 1187212.440
v -691259.441 0.400 1187213.253
v -691258.454 0.400 1187213.967
v -691257.446 0.400 1187214.575
v -691256.431 0.400 1187215.069
v -691255.419 0.400 1187215.446
v -691254.421 0.400 1187215.702
v -691252.732 0.400 1187215.939
v -691243.456 0.400 1187216.634
v -691241.394 0.400 1187218.828
v -691236.001 0.400 1187225.303
v -691234.540 0.400 1187227.291
v -691236.944 0.400 1187234.603
v -691237.487 0.400 1187237.099
v -691237.621 0.400 1187238.489
v -691237.590 0.400 1187239.447
v -691237.535 0.400 1187239.852
v -691237.394 0.400 1187240.548
v -691237.205 0.400 1187241.252
v -691236.970 0.400 1187241.958
v -691236.690 0.400 1187242.660
v -691236.368 0.400 1187243.354
v -691236.014 0.400 1187244.017
v -691234.523 0.400 1187246.019
v -691232.997 0.400 1187247.682
v -691233.310 0.400 1187248.720
v -691233.550 0.400 1187250.039
v -691233.641 0.400 1187251.382
v -691233.582 0.400 1187252.702
v -691214.461 0.400 1187317.087
v -691214.133 0.400 1187318.404
v -691213.723 0.400 1187319.673
v -691213.230 0.400 1187320.904
v -691212.659 0.400 1187322.084
v -691212.017 0.400 1187323.198
v -691211.310 0.400 1187324.237
v -691210.548 0.400 1187325.188
v -691209.738 0.400 1187326.041
v -691208.890 0.400 1187326.787
v -691208.015 0.400 1187327.420
v -691207.121 0.400 1187327.932
v -691205.556 0.400 1187328.610
v -691198.766 0.400 1187331.040
v -691171.359 0.400 1187323.061
v -691177.923 0.400 1187305.931
v -691177.805 0.400 1187305.221
v -691177.636 0.400 1187303.949
v -691177.509 0.400 1187302.675
v -691177.423 0.400 1187301.401
v -691177.370 0.400 1187299.750
v -691177.461 0.400 1187298.120
v -691177.696 0.400 1187296.523
v -691178.070 0.400 1187294.976
v -691178.582 0.400 1187293.491
v -691179.226 0.400 1187292.083
v -691179.994 0.400 1187290.765
v -691180.881 0.400 1187289.550
v -691181.877 0.400 1187288.447
v -691182.974 0.400 1187287.469
v -691183.271 0.400 1187287.256
v -691186.130 0.400 1187272.629
v -691182.533 0.400 1187270.413
v -691181.844 0.400 1187269.910
v -691181.248 0.400 1187269.311
v -691180.741 0.400 1187268.617
v -691180.332 0.400 1187267.838
v -691180.029 0.400 1187266.986
v -691179.838 0.400 1187266.075
v -691179.764 0.400 1187265.121
v -691179.808 0.400 1187264.141
v -691179.971 0.400 1187263.152
v -691180.250 0.400 1187262.171
v -691180.640 0.400 1187261.215
v -691181.142 0.400 1187260.293
v -691197.016 0.400 1187234.530
v -691198.810 0.400 1187235.443
v -691202.978 0.400 1187227.251
v -691207.554 0.400 1187219.525
v -691207.699 0.400 1187219.307
v -691207.808 0.400 1187219.067
v -691211.931 0.400 1187211.088
v -691216.504 0.400 1187203.476
v -691221.569 0.400 1187196.149
v -691226.848 0.400 1187189.460
v -691229.062 0.400 1187191.003
v -691244.251 0.400 1187166.190
v -691243.930 0.400 1187164.495
v -691243.823 0.400 1187163.030
v -691243.874 0.400 1187161.545
v -691244.083 0.400 1187160.055
v -691244.447 0.400 1187158.574
v -691244.964 0.400 1187157.115
v -691245.630 0.400 1187155.692
v -691246.437 0.400 1187154.319
v -691247.380 0.400 1187153.010
v -691248.448 0.400 1187151.775
v -691249.635 0.400 1187150.626
v -691250.582 0.400 1187149.770
v -691251.560 0.400 1187148.944
v -691252.566 0.400 1187148.148
v -691253.805 0.400 1187147.237
# 262 vertices

vn 0.000 -1.000 0.000
vn 0.000 1.000 0.000
vn 0.851 0.000 -0.525
vn 0.816 0.000 -0.578
vn 0.736 0.000 -0.677
vn 0.644 0.000 -0.765
vn 0.448 0.000 -0.894
vn 0.327 0.000 -0.945
vn 0.195 0.000 -0.981
vn 0.056 0.000 -0.998
vn -0.089 0.000 -0.996
vn -0.236 0.000 -0.972
vn -0.381 0.000 -0.925
vn -0.525 0.000 -0.851
vn -0.574 0.000 -0.819
vn -0.668 0.000 -0.744
vn -0.751 0.000 -0.660
vn -0.824 0.000 -0.567
vn -0.885 0.000 -0.466
vn -0.933 0.000 -0.360
vn -0.968 0.000 -0.250
vn -0.991 0.000 -0.137
vn -1.000 0.000 -0.024
vn -0.996 0.000 0.089
vn -0.980 0.000 0.200
vn -0.951 0.000 0.308
vn -0.849 0.000 0.529
vn -0.871 0.000 0.491
vn -0.836 0.000 0.549
vn -0.796 0.000 0.605
vn -0.752 0.000 0.659
vn -0.703 0.000 0.711
vn -0.648 0.000 0.762
vn -0.586 0.000 0.810
vn -0.516 0.000 0.856
vn -0.438 0.000 0.899
vn -0.349 0.000 0.937
vn -0.249 0.000 0.969
vn -0.139 0.000 0.990
vn -0.075 0.000 0.997
vn -0.729 0.000 0.685
vn -0.768 0.000 0.640
vn -0.806 0.000 0.592
vn -0.950 0.000 -0.312
vn -0.977 0.000 -0.212
vn -0.995 0.000 -0.096
vn -0.999 0.000 0.032
vn -0.991 0.000 0.134
vn -0.980 0.000 0.199
vn -0.966 0.000 0.259
vn -0.949 0.000 0.316
vn -0.929 0.000 0.370
vn -0.907 0.000 0.422
vn -0.882 0.000 0.471
vn -0.802 0.000 0.597
vn -0.737 0.000 0.676
vn -0.957 0.000 -0.289
vn -0.984 0.000 -0.179
vn -0.998 0.000 -0.067
vn -0.999 0.000 0.044
vn -0.959 0.000 0.285
vn -0.970 0.000 0.242
vn -0.928 0.000 0.372
vn -0.900 0.000 0.436
vn -0.866 0.000 0.499
vn -0.827 0.000 0.562
vn -0.780 0.000 0.626
vn -0.725 0.000 0.688
vn -0.661 0.000 0.751
vn -0.497 0.000 0.868
vn -0.398 0.000 0.918
vn -0.337 0.000 0.942
vn 0.280 0.000 0.960
vn 0.934 0.000 -0.358
vn 0.987 0.000 0.164
vn 0.991 0.000 0.132
vn 0.995 0.000 0.099
vn 0.998 0.000 0.067
vn 0.999 0.000 0.032
vn 0.998 0.000 -0.056
vn 0.989 0.000 -0.145
vn 0.972 0.000 -0.235
vn 0.945 0.000 -0.326
vn 0.910 0.000 -0.416
vn 0.864 0.000 -0.504
vn 0.808 0.000 -0.589
vn 0.742 0.000 -0.670
vn 0.666 0.000 -0.746
vn 0.581 0.000 -0.814
vn 0.981 0.000 -0.192
vn 0.525 0.000 0.851
vn 0.590 0.000 0.807
vn 0.708 0.000 0.706
vn 0.807 0.000 0.590
vn 0.885 0.000 0.465
vn 0.942 0.000 0.335
vn 0.979 0.000 0.205
vn 0.997 0.000 0.078
vn 0.999 0.000 -0.045
vn 0.987 0.000 -0.162
vn 0.962 0.000 -0.274
vn 0.926 0.000 -0.379
vn 0.879 0.000 -0.478
vn -0.453 0.000 -0.891
vn 0.891 0.000 -0.453
vn 0.860 0.000 -0.510
vn 0.833 0.000 -0.553
vn 0.910 0.000 -0.414
vn 0.888 0.000 -0.459
vn 0.857 0.000 -0.515
vn 0.823 0.000 -0.569
vn 0.785 0.000 -0.620
vn -0.572 0.000 -0.821
vn 0.853 0.000 -0.522
vn 0.982 0.000 0.186
vn 0.997 0.000 0.073
vn 0.999 0.000 -0.034
vn 0.990 0.000 -0.139
vn 0.971 0.000 -0.239
vn 0.943 0.000 -0.334
vn 0.906 0.000 -0.424
vn 0.862 0.000 -0.507
vn 0.812 0.000 -0.584
vn 0.756 0.000 -0.654
vn 0.696 0.000 -0.718
vn 0.670 0.000 -0.742
vn 0.646 0.000 -0.764
vn 0.621 0.000 -0.784
vn 0.592 0.000 -0.806
vn 0.883 0.000 -0.470
# 130 vertex normals

g CityEngineMaterial
s off
usemtl CityEngineMaterial
f 3//1 1//1 2//1 131//1 130//1 129//1 128//1 127//1 126//1 125//1 124//1 123//1 122//1 121//1 120//1 119//1 118//1 117//1 116//1 115//1 114//1 113//1 112//1 111//1 110//1 109//1 108//1 107//1 106//1 105//1 104//1 103//1 102//1 101//1 100//1 99//1 98//1 97//1 96//1 95//1 94//1 93//1 92//1 91//1 90//1 89//1 88//1 87//1 86//1 85//1 84//1 83//1 82//1 81//1 80//1 79//1 78//1 77//1 76//1 75//1 74//1 73//1 72//1 71//1 70//1 69//1 68//1 67//1 66//1 65//1 64//1 63//1 62//1 61//1 60//1 59//1 58//1 57//1 56//1 55//1 54//1 53//1 52//1 51//1 50//1 49//1 48//1 47//1 46//1 45//1 44//1 43//1 42//1 41//1 40//1 39//1 38//1 37//1 36//1 35//1 34//1 33//1 32//1 31//1 30//1 29//1 28//1 27//1 26//1 25//1 24//1 23//1 22//1 21//1 20//1 19//1 18//1 17//1 16//1 15//1 14//1 13//1 12//1 11//1 10//1 9//1 8//1 7//1 6//1 5//1 4//1
f 132//2 133//2 134//2 135//2 136//2 137//2 138//2 139//2 140//2 141//2 142//2 143//2 144//2 145//2 146//2 147//2 148//2 149//2 150//2 151//2 152//2 153//2 154//2 155//2 156//2 157//2 158//2 159//2 160//2 161//2 162//2 163//2 164//2 165//2 166//2 167//2 168//2 169//2 170//2 171//2 172//2 173//2 174//2 175//2 176//2 177//2 178//2 179//2 180//2 181//2 182//2 183//2 184//2 185//2 186//2 187//2 188//2 189//2 190//2 191//2 192//2 193//2 194//2 195//2 196//2 197//2 198//2 199//2 200//2 201//2 202//2 203//2 204//2 205//2 206//2 207//2 208//2 209//2 210//2 211//2 212//2 213//2 214//2 215//2 216//2 217//2 218//2 219//2 220//2 221//2 222//2 223//2 224//2 225//2 226//2 227//2 228//2 229//2 230//2 231//2 232//2 233//2 234//2 235//2 236//2 237//2 238//2 239//2 240//2 241//2 242//2 243//2 244//2 245//2 246//2 247//2 248//2 249//2 250//2 251//2 252//2 253//2 254//2 255//2 256//2 257//2 258//2 259//2 260//2 261//2 262//2
f 1//3 3//3 133//3 132//3
f 3//4 4//4 134//4 133//4
f 4//5 5//5 135//5 134//5
f 5//6 6//6 136//6 135//6
f 6//7 7//7 137//7 136//7
f 7//8 8//8 138//8 137//8
f 8//9 9//9 139//9 138//9
f 9//10 10//10 140//10 139//10
f 10//11 11//11 141//11 140//11
f 11//12 12//12 142//12 141//12
f 12//13 13//13 143//13 142//13
f 13//14 14//14 144//14 143//14
f 14//15 15//15 145//15 144//15
f 15//16 16//16 146//16 145//16
f 16//17 17//17 147//17 146//17
f 17//18 18//18 148//18 147//18
f 18//19 19//19 149//19 148//19
f 19//20 20//20 150//20 149//20
f 20//21 21//21 151//21 150//21
f 21//22 22//22 152//22 151//22
f 22//23 23//23 153//23 152//23
f 23//24 24//24 154//24 153//24
f 24//25 25//25 155//25 154//25
f 25//26 26//26 156//26 155//26
f 26//27 27//27 157//27 156//27
f 27//28 28//28 158//28 157//28
f 28//29 29//29 159//29 158//29
f 29//30 30//30 160//30 159//30
f 30//31 31//31 161//31 160//31
f 31//32 32//32 162//32 161//32
f 32//33 33//33 163//33 162//33
f 33//34 34//34 164//34 163//34
f 34//35 35//35 165//35 164//35
f 35//36 36//36 166//36 165//36
f 36//37 37//37 167//37 166//37
f 37//38 38//38 168//38 167//38
f 38//39 39//39 169//39 168//39
f 39//40 40//40 170//40 169//40
f 40//41 41//41 171//41 170//41
f 41//42 42//42 172//42 171//42
f 42//43 43//43 173//43 172//43
f 43//44 44//44 174//44 173//44
f 44//45 45//45 175//45 174//45
f 45//46 46//46 176//46 175//46
f 46//47 47//47 177//47 176//47
f 47//48 48//48 178//48 177//48
f 48//49 49//49 179//49 178//49
f 49//50 50//50 180//50 179//50
f 50//51 51//51 181//51 180//51
f 51//52 52//52 182//52 181//52
f 52//53 53//53 183//53 182//53
f 53//54 54//54 184//54 183//54
f 54//55 55//55 185//55 184//55
f 55//56 56//56 186//56 185//56
f 56//57 57//57 187//57 186//57
f 57//58 58//58 188//58 187//58
f 58//59 59//59 189//59 188//59
f 59//60 60//60 190//60 189//60
f 60//61 61//61 191//61 190//61
f 61//62 62//62 192//62 191//62
f 62//26 63//26 193//26 192//26
f 63//63 64//63 194//63 193//63
f 64//64 65//64 195//64 194//64
f 65//65 66//65 196//65 195//65
f 66//66 67//66 197//66 196//66
f 67//67 68//67 198//67 197//67
f 68//68 69//68 199//68 198//68
f 69//69 70//69 200//69 199//69
f 70//34 71//34 201//34 200//34
f 71//70 72//70 202//70 201//70
f 72//71 73//71 203//71 202//71
f 73//72 74//72 204//72 203//72
f 74//73 75//73 205//73 204//73
f 75//74 76//74 206//74 205//74
f 76//75 77//75 207//75 206//75
f 77//76 78//76 208//76 207//76
f 78//77 79//77 209//77 208//77
f 79//78 80//78 210//78 209//78
f 80//79 81//79 211//79 210//79
f 81//80 82//80 212//80 211//80
f 82//81 83//81 213//81 212//81
f 83//82 84//82 214//82 213//82
f 84//83 85//83 215//83 214//83
f 85//84 86//84 216//84 215//84
f 86//85 87//85 217//85 216//85
f 87//86 88//86 218//86 217//86
f 88//87 89//87 219//87 218//87
f 89//88 90//88 220//88 219//88
f 90//89 91//89 221//89 220//89
f 91//90 92//90 222//90 221//90
f 92//91 93//91 223//91 222//91
f 93//92 94//92 224//92 223//92
f 94//93 95//93 225//93 224//93
f 95//94 96//94 226//94 225//94
f 96//95 97//95 227//95 226//95
f 97//96 98//96 228//96 227//96
f 98//97 99//97 229//97 228//97
f 99//98 100//98 230//98 229//98
f 100//99 101//99 231//99 230//99
f 101//100 102//100 232//100 231//100
f 102//101 103//101 233//101 232//101
f 103//102 104//102 234//102 233//102
f 104//103 105//103 235//103 234//103
f 105//3 106//3 236//3 235//3
f 106//104 107//104 237//104 236//104
f 107//105 108//105 238//105 237//105
f 108//106 109//106 239//106 238//106
f 109//107 110//107 240//107 239//107
f 110//108 111//108 241//108 240//108
f 111//109 112//109 242//109 241//109
f 112//110 113//110 243//110 242//110
f 113//111 114//111 244//111 243//111
f 114//112 115//112 245//112 244//112
f 115//113 116//113 246//113 245//113
f 116//114 117//114 247//114 246//114
f 117//115 118//115 248//115 247//115
f 118//116 119//116 249//116 248//116
f 119//117 120//117 250//117 249//117
f 120//118 121//118 251//118 250//118
f 121//119 122//119 252//119 251//119
f 122//120 123//120 253//120 252//120
f 123//121 124//121 254//121 253//121
f 124//122 125//122 255//122 254//122
f 125//123 126//123 256//123 255//123
f 126//124 127//124 257//124 256//124
f 127//125 128//125 258//125 257//125
f 128//126 129//126 259//126 258//126
f 129//127 130//127 260//127 259//127
f 130//128 131//128 261//128 260//128
f 131//129 2//129 262//129 261//129
f 2//130 1//130 132//130 262//130
# 133 faces

