# created with CityEngine 2019.0.5403 0409R (based on Esri Procedural Runtime 2.0.5403, build date: Tue 04/09/2019 10:26 AM)
# creation date: Tue Mar 29 18:57:58 2022

mtllib 20220329_UF_Border.mtl

# mesh 'mesh_CityEngineMaterial_5' from geometry 'mesh_CityEngineMaterial_5'
v -691208.497 0.000 1187297.927
v -691208.423 0.000 1187297.747
v -691208.793 0.000 1187297.595
v -691208.867 0.000 1187297.775
v -691208.051 0.000 1187296.836
v -691208.424 0.000 1187296.690
v -691207.595 0.000 1187295.609
v -691207.972 0.000 1187295.476
v -691207.216 0.000 1187294.480
v -691207.595 0.000 1187294.353
v -691207.179 0.000 1187294.370
v -691207.560 0.000 1187294.248
v -691206.802 0.000 1187293.118
v -691207.187 0.000 1187293.009
v -691206.466 0.000 1187291.856
v -691206.854 0.000 1187291.759
v -691206.171 0.000 1187290.586
v -691206.562 0.000 1187290.502
v -691205.917 0.000 1187289.314
v -691206.197 0.000 1187289.259
v -691206.310 0.000 1187289.238
v -691205.916 0.000 1187289.309
v -691205.905 0.000 1187289.241
v -691206.300 0.000 1187289.176
v -691205.804 0.000 1187288.632
v -691206.199 0.000 1187288.567
v -691205.704 0.000 1187288.027
v -691206.100 0.000 1187287.968
v -691205.533 0.000 1187286.741
v -691205.931 0.000 1187286.695
v -691205.405 0.000 1187285.454
v -691205.803 0.000 1187285.421
v -691205.318 0.000 1187284.167
v -691205.718 0.000 1187284.147
v -691205.264 0.000 1187282.490
v -691205.665 0.000 1187282.495
v -691205.290 0.000 1187282.029
v -691205.689 0.000 1187282.052
v -691205.357 0.000 1187280.824
v -691205.756 0.000 1187280.864
v -691205.597 0.000 1187279.190
v -691205.990 0.000 1187279.267
v -691205.981 0.000 1187277.605
v -691206.365 0.000 1187277.718
v -691206.012 0.000 1187277.516
v -691206.390 0.000 1187277.646
v -691206.505 0.000 1187276.083
v -691206.877 0.000 1187276.232
v -691207.166 0.000 1187274.639
v -691207.521 0.000 1187274.823
v -691207.955 0.000 1187273.285
v -691208.290 0.000 1187273.505
v -691208.867 0.000 1187272.036
v -691209.178 0.000 1187272.288
v -691209.892 0.000 1187270.901
v -691210.175 0.000 1187271.185
v -691211.021 0.000 1187269.893
v -691211.272 0.000 1187270.206
v -691211.202 0.000 1187269.764
v -691211.435 0.000 1187270.089
v -691212.244 0.000 1187269.020
v -691212.459 0.000 1187269.359
v -691213.563 0.000 1187268.283
v -691213.709 0.000 1187268.660
v -691215.036 0.000 1187267.943
v -691215.104 0.000 1187268.337
v -691216.528 0.000 1187267.768
v -691216.553 0.000 1187268.168
v -691218.042 0.000 1187267.757
v -691218.023 0.000 1187268.157
v -691219.563 0.000 1187267.908
v -691219.503 0.000 1187268.304
v -691221.078 0.000 1187268.221
v -691220.977 0.000 1187268.609
v -691222.572 0.000 1187268.694
v -691222.433 0.000 1187269.069
v -691224.032 0.000 1187269.320
v -691223.856 0.000 1187269.680
v -691225.443 0.000 1187270.095
v -691225.234 0.000 1187270.437
v -691226.792 0.000 1187271.012
v -691226.552 0.000 1187271.332
v -691228.067 0.000 1187272.061
v -691227.799 0.000 1187272.358
v -691228.926 0.000 1187272.908
v -691228.645 0.000 1187273.193
v -691229.255 0.000 1187273.233
v -691228.962 0.000 1187273.505
v -691230.136 0.000 1187274.269
v -691229.831 0.000 1187274.528
v -691230.341 0.000 1187274.511
v -691230.032 0.000 1187274.764
v -691231.142 0.000 1187275.522
v -691230.824 0.000 1187275.765
v -691231.911 0.000 1187276.562
v -691231.586 0.000 1187276.795
v -691232.649 0.000 1187277.629
v -691232.316 0.000 1187277.851
v -691233.315 0.000 1187278.664
v -691232.979 0.000 1187278.881
v -691233.352 0.000 1187278.722
v -691233.012 0.000 1187278.933
v -691234.022 0.000 1187279.839
v -691233.676 0.000 1187280.039
v -691234.656 0.000 1187280.978
v -691234.304 0.000 1187281.167
v -691235.255 0.000 1187282.138
v -691234.896 0.000 1187282.316
v -691235.642 0.000 1187282.953
v -691235.281 0.000 1187283.125
v -691235.804 0.000 1187283.291
v -691235.443 0.000 1187283.463
v -691235.817 0.000 1187283.319
v -691235.453 0.000 1187283.485
v -691236.341 0.000 1187284.517
v -691235.972 0.000 1187284.671
v -691236.825 0.000 1187285.727
v -691236.451 0.000 1187285.869
v -691237.230 0.000 1187286.839
v -691236.854 0.000 1187286.976
v -691237.242 0.000 1187286.873
v -691236.866 0.000 1187287.010
v -691237.274 0.000 1187286.961
v -691236.896 0.000 1187287.091
v -691237.360 0.000 1187287.221
v -691236.980 0.000 1187287.346
v -691237.679 0.000 1187288.196
v -691237.496 0.000 1187288.258
v -691237.239 0.000 1187288.136
v -691237.741 0.000 1187288.371
v -691233.612 0.000 1187289.964
v -691233.095 0.000 1187289.735
v -691234.799 0.000 1187293.040
v -691234.418 0.000 1187293.162
v -691235.136 0.000 1187294.340
v -691234.744 0.000 1187294.424
v -691235.534 0.000 1187296.687
v -691235.137 0.000 1187296.737
v -691235.727 0.000 1187299.043
v -691235.327 0.000 1187299.059
v -691235.715 0.000 1187301.388
v -691235.315 0.000 1187301.368
v -691235.496 0.000 1187303.700
v -691235.100 0.000 1187303.644
v -691235.267 0.000 1187304.922
v -691234.874 0.000 1187304.848
v -691235.074 0.000 1187305.955
v -691234.684 0.000 1187305.864
v -691234.448 0.000 1187308.144
v -691234.073 0.000 1187308.000
v -691234.006 0.000 1187309.043
v -691233.659 0.000 1187308.843
v -691233.466 0.000 1187309.858
v -691233.148 0.000 1187309.615
v -691232.834 0.000 1187310.584
v -691232.550 0.000 1187310.301
v -691232.118 0.000 1187311.209
v -691231.876 0.000 1187310.890
v -691231.330 0.000 1187311.725
v -691231.134 0.000 1187311.375
v -691230.481 0.000 1187312.124
v -691230.337 0.000 1187311.750
v -691229.585 0.000 1187312.399
v -691229.494 0.000 1187312.008
v -691228.654 0.000 1187312.546
v -691228.619 0.000 1187312.147
v -691227.704 0.000 1187312.563
v -691227.724 0.000 1187312.163
v -691226.747 0.000 1187312.451
v -691226.821 0.000 1187312.056
v -691225.800 0.000 1187312.209
v -691225.923 0.000 1187311.828
v -691224.869 0.000 1187311.841
v -691225.050 0.000 1187311.482
v -691222.935 0.000 1187310.639
v -691223.162 0.000 1187310.309
v -691221.107 0.000 1187309.252
v -691221.363 0.000 1187308.945
v -691219.393 0.000 1187307.687
v -691219.675 0.000 1187307.404
v -691217.808 0.000 1187305.958
v -691218.115 0.000 1187305.701
v -691216.368 0.000 1187304.082
v -691216.696 0.000 1187303.852
v -691215.087 0.000 1187302.077
v -691215.433 0.000 1187301.876
v -691214.463 0.000 1187300.887
v -691214.827 0.000 1187300.722
v -691213.276 0.000 1187297.812
v -691213.505 0.000 1187297.295
v -691209.151 0.000 1187299.404
v -691209.361 0.000 1187298.894
v -691208.657 0.000 1187298.297
v -691209.023 0.000 1187298.134
v -691208.546 0.000 1187298.047
v -691208.913 0.000 1187297.889
# 196 vertices

vn 0.000 1.000 0.000
# 1 vertex normal

g CityEngineMaterial
s off
usemtl CityEngineMaterial
f 1//1 2//1 3//1 4//1
f 2//1 5//1 6//1 3//1
f 5//1 7//1 8//1 6//1
f 7//1 9//1 10//1 8//1
f 9//1 11//1 12//1 10//1
f 11//1 13//1 14//1 12//1
f 13//1 15//1 16//1 14//1
f 15//1 17//1 18//1 16//1
f 17//1 19//1 20//1 21//1 18//1
f 19//1 22//1 20//1
f 22//1 23//1 24//1 21//1 20//1
f 23//1 25//1 26//1 24//1
f 25//1 27//1 28//1 26//1
f 27//1 29//1 30//1 28//1
f 29//1 31//1 32//1 30//1
f 31//1 33//1 34//1 32//1
f 33//1 35//1 36//1 34//1
f 35//1 37//1 38//1 36//1
f 37//1 39//1 40//1 38//1
f 39//1 41//1 42//1 40//1
f 41//1 43//1 44//1 42//1
f 43//1 45//1 46//1 44//1
f 45//1 47//1 48//1 46//1
f 47//1 49//1 50//1 48//1
f 49//1 51//1 52//1 50//1
f 51//1 53//1 54//1 52//1
f 53//1 55//1 56//1 54//1
f 55//1 57//1 58//1 56//1
f 57//1 59//1 60//1 58//1
f 59//1 61//1 62//1 60//1
f 61//1 63//1 64//1 62//1
f 63//1 65//1 66//1 64//1
f 65//1 67//1 68//1 66//1
f 67//1 69//1 70//1 68//1
f 69//1 71//1 72//1 70//1
f 71//1 73//1 74//1 72//1
f 73//1 75//1 76//1 74//1
f 75//1 77//1 78//1 76//1
f 77//1 79//1 80//1 78//1
f 79//1 81//1 82//1 80//1
f 81//1 83//1 84//1 82//1
f 83//1 85//1 86//1 84//1
f 85//1 87//1 88//1 86//1
f 87//1 89//1 90//1 88//1
f 89//1 91//1 92//1 90//1
f 91//1 93//1 94//1 92//1
f 93//1 95//1 96//1 94//1
f 95//1 97//1 98//1 96//1
f 97//1 99//1 100//1 98//1
f 99//1 101//1 102//1 100//1
f 101//1 103//1 104//1 102//1
f 103//1 105//1 106//1 104//1
f 105//1 107//1 108//1 106//1
f 107//1 109//1 110//1 108//1
f 109//1 111//1 112//1 110//1
f 111//1 113//1 114//1 112//1
f 113//1 115//1 116//1 114//1
f 115//1 117//1 118//1 116//1
f 117//1 119//1 120//1 118//1
f 119//1 121//1 122//1 120//1
f 121//1 123//1 124//1 122//1
f 123//1 125//1 126//1 124//1
f 125//1 127//1 128//1 129//1 126//1
f 127//1 130//1 128//1
f 130//1 131//1 132//1 129//1 128//1
f 131//1 133//1 134//1 132//1
f 133//1 135//1 136//1 134//1
f 135//1 137//1 138//1 136//1
f 137//1 139//1 140//1 138//1
f 139//1 141//1 142//1 140//1
f 141//1 143//1 144//1 142//1
f 143//1 145//1 146//1 144//1
f 145//1 147//1 148//1 146//1
f 147//1 149//1 150//1 148//1
f 149//1 151//1 152//1 150//1
f 151//1 153//1 154//1 152//1
f 153//1 155//1 156//1 154//1
f 155//1 157//1 158//1 156//1
f 157//1 159//1 160//1 158//1
f 159//1 161//1 162//1 160//1
f 161//1 163//1 164//1 162//1
f 163//1 165//1 166//1 164//1
f 165//1 167//1 168//1 166//1
f 167//1 169//1 170//1 168//1
f 169//1 171//1 172//1 170//1
f 171//1 173//1 174//1 172//1
f 173//1 175//1 176//1 174//1
f 175//1 177//1 178//1 176//1
f 177//1 179//1 180//1 178//1
f 179//1 181//1 182//1 180//1
f 181//1 183//1 184//1 182//1
f 183//1 185//1 186//1 184//1
f 185//1 187//1 188//1 186//1
f 187//1 189//1 190//1 188//1
f 189//1 191//1 192//1 190//1
f 191//1 193//1 194//1 192//1
f 193//1 195//1 196//1 194//1
f 195//1 1//1 4//1 196//1
# 98 faces

