# created with CityEngine 2019.0.5403 0409R (based on Esri Procedural Runtime 2.0.5403, build date: Tue 04/09/2019 10:26 AM)
# creation date: Tue Mar 29 18:57:59 2022

mtllib 20220329_UF_Border.mtl

# mesh 'mesh_CityEngineMaterial_26' from geometry 'mesh_CityEngineMaterial_26'
v -691188.497 0.000 1187283.252
v -691188.492 0.000 1187283.248
v -691188.501 0.000 1187283.247
v -691188.919 0.000 1187282.601
v -691189.253 0.000 1187282.822
v -691189.046 0.000 1187283.135
v -691192.573 0.000 1187277.073
v -691192.907 0.000 1187277.294
v -691202.204 0.000 1187262.500
v -691202.317 0.000 1187263.055
v -691254.513 0.000 1187297.072
v -691253.959 0.000 1187297.185
v -691240.801 0.000 1187317.820
v -691240.688 0.000 1187317.265
# 14 vertices

vn 0.000 1.000 0.000
# 1 vertex normal

g CityEngineMaterial
s off
usemtl CityEngineMaterial
f 1//1 2//1 3//1
f 2//1 4//1 5//1 6//1 3//1
f 4//1 7//1 8//1 5//1
f 7//1 9//1 10//1 8//1
f 9//1 11//1 12//1 10//1
f 11//1 13//1 14//1 12//1
f 13//1 1//1 3//1 6//1 14//1
# 7 faces

