# created with CityEngine 2019.0.5403 0409R (based on Esri Procedural Runtime 2.0.5403, build date: Tue 04/09/2019 10:26 AM)
# creation date: Tue Mar 29 18:57:18 2022

mtllib 20220329_UF_Base.mtl

# mesh 'mesh_CityEngineMaterial_16' from geometry 'mesh_CityEngineMaterial_16'
v -691216.814 0.000 1187316.229
v -691220.533 0.000 1187316.184
v -691215.006 0.000 1187315.957
v -691213.230 0.000 1187315.489
v -691211.470 0.000 1187314.808
v -691205.524 0.000 1187312.150
v -691189.666 0.000 1187305.061
v -691188.234 0.000 1187304.226
v -691186.931 0.000 1187303.040
v -691186.038 0.000 1187301.821
v -691185.872 0.000 1187301.594
v -691185.090 0.000 1187299.942
v -691184.612 0.000 1187298.188
v -691184.434 0.000 1187296.266
v -691184.572 0.000 1187294.361
v -691185.015 0.000 1187292.495
v -691185.750 0.000 1187290.729
v -691186.725 0.000 1187289.153
v -691187.989 0.000 1187287.728
v -691188.452 0.000 1187287.384
v -691188.459 0.000 1187287.380
v -691190.105 0.000 1187286.160
v -691211.893 0.000 1187272.017
v -691216.495 0.000 1187269.031
v -691219.675 0.000 1187267.213
v -691223.006 0.000 1187265.789
v -691227.304 0.000 1187264.559
v -691230.791 0.000 1187264.101
v -691233.408 0.000 1187264.091
v -691235.142 0.000 1187264.197
v -691236.916 0.000 1187264.423
v -691239.593 0.000 1187264.849
v -691249.950 0.000 1187266.497
v -691250.801 0.000 1187266.730
v -691251.865 0.000 1187267.021
v -691253.695 0.000 1187267.985
v -691255.333 0.000 1187269.356
v -691256.648 0.000 1187271.012
v -691257.617 0.000 1187272.879
v -691257.624 0.000 1187272.904
v -691258.289 0.000 1187275.074
v -691258.571 0.000 1187277.328
v -691258.477 0.000 1187279.628
v -691258.010 0.000 1187281.897
v -691257.188 0.000 1187284.058
v -691256.035 0.000 1187286.041
v -691254.633 0.000 1187287.725
v -691250.758 0.000 1187291.634
v -691232.404 0.000 1187310.153
v -691230.911 0.000 1187311.533
v -691229.343 0.000 1187312.741
v -691227.690 0.000 1187313.789
v -691225.966 0.000 1187314.664
v -691224.187 0.000 1187315.360
v -691222.367 0.000 1187315.869
v -691216.814 0.400 1187316.229
v -691215.006 0.400 1187315.957
v -691213.230 0.400 1187315.489
v -691211.470 0.400 1187314.808
v -691205.524 0.400 1187312.150
v -691189.666 0.400 1187305.061
v -691188.234 0.400 1187304.226
v -691186.931 0.400 1187303.040
v -691186.038 0.400 1187301.821
v -691185.872 0.400 1187301.594
v -691185.090 0.400 1187299.942
v -691184.612 0.400 1187298.188
v -691184.434 0.400 1187296.266
v -691184.572 0.400 1187294.361
v -691185.015 0.400 1187292.495
v -691185.750 0.400 1187290.729
v -691186.725 0.400 1187289.153
v -691187.989 0.400 1187287.728
v -691188.452 0.400 1187287.384
v -691188.459 0.400 1187287.380
v -691190.105 0.400 1187286.160
v -691211.893 0.400 1187272.017
v -691216.495 0.400 1187269.031
v -691219.675 0.400 1187267.213
v -691223.006 0.400 1187265.789
v -691227.304 0.400 1187264.559
v -691230.791 0.400 1187264.101
v -691233.408 0.400 1187264.091
v -691235.142 0.400 1187264.197
v -691236.916 0.400 1187264.423
v -691239.593 0.400 1187264.849
v -691249.950 0.400 1187266.497
v -691250.801 0.400 1187266.730
v -691251.865 0.400 1187267.021
v -691253.695 0.400 1187267.985
v -691255.333 0.400 1187269.356
v -691256.648 0.400 1187271.012
v -691257.617 0.400 1187272.879
v -691257.624 0.400 1187272.904
v -691258.289 0.400 1187275.074
v -691258.571 0.400 1187277.328
v -691258.477 0.400 1187279.628
v -691258.010 0.400 1187281.897
v -691257.188 0.400 1187284.058
v -691256.035 0.400 1187286.041
v -691254.633 0.400 1187287.725
v -691250.758 0.400 1187291.634
v -691232.404 0.400 1187310.153
v -691230.911 0.400 1187311.533
v -691229.343 0.400 1187312.741
v -691227.690 0.400 1187313.789
v -691225.966 0.400 1187314.664
v -691224.187 0.400 1187315.360
v -691222.367 0.400 1187315.869
v -691220.533 0.400 1187316.184
# 110 vertices

vn 0.000 -1.000 0.000
vn 0.000 1.000 0.000
vn 0.149 0.000 0.989
vn 0.255 0.000 0.967
vn 0.361 0.000 0.933
vn 0.408 0.000 0.913
vn 0.504 0.000 0.864
vn 0.673 0.000 0.740
vn 0.807 0.000 0.591
vn 0.904 0.000 0.428
vn 0.965 0.000 0.263
vn 0.996 0.000 0.092
vn 0.997 0.000 -0.072
vn 0.973 0.000 -0.231
vn 0.923 0.000 -0.384
vn 0.850 0.000 -0.526
vn 0.748 0.000 -0.664
vn 0.595 0.000 -0.804
vn 0.584 0.000 -0.812
vn 0.544 0.000 -0.839
vn 0.496 0.000 -0.868
vn 0.393 0.000 -0.919
vn 0.275 0.000 -0.961
vn 0.130 0.000 -0.991
vn 0.004 0.000 -1.000
vn -0.061 0.000 -0.998
vn -0.126 0.000 -0.992
vn -0.157 0.000 -0.988
vn -0.264 0.000 -0.965
vn -0.466 0.000 -0.885
vn -0.642 0.000 -0.767
vn -0.783 0.000 -0.622
vn -0.888 0.000 -0.461
vn -0.956 0.000 -0.292
vn -0.956 0.000 -0.293
vn -0.992 0.000 -0.124
vn -0.999 0.000 0.041
vn -0.979 0.000 0.201
vn -0.935 0.000 0.356
vn -0.865 0.000 0.503
vn -0.769 0.000 0.640
vn -0.710 0.000 0.704
vn -0.679 0.000 0.734
vn -0.610 0.000 0.792
vn -0.535 0.000 0.845
vn -0.453 0.000 0.892
vn -0.364 0.000 0.931
vn -0.269 0.000 0.963
vn -0.169 0.000 0.986
vn -0.012 0.000 1.000
# 50 vertex normals

g CityEngineMaterial
s off
usemtl CityEngineMaterial
f 3//1 1//1 2//1 55//1 54//1 53//1 52//1 51//1 50//1 49//1 48//1 47//1 46//1 45//1 44//1 43//1 42//1 41//1 40//1 39//1 38//1 37//1 36//1 35//1 34//1 33//1 32//1 31//1 30//1 29//1 28//1 27//1 26//1 25//1 24//1 23//1 22//1 21//1 20//1 19//1 18//1 17//1 16//1 15//1 14//1 13//1 12//1 11//1 10//1 9//1 8//1 7//1 6//1 5//1 4//1
f 56//2 57//2 58//2 59//2 60//2 61//2 62//2 63//2 64//2 65//2 66//2 67//2 68//2 69//2 70//2 71//2 72//2 73//2 74//2 75//2 76//2 77//2 78//2 79//2 80//2 81//2 82//2 83//2 84//2 85//2 86//2 87//2 88//2 89//2 90//2 91//2 92//2 93//2 94//2 95//2 96//2 97//2 98//2 99//2 100//2 101//2 102//2 103//2 104//2 105//2 106//2 107//2 108//2 109//2 110//2
f 1//3 3//3 57//3 56//3
f 3//4 4//4 58//4 57//4
f 4//5 5//5 59//5 58//5
f 5//6 6//6 60//6 59//6
f 6//6 7//6 61//6 60//6
f 7//7 8//7 62//7 61//7
f 8//8 9//8 63//8 62//8
f 9//9 10//9 64//9 63//9
f 10//9 11//9 65//9 64//9
f 11//10 12//10 66//10 65//10
f 12//11 13//11 67//11 66//11
f 13//12 14//12 68//12 67//12
f 14//13 15//13 69//13 68//13
f 15//14 16//14 70//14 69//14
f 16//15 17//15 71//15 70//15
f 17//16 18//16 72//16 71//16
f 18//17 19//17 73//17 72//17
f 19//18 20//18 74//18 73//18
f 20//19 21//19 75//19 74//19
f 21//18 22//18 76//18 75//18
f 22//20 23//20 77//20 76//20
f 23//20 24//20 78//20 77//20
f 24//21 25//21 79//21 78//21
f 25//22 26//22 80//22 79//22
f 26//23 27//23 81//23 80//23
f 27//24 28//24 82//24 81//24
f 28//25 29//25 83//25 82//25
f 29//26 30//26 84//26 83//26
f 30//27 31//27 85//27 84//27
f 31//28 32//28 86//28 85//28
f 32//28 33//28 87//28 86//28
f 33//29 34//29 88//29 87//29
f 34//29 35//29 89//29 88//29
f 35//30 36//30 90//30 89//30
f 36//31 37//31 91//31 90//31
f 37//32 38//32 92//32 91//32
f 38//33 39//33 93//33 92//33
f 39//34 40//34 94//34 93//34
f 40//35 41//35 95//35 94//35
f 41//36 42//36 96//36 95//36
f 42//37 43//37 97//37 96//37
f 43//38 44//38 98//38 97//38
f 44//39 45//39 99//39 98//39
f 45//40 46//40 100//40 99//40
f 46//41 47//41 101//41 100//41
f 47//42 48//42 102//42 101//42
f 48//42 49//42 103//42 102//42
f 49//43 50//43 104//43 103//43
f 50//44 51//44 105//44 104//44
f 51//45 52//45 106//45 105//45
f 52//46 53//46 107//46 106//46
f 53//47 54//47 108//47 107//47
f 54//48 55//48 109//48 108//48
f 55//49 2//49 110//49 109//49
f 2//50 1//50 56//50 110//50
# 57 faces

