# created with CityEngine 2019.0.5403 0409R (based on Esri Procedural Runtime 2.0.5403, build date: Tue 04/09/2019 10:26 AM)
# creation date: Tue Mar 29 19:00:08 2022

mtllib 20220329_GF_Base.mtl

# mesh 'mesh_CityEngineMaterial_28' from geometry 'mesh_CityEngineMaterial_28'
v -691332.940 0.000 1187281.410
v -691278.727 0.000 1187240.293
v -691333.505 0.000 1187281.893
v -691333.982 0.000 1187282.414
v -691334.351 0.000 1187282.946
v -691334.591 0.000 1187283.447
v -691334.694 0.000 1187283.874
v -691334.676 0.000 1187284.185
v -691334.387 0.000 1187284.769
v -691340.714 0.000 1187288.784
v -691352.270 0.000 1187295.407
v -691327.565 0.000 1187328.323
v -691315.414 0.000 1187319.452
v -691303.345 0.000 1187309.732
v -691291.783 0.000 1187299.475
v -691291.693 0.000 1187299.387
v -691280.259 0.000 1187289.911
v -691277.983 0.000 1187290.105
v -691277.828 0.000 1187290.110
v -691277.668 0.000 1187290.099
v -691277.493 0.000 1187290.072
v -691277.304 0.000 1187290.027
v -691277.105 0.000 1187289.966
v -691276.898 0.000 1187289.887
v -691276.686 0.000 1187289.792
v -691276.470 0.000 1187289.681
v -691276.254 0.000 1187289.555
v -691276.039 0.000 1187289.416
v -691275.832 0.000 1187289.266
v -691270.895 0.000 1187285.184
v -691270.277 0.000 1187284.986
v -691251.841 0.000 1187269.660
v -691251.372 0.000 1187269.006
v -691229.647 0.000 1187251.002
v -691229.540 0.000 1187251.005
v -691194.894 0.000 1187222.345
v -691192.700 0.000 1187217.324
v -691191.653 0.000 1187216.342
v -691192.073 0.000 1187215.889
v -691188.152 0.000 1187206.914
v -691177.686 0.000 1187198.241
v -691176.337 0.000 1187199.869
v -691172.851 0.000 1187196.979
v -691171.447 0.000 1187196.597
v -691169.325 0.000 1187195.521
v -691168.888 0.000 1187195.154
v -691167.817 0.000 1187196.716
v -691154.971 0.000 1187187.840
v -691142.690 0.000 1187178.455
v -691130.839 0.000 1187168.471
v -691119.805 0.000 1187158.244
v -691147.381 0.000 1187127.693
v -691156.094 0.000 1187137.768
v -691166.124 0.000 1187148.358
v -691176.600 0.000 1187158.461
v -691187.477 0.000 1187168.035
v -691187.016 0.000 1187168.707
v -691203.929 0.000 1187182.138
v -691209.240 0.000 1187183.359
v -691209.378 0.000 1187183.401
v -691209.525 0.000 1187183.452
v -691209.675 0.000 1187183.512
v -691209.827 0.000 1187183.579
v -691209.981 0.000 1187183.654
v -691210.136 0.000 1187183.736
v -691210.291 0.000 1187183.826
v -691210.446 0.000 1187183.922
v -691210.600 0.000 1187184.024
v -691210.749 0.000 1187184.130
v -691234.829 0.000 1187202.990
v -691235.345 0.000 1187203.442
v -691235.784 0.000 1187203.925
v -691236.132 0.000 1187204.417
v -691236.379 0.000 1187204.906
v -691238.032 0.000 1187209.024
v -691278.687 0.000 1187240.259
v -691278.735 0.000 1187240.278
v -691332.940 0.400 1187281.410
v -691333.505 0.400 1187281.893
v -691333.982 0.400 1187282.414
v -691334.351 0.400 1187282.946
v -691334.591 0.400 1187283.447
v -691334.694 0.400 1187283.874
v -691334.676 0.400 1187284.185
v -691334.387 0.400 1187284.769
v -691340.714 0.400 1187288.784
v -691352.270 0.400 1187295.407
v -691327.565 0.400 1187328.323
v -691315.414 0.400 1187319.452
v -691303.345 0.400 1187309.732
v -691291.783 0.400 1187299.475
v -691291.693 0.400 1187299.387
v -691280.259 0.400 1187289.911
v -691277.983 0.400 1187290.105
v -691277.828 0.400 1187290.110
v -691277.668 0.400 1187290.099
v -691277.493 0.400 1187290.072
v -691277.304 0.400 1187290.027
v -691277.105 0.400 1187289.966
v -691276.898 0.400 1187289.887
v -691276.686 0.400 1187289.792
v -691276.470 0.400 1187289.681
v -691276.254 0.400 1187289.555
v -691276.039 0.400 1187289.416
v -691275.832 0.400 1187289.266
v -691270.895 0.400 1187285.184
v -691270.277 0.400 1187284.986
v -691251.841 0.400 1187269.660
v -691251.372 0.400 1187269.006
v -691229.647 0.400 1187251.002
v -691229.540 0.400 1187251.005
v -691194.894 0.400 1187222.345
v -691192.700 0.400 1187217.324
v -691191.653 0.400 1187216.342
v -691192.073 0.400 1187215.889
v -691188.152 0.400 1187206.914
v -691177.686 0.400 1187198.241
v -691176.337 0.400 1187199.869
v -691172.851 0.400 1187196.979
v -691171.447 0.400 1187196.597
v -691169.325 0.400 1187195.521
v -691168.888 0.400 1187195.154
v -691167.817 0.400 1187196.716
v -691154.971 0.400 1187187.840
v -691142.690 0.400 1187178.455
v -691130.839 0.400 1187168.471
v -691119.805 0.400 1187158.244
v -691147.381 0.400 1187127.693
v -691156.094 0.400 1187137.768
v -691166.124 0.400 1187148.358
v -691176.600 0.400 1187158.461
v -691187.477 0.400 1187168.035
v -691187.016 0.400 1187168.707
v -691203.929 0.400 1187182.138
v -691209.240 0.400 1187183.359
v -691209.378 0.400 1187183.401
v -691209.525 0.400 1187183.452
v -691209.675 0.400 1187183.512
v -691209.827 0.400 1187183.579
v -691209.981 0.400 1187183.654
v -691210.136 0.400 1187183.736
v -691210.291 0.400 1187183.826
v -691210.446 0.400 1187183.922
v -691210.600 0.400 1187184.024
v -691210.749 0.400 1187184.130
v -691234.829 0.400 1187202.990
v -691235.345 0.400 1187203.442
v -691235.784 0.400 1187203.925
v -691236.132 0.400 1187204.417
v -691236.379 0.400 1187204.906
v -691238.032 0.400 1187209.024
v -691278.687 0.400 1187240.259
v -691278.735 0.400 1187240.278
v -691278.727 0.400 1187240.293
# 154 vertices

vn 0.000 -1.000 0.000
vn 0.000 1.000 0.000
vn -0.650 0.000 -0.760
vn -0.738 0.000 -0.675
vn -0.821 0.000 -0.571
vn -0.902 0.000 -0.432
vn -0.972 0.000 -0.234
vn -0.998 0.000 0.057
vn -0.896 0.000 0.444
vn -0.536 0.000 -0.844
vn -0.497 0.000 -0.868
vn -0.800 0.000 0.600
vn 0.590 0.000 0.808
vn 0.627 0.000 0.779
vn 0.664 0.000 0.748
vn 0.698 0.000 0.716
vn 0.638 0.000 0.770
vn -0.085 0.000 0.996
vn -0.030 0.000 1.000
vn 0.068 0.000 0.998
vn 0.154 0.000 0.988
vn 0.229 0.000 0.973
vn 0.296 0.000 0.955
vn 0.356 0.000 0.935
vn 0.409 0.000 0.913
vn 0.458 0.000 0.889
vn 0.502 0.000 0.865
vn 0.544 0.000 0.839
vn 0.583 0.000 0.812
vn 0.637 0.000 0.771
vn 0.305 0.000 0.952
vn 0.639 0.000 0.769
vn 0.813 0.000 0.583
vn -0.026 0.000 1.000
vn 0.916 0.000 0.400
vn 0.684 0.000 0.730
vn 0.734 0.000 -0.679
vn -0.770 0.000 0.638
vn 0.263 0.000 0.965
vn 0.452 0.000 0.892
vn 0.643 0.000 0.766
vn -0.825 0.000 0.565
vn 0.568 0.000 0.823
vn 0.607 0.000 0.795
vn 0.644 0.000 0.765
vn 0.680 0.000 0.733
vn 0.742 0.000 -0.670
vn -0.756 0.000 -0.654
vn -0.726 0.000 -0.688
vn -0.694 0.000 -0.720
vn -0.661 0.000 -0.751
vn -0.622 0.000 -0.783
vn -0.224 0.000 -0.975
vn -0.291 0.000 -0.957
vn -0.331 0.000 -0.944
vn -0.369 0.000 -0.929
vn -0.405 0.000 -0.915
vn -0.437 0.000 -0.899
vn -0.469 0.000 -0.883
vn -0.498 0.000 -0.867
vn -0.526 0.000 -0.850
vn -0.554 0.000 -0.833
vn -0.579 0.000 -0.815
vn -0.617 0.000 -0.787
vn -0.659 0.000 -0.752
vn -0.740 0.000 -0.673
vn -0.817 0.000 -0.576
vn -0.892 0.000 -0.451
vn -0.928 0.000 -0.373
vn -0.609 0.000 -0.793
vn -0.365 0.000 -0.931
vn -0.878 0.000 0.478
vn -0.604 0.000 -0.797
# 73 vertex normals

g CityEngineMaterial
s off
usemtl CityEngineMaterial
f 3//1 1//1 2//1 77//1 76//1 75//1 74//1 73//1 72//1 71//1 70//1 69//1 68//1 67//1 66//1 65//1 64//1 63//1 62//1 61//1 60//1 59//1 58//1 57//1 56//1 55//1 54//1 53//1 52//1 51//1 50//1 49//1 48//1 47//1 46//1 45//1 44//1 43//1 42//1 41//1 40//1 39//1 38//1 37//1 36//1 35//1 34//1 33//1 32//1 31//1 30//1 29//1 28//1 27//1 26//1 25//1 24//1 23//1 22//1 21//1 20//1 19//1 18//1 17//1 16//1 15//1 14//1 13//1 12//1 11//1 10//1 9//1 8//1 7//1 6//1 5//1 4//1
f 78//2 79//2 80//2 81//2 82//2 83//2 84//2 85//2 86//2 87//2 88//2 89//2 90//2 91//2 92//2 93//2 94//2 95//2 96//2 97//2 98//2 99//2 100//2 101//2 102//2 103//2 104//2 105//2 106//2 107//2 108//2 109//2 110//2 111//2 112//2 113//2 114//2 115//2 116//2 117//2 118//2 119//2 120//2 121//2 122//2 123//2 124//2 125//2 126//2 127//2 128//2 129//2 130//2 131//2 132//2 133//2 134//2 135//2 136//2 137//2 138//2 139//2 140//2 141//2 142//2 143//2 144//2 145//2 146//2 147//2 148//2 149//2 150//2 151//2 152//2 153//2 154//2
f 1//3 3//3 79//3 78//3
f 3//4 4//4 80//4 79//4
f 4//5 5//5 81//5 80//5
f 5//6 6//6 82//6 81//6
f 6//7 7//7 83//7 82//7
f 7//8 8//8 84//8 83//8
f 8//9 9//9 85//9 84//9
f 9//10 10//10 86//10 85//10
f 10//11 11//11 87//11 86//11
f 11//12 12//12 88//12 87//12
f 12//13 13//13 89//13 88//13
f 13//14 14//14 90//14 89//14
f 14//15 15//15 91//15 90//15
f 15//16 16//16 92//16 91//16
f 16//17 17//17 93//17 92//17
f 17//18 18//18 94//18 93//18
f 18//19 19//19 95//19 94//19
f 19//20 20//20 96//20 95//20
f 20//21 21//21 97//21 96//21
f 21//22 22//22 98//22 97//22
f 22//23 23//23 99//23 98//23
f 23//24 24//24 100//24 99//24
f 24//25 25//25 101//25 100//25
f 25//26 26//26 102//26 101//26
f 26//27 27//27 103//27 102//27
f 27//28 28//28 104//28 103//28
f 28//29 29//29 105//29 104//29
f 29//30 30//30 106//30 105//30
f 30//31 31//31 107//31 106//31
f 31//32 32//32 108//32 107//32
f 32//33 33//33 109//33 108//33
f 33//17 34//17 110//17 109//17
f 34//34 35//34 111//34 110//34
f 35//17 36//17 112//17 111//17
f 36//35 37//35 113//35 112//35
f 37//36 38//36 114//36 113//36
f 38//37 39//37 115//37 114//37
f 39//35 40//35 116//35 115//35
f 40//17 41//17 117//17 116//17
f 41//38 42//38 118//38 117//38
f 42//17 43//17 119//17 118//17
f 43//39 44//39 120//39 119//39
f 44//40 45//40 121//40 120//40
f 45//41 46//41 122//41 121//41
f 46//42 47//42 123//42 122//42
f 47//43 48//43 124//43 123//43
f 48//44 49//44 125//44 124//44
f 49//45 50//45 126//45 125//45
f 50//46 51//46 127//46 126//46
f 51//47 52//47 128//47 127//47
f 52//48 53//48 129//48 128//48
f 53//49 54//49 130//49 129//49
f 54//50 55//50 131//50 130//50
f 55//51 56//51 132//51 131//51
f 56//42 57//42 133//42 132//42
f 57//52 58//52 134//52 133//52
f 58//53 59//53 135//53 134//53
f 59//54 60//54 136//54 135//54
f 60//55 61//55 137//55 136//55
f 61//56 62//56 138//56 137//56
f 62//57 63//57 139//57 138//57
f 63//58 64//58 140//58 139//58
f 64//59 65//59 141//59 140//59
f 65//60 66//60 142//60 141//60
f 66//61 67//61 143//61 142//61
f 67//62 68//62 144//62 143//62
f 68//63 69//63 145//63 144//63
f 69//64 70//64 146//64 145//64
f 70//65 71//65 147//65 146//65
f 71//66 72//66 148//66 147//66
f 72//67 73//67 149//67 148//67
f 73//68 74//68 150//68 149//68
f 74//69 75//69 151//69 150//69
f 75//70 76//70 152//70 151//70
f 76//71 77//71 153//71 152//71
f 77//72 2//72 154//72 153//72
f 2//73 1//73 78//73 154//73
# 79 faces

