# created with CityEngine 2019.0.5403 0409R (based on Esri Procedural Runtime 2.0.5403, build date: Tue 04/09/2019 10:26 AM)
# creation date: Tue Apr  5 19:05:29 2022

mtllib 20220405_SGP_GF_Border.mtl

# mesh 'mesh_CityEngineMaterial_30' from geometry 'mesh_CityEngineMaterial_30'
v 22.713 0.000 -31.948
v 20.778 0.000 -33.709
v 20.521 0.000 -33.402
v 22.437 0.000 -31.658
v 18.696 0.000 -35.295
v 18.468 0.000 -34.967
v 16.485 0.000 -36.694
v 16.286 0.000 -36.347
v 14.159 0.000 -37.895
v 13.991 0.000 -37.531
v 11.739 0.000 -38.888
v 11.603 0.000 -38.511
v 9.240 0.000 -39.667
v 9.138 0.000 -39.280
v 6.684 0.000 -40.224
v 6.615 0.000 -39.830
v 4.088 0.000 -40.557
v 4.055 0.000 -40.158
v 1.473 0.000 -40.663
v 1.475 0.000 -40.262
v -1.140 0.000 -40.540
v -1.104 0.000 -40.141
v -3.734 0.000 -40.190
v -3.663 0.000 -39.796
v -6.287 0.000 -39.615
v -6.190 0.000 -39.226
v -39.055 0.000 -30.717
v -38.942 0.000 -30.333
v -39.554 0.000 -30.558
v -39.415 0.000 -30.182
v -40.036 0.000 -30.356
v -39.866 0.000 -29.994
v -40.499 0.000 -30.113
v -40.298 0.000 -29.767
v -40.939 0.000 -29.831
v -40.708 0.000 -29.504
v -41.353 0.000 -29.511
v -41.095 0.000 -29.205
v -41.738 0.000 -29.157
v -41.454 0.000 -28.874
v -42.090 0.000 -28.770
v -41.782 0.000 -28.514
v -42.407 0.000 -28.354
v -42.078 0.000 -28.125
v -42.686 0.000 -27.912
v -42.339 0.000 -27.713
v -42.926 0.000 -27.447
v -42.563 0.000 -27.279
v -43.125 0.000 -26.963
v -42.748 0.000 -26.828
v -43.280 0.000 -26.464
v -42.896 0.000 -26.353
v -59.043 0.000 33.156
v -58.652 0.000 33.242
v -59.221 0.000 34.186
v -58.821 0.000 34.220
v -59.218 0.000 35.231
v -58.818 0.000 35.195
v -59.033 0.000 36.260
v -58.645 0.000 36.155
v -58.672 0.000 37.241
v -58.309 0.000 37.070
v -58.147 0.000 38.144
v -57.818 0.000 37.913
v -57.472 0.000 38.942
v -57.189 0.000 38.657
v -56.669 0.000 39.611
v -56.440 0.000 39.282
v -55.763 0.000 40.131
v -55.594 0.000 39.766
v -54.780 0.000 40.485
v -54.677 0.000 40.097
v -53.750 0.000 40.663
v -53.716 0.000 40.263
v -52.705 0.000 40.659
v -52.741 0.000 40.259
v -51.676 0.000 40.475
v -51.764 0.000 40.084
v -4.102 0.000 27.586
v -4.194 0.000 27.197
v -2.818 0.000 27.326
v -2.889 0.000 26.933
v -1.525 0.000 27.123
v -1.579 0.000 26.726
v -0.224 0.000 26.976
v -0.261 0.000 26.578
v 1.082 0.000 26.886
v 1.063 0.000 26.487
v 2.390 0.000 26.853
v 2.389 0.000 26.453
v 3.699 0.000 26.877
v 3.715 0.000 26.478
v 5.006 0.000 26.959
v 5.040 0.000 26.560
v 6.308 0.000 27.097
v 6.359 0.000 26.700
v 7.602 0.000 27.292
v 7.671 0.000 26.897
v 8.887 0.000 27.543
v 8.977 0.000 27.153
v 45.214 0.000 37.118
v 45.304 0.000 36.728
v 45.984 0.000 37.268
v 46.035 0.000 36.871
v 46.767 0.000 37.317
v 46.765 0.000 36.916
v 47.549 0.000 37.263
v 47.495 0.000 36.866
v 48.318 0.000 37.107
v 48.213 0.000 36.721
v 49.059 0.000 36.853
v 48.905 0.000 36.483
v 49.761 0.000 36.504
v 49.560 0.000 36.157
v 50.412 0.000 36.066
v 50.167 0.000 35.749
v 51.000 0.000 35.547
v 50.715 0.000 35.264
v 51.515 0.000 34.956
v 51.196 0.000 34.713
v 51.948 0.000 34.302
v 51.601 0.000 34.103
v 52.293 0.000 33.598
v 51.922 0.000 33.445
v 52.543 0.000 32.854
v 52.159 0.000 32.739
v 59.022 0.000 8.347
v 58.633 0.000 8.253
v 59.133 0.000 7.836
v 58.739 0.000 7.768
v 59.200 0.000 7.317
v 58.801 0.000 7.284
v 59.221 0.000 6.795
v 58.821 0.000 6.796
v 59.197 0.000 6.272
v 58.798 0.000 6.308
v 59.127 0.000 5.754
v 58.733 0.000 5.825
v 59.012 0.000 5.244
v 58.625 0.000 5.349
v 58.853 0.000 4.745
v 58.477 0.000 4.884
v 58.651 0.000 4.263
v 58.289 0.000 4.433
v 58.408 0.000 3.800
v 58.062 0.000 4.001
v 58.125 0.000 3.360
v 57.798 0.000 3.590
v 57.806 0.000 2.946
v 57.500 0.000 3.204
v 57.451 0.000 2.561
v 57.163 0.000 2.839
# 152 vertices

vn 0.000 1.000 0.000
# 1 vertex normal

g CityEngineMaterial
s off
usemtl CityEngineMaterial
f 1//1 2//1 3//1 4//1
f 2//1 5//1 6//1 3//1
f 5//1 7//1 8//1 6//1
f 7//1 9//1 10//1 8//1
f 9//1 11//1 12//1 10//1
f 11//1 13//1 14//1 12//1
f 13//1 15//1 16//1 14//1
f 15//1 17//1 18//1 16//1
f 17//1 19//1 20//1 18//1
f 19//1 21//1 22//1 20//1
f 21//1 23//1 24//1 22//1
f 23//1 25//1 26//1 24//1
f 25//1 27//1 28//1 26//1
f 27//1 29//1 30//1 28//1
f 29//1 31//1 32//1 30//1
f 31//1 33//1 34//1 32//1
f 33//1 35//1 36//1 34//1
f 35//1 37//1 38//1 36//1
f 37//1 39//1 40//1 38//1
f 39//1 41//1 42//1 40//1
f 41//1 43//1 44//1 42//1
f 43//1 45//1 46//1 44//1
f 45//1 47//1 48//1 46//1
f 47//1 49//1 50//1 48//1
f 49//1 51//1 52//1 50//1
f 51//1 53//1 54//1 52//1
f 53//1 55//1 56//1 54//1
f 55//1 57//1 58//1 56//1
f 57//1 59//1 60//1 58//1
f 59//1 61//1 62//1 60//1
f 61//1 63//1 64//1 62//1
f 63//1 65//1 66//1 64//1
f 65//1 67//1 68//1 66//1
f 67//1 69//1 70//1 68//1
f 69//1 71//1 72//1 70//1
f 71//1 73//1 74//1 72//1
f 73//1 75//1 76//1 74//1
f 75//1 77//1 78//1 76//1
f 77//1 79//1 80//1 78//1
f 79//1 81//1 82//1 80//1
f 81//1 83//1 84//1 82//1
f 83//1 85//1 86//1 84//1
f 85//1 87//1 88//1 86//1
f 87//1 89//1 90//1 88//1
f 89//1 91//1 92//1 90//1
f 91//1 93//1 94//1 92//1
f 93//1 95//1 96//1 94//1
f 95//1 97//1 98//1 96//1
f 97//1 99//1 100//1 98//1
f 99//1 101//1 102//1 100//1
f 101//1 103//1 104//1 102//1
f 103//1 105//1 106//1 104//1
f 105//1 107//1 108//1 106//1
f 107//1 109//1 110//1 108//1
f 109//1 111//1 112//1 110//1
f 111//1 113//1 114//1 112//1
f 113//1 115//1 116//1 114//1
f 115//1 117//1 118//1 116//1
f 117//1 119//1 120//1 118//1
f 119//1 121//1 122//1 120//1
f 121//1 123//1 124//1 122//1
f 123//1 125//1 126//1 124//1
f 125//1 127//1 128//1 126//1
f 127//1 129//1 130//1 128//1
f 129//1 131//1 132//1 130//1
f 131//1 133//1 134//1 132//1
f 133//1 135//1 136//1 134//1
f 135//1 137//1 138//1 136//1
f 137//1 139//1 140//1 138//1
f 139//1 141//1 142//1 140//1
f 141//1 143//1 144//1 142//1
f 143//1 145//1 146//1 144//1
f 145//1 147//1 148//1 146//1
f 147//1 149//1 150//1 148//1
f 149//1 151//1 152//1 150//1
f 151//1 1//1 4//1 152//1
# 76 faces

