# created with CityEngine 2019.0.5403 0409R (based on Esri Procedural Runtime 2.0.5403, build date: Tue 04/09/2019 10:26 AM)
# creation date: Tue Apr  5 19:06:21 2022

mtllib 20220405_SGP_GF_Base.mtl

# mesh 'mesh_CityEngineMaterial_26' from geometry 'mesh_CityEngineMaterial_26'
v -24.609 0.000 15.871
v -26.172 0.000 -13.776
v 26.172 0.000 13.195
v 24.640 0.000 -15.871
v -24.609 0.400 15.871
v 26.172 0.400 13.195
v 24.640 0.400 -15.871
v -26.172 0.400 -13.776
# 8 vertices

vn 0.000 -1.000 0.000
vn 0.000 1.000 0.000
vn 0.053 0.000 0.999
vn 0.999 0.000 -0.053
vn -0.041 0.000 -0.999
vn -0.999 0.000 0.053
# 6 vertex normals

g CityEngineMaterial
s off
usemtl CityEngineMaterial
f 3//1 1//1 2//1 4//1
f 5//2 6//2 7//2 8//2
f 1//3 3//3 6//3 5//3
f 3//4 4//4 7//4 6//4
f 4//5 2//5 8//5 7//5
f 2//6 1//6 5//6 8//6
# 6 faces

