# created with CityEngine 2019.0.5403 0409R (based on Esri Procedural Runtime 2.0.5403, build date: Tue 04/09/2019 10:26 AM)
# creation date: Tue Apr  5 19:05:28 2022

mtllib 20220405_SGP_GF_Border.mtl

# mesh 'mesh_CityEngineMaterial_25' from geometry 'mesh_CityEngineMaterial_25'
v -5.156 0.000 -90.262
v -5.587 0.000 -90.796
v -5.882 0.000 -90.525
v -5.225 0.000 -89.710
v -6.170 0.000 -91.355
v -6.428 0.000 -91.048
v -6.819 0.000 -91.831
v -7.034 0.000 -91.493
v -7.522 0.000 -92.217
v -7.691 0.000 -91.854
v -8.267 0.000 -92.507
v -8.387 0.000 -92.124
v -9.042 0.000 -92.695
v -9.110 0.000 -92.300
v -9.833 0.000 -92.778
v -9.848 0.000 -92.378
v -10.627 0.000 -92.756
v -10.588 0.000 -92.356
v -11.410 0.000 -92.627
v -11.331 0.000 -92.234
v -189.931 0.000 -50.856
v -189.826 0.000 -50.469
v -192.427 0.000 -50.085
v -192.282 0.000 -49.711
v -194.794 0.000 -48.974
v -194.599 0.000 -48.623
v -196.989 0.000 -47.543
v -196.747 0.000 -47.223
v -198.970 0.000 -45.819
v -198.687 0.000 -45.536
v -200.702 0.000 -43.834
v -200.382 0.000 -43.592
v -202.152 0.000 -41.624
v -201.802 0.000 -41.427
v -203.293 0.000 -39.230
v -202.920 0.000 -39.083
v -204.105 0.000 -36.697
v -203.716 0.000 -36.600
v -204.572 0.000 -34.070
v -204.173 0.000 -34.027
v -204.686 0.000 -31.400
v -204.285 0.000 -31.409
v -204.444 0.000 -28.733
v -204.049 0.000 -28.797
v -196.810 0.000 3.976
v -196.423 0.000 3.875
v -196.171 0.000 6.163
v -195.793 0.000 6.030
v -195.299 0.000 8.264
v -194.938 0.000 8.091
v -194.206 0.000 10.252
v -193.866 0.000 10.040
v -192.905 0.000 12.101
v -192.591 0.000 11.853
v -191.416 0.000 13.786
v -191.131 0.000 13.504
v -189.756 0.000 15.284
v -189.505 0.000 14.972
v -187.948 0.000 16.577
v -187.734 0.000 16.238
v -186.016 0.000 17.646
v -185.842 0.000 17.285
v -183.985 0.000 18.478
v -183.855 0.000 18.099
v -181.882 0.000 19.062
v -181.798 0.000 18.671
v -179.736 0.000 19.390
v -179.699 0.000 18.991
v -177.574 0.000 19.458
v -177.584 0.000 19.058
v -173.745 0.000 19.144
v -173.783 0.000 18.745
v -169.926 0.000 18.727
v -169.975 0.000 18.330
v -166.122 0.000 18.208
v -166.181 0.000 17.812
v -162.334 0.000 17.586
v -162.404 0.000 17.193
v -158.564 0.000 16.864
v -158.645 0.000 16.472
v -154.816 0.000 16.040
v -154.907 0.000 15.650
v -151.091 0.000 15.115
v -151.193 0.000 14.728
v -147.392 0.000 14.090
v -147.504 0.000 13.706
v -143.722 0.000 12.966
v -143.844 0.000 12.585
v -140.082 0.000 11.744
v -140.214 0.000 11.366
v -136.475 0.000 10.423
v -136.593 0.000 10.041
v -76.818 0.000 -4.748
v -76.904 0.000 -5.139
v -74.755 0.000 -5.139
v -74.844 0.000 -5.529
v -72.726 0.000 -5.682
v -72.844 0.000 -6.065
v -70.753 0.000 -6.373
v -70.899 0.000 -6.746
v -68.856 0.000 -7.205
v -69.031 0.000 -7.565
v -67.056 0.000 -8.168
v -67.258 0.000 -8.513
v -65.370 0.000 -9.253
v -65.601 0.000 -9.580
v -63.818 0.000 -10.447
v -64.076 0.000 -10.754
v -62.414 0.000 -11.740
v -62.699 0.000 -12.021
v -61.175 0.000 -13.116
v -61.486 0.000 -13.369
v -60.113 0.000 -14.561
v -60.448 0.000 -14.781
v -59.239 0.000 -16.061
v -59.596 0.000 -16.244
v -58.086 0.000 -18.659
v -58.457 0.000 -18.810
v -54.791 0.000 -27.571
v -55.102 0.000 -27.885
v -39.948 0.000 -32.927
v -40.010 0.000 -33.330
v -29.313 0.000 -32.511
v -29.308 0.000 -32.911
v -27.643 0.000 -32.532
v -27.669 0.000 -32.931
v -25.937 0.000 -32.730
v -26.004 0.000 -33.125
v -24.257 0.000 -33.104
v -24.157 0.000 -33.537
v -22.105 0.000 -31.379
v -21.862 0.000 -31.697
v -21.314 0.000 -30.803
v -21.094 0.000 -31.137
v -20.450 0.000 -30.286
v -20.259 0.000 -30.638
v -19.517 0.000 -29.832
v -19.356 0.000 -30.199
v -18.522 0.000 -29.444
v -18.391 0.000 -29.823
v -17.473 0.000 -29.125
v -17.370 0.000 -29.512
v -16.376 0.000 -28.877
v -16.301 0.000 -29.270
v -15.240 0.000 -28.702
v -15.193 0.000 -29.100
v -14.073 0.000 -28.601
v -14.052 0.000 -29.001
v -12.883 0.000 -28.575
v -12.887 0.000 -28.975
v -11.679 0.000 -28.624
v -11.707 0.000 -29.023
v -10.468 0.000 -28.747
v -10.521 0.000 -29.144
v -9.261 0.000 -28.945
v -9.358 0.000 -29.334
v -5.535 0.000 -30.204
v -5.682 0.000 -30.577
v 3.482 0.000 -34.304
v 3.310 0.000 -34.665
v 7.946 0.000 -36.547
v 7.808 0.000 -36.926
v 43.504 0.000 -44.867
v 43.405 0.000 -45.255
v 44.686 0.000 -45.189
v 44.566 0.000 -45.571
v 45.839 0.000 -45.596
v 45.692 0.000 -45.968
v 46.956 0.000 -46.084
v 46.782 0.000 -46.445
v 48.028 0.000 -46.651
v 47.828 0.000 -46.997
v 49.049 0.000 -47.292
v 48.824 0.000 -47.622
v 50.012 0.000 -48.002
v 49.761 0.000 -48.315
v 50.908 0.000 -48.778
v 50.635 0.000 -49.070
v 51.734 0.000 -49.613
v 51.438 0.000 -49.883
v 52.481 0.000 -50.502
v 52.165 0.000 -50.747
v 53.147 0.000 -51.439
v 52.811 0.000 -51.657
v 53.725 0.000 -52.417
v 53.372 0.000 -52.606
v 54.212 0.000 -53.429
v 53.843 0.000 -53.585
v 58.969 0.000 -66.425
v 58.716 0.000 -66.896
v 73.182 0.000 -63.049
v 73.453 0.000 -63.396
v 74.704 0.000 -60.136
v 75.056 0.000 -60.326
v 76.350 0.000 -57.187
v 76.697 0.000 -57.387
v 78.078 0.000 -54.285
v 78.419 0.000 -54.494
v 79.886 0.000 -51.432
v 80.221 0.000 -51.651
v 81.773 0.000 -48.629
v 82.102 0.000 -48.857
v 83.738 0.000 -45.880
v 84.060 0.000 -46.117
v 85.780 0.000 -43.184
v 86.112 0.000 -43.408
v 113.766 0.000 3.198
v 114.115 0.000 3.002
v 114.617 0.000 4.838
v 114.965 0.000 4.640
v 115.592 0.000 6.407
v 115.924 0.000 6.183
v 116.682 0.000 7.890
v 116.995 0.000 7.641
v 117.875 0.000 9.271
v 118.167 0.000 8.997
v 119.158 0.000 10.535
v 119.427 0.000 10.238
v 120.518 0.000 11.669
v 120.761 0.000 11.351
v 121.940 0.000 12.661
v 122.154 0.000 12.322
v 123.410 0.000 13.500
v 123.592 0.000 13.143
v 124.912 0.000 14.178
v 125.059 0.000 13.805
v 126.431 0.000 14.688
v 126.538 0.000 14.302
v 127.949 0.000 15.024
v 128.014 0.000 14.628
v 128.956 0.000 15.130
v 129.454 0.000 14.781
v 128.794 0.000 15.788
v 129.187 0.000 15.865
v 128.513 0.000 17.725
v 128.911 0.000 17.764
v 128.420 0.000 19.688
v 128.820 0.000 19.687
v 128.516 0.000 21.658
v 128.915 0.000 21.619
v 128.800 0.000 23.618
v 129.193 0.000 23.541
v 129.307 0.000 25.660
v 129.691 0.000 25.547
v 129.918 0.000 27.441
v 130.291 0.000 27.294
v 130.722 0.000 29.229
v 131.083 0.000 29.057
v 132.556 0.000 32.855
v 133.012 0.000 32.871
v 130.451 0.000 36.409
v 130.801 0.000 36.604
v 128.405 0.000 40.309
v 128.737 0.000 40.538
v 107.056 0.000 64.329
v 107.360 0.000 64.589
v 106.371 0.000 65.161
v 106.689 0.000 65.404
v 105.751 0.000 66.041
v 106.087 0.000 66.259
v 105.201 0.000 66.963
v 105.552 0.000 67.155
v 104.723 0.000 67.921
v 105.088 0.000 68.085
v 104.323 0.000 68.907
v 104.700 0.000 69.043
v 104.002 0.000 69.916
v 104.388 0.000 70.022
v 103.763 0.000 70.939
v 104.156 0.000 71.015
v 103.608 0.000 71.971
v 104.006 0.000 72.015
v 103.536 0.000 73.003
v 103.937 0.000 73.014
v 103.550 0.000 74.029
v 103.950 0.000 74.007
v 103.649 0.000 75.042
v 104.045 0.000 74.987
v 103.831 0.000 76.035
v 104.221 0.000 75.943
v 107.383 0.000 88.377
v 107.760 0.000 88.241
v 107.831 0.000 89.397
v 108.195 0.000 89.229
v 108.316 0.000 90.398
v 108.673 0.000 90.217
v 108.837 0.000 91.379
v 109.187 0.000 91.185
v 109.393 0.000 92.339
v 109.735 0.000 92.132
v 109.984 0.000 93.277
v 110.318 0.000 93.057
v 110.609 0.000 94.190
v 110.935 0.000 93.958
v 111.267 0.000 95.079
v 111.584 0.000 94.835
v 111.957 0.000 95.942
v 112.265 0.000 95.686
v 112.679 0.000 96.777
v 112.977 0.000 96.510
v 113.432 0.000 97.585
v 113.719 0.000 97.307
v 114.213 0.000 98.363
v 114.488 0.000 98.072
v 127.850 0.000 110.512
v 128.106 0.000 110.204
v 128.948 0.000 111.359
v 129.171 0.000 111.025
v 130.155 0.000 112.047
v 130.329 0.000 111.686
v 131.450 0.000 112.566
v 131.573 0.000 112.184
v 132.811 0.000 112.905
v 132.881 0.000 112.511
v 134.215 0.000 113.060
v 134.232 0.000 112.660
v 135.638 0.000 113.028
v 135.603 0.000 112.629
v 137.055 0.000 112.809
v 136.969 0.000 112.417
v 138.443 0.000 112.406
v 138.308 0.000 112.029
v 139.778 0.000 111.828
v 139.595 0.000 111.471
v 141.036 0.000 111.083
v 140.811 0.000 110.751
v 142.585 0.000 109.883
v 142.311 0.000 109.590
v 170.867 0.000 78.062
v 170.303 0.000 78.096
v 166.900 0.000 74.536
v 166.419 0.000 74.644
v 167.174 0.000 73.890
v 166.801 0.000 73.745
v 167.251 0.000 73.673
v 166.973 0.000 73.263
v 168.348 0.000 73.712
v 168.336 0.000 73.312
v 169.061 0.000 73.644
v 168.997 0.000 73.248
v 169.754 0.000 73.483
v 169.637 0.000 73.100
v 170.415 0.000 73.233
v 170.247 0.000 72.869
v 171.031 0.000 72.897
v 170.816 0.000 72.559
v 171.594 0.000 72.481
v 171.334 0.000 72.176
v 172.093 0.000 71.993
v 171.797 0.000 71.722
v 204.686 0.000 32.150
v 204.190 0.000 32.124
v 159.630 0.000 -36.524
v 159.281 0.000 -36.327
v 132.953 0.000 -92.256
v 132.599 0.000 -92.069
v 125.674 0.000 -104.879
v 125.335 0.000 -104.667
v 124.385 0.000 -106.783
v 124.070 0.000 -106.535
v 122.833 0.000 -108.487
v 122.556 0.000 -108.196
v 121.046 0.000 -109.958
v 120.814 0.000 -109.632
v 119.058 0.000 -111.171
v 118.874 0.000 -110.815
v 116.906 0.000 -112.102
v 116.772 0.000 -111.723
v 114.628 0.000 -112.734
v 114.547 0.000 -112.341
v 112.267 0.000 -113.055
v 112.240 0.000 -112.655
v 109.867 0.000 -113.060
v 109.893 0.000 -112.660
v 107.472 0.000 -112.749
v 107.549 0.000 -112.356
v 105.126 0.000 -112.127
v 105.254 0.000 -111.747
v 102.873 0.000 -111.206
v 103.049 0.000 -110.846
v 76.386 0.000 -95.951
v 76.595 0.000 -95.610
v 74.647 0.000 -94.823
v 74.882 0.000 -94.499
v 73.040 0.000 -93.520
v 73.308 0.000 -93.223
v 71.587 0.000 -92.061
v 71.885 0.000 -91.794
v 70.305 0.000 -90.464
v 70.631 0.000 -90.231
v 69.691 0.000 -89.499
v 69.875 0.000 -89.045
v 56.492 0.000 -92.634
v 56.158 0.000 -92.302
v 54.841 0.000 -99.687
v 54.455 0.000 -99.582
v 54.389 0.000 -101.142
v 54.015 0.000 -100.995
v 53.731 0.000 -102.522
v 53.382 0.000 -102.324
v 52.879 0.000 -103.804
v 52.562 0.000 -103.559
v 51.848 0.000 -104.966
v 51.567 0.000 -104.680
v 50.656 0.000 -105.987
v 50.416 0.000 -105.666
v 49.322 0.000 -106.851
v 49.127 0.000 -106.501
v 47.870 0.000 -107.543
v 47.721 0.000 -107.171
v 46.324 0.000 -108.050
v 46.223 0.000 -107.662
v 44.711 0.000 -108.365
v 44.659 0.000 -107.967
v 43.059 0.000 -108.481
v 43.055 0.000 -108.080
v 41.395 0.000 -108.397
v 41.439 0.000 -107.999
v 39.748 0.000 -108.114
v 39.828 0.000 -107.722
v -6.269 0.000 -97.346
v -5.789 0.000 -97.048
v -4.693 0.000 -90.609
v -4.244 0.000 -90.445
# 424 vertices

vn 0.000 1.000 0.000
# 1 vertex normal

g CityEngineMaterial
s off
usemtl CityEngineMaterial
f 1//1 2//1 3//1 4//1
f 2//1 5//1 6//1 3//1
f 5//1 7//1 8//1 6//1
f 7//1 9//1 10//1 8//1
f 9//1 11//1 12//1 10//1
f 11//1 13//1 14//1 12//1
f 13//1 15//1 16//1 14//1
f 15//1 17//1 18//1 16//1
f 17//1 19//1 20//1 18//1
f 19//1 21//1 22//1 20//1
f 21//1 23//1 24//1 22//1
f 23//1 25//1 26//1 24//1
f 25//1 27//1 28//1 26//1
f 27//1 29//1 30//1 28//1
f 29//1 31//1 32//1 30//1
f 31//1 33//1 34//1 32//1
f 33//1 35//1 36//1 34//1
f 35//1 37//1 38//1 36//1
f 37//1 39//1 40//1 38//1
f 39//1 41//1 42//1 40//1
f 41//1 43//1 44//1 42//1
f 43//1 45//1 46//1 44//1
f 45//1 47//1 48//1 46//1
f 47//1 49//1 50//1 48//1
f 49//1 51//1 52//1 50//1
f 51//1 53//1 54//1 52//1
f 53//1 55//1 56//1 54//1
f 55//1 57//1 58//1 56//1
f 57//1 59//1 60//1 58//1
f 59//1 61//1 62//1 60//1
f 61//1 63//1 64//1 62//1
f 63//1 65//1 66//1 64//1
f 65//1 67//1 68//1 66//1
f 67//1 69//1 70//1 68//1
f 69//1 71//1 72//1 70//1
f 71//1 73//1 74//1 72//1
f 73//1 75//1 76//1 74//1
f 75//1 77//1 78//1 76//1
f 77//1 79//1 80//1 78//1
f 79//1 81//1 82//1 80//1
f 81//1 83//1 84//1 82//1
f 83//1 85//1 86//1 84//1
f 85//1 87//1 88//1 86//1
f 87//1 89//1 90//1 88//1
f 89//1 91//1 92//1 90//1
f 91//1 93//1 94//1 92//1
f 93//1 95//1 96//1 94//1
f 95//1 97//1 98//1 96//1
f 97//1 99//1 100//1 98//1
f 99//1 101//1 102//1 100//1
f 101//1 103//1 104//1 102//1
f 103//1 105//1 106//1 104//1
f 105//1 107//1 108//1 106//1
f 107//1 109//1 110//1 108//1
f 109//1 111//1 112//1 110//1
f 111//1 113//1 114//1 112//1
f 113//1 115//1 116//1 114//1
f 115//1 117//1 118//1 116//1
f 117//1 119//1 120//1 118//1
f 119//1 121//1 122//1 120//1
f 121//1 123//1 124//1 122//1
f 123//1 125//1 126//1 124//1
f 125//1 127//1 128//1 126//1
f 127//1 129//1 130//1 128//1
f 129//1 131//1 132//1 130//1
f 131//1 133//1 134//1 132//1
f 133//1 135//1 136//1 134//1
f 135//1 137//1 138//1 136//1
f 137//1 139//1 140//1 138//1
f 139//1 141//1 142//1 140//1
f 141//1 143//1 144//1 142//1
f 143//1 145//1 146//1 144//1
f 145//1 147//1 148//1 146//1
f 147//1 149//1 150//1 148//1
f 149//1 151//1 152//1 150//1
f 151//1 153//1 154//1 152//1
f 153//1 155//1 156//1 154//1
f 155//1 157//1 158//1 156//1
f 157//1 159//1 160//1 158//1
f 159//1 161//1 162//1 160//1
f 161//1 163//1 164//1 162//1
f 163//1 165//1 166//1 164//1
f 165//1 167//1 168//1 166//1
f 167//1 169//1 170//1 168//1
f 169//1 171//1 172//1 170//1
f 171//1 173//1 174//1 172//1
f 173//1 175//1 176//1 174//1
f 175//1 177//1 178//1 176//1
f 177//1 179//1 180//1 178//1
f 179//1 181//1 182//1 180//1
f 181//1 183//1 184//1 182//1
f 183//1 185//1 186//1 184//1
f 185//1 187//1 188//1 186//1
f 187//1 189//1 190//1 188//1
f 189//1 191//1 192//1 190//1
f 191//1 193//1 194//1 192//1
f 193//1 195//1 196//1 194//1
f 195//1 197//1 198//1 196//1
f 197//1 199//1 200//1 198//1
f 199//1 201//1 202//1 200//1
f 201//1 203//1 204//1 202//1
f 203//1 205//1 206//1 204//1
f 205//1 207//1 208//1 206//1
f 207//1 209//1 210//1 208//1
f 209//1 211//1 212//1 210//1
f 211//1 213//1 214//1 212//1
f 213//1 215//1 216//1 214//1
f 215//1 217//1 218//1 216//1
f 217//1 219//1 220//1 218//1
f 219//1 221//1 222//1 220//1
f 221//1 223//1 224//1 222//1
f 223//1 225//1 226//1 224//1
f 225//1 227//1 228//1 226//1
f 227//1 229//1 230//1 228//1
f 229//1 231//1 232//1 230//1
f 231//1 233//1 234//1 232//1
f 233//1 235//1 236//1 234//1
f 235//1 237//1 238//1 236//1
f 237//1 239//1 240//1 238//1
f 239//1 241//1 242//1 240//1
f 241//1 243//1 244//1 242//1
f 243//1 245//1 246//1 244//1
f 245//1 247//1 248//1 246//1
f 247//1 249//1 250//1 248//1
f 249//1 251//1 252//1 250//1
f 251//1 253//1 254//1 252//1
f 253//1 255//1 256//1 254//1
f 255//1 257//1 258//1 256//1
f 257//1 259//1 260//1 258//1
f 259//1 261//1 262//1 260//1
f 261//1 263//1 264//1 262//1
f 263//1 265//1 266//1 264//1
f 265//1 267//1 268//1 266//1
f 267//1 269//1 270//1 268//1
f 269//1 271//1 272//1 270//1
f 271//1 273//1 274//1 272//1
f 273//1 275//1 276//1 274//1
f 275//1 277//1 278//1 276//1
f 277//1 279//1 280//1 278//1
f 279//1 281//1 282//1 280//1
f 281//1 283//1 284//1 282//1
f 283//1 285//1 286//1 284//1
f 285//1 287//1 288//1 286//1
f 287//1 289//1 290//1 288//1
f 289//1 291//1 292//1 290//1
f 291//1 293//1 294//1 292//1
f 293//1 295//1 296//1 294//1
f 295//1 297//1 298//1 296//1
f 297//1 299//1 300//1 298//1
f 299//1 301//1 302//1 300//1
f 301//1 303//1 304//1 302//1
f 303//1 305//1 306//1 304//1
f 305//1 307//1 308//1 306//1
f 307//1 309//1 310//1 308//1
f 309//1 311//1 312//1 310//1
f 311//1 313//1 314//1 312//1
f 313//1 315//1 316//1 314//1
f 315//1 317//1 318//1 316//1
f 317//1 319//1 320//1 318//1
f 319//1 321//1 322//1 320//1
f 321//1 323//1 324//1 322//1
f 323//1 325//1 326//1 324//1
f 325//1 327//1 328//1 326//1
f 327//1 329//1 330//1 328//1
f 329//1 331//1 332//1 330//1
f 331//1 333//1 334//1 332//1
f 333//1 335//1 336//1 334//1
f 335//1 337//1 338//1 336//1
f 337//1 339//1 340//1 338//1
f 339//1 341//1 342//1 340//1
f 341//1 343//1 344//1 342//1
f 343//1 345//1 346//1 344//1
f 345//1 347//1 348//1 346//1
f 347//1 349//1 350//1 348//1
f 349//1 351//1 352//1 350//1
f 351//1 353//1 354//1 352//1
f 353//1 355//1 356//1 354//1
f 355//1 357//1 358//1 356//1
f 357//1 359//1 360//1 358//1
f 359//1 361//1 362//1 360//1
f 361//1 363//1 364//1 362//1
f 363//1 365//1 366//1 364//1
f 365//1 367//1 368//1 366//1
f 367//1 369//1 370//1 368//1
f 369//1 371//1 372//1 370//1
f 371//1 373//1 374//1 372//1
f 373//1 375//1 376//1 374//1
f 375//1 377//1 378//1 376//1
f 377//1 379//1 380//1 378//1
f 379//1 381//1 382//1 380//1
f 381//1 383//1 384//1 382//1
f 383//1 385//1 386//1 384//1
f 385//1 387//1 388//1 386//1
f 387//1 389//1 390//1 388//1
f 389//1 391//1 392//1 390//1
f 391//1 393//1 394//1 392//1
f 393//1 395//1 396//1 394//1
f 395//1 397//1 398//1 396//1
f 397//1 399//1 400//1 398//1
f 399//1 401//1 402//1 400//1
f 401//1 403//1 404//1 402//1
f 403//1 405//1 406//1 404//1
f 405//1 407//1 408//1 406//1
f 407//1 409//1 410//1 408//1
f 409//1 411//1 412//1 410//1
f 411//1 413//1 414//1 412//1
f 413//1 415//1 416//1 414//1
f 415//1 417//1 418//1 416//1
f 417//1 419//1 420//1 418//1
f 419//1 421//1 422//1 420//1
f 421//1 423//1 424//1 422//1
f 423//1 1//1 4//1 424//1
# 212 faces

