# created with CityEngine 2019.0.5403 0409R (based on Esri Procedural Runtime 2.0.5403, build date: Tue 04/09/2019 10:26 AM)
# creation date: Tue Apr  5 19:06:21 2022

mtllib 20220405_SGP_GF_Base.mtl

# mesh 'mesh_CityEngineMaterial_21' from geometry 'mesh_CityEngineMaterial_21'
v -1.134 0.000 1.843
v -1.177 0.000 1.783
v 2.068 0.000 -0.925
v 1.394 0.000 -1.522
v 1.116 0.000 -1.843
v -2.068 0.000 0.747
v -2.037 0.000 0.778
v -1.592 0.000 1.268
v -1.134 0.400 1.843
v 2.068 0.400 -0.925
v 1.394 0.400 -1.522
v 1.116 0.400 -1.843
v -2.068 0.400 0.747
v -2.037 0.400 0.778
v -1.592 0.400 1.268
v -1.177 0.400 1.783
# 16 vertices

vn 0.000 -1.000 0.000
vn 0.000 1.000 0.000
vn 0.654 0.000 0.757
vn 0.663 0.000 -0.749
vn 0.756 0.000 -0.655
vn -0.631 0.000 -0.776
vn -0.700 0.000 0.714
vn -0.741 0.000 0.672
vn -0.779 0.000 0.628
vn -0.814 0.000 0.581
# 10 vertex normals

g CityEngineMaterial
s off
usemtl CityEngineMaterial
f 3//1 1//1 2//1 8//1 7//1 6//1 5//1 4//1
f 9//2 10//2 11//2 12//2 13//2 14//2 15//2 16//2
f 1//3 3//3 10//3 9//3
f 3//4 4//4 11//4 10//4
f 4//5 5//5 12//5 11//5
f 5//6 6//6 13//6 12//6
f 6//7 7//7 14//7 13//7
f 7//8 8//8 15//8 14//8
f 8//9 2//9 16//9 15//9
f 2//10 1//10 9//10 16//10
# 10 faces

