# created with CityEngine 2019.0.5403 0409R (based on Esri Procedural Runtime 2.0.5403, build date: Tue 04/09/2019 10:26 AM)
# creation date: Tue Apr  5 19:05:29 2022

mtllib 20220405_SGP_GF_Border.mtl

# mesh 'mesh_CityEngineMaterial_28' from geometry 'mesh_CityEngineMaterial_28'
v -97.145 0.000 53.108
v -97.737 0.000 53.614
v -97.459 0.000 53.902
v -96.894 0.000 53.419
v -98.250 0.000 54.174
v -97.937 0.000 54.424
v -98.654 0.000 54.755
v -98.307 0.000 54.957
v -98.927 0.000 55.326
v -98.548 0.000 55.460
v -99.054 0.000 55.854
v -98.651 0.000 55.890
v -99.028 0.000 56.309
v -98.633 0.000 56.204
v -98.865 0.000 56.637
v -98.347 0.000 56.781
v -104.873 0.000 60.449
v -104.666 0.000 60.792
v -116.824 0.000 67.298
v -116.232 0.000 67.420
v -91.597 0.000 100.909
v -91.514 0.000 100.354
v -79.112 0.000 91.794
v -79.355 0.000 91.476
v -67.028 0.000 82.061
v -67.286 0.000 81.756
v -55.451 0.000 71.792
v -55.724 0.000 71.499
v -55.366 0.000 71.709
v -55.634 0.000 71.411
v -44.073 0.000 62.350
v -44.203 0.000 61.938
v -41.954 0.000 62.531
v -41.931 0.000 62.132
v -41.768 0.000 62.537
v -41.775 0.000 62.136
v -41.570 0.000 62.523
v -41.614 0.000 62.126
v -41.361 0.000 62.491
v -41.438 0.000 62.098
v -41.143 0.000 62.440
v -41.249 0.000 62.053
v -40.919 0.000 62.370
v -41.049 0.000 61.992
v -40.689 0.000 62.282
v -40.842 0.000 61.913
v -40.455 0.000 62.178
v -40.629 0.000 61.817
v -40.221 0.000 62.057
v -40.413 0.000 61.706
v -39.987 0.000 61.921
v -40.196 0.000 61.580
v -39.755 0.000 61.771
v -39.981 0.000 61.440
v -39.528 0.000 61.608
v -39.773 0.000 61.291
v -34.642 0.000 57.567
v -34.837 0.000 57.210
v -34.024 0.000 57.369
v -34.219 0.000 57.012
v -15.486 0.000 41.959
v -15.781 0.000 41.684
v -15.016 0.000 41.305
v -15.311 0.000 41.029
v 6.549 0.000 23.433
v 6.409 0.000 23.029
v 6.656 0.000 23.435
v 6.517 0.000 23.032
v 41.496 0.000 -5.384
v 41.167 0.000 -5.632
v 43.695 0.000 -10.418
v 43.361 0.000 -10.654
v 44.978 0.000 -11.621
v 44.414 0.000 -11.641
v 44.463 0.000 -12.176
v 43.992 0.000 -12.097
v 48.238 0.000 -20.816
v 47.909 0.000 -21.063
v 58.313 0.000 -29.166
v 58.366 0.000 -29.729
v 59.662 0.000 -27.538
v 59.715 0.000 -28.101
v 63.395 0.000 -30.632
v 63.207 0.000 -30.995
v 64.754 0.000 -31.002
v 64.609 0.000 -31.377
v 66.955 0.000 -32.118
v 66.733 0.000 -32.454
v 67.082 0.000 -32.225
v 67.163 0.000 -32.815
v 68.130 0.000 -30.696
v 68.233 0.000 -31.254
v 81.323 0.000 -39.812
v 81.088 0.000 -40.136
v 93.620 0.000 -49.208
v 93.369 0.000 -49.520
v 105.486 0.000 -59.205
v 105.221 0.000 -59.505
v 116.824 0.000 -69.714
v 116.262 0.000 -69.739
v 88.665 0.000 -100.909
v 88.671 0.000 -100.305
v 79.654 0.000 -90.491
v 79.951 0.000 -90.223
v 69.638 0.000 -79.915
v 69.922 0.000 -79.633
v 59.175 0.000 -69.824
v 59.446 0.000 -69.530
v 48.032 0.000 -60.016
v 48.563 0.000 -59.950
v 48.483 0.000 -59.360
v 49.023 0.000 -59.278
v 31.942 0.000 -46.224
v 32.120 0.000 -45.855
v 26.707 0.000 -45.021
v 26.810 0.000 -44.634
v 26.547 0.000 -44.973
v 26.672 0.000 -44.592
v 26.384 0.000 -44.915
v 26.525 0.000 -44.541
v 26.220 0.000 -44.850
v 26.374 0.000 -44.481
v 26.053 0.000 -44.776
v 26.222 0.000 -44.413
v 25.886 0.000 -44.695
v 26.067 0.000 -44.338
v 25.718 0.000 -44.606
v 25.912 0.000 -44.256
v 25.551 0.000 -44.510
v 25.756 0.000 -44.166
v 25.385 0.000 -44.407
v 25.601 0.000 -44.070
v 25.220 0.000 -44.297
v 25.447 0.000 -43.968
v 25.058 0.000 -44.182
v 25.297 0.000 -43.861
v 0.962 0.000 -25.310
v 1.217 0.000 -25.002
v 0.420 0.000 -24.835
v 0.700 0.000 -24.549
v -0.052 0.000 -24.316
v 0.261 0.000 -24.065
v -0.431 0.000 -23.778
v -0.087 0.000 -23.571
v -0.700 0.000 -23.247
v -0.335 0.000 -23.082
v -2.318 0.000 -19.216
v -1.987 0.000 -18.966
v -42.837 0.000 11.915
v -42.639 0.000 12.267
v -43.264 0.000 12.083
v -42.697 0.000 12.290
v -43.203 0.000 12.195
v -42.688 0.000 12.306
# 154 vertices

vn 0.000 1.000 0.000
# 1 vertex normal

g CityEngineMaterial
s off
usemtl CityEngineMaterial
f 1//1 2//1 3//1 4//1
f 2//1 5//1 6//1 3//1
f 5//1 7//1 8//1 6//1
f 7//1 9//1 10//1 8//1
f 9//1 11//1 12//1 10//1
f 11//1 13//1 14//1 12//1
f 13//1 15//1 16//1 14//1
f 15//1 17//1 18//1 16//1
f 17//1 19//1 20//1 18//1
f 19//1 21//1 22//1 20//1
f 21//1 23//1 24//1 22//1
f 23//1 25//1 26//1 24//1
f 25//1 27//1 28//1 26//1
f 27//1 29//1 30//1 28//1
f 29//1 31//1 32//1 30//1
f 31//1 33//1 34//1 32//1
f 33//1 35//1 36//1 34//1
f 35//1 37//1 38//1 36//1
f 37//1 39//1 40//1 38//1
f 39//1 41//1 42//1 40//1
f 41//1 43//1 44//1 42//1
f 43//1 45//1 46//1 44//1
f 45//1 47//1 48//1 46//1
f 47//1 49//1 50//1 48//1
f 49//1 51//1 52//1 50//1
f 51//1 53//1 54//1 52//1
f 53//1 55//1 56//1 54//1
f 55//1 57//1 58//1 56//1
f 57//1 59//1 60//1 58//1
f 59//1 61//1 62//1 60//1
f 61//1 63//1 64//1 62//1
f 63//1 65//1 66//1 64//1
f 65//1 67//1 68//1 66//1
f 67//1 69//1 70//1 68//1
f 69//1 71//1 72//1 70//1
f 71//1 73//1 74//1 72//1
f 73//1 75//1 76//1 74//1
f 75//1 77//1 78//1 76//1
f 77//1 79//1 80//1 78//1
f 79//1 81//1 82//1 80//1
f 81//1 83//1 84//1 82//1
f 83//1 85//1 86//1 84//1
f 85//1 87//1 88//1 86//1
f 87//1 89//1 90//1 88//1
f 89//1 91//1 92//1 90//1
f 91//1 93//1 94//1 92//1
f 93//1 95//1 96//1 94//1
f 95//1 97//1 98//1 96//1
f 97//1 99//1 100//1 98//1
f 99//1 101//1 102//1 100//1
f 101//1 103//1 104//1 102//1
f 103//1 105//1 106//1 104//1
f 105//1 107//1 108//1 106//1
f 107//1 109//1 110//1 108//1
f 109//1 111//1 112//1 110//1
f 111//1 113//1 114//1 112//1
f 113//1 115//1 116//1 114//1
f 115//1 117//1 118//1 116//1
f 117//1 119//1 120//1 118//1
f 119//1 121//1 122//1 120//1
f 121//1 123//1 124//1 122//1
f 123//1 125//1 126//1 124//1
f 125//1 127//1 128//1 126//1
f 127//1 129//1 130//1 128//1
f 129//1 131//1 132//1 130//1
f 131//1 133//1 134//1 132//1
f 133//1 135//1 136//1 134//1
f 135//1 137//1 138//1 136//1
f 137//1 139//1 140//1 138//1
f 139//1 141//1 142//1 140//1
f 141//1 143//1 144//1 142//1
f 143//1 145//1 146//1 144//1
f 145//1 147//1 148//1 146//1
f 147//1 149//1 150//1 148//1
f 149//1 151//1 152//1 150//1
f 151//1 153//1 154//1 152//1
f 153//1 1//1 4//1 154//1
# 77 faces

