# created with CityEngine 2019.0.5403 0409R (based on Esri Procedural Runtime 2.0.5403, build date: Tue 04/09/2019 10:26 AM)
# creation date: Tue Apr  5 19:07:08 2022

mtllib 20220405_SGP_UF_Base.mtl

# mesh 'mesh_CityEngineMaterial_11' from geometry 'mesh_CityEngineMaterial_11'
v 10.283 0.000 -20.403
v 9.148 0.000 -20.509
v 10.773 0.000 -25.667
v -6.917 0.000 -27.315
v -13.113 0.000 -27.892
v -36.041 0.000 -30.028
v -36.531 0.000 -24.760
v -35.397 0.000 -24.655
v -36.369 0.000 -14.223
v -36.371 0.000 -14.199
v -36.456 0.000 -13.289
v -36.557 0.000 -12.207
v -37.691 0.000 -12.312
v -38.182 0.000 -7.045
v -20.179 0.000 -5.373
v -23.279 0.000 27.888
v -18.007 0.000 28.378
v -17.892 0.000 27.142
v -5.449 0.000 28.301
v -5.564 0.000 29.537
v -0.300 0.000 30.028
v 1.798 0.000 7.518
v 36.042 0.000 10.707
v 36.533 0.000 5.438
v 35.298 0.000 5.318
v 36.455 0.000 -7.123
v 37.691 0.000 -7.008
v 38.182 0.000 -12.275
v 8.638 0.000 -15.022
v 10.283 0.400 -20.403
v 10.773 0.400 -25.667
v -6.917 0.400 -27.315
v -13.113 0.400 -27.892
v -36.041 0.400 -30.028
v -36.531 0.400 -24.760
v -35.397 0.400 -24.655
v -36.369 0.400 -14.223
v -36.371 0.400 -14.199
v -36.456 0.400 -13.289
v -36.557 0.400 -12.207
v -37.691 0.400 -12.312
v -38.182 0.400 -7.045
v -20.179 0.400 -5.373
v -23.279 0.400 27.888
v -18.007 0.400 28.378
v -17.892 0.400 27.142
v -5.449 0.400 28.301
v -5.564 0.400 29.537
v -0.300 0.400 30.028
v 1.798 0.400 7.518
v 36.042 0.400 10.707
v 36.533 0.400 5.438
v 35.298 0.400 5.318
v 36.455 0.400 -7.123
v 37.691 0.400 -7.008
v 38.182 0.400 -12.275
v 8.638 0.400 -15.022
v 9.148 0.400 -20.509
# 58 vertices

vn 0.000 -1.000 0.000
vn 0.000 1.000 0.000
vn 0.996 0.000 0.093
vn 0.093 0.000 -0.996
vn -0.996 0.000 -0.093
vn -0.093 0.000 0.996
vn 0.096 0.000 -0.995
# 7 vertex normals

g CityEngineMaterial
s off
usemtl CityEngineMaterial
f 3//1 1//1 2//1 29//1 28//1 27//1 26//1 25//1 24//1 23//1 22//1 21//1 20//1 19//1 18//1 17//1 16//1 15//1 14//1 13//1 12//1 11//1 10//1 9//1 8//1 7//1 6//1 5//1 4//1
f 30//2 31//2 32//2 33//2 34//2 35//2 36//2 37//2 38//2 39//2 40//2 41//2 42//2 43//2 44//2 45//2 46//2 47//2 48//2 49//2 50//2 51//2 52//2 53//2 54//2 55//2 56//2 57//2 58//2
f 1//3 3//3 31//3 30//3
f 3//4 4//4 32//4 31//4
f 4//4 5//4 33//4 32//4
f 5//4 6//4 34//4 33//4
f 6//5 7//5 35//5 34//5
f 7//6 8//6 36//6 35//6
f 8//5 9//5 37//5 36//5
f 9//5 10//5 38//5 37//5
f 10//5 11//5 39//5 38//5
f 11//5 12//5 40//5 39//5
f 12//4 13//4 41//4 40//4
f 13//5 14//5 42//5 41//5
f 14//6 15//6 43//6 42//6
f 15//5 16//5 44//5 43//5
f 16//6 17//6 45//6 44//6
f 17//3 18//3 46//3 45//3
f 18//6 19//6 47//6 46//6
f 19//5 20//5 48//5 47//5
f 20//6 21//6 49//6 48//6
f 21//3 22//3 50//3 49//3
f 22//6 23//6 51//6 50//6
f 23//3 24//3 52//3 51//3
f 24//7 25//7 53//7 52//7
f 25//3 26//3 54//3 53//3
f 26//6 27//6 55//6 54//6
f 27//3 28//3 56//3 55//3
f 28//4 29//4 57//4 56//4
f 29//3 2//3 58//3 57//3
f 2//6 1//6 30//6 58//6
# 31 faces

