# created with CityEngine 2019.0.5403 0409R (based on Esri Procedural Runtime 2.0.5403, build date: Tue 04/09/2019 10:26 AM)
# creation date: Tue Apr  5 19:07:53 2022

mtllib 20220405_SGP_UF_Border.mtl

# mesh 'mesh_CityEngineMaterial_9' from geometry 'mesh_CityEngineMaterial_9'
v -11.197 0.000 32.831
v -9.640 0.000 31.694
v -9.875 0.000 31.371
v -11.114 0.000 32.275
v 1.289 0.000 23.715
v 1.046 0.000 23.397
v 1.462 0.000 23.575
v 1.211 0.000 23.264
v 2.800 0.000 22.498
v 2.549 0.000 22.187
v 7.331 0.000 18.849
v 7.080 0.000 18.537
v 8.841 0.000 17.632
v 8.591 0.000 17.321
v 13.373 0.000 13.983
v 13.115 0.000 13.677
v 14.820 0.000 12.699
v 14.555 0.000 12.400
v 16.267 0.000 11.415
v 16.002 0.000 11.116
v 19.161 0.000 8.848
v 18.896 0.000 8.549
v 20.608 0.000 7.564
v 20.343 0.000 7.265
v 24.950 0.000 3.713
v 24.677 0.000 3.420
v 25.035 0.000 3.630
v 24.755 0.000 3.344
v 32.601 0.000 -3.758
v 32.321 0.000 -4.045
v 36.129 0.000 -7.204
v 35.850 0.000 -7.490
v 36.423 0.000 -7.491
v 35.856 0.000 -7.496
v 27.881 0.000 -16.174
v 27.595 0.000 -15.893
v 24.850 0.000 -19.254
v 24.565 0.000 -18.973
v 14.906 0.000 -29.362
v 14.621 0.000 -29.082
v 11.494 0.000 -32.831
v 11.457 0.000 -32.298
v 1.608 0.000 -25.216
v 1.852 0.000 -24.899
v -0.266 0.000 -23.772
v -0.029 0.000 -23.450
v -3.243 0.000 -21.688
v -3.013 0.000 -21.360
v -4.515 0.000 -20.797
v -4.286 0.000 -20.470
v -4.731 0.000 -20.646
v -4.502 0.000 -20.318
v -7.708 0.000 -18.562
v -7.478 0.000 -18.234
v -9.196 0.000 -17.519
v -8.967 0.000 -17.192
v -12.173 0.000 -15.435
v -11.951 0.000 -15.102
v -15.974 0.000 -13.023
v -15.759 0.000 -12.685
v -18.468 0.000 -11.440
v -18.254 0.000 -11.102
v -24.472 0.000 -7.629
v -24.265 0.000 -7.287
v -36.423 0.000 -0.780
v -35.831 0.000 -0.658
# 66 vertices

vn 0.000 1.000 0.000
# 1 vertex normal

g CityEngineMaterial
s off
usemtl CityEngineMaterial
f 1//1 2//1 3//1 4//1
f 2//1 5//1 6//1 3//1
f 5//1 7//1 8//1 6//1
f 7//1 9//1 10//1 8//1
f 9//1 11//1 12//1 10//1
f 11//1 13//1 14//1 12//1
f 13//1 15//1 16//1 14//1
f 15//1 17//1 18//1 16//1
f 17//1 19//1 20//1 18//1
f 19//1 21//1 22//1 20//1
f 21//1 23//1 24//1 22//1
f 23//1 25//1 26//1 24//1
f 25//1 27//1 28//1 26//1
f 27//1 29//1 30//1 28//1
f 29//1 31//1 32//1 30//1
f 31//1 33//1 34//1 32//1
f 33//1 35//1 36//1 34//1
f 35//1 37//1 38//1 36//1
f 37//1 39//1 40//1 38//1
f 39//1 41//1 42//1 40//1
f 41//1 43//1 44//1 42//1
f 43//1 45//1 46//1 44//1
f 45//1 47//1 48//1 46//1
f 47//1 49//1 50//1 48//1
f 49//1 51//1 52//1 50//1
f 51//1 53//1 54//1 52//1
f 53//1 55//1 56//1 54//1
f 55//1 57//1 58//1 56//1
f 57//1 59//1 60//1 58//1
f 59//1 61//1 62//1 60//1
f 61//1 63//1 64//1 62//1
f 63//1 65//1 66//1 64//1
f 65//1 1//1 4//1 66//1
# 33 faces

