# created with CityEngine 2019.0.5403 0409R (based on Esri Procedural Runtime 2.0.5403, build date: Tue 04/09/2019 10:26 AM)
# creation date: Tue Apr  5 19:05:28 2022

mtllib 20220405_SGP_GF_Border.mtl

# mesh 'mesh_CityEngineMaterial_20' from geometry 'mesh_CityEngineMaterial_20'
v -14.939 0.000 22.299
v 24.873 0.000 -4.383
v 24.333 0.000 -4.503
v -14.795 0.000 21.721
v 14.025 0.000 -22.299
v 13.900 0.000 -21.733
v -24.873 0.000 3.771
v -24.349 0.000 3.901
# 8 vertices

vn 0.000 1.000 0.000
# 1 vertex normal

g CityEngineMaterial
s off
usemtl CityEngineMaterial
f 1//1 2//1 3//1 4//1
f 2//1 5//1 6//1 3//1
f 5//1 7//1 8//1 6//1
f 7//1 1//1 4//1 8//1
# 4 faces

