# created with CityEngine 2019.0.5403 0409R (based on Esri Procedural Runtime 2.0.5403, build date: Tue 04/09/2019 10:26 AM)
# creation date: Tue Apr  5 19:07:53 2022

mtllib 20220405_SGP_UF_Border.mtl

# mesh 'mesh_CityEngineMaterial_23' from geometry 'mesh_CityEngineMaterial_23'
v -2.073 0.000 -23.770
v -3.851 0.000 -25.039
v -4.311 0.000 -24.875
v -1.838 0.000 -23.112
v -3.288 0.000 -27.101
v -3.871 0.000 -26.484
v -20.025 0.000 -21.485
v -19.622 0.000 -21.198
v -19.987 0.000 -17.082
v -19.587 0.000 -17.085
v -19.640 0.000 23.787
v -19.242 0.000 23.466
v -15.336 0.000 24.743
v -15.250 0.000 24.353
v -4.724 0.000 27.101
v -4.907 0.000 26.651
v 12.519 0.000 0.919
v 12.184 0.000 0.699
v 20.025 0.000 -10.479
v 19.479 0.000 -10.377
v -1.508 0.000 -25.838
v -1.273 0.000 -25.180
# 22 vertices

vn 0.000 1.000 0.000
# 1 vertex normal

g CityEngineMaterial
s off
usemtl CityEngineMaterial
f 1//1 2//1 3//1 4//1
f 2//1 5//1 6//1 3//1
f 5//1 7//1 8//1 6//1
f 7//1 9//1 10//1 8//1
f 9//1 11//1 12//1 10//1
f 11//1 13//1 14//1 12//1
f 13//1 15//1 16//1 14//1
f 15//1 17//1 18//1 16//1
f 17//1 19//1 20//1 18//1
f 19//1 21//1 22//1 20//1
f 21//1 1//1 4//1 22//1
# 11 faces

