# created with CityEngine 2019.0.5403 0409R (based on Esri Procedural Runtime 2.0.5403, build date: Tue 04/09/2019 10:26 AM)
# creation date: Tue Apr  5 19:06:21 2022

mtllib 20220405_SGP_GF_Base.mtl

# mesh 'mesh_CityEngineMaterial_14' from geometry 'mesh_CityEngineMaterial_14'
v 22.594 0.000 -6.522
v 11.922 0.000 0.491
v -3.646 0.000 -46.450
v -40.048 0.000 -23.948
v -33.334 0.000 -13.085
v -7.496 0.000 -29.057
v 4.701 0.000 -10.498
v -21.206 0.000 6.528
v 5.031 0.000 46.450
v 40.048 0.000 24.364
v 33.331 0.000 13.508
v 8.684 0.000 28.757
v -3.521 0.000 10.186
v 11.714 0.000 0.174
v 22.594 0.400 -6.522
v -3.646 0.400 -46.450
v -40.048 0.400 -23.948
v -33.334 0.400 -13.085
v -7.496 0.400 -29.057
v 4.701 0.400 -10.498
v -21.206 0.400 6.528
v 5.031 0.400 46.450
v 40.048 0.400 24.364
v 33.331 0.400 13.508
v 8.684 0.400 28.757
v -3.521 0.400 10.186
v 11.714 0.400 0.174
v 11.922 0.400 0.491
# 28 vertices

vn 0.000 -1.000 0.000
vn 0.000 1.000 0.000
vn 0.836 0.000 -0.549
vn -0.526 0.000 -0.851
vn -0.851 0.000 0.526
vn 0.526 0.000 0.851
vn -0.836 0.000 0.549
vn -0.549 0.000 -0.836
vn 0.533 0.000 0.846
vn 0.850 0.000 -0.526
vn 0.549 0.000 0.836
# 11 vertex normals

g CityEngineMaterial
s off
usemtl CityEngineMaterial
f 3//1 1//1 2//1 14//1 13//1 12//1 11//1 10//1 9//1 8//1 7//1 6//1 5//1 4//1
f 15//2 16//2 17//2 18//2 19//2 20//2 21//2 22//2 23//2 24//2 25//2 26//2 27//2 28//2
f 1//3 3//3 16//3 15//3
f 3//4 4//4 17//4 16//4
f 4//5 5//5 18//5 17//5
f 5//6 6//6 19//6 18//6
f 6//7 7//7 20//7 19//7
f 7//8 8//8 21//8 20//8
f 8//7 9//7 22//7 21//7
f 9//9 10//9 23//9 22//9
f 10//10 11//10 24//10 23//10
f 11//4 12//4 25//4 24//4
f 12//3 13//3 26//3 25//3
f 13//11 14//11 27//11 26//11
f 14//7 2//7 28//7 27//7
f 2//11 1//11 15//11 28//11
# 16 faces

