# created with CityEngine 2019.0.5403 0409R (based on Esri Procedural Runtime 2.0.5403, build date: Tue 04/09/2019 10:26 AM)
# creation date: Tue Apr  5 19:06:22 2022

mtllib 20220405_SGP_GF_Base.mtl

# mesh 'mesh_CityEngineMaterial_28' from geometry 'mesh_CityEngineMaterial_28'
v -96.903 0.000 53.402
v -42.690 0.000 12.284
v -97.467 0.000 53.885
v -97.944 0.000 54.406
v -98.314 0.000 54.937
v -98.554 0.000 55.439
v -98.657 0.000 55.866
v -98.639 0.000 56.177
v -98.350 0.000 56.760
v -104.676 0.000 60.776
v -116.233 0.000 67.399
v -91.528 0.000 100.315
v -79.377 0.000 91.443
v -67.308 0.000 81.723
v -55.746 0.000 71.467
v -55.656 0.000 71.379
v -44.221 0.000 61.903
v -41.945 0.000 62.097
v -41.791 0.000 62.102
v -41.631 0.000 62.091
v -41.455 0.000 62.063
v -41.267 0.000 62.019
v -41.068 0.000 61.957
v -40.861 0.000 61.879
v -40.649 0.000 61.783
v -40.433 0.000 61.672
v -40.217 0.000 61.547
v -40.002 0.000 61.407
v -39.794 0.000 61.258
v -34.858 0.000 57.176
v -34.240 0.000 56.978
v -15.804 0.000 41.652
v -15.334 0.000 40.998
v 6.391 0.000 22.994
v 6.498 0.000 22.997
v 41.143 0.000 -5.663
v 43.337 0.000 -10.684
v 44.385 0.000 -11.666
v 43.964 0.000 -12.119
v 47.885 0.000 -21.094
v 58.352 0.000 -29.768
v 59.701 0.000 -28.140
v 63.187 0.000 -31.029
v 64.590 0.000 -31.411
v 66.712 0.000 -32.487
v 67.149 0.000 -32.855
v 68.220 0.000 -31.292
v 81.067 0.000 -40.169
v 93.348 0.000 -49.553
v 105.199 0.000 -59.537
v 116.233 0.000 -69.765
v 88.656 0.000 -100.315
v 79.943 0.000 -90.241
v 69.914 0.000 -79.651
v 59.437 0.000 -69.547
v 48.560 0.000 -59.973
v 49.021 0.000 -59.301
v 32.109 0.000 -45.870
v 26.797 0.000 -44.650
v 26.659 0.000 -44.608
v 26.513 0.000 -44.556
v 26.363 0.000 -44.497
v 26.210 0.000 -44.429
v 26.056 0.000 -44.354
v 25.901 0.000 -44.272
v 25.746 0.000 -44.182
v 25.591 0.000 -44.087
v 25.437 0.000 -43.984
v 25.288 0.000 -43.878
v 1.208 0.000 -25.019
v 0.692 0.000 -24.566
v 0.253 0.000 -24.084
v -0.094 0.000 -23.591
v -0.341 0.000 -23.103
v -1.994 0.000 -18.984
v -42.649 0.000 12.251
v -42.698 0.000 12.270
v -96.903 0.400 53.402
v -97.467 0.400 53.885
v -97.944 0.400 54.406
v -98.314 0.400 54.937
v -98.554 0.400 55.439
v -98.657 0.400 55.866
v -98.639 0.400 56.177
v -98.350 0.400 56.760
v -104.676 0.400 60.776
v -116.233 0.400 67.399
v -91.528 0.400 100.315
v -79.377 0.400 91.443
v -67.308 0.400 81.723
v -55.746 0.400 71.467
v -55.656 0.400 71.379
v -44.221 0.400 61.903
v -41.945 0.400 62.097
v -41.791 0.400 62.102
v -41.631 0.400 62.091
v -41.455 0.400 62.063
v -41.267 0.400 62.019
v -41.068 0.400 61.957
v -40.861 0.400 61.879
v -40.649 0.400 61.783
v -40.433 0.400 61.672
v -40.217 0.400 61.547
v -40.002 0.400 61.407
v -39.794 0.400 61.258
v -34.858 0.400 57.176
v -34.240 0.400 56.978
v -15.804 0.400 41.652
v -15.334 0.400 40.998
v 6.391 0.400 22.994
v 6.498 0.400 22.997
v 41.143 0.400 -5.663
v 43.337 0.400 -10.684
v 44.385 0.400 -11.666
v 43.964 0.400 -12.119
v 47.885 0.400 -21.094
v 58.352 0.400 -29.768
v 59.701 0.400 -28.140
v 63.187 0.400 -31.029
v 64.590 0.400 -31.411
v 66.712 0.400 -32.487
v 67.149 0.400 -32.855
v 68.220 0.400 -31.292
v 81.067 0.400 -40.169
v 93.348 0.400 -49.553
v 105.199 0.400 -59.537
v 116.233 0.400 -69.765
v 88.656 0.400 -100.315
v 79.943 0.400 -90.241
v 69.914 0.400 -79.651
v 59.437 0.400 -69.547
v 48.560 0.400 -59.973
v 49.021 0.400 -59.301
v 32.109 0.400 -45.870
v 26.797 0.400 -44.650
v 26.659 0.400 -44.608
v 26.513 0.400 -44.556
v 26.363 0.400 -44.497
v 26.210 0.400 -44.429
v 26.056 0.400 -44.354
v 25.901 0.400 -44.272
v 25.746 0.400 -44.182
v 25.591 0.400 -44.087
v 25.437 0.400 -43.984
v 25.288 0.400 -43.878
v 1.208 0.400 -25.019
v 0.692 0.400 -24.566
v 0.253 0.400 -24.084
v -0.094 0.400 -23.591
v -0.341 0.400 -23.103
v -1.994 0.400 -18.984
v -42.649 0.400 12.251
v -42.698 0.400 12.270
v -42.690 0.400 12.284
# 154 vertices

vn 0.000 -1.000 0.000
vn 0.000 1.000 0.000
vn -0.650 0.000 -0.760
vn -0.738 0.000 -0.675
vn -0.821 0.000 -0.571
vn -0.902 0.000 -0.432
vn -0.972 0.000 -0.234
vn -0.998 0.000 0.057
vn -0.896 0.000 0.444
vn -0.536 0.000 -0.844
vn -0.497 0.000 -0.868
vn -0.800 0.000 0.600
vn 0.590 0.000 0.808
vn 0.627 0.000 0.779
vn 0.664 0.000 0.748
vn 0.698 0.000 0.716
vn 0.638 0.000 0.770
vn -0.085 0.000 0.996
vn -0.030 0.000 1.000
vn 0.068 0.000 0.998
vn 0.154 0.000 0.988
vn 0.229 0.000 0.973
vn 0.296 0.000 0.955
vn 0.356 0.000 0.935
vn 0.409 0.000 0.913
vn 0.458 0.000 0.889
vn 0.502 0.000 0.865
vn 0.544 0.000 0.839
vn 0.583 0.000 0.812
vn 0.637 0.000 0.771
vn 0.305 0.000 0.952
vn 0.639 0.000 0.769
vn 0.813 0.000 0.583
vn -0.026 0.000 1.000
vn 0.916 0.000 0.400
vn 0.684 0.000 0.730
vn 0.734 0.000 -0.679
vn -0.770 0.000 0.638
vn 0.263 0.000 0.965
vn 0.452 0.000 0.892
vn 0.643 0.000 0.766
vn -0.825 0.000 0.565
vn 0.568 0.000 0.823
vn 0.607 0.000 0.795
vn 0.644 0.000 0.765
vn 0.680 0.000 0.733
vn 0.742 0.000 -0.670
vn -0.756 0.000 -0.654
vn -0.726 0.000 -0.688
vn -0.694 0.000 -0.720
vn -0.661 0.000 -0.751
vn -0.622 0.000 -0.783
vn -0.224 0.000 -0.975
vn -0.291 0.000 -0.957
vn -0.331 0.000 -0.944
vn -0.369 0.000 -0.929
vn -0.405 0.000 -0.915
vn -0.437 0.000 -0.899
vn -0.469 0.000 -0.883
vn -0.498 0.000 -0.867
vn -0.526 0.000 -0.850
vn -0.554 0.000 -0.833
vn -0.579 0.000 -0.815
vn -0.617 0.000 -0.787
vn -0.659 0.000 -0.752
vn -0.740 0.000 -0.673
vn -0.817 0.000 -0.576
vn -0.892 0.000 -0.451
vn -0.928 0.000 -0.373
vn -0.609 0.000 -0.793
vn -0.365 0.000 -0.931
vn -0.878 0.000 0.478
vn -0.604 0.000 -0.797
# 73 vertex normals

g CityEngineMaterial
s off
usemtl CityEngineMaterial
f 3//1 1//1 2//1 77//1 76//1 75//1 74//1 73//1 72//1 71//1 70//1 69//1 68//1 67//1 66//1 65//1 64//1 63//1 62//1 61//1 60//1 59//1 58//1 57//1 56//1 55//1 54//1 53//1 52//1 51//1 50//1 49//1 48//1 47//1 46//1 45//1 44//1 43//1 42//1 41//1 40//1 39//1 38//1 37//1 36//1 35//1 34//1 33//1 32//1 31//1 30//1 29//1 28//1 27//1 26//1 25//1 24//1 23//1 22//1 21//1 20//1 19//1 18//1 17//1 16//1 15//1 14//1 13//1 12//1 11//1 10//1 9//1 8//1 7//1 6//1 5//1 4//1
f 78//2 79//2 80//2 81//2 82//2 83//2 84//2 85//2 86//2 87//2 88//2 89//2 90//2 91//2 92//2 93//2 94//2 95//2 96//2 97//2 98//2 99//2 100//2 101//2 102//2 103//2 104//2 105//2 106//2 107//2 108//2 109//2 110//2 111//2 112//2 113//2 114//2 115//2 116//2 117//2 118//2 119//2 120//2 121//2 122//2 123//2 124//2 125//2 126//2 127//2 128//2 129//2 130//2 131//2 132//2 133//2 134//2 135//2 136//2 137//2 138//2 139//2 140//2 141//2 142//2 143//2 144//2 145//2 146//2 147//2 148//2 149//2 150//2 151//2 152//2 153//2 154//2
f 1//3 3//3 79//3 78//3
f 3//4 4//4 80//4 79//4
f 4//5 5//5 81//5 80//5
f 5//6 6//6 82//6 81//6
f 6//7 7//7 83//7 82//7
f 7//8 8//8 84//8 83//8
f 8//9 9//9 85//9 84//9
f 9//10 10//10 86//10 85//10
f 10//11 11//11 87//11 86//11
f 11//12 12//12 88//12 87//12
f 12//13 13//13 89//13 88//13
f 13//14 14//14 90//14 89//14
f 14//15 15//15 91//15 90//15
f 15//16 16//16 92//16 91//16
f 16//17 17//17 93//17 92//17
f 17//18 18//18 94//18 93//18
f 18//19 19//19 95//19 94//19
f 19//20 20//20 96//20 95//20
f 20//21 21//21 97//21 96//21
f 21//22 22//22 98//22 97//22
f 22//23 23//23 99//23 98//23
f 23//24 24//24 100//24 99//24
f 24//25 25//25 101//25 100//25
f 25//26 26//26 102//26 101//26
f 26//27 27//27 103//27 102//27
f 27//28 28//28 104//28 103//28
f 28//29 29//29 105//29 104//29
f 29//30 30//30 106//30 105//30
f 30//31 31//31 107//31 106//31
f 31//32 32//32 108//32 107//32
f 32//33 33//33 109//33 108//33
f 33//17 34//17 110//17 109//17
f 34//34 35//34 111//34 110//34
f 35//17 36//17 112//17 111//17
f 36//35 37//35 113//35 112//35
f 37//36 38//36 114//36 113//36
f 38//37 39//37 115//37 114//37
f 39//35 40//35 116//35 115//35
f 40//17 41//17 117//17 116//17
f 41//38 42//38 118//38 117//38
f 42//17 43//17 119//17 118//17
f 43//39 44//39 120//39 119//39
f 44//40 45//40 121//40 120//40
f 45//41 46//41 122//41 121//41
f 46//42 47//42 123//42 122//42
f 47//43 48//43 124//43 123//43
f 48//44 49//44 125//44 124//44
f 49//45 50//45 126//45 125//45
f 50//46 51//46 127//46 126//46
f 51//47 52//47 128//47 127//47
f 52//48 53//48 129//48 128//48
f 53//49 54//49 130//49 129//49
f 54//50 55//50 131//50 130//50
f 55//51 56//51 132//51 131//51
f 56//42 57//42 133//42 132//42
f 57//52 58//52 134//52 133//52
f 58//53 59//53 135//53 134//53
f 59//54 60//54 136//54 135//54
f 60//55 61//55 137//55 136//55
f 61//56 62//56 138//56 137//56
f 62//57 63//57 139//57 138//57
f 63//58 64//58 140//58 139//58
f 64//59 65//59 141//59 140//59
f 65//60 66//60 142//60 141//60
f 66//61 67//61 143//61 142//61
f 67//62 68//62 144//62 143//62
f 68//63 69//63 145//63 144//63
f 69//64 70//64 146//64 145//64
f 70//65 71//65 147//65 146//65
f 71//66 72//66 148//66 147//66
f 72//67 73//67 149//67 148//67
f 73//68 74//68 150//68 149//68
f 74//69 75//69 151//69 150//69
f 75//70 76//70 152//70 151//70
f 76//71 77//71 153//71 152//71
f 77//72 2//72 154//72 153//72
f 2//73 1//73 78//73 154//73
# 79 faces

