# created with CityEngine 2019.0.5403 0409R (based on Esri Procedural Runtime 2.0.5403, build date: Tue 04/09/2019 10:26 AM)
# creation date: Tue Apr  5 19:07:53 2022

mtllib 20220405_SGP_UF_Border.mtl

# mesh 'mesh_CityEngineMaterial_5' from geometry 'mesh_CityEngineMaterial_5'
v 13.006 0.000 7.767
v 13.080 0.000 7.587
v 12.709 0.000 7.435
v 12.636 0.000 7.615
v 13.452 0.000 6.676
v 13.079 0.000 6.530
v 13.907 0.000 5.449
v 13.530 0.000 5.316
v 14.287 0.000 4.320
v 13.908 0.000 4.193
v 14.324 0.000 4.210
v 13.943 0.000 4.088
v 14.700 0.000 2.958
v 14.315 0.000 2.849
v 15.037 0.000 1.696
v 14.648 0.000 1.600
v 15.332 0.000 0.426
v 14.941 0.000 0.342
v 15.585 0.000 -0.846
v 15.306 0.000 -0.901
v 15.192 0.000 -0.922
v 15.586 0.000 -0.851
v 15.597 0.000 -0.919
v 15.203 0.000 -0.984
v 15.698 0.000 -1.528
v 15.304 0.000 -1.593
v 15.799 0.000 -2.133
v 15.403 0.000 -2.192
v 15.969 0.000 -3.419
v 15.572 0.000 -3.465
v 16.098 0.000 -4.706
v 15.699 0.000 -4.739
v 16.184 0.000 -5.993
v 15.785 0.000 -6.013
v 16.238 0.000 -7.670
v 15.838 0.000 -7.665
v 16.213 0.000 -8.131
v 15.813 0.000 -8.108
v 16.145 0.000 -9.336
v 15.747 0.000 -9.296
v 15.906 0.000 -10.970
v 15.512 0.000 -10.893
v 15.522 0.000 -12.555
v 15.137 0.000 -12.442
v 15.491 0.000 -12.644
v 15.113 0.000 -12.514
v 14.997 0.000 -14.077
v 14.625 0.000 -13.928
v 14.337 0.000 -15.521
v 13.981 0.000 -15.337
v 13.547 0.000 -16.875
v 13.212 0.000 -16.655
v 12.636 0.000 -18.124
v 12.325 0.000 -17.872
v 11.610 0.000 -19.259
v 11.328 0.000 -18.975
v 10.481 0.000 -20.267
v 10.231 0.000 -19.954
v 10.300 0.000 -20.396
v 10.068 0.000 -20.070
v 9.258 0.000 -21.140
v 9.044 0.000 -20.801
v 7.939 0.000 -21.877
v 7.794 0.000 -21.500
v 6.467 0.000 -22.217
v 6.398 0.000 -21.822
v 4.975 0.000 -22.392
v 4.950 0.000 -21.992
v 3.461 0.000 -22.403
v 3.479 0.000 -22.003
v 1.939 0.000 -22.252
v 2.000 0.000 -21.856
v 0.424 0.000 -21.939
v 0.525 0.000 -21.551
v -1.070 0.000 -21.466
v -0.930 0.000 -21.091
v -2.529 0.000 -20.840
v -2.354 0.000 -20.480
v -3.940 0.000 -20.065
v -3.731 0.000 -19.723
v -5.289 0.000 -19.148
v -5.049 0.000 -18.828
v -6.564 0.000 -18.099
v -6.296 0.000 -17.802
v -7.424 0.000 -17.252
v -7.143 0.000 -16.967
v -7.752 0.000 -16.927
v -7.459 0.000 -16.655
v -8.633 0.000 -15.891
v -8.329 0.000 -15.632
v -8.839 0.000 -15.649
v -8.529 0.000 -15.396
v -9.640 0.000 -14.638
v -9.322 0.000 -14.394
v -10.409 0.000 -13.598
v -10.083 0.000 -13.365
v -11.146 0.000 -12.531
v -10.813 0.000 -12.309
v -11.813 0.000 -11.496
v -11.476 0.000 -11.279
v -11.850 0.000 -11.438
v -11.510 0.000 -11.227
v -12.519 0.000 -10.321
v -12.173 0.000 -10.121
v -13.154 0.000 -9.182
v -12.801 0.000 -8.993
v -13.752 0.000 -8.022
v -13.394 0.000 -7.844
v -14.140 0.000 -7.207
v -13.779 0.000 -7.035
v -14.301 0.000 -6.869
v -13.940 0.000 -6.697
v -14.314 0.000 -6.841
v -13.950 0.000 -6.675
v -14.838 0.000 -5.643
v -14.469 0.000 -5.489
v -15.323 0.000 -4.433
v -14.949 0.000 -4.291
v -15.727 0.000 -3.321
v -15.351 0.000 -3.184
v -15.740 0.000 -3.287
v -15.364 0.000 -3.150
v -15.771 0.000 -3.199
v -15.393 0.000 -3.069
v -15.857 0.000 -2.939
v -15.477 0.000 -2.814
v -16.177 0.000 -1.964
v -15.993 0.000 -1.902
v -15.736 0.000 -2.024
v -16.238 0.000 -1.789
v -12.110 0.000 -0.196
v -11.593 0.000 -0.425
v -13.297 0.000 2.880
v -12.915 0.000 3.002
v -13.633 0.000 4.180
v -13.242 0.000 4.264
v -14.031 0.000 6.527
v -13.634 0.000 6.577
v -14.225 0.000 8.883
v -13.825 0.000 8.899
v -14.212 0.000 11.228
v -13.812 0.000 11.208
v -13.994 0.000 13.540
v -13.597 0.000 13.484
v -13.765 0.000 14.762
v -13.372 0.000 14.688
v -13.571 0.000 15.796
v -13.181 0.000 15.704
v -12.946 0.000 17.984
v -12.571 0.000 17.840
v -12.504 0.000 18.883
v -12.156 0.000 18.683
v -11.964 0.000 19.698
v -11.645 0.000 19.455
v -11.331 0.000 20.424
v -11.048 0.000 20.141
v -10.615 0.000 21.049
v -10.373 0.000 20.730
v -9.827 0.000 21.565
v -9.632 0.000 21.215
v -8.979 0.000 21.964
v -8.834 0.000 21.590
v -8.082 0.000 22.239
v -7.992 0.000 21.848
v -7.152 0.000 22.386
v -7.117 0.000 21.987
v -6.201 0.000 22.403
v -6.221 0.000 22.003
v -5.245 0.000 22.291
v -5.318 0.000 21.896
v -4.297 0.000 22.049
v -4.421 0.000 21.668
v -3.366 0.000 21.681
v -3.547 0.000 21.322
v -1.433 0.000 20.479
v -1.660 0.000 20.149
v 0.395 0.000 19.092
v 0.139 0.000 18.785
v 2.110 0.000 17.527
v 1.827 0.000 17.244
v 3.695 0.000 15.798
v 3.388 0.000 15.541
v 5.134 0.000 13.922
v 4.806 0.000 13.693
v 6.416 0.000 11.917
v 6.069 0.000 11.716
v 7.040 0.000 10.727
v 6.675 0.000 10.562
v 8.227 0.000 7.652
v 7.998 0.000 7.135
v 12.352 0.000 9.244
v 12.141 0.000 8.734
v 12.845 0.000 8.137
v 12.480 0.000 7.974
v 12.957 0.000 7.887
v 12.589 0.000 7.729
# 196 vertices

vn 0.000 1.000 0.000
# 1 vertex normal

g CityEngineMaterial
s off
usemtl CityEngineMaterial
f 1//1 2//1 3//1 4//1
f 2//1 5//1 6//1 3//1
f 5//1 7//1 8//1 6//1
f 7//1 9//1 10//1 8//1
f 9//1 11//1 12//1 10//1
f 11//1 13//1 14//1 12//1
f 13//1 15//1 16//1 14//1
f 15//1 17//1 18//1 16//1
f 17//1 19//1 20//1 21//1 18//1
f 19//1 22//1 20//1
f 22//1 23//1 24//1 21//1 20//1
f 23//1 25//1 26//1 24//1
f 25//1 27//1 28//1 26//1
f 27//1 29//1 30//1 28//1
f 29//1 31//1 32//1 30//1
f 31//1 33//1 34//1 32//1
f 33//1 35//1 36//1 34//1
f 35//1 37//1 38//1 36//1
f 37//1 39//1 40//1 38//1
f 39//1 41//1 42//1 40//1
f 41//1 43//1 44//1 42//1
f 43//1 45//1 46//1 44//1
f 45//1 47//1 48//1 46//1
f 47//1 49//1 50//1 48//1
f 49//1 51//1 52//1 50//1
f 51//1 53//1 54//1 52//1
f 53//1 55//1 56//1 54//1
f 55//1 57//1 58//1 56//1
f 57//1 59//1 60//1 58//1
f 59//1 61//1 62//1 60//1
f 61//1 63//1 64//1 62//1
f 63//1 65//1 66//1 64//1
f 65//1 67//1 68//1 66//1
f 67//1 69//1 70//1 68//1
f 69//1 71//1 72//1 70//1
f 71//1 73//1 74//1 72//1
f 73//1 75//1 76//1 74//1
f 75//1 77//1 78//1 76//1
f 77//1 79//1 80//1 78//1
f 79//1 81//1 82//1 80//1
f 81//1 83//1 84//1 82//1
f 83//1 85//1 86//1 84//1
f 85//1 87//1 88//1 86//1
f 87//1 89//1 90//1 88//1
f 89//1 91//1 92//1 90//1
f 91//1 93//1 94//1 92//1
f 93//1 95//1 96//1 94//1
f 95//1 97//1 98//1 96//1
f 97//1 99//1 100//1 98//1
f 99//1 101//1 102//1 100//1
f 101//1 103//1 104//1 102//1
f 103//1 105//1 106//1 104//1
f 105//1 107//1 108//1 106//1
f 107//1 109//1 110//1 108//1
f 109//1 111//1 112//1 110//1
f 111//1 113//1 114//1 112//1
f 113//1 115//1 116//1 114//1
f 115//1 117//1 118//1 116//1
f 117//1 119//1 120//1 118//1
f 119//1 121//1 122//1 120//1
f 121//1 123//1 124//1 122//1
f 123//1 125//1 126//1 124//1
f 125//1 127//1 128//1 129//1 126//1
f 127//1 130//1 128//1
f 130//1 131//1 132//1 129//1 128//1
f 131//1 133//1 134//1 132//1
f 133//1 135//1 136//1 134//1
f 135//1 137//1 138//1 136//1
f 137//1 139//1 140//1 138//1
f 139//1 141//1 142//1 140//1
f 141//1 143//1 144//1 142//1
f 143//1 145//1 146//1 144//1
f 145//1 147//1 148//1 146//1
f 147//1 149//1 150//1 148//1
f 149//1 151//1 152//1 150//1
f 151//1 153//1 154//1 152//1
f 153//1 155//1 156//1 154//1
f 155//1 157//1 158//1 156//1
f 157//1 159//1 160//1 158//1
f 159//1 161//1 162//1 160//1
f 161//1 163//1 164//1 162//1
f 163//1 165//1 166//1 164//1
f 165//1 167//1 168//1 166//1
f 167//1 169//1 170//1 168//1
f 169//1 171//1 172//1 170//1
f 171//1 173//1 174//1 172//1
f 173//1 175//1 176//1 174//1
f 175//1 177//1 178//1 176//1
f 177//1 179//1 180//1 178//1
f 179//1 181//1 182//1 180//1
f 181//1 183//1 184//1 182//1
f 183//1 185//1 186//1 184//1
f 185//1 187//1 188//1 186//1
f 187//1 189//1 190//1 188//1
f 189//1 191//1 192//1 190//1
f 191//1 193//1 194//1 192//1
f 193//1 195//1 196//1 194//1
f 195//1 1//1 4//1 196//1
# 98 faces

