# created with CityEngine 2019.0.5403 0409R (based on Esri Procedural Runtime 2.0.5403, build date: Tue 04/09/2019 10:26 AM)
# creation date: Tue Apr  5 19:07:53 2022

mtllib 20220405_SGP_UF_Border.mtl

# mesh 'mesh_CityEngineMaterial_16' from geometry 'mesh_CityEngineMaterial_16'
v 4.717 0.000 26.479
v 6.579 0.000 26.199
v 6.498 0.000 25.807
v 4.689 0.000 26.079
v 8.399 0.000 25.719
v 8.275 0.000 25.338
v 10.191 0.000 25.027
v 10.037 0.000 24.657
v 16.146 0.000 22.364
v 15.982 0.000 21.999
v 32.024 0.000 15.266
v 31.841 0.000 14.910
v 33.512 0.000 14.398
v 33.274 0.000 14.074
v 34.878 0.000 13.155
v 34.579 0.000 12.886
v 35.795 0.000 11.903
v 35.473 0.000 11.666
v 35.985 0.000 11.645
v 35.639 0.000 11.439
v 36.798 0.000 9.925
v 36.422 0.000 9.786
v 37.295 0.000 8.101
v 36.900 0.000 8.029
v 37.480 0.000 6.111
v 37.079 0.000 6.106
v 37.337 0.000 4.138
v 36.941 0.000 4.199
v 36.878 0.000 2.208
v 36.497 0.000 2.332
v 36.118 0.000 0.381
v 35.761 0.000 0.564
v 35.108 0.000 -1.253
v 34.786 0.000 -1.014
v 33.792 0.000 -2.736
v 33.520 0.000 -2.440
v 33.292 0.000 -3.107
v 33.056 0.000 -2.784
v 33.286 0.000 -3.111
v 33.050 0.000 -2.788
v 31.631 0.000 -4.337
v 31.403 0.000 -4.008
v 9.832 0.000 -18.487
v 9.615 0.000 -18.151
v 5.221 0.000 -21.480
v 5.013 0.000 -21.138
v 2.010 0.000 -23.315
v 1.832 0.000 -22.956
v -1.366 0.000 -24.759
v -1.500 0.000 -24.381
v -5.718 0.000 -26.004
v -5.800 0.000 -25.611
v -9.262 0.000 -26.469
v -9.288 0.000 -26.069
v -11.917 0.000 -26.479
v -11.906 0.000 -26.079
v -13.678 0.000 -26.372
v -13.641 0.000 -25.973
v -15.471 0.000 -26.144
v -15.415 0.000 -25.747
v -18.155 0.000 -25.716
v -18.092 0.000 -25.321
v -28.534 0.000 -24.065
v -28.449 0.000 -23.673
v -29.406 0.000 -23.826
v -29.301 0.000 -23.440
v -30.514 0.000 -23.523
v -30.366 0.000 -23.149
v -32.422 0.000 -22.518
v -32.198 0.000 -22.184
v -34.095 0.000 -21.118
v -33.843 0.000 -20.816
v -33.838 0.000 -20.811
v -34.126 0.000 -21.092
v -35.491 0.000 -19.372
v -35.154 0.000 -19.153
v -36.495 0.000 -17.436
v -36.124 0.000 -17.285
v -36.514 0.000 -17.376
v -36.131 0.000 -17.259
v -37.189 0.000 -15.172
v -36.796 0.000 -15.088
v -37.480 0.000 -12.849
v -37.079 0.000 -12.832
v -37.383 0.000 -10.482
v -36.985 0.000 -10.531
v -36.903 0.000 -8.148
v -36.518 0.000 -8.261
v -36.057 0.000 -5.925
v -35.694 0.000 -6.098
v -34.870 0.000 -3.884
v -34.541 0.000 -4.114
v -33.434 0.000 -2.159
v -33.138 0.000 -2.428
v -29.547 0.000 1.763
v -29.263 0.000 1.481
v -11.186 0.000 20.288
v -10.908 0.000 20.000
v -9.674 0.000 21.686
v -9.415 0.000 21.380
v -8.076 0.000 22.918
v -7.846 0.000 22.590
v -6.390 0.000 23.985
v -6.192 0.000 23.637
v -4.632 0.000 24.879
v -4.468 0.000 24.513
v -2.814 0.000 25.589
v -2.687 0.000 25.209
v -0.954 0.000 26.109
v -0.866 0.000 25.718
v 0.932 0.000 26.433
v 0.969 0.000 26.034
# 112 vertices

vn 0.000 1.000 0.000
# 1 vertex normal

g CityEngineMaterial
s off
usemtl CityEngineMaterial
f 1//1 2//1 3//1 4//1
f 2//1 5//1 6//1 3//1
f 5//1 7//1 8//1 6//1
f 7//1 9//1 10//1 8//1
f 9//1 11//1 12//1 10//1
f 11//1 13//1 14//1 12//1
f 13//1 15//1 16//1 14//1
f 15//1 17//1 18//1 16//1
f 17//1 19//1 20//1 18//1
f 19//1 21//1 22//1 20//1
f 21//1 23//1 24//1 22//1
f 23//1 25//1 26//1 24//1
f 25//1 27//1 28//1 26//1
f 27//1 29//1 30//1 28//1
f 29//1 31//1 32//1 30//1
f 31//1 33//1 34//1 32//1
f 33//1 35//1 36//1 34//1
f 35//1 37//1 38//1 36//1
f 37//1 39//1 40//1 38//1
f 39//1 41//1 42//1 40//1
f 41//1 43//1 44//1 42//1
f 43//1 45//1 46//1 44//1
f 45//1 47//1 48//1 46//1
f 47//1 49//1 50//1 48//1
f 49//1 51//1 52//1 50//1
f 51//1 53//1 54//1 52//1
f 53//1 55//1 56//1 54//1
f 55//1 57//1 58//1 56//1
f 57//1 59//1 60//1 58//1
f 59//1 61//1 62//1 60//1
f 61//1 63//1 64//1 62//1
f 63//1 65//1 66//1 64//1
f 65//1 67//1 68//1 66//1
f 67//1 69//1 70//1 68//1
f 69//1 71//1 72//1 73//1 70//1
f 71//1 74//1 72//1
f 74//1 75//1 76//1 73//1 72//1
f 75//1 77//1 78//1 76//1
f 77//1 79//1 80//1 78//1
f 79//1 81//1 82//1 80//1
f 81//1 83//1 84//1 82//1
f 83//1 85//1 86//1 84//1
f 85//1 87//1 88//1 86//1
f 87//1 89//1 90//1 88//1
f 89//1 91//1 92//1 90//1
f 91//1 93//1 94//1 92//1
f 93//1 95//1 96//1 94//1
f 95//1 97//1 98//1 96//1
f 97//1 99//1 100//1 98//1
f 99//1 101//1 102//1 100//1
f 101//1 103//1 104//1 102//1
f 103//1 105//1 106//1 104//1
f 105//1 107//1 108//1 106//1
f 107//1 109//1 110//1 108//1
f 109//1 111//1 112//1 110//1
f 111//1 1//1 4//1 112//1
# 56 faces

