# created with CityEngine 2019.0.5403 0409R (based on Esri Procedural Runtime 2.0.5403, build date: Tue 04/09/2019 10:26 AM)
# creation date: Tue Apr  5 19:05:29 2022

mtllib 20220405_SGP_GF_Border.mtl

# mesh 'mesh_CityEngineMaterial_31' from geometry 'mesh_CityEngineMaterial_31'
v -83.966 0.000 -82.008
v -39.587 0.000 -17.042
v -39.356 0.000 -17.413
v -83.420 0.000 -81.918
v -33.737 0.000 -16.209
v -33.650 0.000 -16.600
v -30.815 0.000 -15.320
v -30.565 0.000 -15.662
v -27.879 0.000 -11.037
v -27.775 0.000 -11.593
v -27.530 0.000 -11.276
v -27.420 0.000 -11.836
v -17.928 0.000 3.343
v -17.813 0.000 2.789
v -13.749 0.000 0.598
v -13.634 0.000 0.044
v -3.313 0.000 16.487
v -2.759 0.000 16.602
v -7.492 0.000 19.232
v -6.938 0.000 19.347
v 2.763 0.000 34.844
v 3.086 0.000 34.607
v 18.319 0.000 53.904
v 18.634 0.000 53.657
v 31.283 0.000 71.143
v 31.641 0.000 70.953
v 33.273 0.000 76.966
v 33.642 0.000 76.810
v 36.682 0.000 83.675
v 37.026 0.000 83.469
v 41.001 0.000 89.839
v 41.312 0.000 89.587
v 46.142 0.000 95.335
v 46.415 0.000 95.042
v 52.001 0.000 100.052
v 51.934 0.000 99.484
v 55.182 0.000 95.931
v 55.081 0.000 95.408
v 58.276 0.000 97.748
v 58.053 0.000 97.154
v 58.573 0.000 96.861
v 58.303 0.000 96.408
v 65.270 0.000 98.032
v 65.333 0.000 97.637
v 66.598 0.000 98.220
v 66.641 0.000 97.822
v 67.943 0.000 98.319
v 67.960 0.000 97.919
v 69.292 0.000 98.330
v 69.282 0.000 97.930
v 70.638 0.000 98.252
v 70.602 0.000 97.853
v 71.976 0.000 98.085
v 71.914 0.000 97.690
v 73.301 0.000 97.830
v 73.212 0.000 97.440
v 74.605 0.000 97.489
v 74.491 0.000 97.105
v 75.884 0.000 97.062
v 75.745 0.000 96.687
v 77.133 0.000 96.552
v 76.969 0.000 96.186
v 78.345 0.000 95.960
v 78.157 0.000 95.606
v 79.515 0.000 95.290
v 79.305 0.000 94.949
v 80.632 0.000 94.548
v 80.401 0.000 94.221
v 85.751 0.000 90.693
v 85.209 0.000 90.601
v 65.256 0.000 60.016
v 64.862 0.000 60.146
v 65.171 0.000 58.221
v 64.773 0.000 58.268
v 63.763 0.000 50.828
v 63.375 0.000 50.931
v 61.329 0.000 43.706
v 60.960 0.000 43.862
v 57.920 0.000 36.997
v 57.576 0.000 37.203
v 53.601 0.000 30.833
v 53.530 0.000 30.891
v 53.485 0.000 31.363
v 53.533 0.000 30.760
v 51.554 0.000 32.676
v 51.794 0.000 33.000
v 48.856 0.000 34.177
v 48.722 0.000 34.709
v 39.534 0.000 19.632
v 39.200 0.000 19.853
v 25.260 0.000 -1.189
v 24.924 0.000 -0.972
v -8.527 0.000 -57.195
v -8.864 0.000 -56.980
v -10.245 0.000 -59.740
v -10.572 0.000 -59.510
v -12.062 0.000 -62.219
v -12.380 0.000 -61.976
v -13.975 0.000 -64.624
v -14.283 0.000 -64.369
v -15.978 0.000 -66.950
v -16.277 0.000 -66.685
v -21.016 0.000 -72.498
v -21.652 0.000 -72.604
v -19.063 0.000 -73.571
v -19.667 0.000 -73.696
v -23.746 0.000 -79.592
v -24.044 0.000 -79.324
v -29.155 0.000 -84.825
v -29.413 0.000 -84.518
v -35.246 0.000 -89.246
v -35.458 0.000 -88.906
v -41.897 0.000 -92.767
v -42.059 0.000 -92.401
v -48.977 0.000 -95.319
v -49.086 0.000 -94.934
v -55.043 0.000 -96.581
v -55.205 0.000 -96.206
v -60.002 0.000 -100.052
v -59.993 0.000 -99.557
v -63.631 0.000 -97.319
v -63.509 0.000 -96.910
v -63.857 0.000 -97.333
v -63.854 0.000 -96.933
v -71.360 0.000 -96.755
v -71.302 0.000 -96.359
v -78.709 0.000 -95.129
v -78.595 0.000 -94.744
v -85.751 0.000 -92.488
v -85.228 0.000 -92.257
v -82.967 0.000 -85.500
v -82.606 0.000 -85.675
v -81.871 0.000 -83.585
v -81.348 0.000 -83.478
# 134 vertices

vn 0.000 1.000 0.000
# 1 vertex normal

g CityEngineMaterial
s off
usemtl CityEngineMaterial
f 1//1 2//1 3//1 4//1
f 2//1 5//1 6//1 3//1
f 5//1 7//1 8//1 6//1
f 7//1 9//1 10//1 8//1
f 9//1 11//1 12//1 10//1
f 11//1 13//1 14//1 12//1
f 13//1 15//1 16//1 14//1
f 15//1 17//1 18//1 16//1
f 17//1 19//1 20//1 18//1
f 19//1 21//1 22//1 20//1
f 21//1 23//1 24//1 22//1
f 23//1 25//1 26//1 24//1
f 25//1 27//1 28//1 26//1
f 27//1 29//1 30//1 28//1
f 29//1 31//1 32//1 30//1
f 31//1 33//1 34//1 32//1
f 33//1 35//1 36//1 34//1
f 35//1 37//1 38//1 36//1
f 37//1 39//1 40//1 38//1
f 39//1 41//1 42//1 40//1
f 41//1 43//1 44//1 42//1
f 43//1 45//1 46//1 44//1
f 45//1 47//1 48//1 46//1
f 47//1 49//1 50//1 48//1
f 49//1 51//1 52//1 50//1
f 51//1 53//1 54//1 52//1
f 53//1 55//1 56//1 54//1
f 55//1 57//1 58//1 56//1
f 57//1 59//1 60//1 58//1
f 59//1 61//1 62//1 60//1
f 61//1 63//1 64//1 62//1
f 63//1 65//1 66//1 64//1
f 65//1 67//1 68//1 66//1
f 67//1 69//1 70//1 68//1
f 69//1 71//1 72//1 70//1
f 71//1 73//1 74//1 72//1
f 73//1 75//1 76//1 74//1
f 75//1 77//1 78//1 76//1
f 77//1 79//1 80//1 78//1
f 79//1 81//1 82//1 83//1 80//1
f 81//1 84//1 82//1
f 84//1 85//1 86//1 83//1 82//1
f 85//1 87//1 88//1 86//1
f 87//1 89//1 90//1 88//1
f 89//1 91//1 92//1 90//1
f 91//1 93//1 94//1 92//1
f 93//1 95//1 96//1 94//1
f 95//1 97//1 98//1 96//1
f 97//1 99//1 100//1 98//1
f 99//1 101//1 102//1 100//1
f 101//1 103//1 104//1 102//1
f 103//1 105//1 106//1 104//1
f 105//1 107//1 108//1 106//1
f 107//1 109//1 110//1 108//1
f 109//1 111//1 112//1 110//1
f 111//1 113//1 114//1 112//1
f 113//1 115//1 116//1 114//1
f 115//1 117//1 118//1 116//1
f 117//1 119//1 120//1 118//1
f 119//1 121//1 122//1 120//1
f 121//1 123//1 124//1 122//1
f 123//1 125//1 126//1 124//1
f 125//1 127//1 128//1 126//1
f 127//1 129//1 130//1 128//1
f 129//1 131//1 132//1 130//1
f 131//1 133//1 134//1 132//1
f 133//1 1//1 4//1 134//1
# 67 faces

