# created with CityEngine 2019.0.5403 0409R (based on Esri Procedural Runtime 2.0.5403, build date: Tue 04/09/2019 10:26 AM)
# creation date: Tue Apr  5 19:05:28 2022

mtllib 20220405_SGP_GF_Border.mtl

# mesh 'mesh_CityEngineMaterial_23' from geometry 'mesh_CityEngineMaterial_23'
v -25.077 0.000 9.473
v -25.698 0.000 8.151
v -26.165 0.000 8.098
v -25.270 0.000 10.005
v 11.914 0.000 -39.772
v 11.352 0.000 -39.704
v 0.909 0.000 -48.409
v 0.977 0.000 -47.848
v -42.025 0.000 6.294
v -41.558 0.000 6.347
v -22.251 0.000 48.409
v -22.059 0.000 47.877
v -9.588 0.000 42.464
v -10.120 0.000 42.272
v -19.134 0.000 22.132
v -19.666 0.000 21.940
v -6.486 0.000 16.194
v -6.303 0.000 15.666
v 3.619 0.000 36.268
v 3.800 0.000 35.737
v 42.025 0.000 17.828
v 41.495 0.000 17.639
v 36.083 0.000 5.172
v 35.891 0.000 5.704
v 9.833 0.000 17.497
v 9.650 0.000 18.025
v 6.183 0.000 10.246
v 5.641 0.000 10.058
v 22.148 0.000 2.750
v 21.616 0.000 2.558
v 16.204 0.000 -9.909
v 16.012 0.000 -9.377
# 32 vertices

vn 0.000 1.000 0.000
# 1 vertex normal

g CityEngineMaterial
s off
usemtl CityEngineMaterial
f 1//1 2//1 3//1 4//1
f 2//1 5//1 6//1 3//1
f 5//1 7//1 8//1 6//1
f 7//1 9//1 10//1 8//1
f 9//1 11//1 12//1 10//1
f 11//1 13//1 14//1 12//1
f 13//1 15//1 16//1 14//1
f 15//1 17//1 18//1 16//1
f 17//1 19//1 20//1 18//1
f 19//1 21//1 22//1 20//1
f 21//1 23//1 24//1 22//1
f 23//1 25//1 26//1 24//1
f 25//1 27//1 28//1 26//1
f 27//1 29//1 30//1 28//1
f 29//1 31//1 32//1 30//1
f 31//1 1//1 4//1 32//1
# 16 faces

