# created with CityEngine 2019.0.5403 0409R (based on Esri Procedural Runtime 2.0.5403, build date: Tue 04/09/2019 10:26 AM)
# creation date: Tue Apr  5 19:05:28 2022

mtllib 20220405_SGP_GF_Border.mtl

# mesh 'mesh_CityEngineMaterial_21' from geometry 'mesh_CityEngineMaterial_21'
v -1.211 0.000 2.429
v 2.687 0.000 -0.939
v 2.080 0.000 -0.942
v -1.140 0.000 1.840
v 1.682 0.000 -1.829
v 1.397 0.000 -1.547
v 1.162 0.000 -2.429
v 1.114 0.000 -1.874
v -2.687 0.000 0.700
v -2.087 0.000 0.728
v -2.337 0.000 1.044
v -2.048 0.000 0.767
v -1.908 0.000 1.517
v -1.604 0.000 1.257
v -1.508 0.000 2.013
v -1.189 0.000 1.771
# 16 vertices

vn 0.000 1.000 0.000
# 1 vertex normal

g CityEngineMaterial
s off
usemtl CityEngineMaterial
f 1//1 2//1 3//1 4//1
f 2//1 5//1 6//1 3//1
f 5//1 7//1 8//1 6//1
f 7//1 9//1 10//1 8//1
f 9//1 11//1 12//1 10//1
f 11//1 13//1 14//1 12//1
f 13//1 15//1 16//1 14//1
f 15//1 1//1 4//1 16//1
# 8 faces

