# created with CityEngine 2019.0.5403 0409R (based on Esri Procedural Runtime 2.0.5403, build date: Tue 04/09/2019 10:26 AM)
# creation date: Tue Apr  5 19:05:24 2022

mtllib 20220405_SGP_GF_Border.mtl

# mesh 'mesh_CityEngineMaterial' from geometry 'mesh_CityEngineMaterial'
v 42.007 0.000 4.404
v 43.231 0.000 3.809
v 43.034 0.000 3.460
v 41.854 0.000 4.034
v 44.374 0.000 3.072
v 44.137 0.000 2.749
v 45.421 0.000 2.204
v 45.152 0.000 1.907
v 47.495 0.000 0.158
v 47.213 0.000 -0.125
v 49.556 0.000 -1.900
v 49.272 0.000 -2.182
v 49.655 0.000 -2.001
v 49.371 0.000 -2.282
v 49.705 0.000 -2.051
v 49.421 0.000 -2.332
v 51.604 0.000 -3.971
v 51.319 0.000 -4.251
v 53.639 0.000 -6.054
v 53.352 0.000 -6.333
v 55.662 0.000 -8.150
v 55.373 0.000 -8.427
v 57.671 0.000 -10.259
v 57.381 0.000 -10.534
v 59.667 0.000 -12.380
v 59.375 0.000 -12.653
v 61.650 0.000 -14.513
v 61.357 0.000 -14.785
v 65.447 0.000 -18.649
v 65.149 0.000 -18.916
v 65.730 0.000 -18.971
v 65.425 0.000 -19.229
v 66.000 0.000 -19.305
v 65.684 0.000 -19.550
v 66.191 0.000 -19.562
v 65.867 0.000 -19.798
v 66.271 0.000 -19.674
v 65.943 0.000 -19.903
v 66.497 0.000 -20.007
v 66.165 0.000 -20.230
v 66.502 0.000 -20.015
v 66.618 0.000 -20.202
v 66.283 0.000 -20.421
v 66.716 0.000 -20.344
v 66.384 0.000 -20.568
v 66.877 0.000 -20.590
v 66.541 0.000 -20.806
v 67.034 0.000 -20.838
v 66.694 0.000 -21.048
v 67.186 0.000 -21.090
v 66.841 0.000 -21.293
v 67.314 0.000 -21.312
v 66.965 0.000 -21.509
v 67.474 0.000 -21.602
v 67.123 0.000 -21.795
v 67.848 0.000 -22.280
v 67.489 0.000 -22.458
v 67.970 0.000 -22.557
v 67.604 0.000 -22.719
v 68.457 0.000 -23.663
v 68.091 0.000 -23.825
v 68.557 0.000 -23.891
v 68.191 0.000 -24.053
v 68.711 0.000 -24.241
v 68.338 0.000 -24.386
v 69.396 0.000 -26.271
v 69.011 0.000 -26.382
v 69.897 0.000 -28.354
v 69.504 0.000 -28.430
v 70.210 0.000 -30.473
v 69.812 0.000 -30.514
v 70.315 0.000 -32.288
v 69.915 0.000 -32.297
v 70.301 0.000 -33.354
v 69.901 0.000 -33.349
v 70.288 0.000 -34.406
v 69.888 0.000 -34.401
v 70.274 0.000 -35.457
v 69.874 0.000 -35.452
v 70.263 0.000 -36.299
v 69.863 0.000 -36.285
v 70.253 0.000 -36.477
v 69.854 0.000 -36.455
v 70.240 0.000 -36.704
v 69.841 0.000 -36.680
v 70.214 0.000 -37.109
v 69.815 0.000 -37.082
v 70.197 0.000 -37.350
v 69.798 0.000 -37.321
v 70.185 0.000 -37.515
v 69.786 0.000 -37.484
v 70.152 0.000 -37.920
v 69.754 0.000 -37.886
v 70.129 0.000 -38.178
v 69.731 0.000 -38.143
v 70.117 0.000 -38.324
v 69.718 0.000 -38.288
v 70.078 0.000 -38.729
v 69.680 0.000 -38.689
v 70.053 0.000 -38.967
v 69.655 0.000 -38.926
v 70.036 0.000 -39.133
v 69.638 0.000 -39.090
v 69.991 0.000 -39.536
v 69.593 0.000 -39.490
v 69.968 0.000 -39.722
v 69.571 0.000 -39.675
v 69.942 0.000 -39.940
v 69.545 0.000 -39.890
v 69.891 0.000 -40.343
v 69.494 0.000 -40.290
v 69.876 0.000 -40.448
v 69.480 0.000 -40.394
v 69.836 0.000 -40.745
v 69.440 0.000 -40.690
v 69.778 0.000 -41.147
v 69.385 0.000 -41.074
v 69.746 0.000 -41.287
v 69.353 0.000 -41.211
v 69.738 0.000 -41.340
v 69.343 0.000 -41.278
v 69.721 0.000 -41.444
v 69.326 0.000 -41.382
v 69.684 0.000 -41.682
v 69.290 0.000 -41.611
v 69.362 0.000 -43.267
v 68.972 0.000 -43.179
v 69.203 0.000 -43.910
v 68.815 0.000 -43.813
v 68.972 0.000 -44.837
v 68.586 0.000 -44.732
v 68.514 0.000 -46.388
v 68.133 0.000 -46.267
v 67.989 0.000 -47.918
v 67.613 0.000 -47.780
v 67.397 0.000 -49.424
v 67.028 0.000 -49.269
v 66.741 0.000 -50.902
v 66.379 0.000 -50.732
v 66.021 0.000 -52.350
v 65.666 0.000 -52.164
v 65.238 0.000 -53.766
v 64.892 0.000 -53.564
v 64.394 0.000 -55.146
v 64.053 0.000 -54.937
v 62.282 0.000 -58.575
v 61.952 0.000 -58.347
v 59.824 0.000 -61.765
v 59.513 0.000 -61.514
v 48.756 0.000 -74.908
v 48.756 0.000 -74.406
v 48.758 0.000 -74.285
v 48.506 0.000 -74.611
v 42.907 0.000 -67.599
v 43.223 0.000 -67.354
v 37.495 0.000 -60.441
v 37.817 0.000 -60.204
v 32.275 0.000 -53.142
v 32.603 0.000 -52.914
v 27.250 0.000 -45.708
v 27.584 0.000 -45.488
v 22.423 0.000 -38.143
v 22.763 0.000 -37.932
v 20.465 0.000 -34.887
v 20.808 0.000 -34.681
v 17.799 0.000 -30.453
v 18.144 0.000 -30.251
v 13.379 0.000 -22.643
v 13.730 0.000 -22.451
v 9.170 0.000 -14.722
v 9.677 0.000 -14.824
v 11.502 0.000 -12.814
v 12.050 0.000 -12.883
v 9.419 0.000 -9.993
v 9.738 0.000 -9.751
v 4.874 0.000 -4.205
v 5.185 0.000 -3.953
v 0.159 0.000 1.446
v 0.462 0.000 1.706
v -4.722 0.000 6.954
v -4.427 0.000 7.223
v -9.765 0.000 12.314
v -9.478 0.000 12.593
v -14.964 0.000 17.523
v -14.685 0.000 17.810
v -20.316 0.000 22.575
v -20.046 0.000 22.870
v -22.844 0.000 24.823
v -22.974 0.000 25.474
v -24.561 0.000 21.270
v -24.716 0.000 21.869
v -29.204 0.000 24.557
v -28.970 0.000 24.882
v -33.108 0.000 27.404
v -32.870 0.000 27.725
v -37.652 0.000 30.830
v -37.409 0.000 31.148
v -42.140 0.000 34.330
v -41.892 0.000 34.644
v -46.571 0.000 37.903
v -46.317 0.000 38.212
v -50.943 0.000 41.546
v -50.684 0.000 41.852
v -55.255 0.000 45.261
v -54.991 0.000 45.562
v -56.197 0.000 46.099
v -55.931 0.000 46.398
v -57.381 0.000 47.153
v -57.115 0.000 47.451
v -59.506 0.000 49.044
v -59.238 0.000 49.341
v -63.696 0.000 52.897
v -63.423 0.000 53.189
v -70.315 0.000 59.184
v -69.733 0.000 59.184
v -62.275 0.000 66.773
v -62.001 0.000 66.482
v -61.386 0.000 67.612
v -61.112 0.000 67.321
v -61.320 0.000 67.675
v -60.754 0.000 67.659
v -63.126 0.000 69.588
v -62.560 0.000 69.572
v -60.012 0.000 72.527
v -59.744 0.000 72.230
v -59.412 0.000 73.043
v -59.166 0.000 72.727
v -58.742 0.000 73.518
v -58.526 0.000 73.181
v -58.031 0.000 73.928
v -57.847 0.000 73.572
v -57.284 0.000 74.270
v -57.134 0.000 73.899
v -56.509 0.000 74.542
v -56.394 0.000 74.158
v -55.712 0.000 74.739
v -55.633 0.000 74.347
v -54.899 0.000 74.862
v -54.858 0.000 74.463
v -54.079 0.000 74.908
v -54.075 0.000 74.508
v -53.259 0.000 74.878
v -53.292 0.000 74.479
v -52.444 0.000 74.771
v -52.515 0.000 74.377
v -51.643 0.000 74.589
v -51.750 0.000 74.203
v -50.830 0.000 74.322
v -50.983 0.000 73.951
v -50.062 0.000 73.938
v -50.245 0.000 73.582
v -46.933 0.000 72.303
v -47.473 0.000 72.133
v -48.215 0.000 69.850
v -48.755 0.000 69.680
v -46.996 0.000 69.213
v -47.181 0.000 68.858
v -45.871 0.000 68.625
v -46.059 0.000 68.272
v -41.250 0.000 66.104
v -41.445 0.000 65.755
v -36.682 0.000 63.506
v -37.396 0.000 63.452
v -37.783 0.000 62.637
v -38.497 0.000 62.582
v -37.329 0.000 62.378
v -37.530 0.000 62.032
v -36.328 0.000 61.785
v -36.296 0.000 61.301
v -35.235 0.000 62.648
v -35.203 0.000 62.164
v -32.149 0.000 60.819
v -32.356 0.000 60.476
v -27.670 0.000 58.055
v -27.883 0.000 57.716
v -23.241 0.000 55.211
v -23.460 0.000 54.877
v -18.865 0.000 52.289
v -19.105 0.000 51.969
v -18.091 0.000 51.640
v -18.363 0.000 51.345
v -17.382 0.000 50.921
v -17.679 0.000 50.653
v -16.741 0.000 50.141
v -17.062 0.000 49.901
v -16.175 0.000 49.304
v -16.517 0.000 49.095
v -15.689 0.000 48.419
v -16.049 0.000 48.243
v -15.287 0.000 47.493
v -15.661 0.000 47.350
v -14.935 0.000 46.423
v -12.406 0.000 37.450
v -14.964 0.000 46.545
v -14.305 0.000 45.496
v -12.163 0.000 44.273
v -12.417 0.000 43.964
v -4.604 0.000 37.946
v -4.863 0.000 37.642
v 2.859 0.000 31.506
v 2.595 0.000 31.205
v 10.222 0.000 24.952
v 9.954 0.000 24.655
v 17.485 0.000 18.287
v 17.212 0.000 17.994
v 24.645 0.000 11.512
v 24.368 0.000 11.224
v 31.702 0.000 4.630
v 31.421 0.000 4.346
v 32.380 0.000 3.948
v 32.310 0.000 3.451
v 32.760 0.000 4.158
v 32.933 0.000 3.796
v 34.020 0.000 4.670
v 34.148 0.000 4.291
v 35.332 0.000 5.028
v 35.414 0.000 4.636
v 36.678 0.000 5.227
v 36.713 0.000 4.827
v 38.038 0.000 5.263
v 38.025 0.000 4.862
v 39.392 0.000 5.136
v 39.331 0.000 4.740
v 40.722 0.000 4.849
v 40.614 0.000 4.463
# 325 vertices

vn 0.000 1.000 0.000
# 1 vertex normal

g CityEngineMaterial
s off
usemtl CityEngineMaterial
f 1//1 2//1 3//1 4//1
f 2//1 5//1 6//1 3//1
f 5//1 7//1 8//1 6//1
f 7//1 9//1 10//1 8//1
f 9//1 11//1 12//1 10//1
f 11//1 13//1 14//1 12//1
f 13//1 15//1 16//1 14//1
f 15//1 17//1 18//1 16//1
f 17//1 19//1 20//1 18//1
f 19//1 21//1 22//1 20//1
f 21//1 23//1 24//1 22//1
f 23//1 25//1 26//1 24//1
f 25//1 27//1 28//1 26//1
f 27//1 29//1 30//1 28//1
f 29//1 31//1 32//1 30//1
f 31//1 33//1 34//1 32//1
f 33//1 35//1 36//1 34//1
f 35//1 37//1 38//1 36//1
f 37//1 39//1 40//1 38//1
f 39//1 41//1 40//1
f 41//1 42//1 43//1 40//1
f 42//1 44//1 45//1 43//1
f 44//1 46//1 47//1 45//1
f 46//1 48//1 49//1 47//1
f 48//1 50//1 51//1 49//1
f 50//1 52//1 53//1 51//1
f 52//1 54//1 55//1 53//1
f 54//1 56//1 57//1 55//1
f 56//1 58//1 59//1 57//1
f 58//1 60//1 61//1 59//1
f 60//1 62//1 63//1 61//1
f 62//1 64//1 65//1 63//1
f 64//1 66//1 67//1 65//1
f 66//1 68//1 69//1 67//1
f 68//1 70//1 71//1 69//1
f 70//1 72//1 73//1 71//1
f 72//1 74//1 75//1 73//1
f 74//1 76//1 77//1 75//1
f 76//1 78//1 79//1 77//1
f 78//1 80//1 81//1 79//1
f 80//1 82//1 83//1 81//1
f 82//1 84//1 85//1 83//1
f 84//1 86//1 87//1 85//1
f 86//1 88//1 89//1 87//1
f 88//1 90//1 91//1 89//1
f 90//1 92//1 93//1 91//1
f 92//1 94//1 95//1 93//1
f 94//1 96//1 97//1 95//1
f 96//1 98//1 99//1 97//1
f 98//1 100//1 101//1 99//1
f 100//1 102//1 103//1 101//1
f 102//1 104//1 105//1 103//1
f 104//1 106//1 107//1 105//1
f 106//1 108//1 109//1 107//1
f 108//1 110//1 111//1 109//1
f 110//1 112//1 113//1 111//1
f 112//1 114//1 115//1 113//1
f 114//1 116//1 117//1 115//1
f 116//1 118//1 119//1 117//1
f 118//1 120//1 121//1 119//1
f 120//1 122//1 123//1 121//1
f 122//1 124//1 125//1 123//1
f 124//1 126//1 127//1 125//1
f 126//1 128//1 129//1 127//1
f 128//1 130//1 131//1 129//1
f 130//1 132//1 133//1 131//1
f 132//1 134//1 135//1 133//1
f 134//1 136//1 137//1 135//1
f 136//1 138//1 139//1 137//1
f 138//1 140//1 141//1 139//1
f 140//1 142//1 143//1 141//1
f 142//1 144//1 145//1 143//1
f 144//1 146//1 147//1 145//1
f 146//1 148//1 149//1 147//1
f 148//1 150//1 151//1 152//1 149//1
f 150//1 153//1 151//1
f 153//1 154//1 155//1 152//1 151//1
f 154//1 156//1 157//1 155//1
f 156//1 158//1 159//1 157//1
f 158//1 160//1 161//1 159//1
f 160//1 162//1 163//1 161//1
f 162//1 164//1 165//1 163//1
f 164//1 166//1 167//1 165//1
f 166//1 168//1 169//1 167//1
f 168//1 170//1 171//1 169//1
f 170//1 172//1 173//1 171//1
f 172//1 174//1 175//1 173//1
f 174//1 176//1 177//1 175//1
f 176//1 178//1 179//1 177//1
f 178//1 180//1 181//1 179//1
f 180//1 182//1 183//1 181//1
f 182//1 184//1 185//1 183//1
f 184//1 186//1 187//1 185//1
f 186//1 188//1 189//1 187//1
f 188//1 190//1 191//1 189//1
f 190//1 192//1 193//1 191//1
f 192//1 194//1 195//1 193//1
f 194//1 196//1 197//1 195//1
f 196//1 198//1 199//1 197//1
f 198//1 200//1 201//1 199//1
f 200//1 202//1 203//1 201//1
f 202//1 204//1 205//1 203//1
f 204//1 206//1 207//1 205//1
f 206//1 208//1 209//1 207//1
f 208//1 210//1 211//1 209//1
f 210//1 212//1 213//1 211//1
f 212//1 214//1 215//1 213//1
f 214//1 216//1 217//1 215//1
f 216//1 218//1 219//1 217//1
f 218//1 220//1 221//1 219//1
f 220//1 222//1 223//1 221//1
f 222//1 224//1 225//1 223//1
f 224//1 226//1 227//1 225//1
f 226//1 228//1 229//1 227//1
f 228//1 230//1 231//1 229//1
f 230//1 232//1 233//1 231//1
f 232//1 234//1 235//1 233//1
f 234//1 236//1 237//1 235//1
f 236//1 238//1 239//1 237//1
f 238//1 240//1 241//1 239//1
f 240//1 242//1 243//1 241//1
f 242//1 244//1 245//1 243//1
f 244//1 246//1 247//1 245//1
f 246//1 248//1 249//1 247//1
f 248//1 250//1 251//1 249//1
f 250//1 252//1 253//1 251//1
f 252//1 254//1 255//1 253//1
f 254//1 256//1 257//1 255//1
f 256//1 258//1 259//1 257//1
f 258//1 260//1 261//1 259//1
f 260//1 262//1 263//1 261//1
f 262//1 264//1 265//1 263//1
f 264//1 266//1 267//1 265//1
f 266//1 268//1 269//1 267//1
f 268//1 270//1 271//1 269//1
f 270//1 272//1 273//1 271//1
f 272//1 274//1 275//1 273//1
f 274//1 276//1 277//1 275//1
f 276//1 278//1 279//1 277//1
f 278//1 280//1 281//1 279//1
f 280//1 282//1 283//1 281//1
f 282//1 284//1 285//1 283//1
f 284//1 286//1 287//1 285//1
f 286//1 288//1 289//1 287//1
f 288//1 290//1 291//1 289//1
f 290//1 292//1 293//1 291//1
f 292//1 294//1 295//1 293//1
f 294//1 296//1 297//1 295//1
f 296//1 298//1 299//1 297//1
f 298//1 300//1 301//1 299//1
f 300//1 302//1 303//1 301//1
f 302//1 304//1 305//1 303//1
f 304//1 306//1 307//1 305//1
f 306//1 308//1 309//1 307//1
f 308//1 310//1 311//1 309//1
f 310//1 312//1 313//1 311//1
f 312//1 314//1 315//1 313//1
f 314//1 316//1 317//1 315//1
f 316//1 318//1 319//1 317//1
f 318//1 320//1 321//1 319//1
f 320//1 322//1 323//1 321//1
f 322//1 324//1 325//1 323//1
f 324//1 1//1 4//1 325//1
# 163 faces

