# created with CityEngine 2019.0.5403 0409R (based on Esri Procedural Runtime 2.0.5403, build date: Tue 04/09/2019 10:26 AM)
# creation date: Tue Apr  5 19:06:22 2022

mtllib 20220405_SGP_GF_Base.mtl

# mesh 'mesh_CityEngineMaterial_29' from geometry 'mesh_CityEngineMaterial_29'
v -21.721 0.000 -88.199
v -17.768 0.000 -80.771
v -27.341 0.000 -97.320
v -28.297 0.000 -98.670
v -29.405 0.000 -99.876
v -29.985 0.000 -100.364
v -33.325 0.000 -102.036
v -34.964 0.000 -102.602
v -36.644 0.000 -102.937
v -38.334 0.000 -103.031
v -40.001 0.000 -102.882
v -41.614 0.000 -102.490
v -42.524 0.000 -102.116
v -59.404 0.000 -91.715
v -60.478 0.000 -90.962
v -61.446 0.000 -90.093
v -62.306 0.000 -89.114
v -63.047 0.000 -88.037
v -63.659 0.000 -86.877
v -64.133 0.000 -85.647
v -64.464 0.000 -84.365
v -64.647 0.000 -83.048
v -64.679 0.000 -81.712
v -64.559 0.000 -80.376
v -64.290 0.000 -79.058
v -63.883 0.000 -77.801
v -28.341 0.000 -20.811
v -27.675 0.000 -19.629
v -26.943 0.000 -18.514
v -26.140 0.000 -17.458
v -25.276 0.000 -16.473
v -24.361 0.000 -15.569
v -23.404 0.000 -14.755
v -22.416 0.000 -14.041
v -21.409 0.000 -13.434
v -20.394 0.000 -12.939
v -19.382 0.000 -12.563
v -18.384 0.000 -12.307
v -16.695 0.000 -12.069
v -7.419 0.000 -11.374
v -5.356 0.000 -9.180
v 0.036 0.000 -2.705
v 1.497 0.000 -0.718
v -0.907 0.000 6.595
v -1.449 0.000 9.091
v -1.584 0.000 10.481
v -1.553 0.000 11.439
v -1.498 0.000 11.844
v -1.357 0.000 12.540
v -1.168 0.000 13.244
v -0.933 0.000 13.949
v -0.653 0.000 14.652
v -0.330 0.000 15.346
v 0.023 0.000 16.009
v 1.514 0.000 18.011
v 3.040 0.000 19.674
v 2.727 0.000 20.712
v 2.488 0.000 22.031
v 2.397 0.000 23.374
v 2.455 0.000 24.694
v 21.577 0.000 89.079
v 21.905 0.000 90.396
v 22.314 0.000 91.665
v 22.808 0.000 92.896
v 23.379 0.000 94.075
v 24.021 0.000 95.190
v 24.727 0.000 96.229
v 25.490 0.000 97.180
v 26.299 0.000 98.033
v 27.147 0.000 98.779
v 28.023 0.000 99.411
v 28.917 0.000 99.923
v 30.482 0.000 100.601
v 37.271 0.000 103.031
v 64.679 0.000 95.053
v 58.115 0.000 77.923
v 58.232 0.000 77.213
v 58.401 0.000 75.941
v 58.529 0.000 74.667
v 58.614 0.000 73.393
v 58.667 0.000 71.742
v 58.576 0.000 70.112
v 58.342 0.000 68.515
v 57.967 0.000 66.967
v 57.455 0.000 65.482
v 56.812 0.000 64.075
v 56.043 0.000 62.757
v 55.156 0.000 61.541
v 54.160 0.000 60.439
v 53.064 0.000 59.460
v 52.767 0.000 59.248
v 49.907 0.000 44.621
v 53.504 0.000 42.405
v 54.193 0.000 41.901
v 54.790 0.000 41.303
v 55.297 0.000 40.609
v 55.706 0.000 39.829
v 56.009 0.000 38.978
v 56.199 0.000 38.067
v 56.274 0.000 37.113
v 56.230 0.000 36.133
v 56.067 0.000 35.143
v 55.788 0.000 34.162
v 55.397 0.000 33.207
v 54.896 0.000 32.285
v 39.022 0.000 6.522
v 37.227 0.000 7.435
v 33.059 0.000 -0.757
v 28.483 0.000 -8.483
v 28.338 0.000 -8.701
v 28.229 0.000 -8.941
v 24.107 0.000 -16.920
v 19.534 0.000 -24.532
v 14.468 0.000 -31.860
v 9.190 0.000 -38.548
v 6.975 0.000 -37.005
v -8.214 0.000 -61.818
v -7.892 0.000 -63.514
v -7.786 0.000 -64.978
v -7.837 0.000 -66.463
v -8.045 0.000 -67.953
v -8.410 0.000 -69.434
v -8.927 0.000 -70.893
v -9.592 0.000 -72.316
v -10.400 0.000 -73.689
v -11.342 0.000 -74.999
v -12.411 0.000 -76.233
v -13.597 0.000 -77.382
v -14.545 0.000 -78.238
v -15.523 0.000 -79.064
v -16.529 0.000 -79.861
v -21.721 0.400 -88.199
v -27.341 0.400 -97.320
v -28.297 0.400 -98.670
v -29.405 0.400 -99.876
v -29.985 0.400 -100.364
v -33.325 0.400 -102.036
v -34.964 0.400 -102.602
v -36.644 0.400 -102.937
v -38.334 0.400 -103.031
v -40.001 0.400 -102.882
v -41.614 0.400 -102.490
v -42.524 0.400 -102.116
v -59.404 0.400 -91.715
v -60.478 0.400 -90.962
v -61.446 0.400 -90.093
v -62.306 0.400 -89.114
v -63.047 0.400 -88.037
v -63.659 0.400 -86.877
v -64.133 0.400 -85.647
v -64.464 0.400 -84.365
v -64.647 0.400 -83.048
v -64.679 0.400 -81.712
v -64.559 0.400 -80.376
v -64.290 0.400 -79.058
v -63.883 0.400 -77.801
v -28.341 0.400 -20.811
v -27.675 0.400 -19.629
v -26.943 0.400 -18.514
v -26.140 0.400 -17.458
v -25.276 0.400 -16.473
v -24.361 0.400 -15.569
v -23.404 0.400 -14.755
v -22.416 0.400 -14.041
v -21.409 0.400 -13.434
v -20.394 0.400 -12.939
v -19.382 0.400 -12.563
v -18.384 0.400 -12.307
v -16.695 0.400 -12.069
v -7.419 0.400 -11.374
v -5.356 0.400 -9.180
v 0.036 0.400 -2.705
v 1.497 0.400 -0.718
v -0.907 0.400 6.595
v -1.449 0.400 9.091
v -1.584 0.400 10.481
v -1.553 0.400 11.439
v -1.498 0.400 11.844
v -1.357 0.400 12.540
v -1.168 0.400 13.244
v -0.933 0.400 13.949
v -0.653 0.400 14.652
v -0.330 0.400 15.346
v 0.023 0.400 16.009
v 1.514 0.400 18.011
v 3.040 0.400 19.674
v 2.727 0.400 20.712
v 2.488 0.400 22.031
v 2.397 0.400 23.374
v 2.455 0.400 24.694
v 21.577 0.400 89.079
v 21.905 0.400 90.396
v 22.314 0.400 91.665
v 22.808 0.400 92.896
v 23.379 0.400 94.075
v 24.021 0.400 95.190
v 24.727 0.400 96.229
v 25.490 0.400 97.180
v 26.299 0.400 98.033
v 27.147 0.400 98.779
v 28.023 0.400 99.411
v 28.917 0.400 99.923
v 30.482 0.400 100.601
v 37.271 0.400 103.031
v 64.679 0.400 95.053
v 58.115 0.400 77.923
v 58.232 0.400 77.213
v 58.401 0.400 75.941
v 58.529 0.400 74.667
v 58.614 0.400 73.393
v 58.667 0.400 71.742
v 58.576 0.400 70.112
v 58.342 0.400 68.515
v 57.967 0.400 66.967
v 57.455 0.400 65.482
v 56.812 0.400 64.075
v 56.043 0.400 62.757
v 55.156 0.400 61.541
v 54.160 0.400 60.439
v 53.064 0.400 59.460
v 52.767 0.400 59.248
v 49.907 0.400 44.621
v 53.504 0.400 42.405
v 54.193 0.400 41.901
v 54.790 0.400 41.303
v 55.297 0.400 40.609
v 55.706 0.400 39.829
v 56.009 0.400 38.978
v 56.199 0.400 38.067
v 56.274 0.400 37.113
v 56.230 0.400 36.133
v 56.067 0.400 35.143
v 55.788 0.400 34.162
v 55.397 0.400 33.207
v 54.896 0.400 32.285
v 39.022 0.400 6.522
v 37.227 0.400 7.435
v 33.059 0.400 -0.757
v 28.483 0.400 -8.483
v 28.338 0.400 -8.701
v 28.229 0.400 -8.941
v 24.107 0.400 -16.920
v 19.534 0.400 -24.532
v 14.468 0.400 -31.860
v 9.190 0.400 -38.548
v 6.975 0.400 -37.005
v -8.214 0.400 -61.818
v -7.892 0.400 -63.514
v -7.786 0.400 -64.978
v -7.837 0.400 -66.463
v -8.045 0.400 -67.953
v -8.410 0.400 -69.434
v -8.927 0.400 -70.893
v -9.592 0.400 -72.316
v -10.400 0.400 -73.689
v -11.342 0.400 -74.999
v -12.411 0.400 -76.233
v -13.597 0.400 -77.382
v -14.545 0.400 -78.238
v -15.523 0.400 -79.064
v -16.529 0.400 -79.861
v -17.768 0.400 -80.771
# 262 vertices

vn 0.000 -1.000 0.000
vn 0.000 1.000 0.000
vn 0.851 0.000 -0.525
vn 0.816 0.000 -0.578
vn 0.736 0.000 -0.677
vn 0.644 0.000 -0.765
vn 0.448 0.000 -0.894
vn 0.327 0.000 -0.945
vn 0.195 0.000 -0.981
vn 0.056 0.000 -0.998
vn -0.089 0.000 -0.996
vn -0.236 0.000 -0.972
vn -0.381 0.000 -0.925
vn -0.525 0.000 -0.851
vn -0.574 0.000 -0.819
vn -0.668 0.000 -0.744
vn -0.751 0.000 -0.660
vn -0.824 0.000 -0.567
vn -0.885 0.000 -0.466
vn -0.933 0.000 -0.360
vn -0.968 0.000 -0.250
vn -0.991 0.000 -0.137
vn -1.000 0.000 -0.024
vn -0.996 0.000 0.089
vn -0.980 0.000 0.200
vn -0.951 0.000 0.308
vn -0.849 0.000 0.529
vn -0.871 0.000 0.491
vn -0.836 0.000 0.549
vn -0.796 0.000 0.605
vn -0.752 0.000 0.659
vn -0.703 0.000 0.711
vn -0.648 0.000 0.762
vn -0.586 0.000 0.810
vn -0.516 0.000 0.856
vn -0.438 0.000 0.899
vn -0.349 0.000 0.937
vn -0.249 0.000 0.969
vn -0.139 0.000 0.990
vn -0.075 0.000 0.997
vn -0.729 0.000 0.685
vn -0.768 0.000 0.640
vn -0.806 0.000 0.592
vn -0.950 0.000 -0.312
vn -0.977 0.000 -0.212
vn -0.995 0.000 -0.096
vn -0.999 0.000 0.032
vn -0.991 0.000 0.134
vn -0.980 0.000 0.199
vn -0.966 0.000 0.259
vn -0.949 0.000 0.316
vn -0.929 0.000 0.370
vn -0.907 0.000 0.422
vn -0.882 0.000 0.471
vn -0.802 0.000 0.597
vn -0.737 0.000 0.676
vn -0.957 0.000 -0.289
vn -0.984 0.000 -0.179
vn -0.998 0.000 -0.067
vn -0.999 0.000 0.044
vn -0.959 0.000 0.285
vn -0.970 0.000 0.242
vn -0.928 0.000 0.372
vn -0.900 0.000 0.436
vn -0.866 0.000 0.499
vn -0.827 0.000 0.562
vn -0.780 0.000 0.626
vn -0.725 0.000 0.688
vn -0.661 0.000 0.751
vn -0.497 0.000 0.868
vn -0.398 0.000 0.918
vn -0.337 0.000 0.942
vn 0.280 0.000 0.960
vn 0.934 0.000 -0.358
vn 0.987 0.000 0.164
vn 0.991 0.000 0.132
vn 0.995 0.000 0.099
vn 0.998 0.000 0.067
vn 0.999 0.000 0.032
vn 0.998 0.000 -0.056
vn 0.989 0.000 -0.145
vn 0.972 0.000 -0.235
vn 0.945 0.000 -0.326
vn 0.910 0.000 -0.416
vn 0.864 0.000 -0.504
vn 0.808 0.000 -0.589
vn 0.742 0.000 -0.670
vn 0.666 0.000 -0.746
vn 0.581 0.000 -0.814
vn 0.981 0.000 -0.192
vn 0.525 0.000 0.851
vn 0.590 0.000 0.807
vn 0.708 0.000 0.706
vn 0.807 0.000 0.590
vn 0.885 0.000 0.465
vn 0.942 0.000 0.335
vn 0.979 0.000 0.205
vn 0.997 0.000 0.078
vn 0.999 0.000 -0.045
vn 0.987 0.000 -0.162
vn 0.962 0.000 -0.274
vn 0.926 0.000 -0.379
vn 0.879 0.000 -0.478
vn -0.453 0.000 -0.891
vn 0.891 0.000 -0.453
vn 0.860 0.000 -0.510
vn 0.833 0.000 -0.553
vn 0.910 0.000 -0.414
vn 0.888 0.000 -0.459
vn 0.857 0.000 -0.515
vn 0.823 0.000 -0.569
vn 0.785 0.000 -0.620
vn -0.572 0.000 -0.821
vn 0.853 0.000 -0.522
vn 0.982 0.000 0.186
vn 0.997 0.000 0.073
vn 0.999 0.000 -0.034
vn 0.990 0.000 -0.139
vn 0.971 0.000 -0.239
vn 0.943 0.000 -0.334
vn 0.906 0.000 -0.424
vn 0.862 0.000 -0.507
vn 0.812 0.000 -0.584
vn 0.756 0.000 -0.654
vn 0.696 0.000 -0.718
vn 0.670 0.000 -0.742
vn 0.646 0.000 -0.764
vn 0.621 0.000 -0.784
vn 0.592 0.000 -0.806
vn 0.883 0.000 -0.470
# 130 vertex normals

g CityEngineMaterial
s off
usemtl CityEngineMaterial
f 3//1 1//1 2//1 131//1 130//1 129//1 128//1 127//1 126//1 125//1 124//1 123//1 122//1 121//1 120//1 119//1 118//1 117//1 116//1 115//1 114//1 113//1 112//1 111//1 110//1 109//1 108//1 107//1 106//1 105//1 104//1 103//1 102//1 101//1 100//1 99//1 98//1 97//1 96//1 95//1 94//1 93//1 92//1 91//1 90//1 89//1 88//1 87//1 86//1 85//1 84//1 83//1 82//1 81//1 80//1 79//1 78//1 77//1 76//1 75//1 74//1 73//1 72//1 71//1 70//1 69//1 68//1 67//1 66//1 65//1 64//1 63//1 62//1 61//1 60//1 59//1 58//1 57//1 56//1 55//1 54//1 53//1 52//1 51//1 50//1 49//1 48//1 47//1 46//1 45//1 44//1 43//1 42//1 41//1 40//1 39//1 38//1 37//1 36//1 35//1 34//1 33//1 32//1 31//1 30//1 29//1 28//1 27//1 26//1 25//1 24//1 23//1 22//1 21//1 20//1 19//1 18//1 17//1 16//1 15//1 14//1 13//1 12//1 11//1 10//1 9//1 8//1 7//1 6//1 5//1 4//1
f 132//2 133//2 134//2 135//2 136//2 137//2 138//2 139//2 140//2 141//2 142//2 143//2 144//2 145//2 146//2 147//2 148//2 149//2 150//2 151//2 152//2 153//2 154//2 155//2 156//2 157//2 158//2 159//2 160//2 161//2 162//2 163//2 164//2 165//2 166//2 167//2 168//2 169//2 170//2 171//2 172//2 173//2 174//2 175//2 176//2 177//2 178//2 179//2 180//2 181//2 182//2 183//2 184//2 185//2 186//2 187//2 188//2 189//2 190//2 191//2 192//2 193//2 194//2 195//2 196//2 197//2 198//2 199//2 200//2 201//2 202//2 203//2 204//2 205//2 206//2 207//2 208//2 209//2 210//2 211//2 212//2 213//2 214//2 215//2 216//2 217//2 218//2 219//2 220//2 221//2 222//2 223//2 224//2 225//2 226//2 227//2 228//2 229//2 230//2 231//2 232//2 233//2 234//2 235//2 236//2 237//2 238//2 239//2 240//2 241//2 242//2 243//2 244//2 245//2 246//2 247//2 248//2 249//2 250//2 251//2 252//2 253//2 254//2 255//2 256//2 257//2 258//2 259//2 260//2 261//2 262//2
f 1//3 3//3 133//3 132//3
f 3//4 4//4 134//4 133//4
f 4//5 5//5 135//5 134//5
f 5//6 6//6 136//6 135//6
f 6//7 7//7 137//7 136//7
f 7//8 8//8 138//8 137//8
f 8//9 9//9 139//9 138//9
f 9//10 10//10 140//10 139//10
f 10//11 11//11 141//11 140//11
f 11//12 12//12 142//12 141//12
f 12//13 13//13 143//13 142//13
f 13//14 14//14 144//14 143//14
f 14//15 15//15 145//15 144//15
f 15//16 16//16 146//16 145//16
f 16//17 17//17 147//17 146//17
f 17//18 18//18 148//18 147//18
f 18//19 19//19 149//19 148//19
f 19//20 20//20 150//20 149//20
f 20//21 21//21 151//21 150//21
f 21//22 22//22 152//22 151//22
f 22//23 23//23 153//23 152//23
f 23//24 24//24 154//24 153//24
f 24//25 25//25 155//25 154//25
f 25//26 26//26 156//26 155//26
f 26//27 27//27 157//27 156//27
f 27//28 28//28 158//28 157//28
f 28//29 29//29 159//29 158//29
f 29//30 30//30 160//30 159//30
f 30//31 31//31 161//31 160//31
f 31//32 32//32 162//32 161//32
f 32//33 33//33 163//33 162//33
f 33//34 34//34 164//34 163//34
f 34//35 35//35 165//35 164//35
f 35//36 36//36 166//36 165//36
f 36//37 37//37 167//37 166//37
f 37//38 38//38 168//38 167//38
f 38//39 39//39 169//39 168//39
f 39//40 40//40 170//40 169//40
f 40//41 41//41 171//41 170//41
f 41//42 42//42 172//42 171//42
f 42//43 43//43 173//43 172//43
f 43//44 44//44 174//44 173//44
f 44//45 45//45 175//45 174//45
f 45//46 46//46 176//46 175//46
f 46//47 47//47 177//47 176//47
f 47//48 48//48 178//48 177//48
f 48//49 49//49 179//49 178//49
f 49//50 50//50 180//50 179//50
f 50//51 51//51 181//51 180//51
f 51//52 52//52 182//52 181//52
f 52//53 53//53 183//53 182//53
f 53//54 54//54 184//54 183//54
f 54//55 55//55 185//55 184//55
f 55//56 56//56 186//56 185//56
f 56//57 57//57 187//57 186//57
f 57//58 58//58 188//58 187//58
f 58//59 59//59 189//59 188//59
f 59//60 60//60 190//60 189//60
f 60//61 61//61 191//61 190//61
f 61//62 62//62 192//62 191//62
f 62//26 63//26 193//26 192//26
f 63//63 64//63 194//63 193//63
f 64//64 65//64 195//64 194//64
f 65//65 66//65 196//65 195//65
f 66//66 67//66 197//66 196//66
f 67//67 68//67 198//67 197//67
f 68//68 69//68 199//68 198//68
f 69//69 70//69 200//69 199//69
f 70//34 71//34 201//34 200//34
f 71//70 72//70 202//70 201//70
f 72//71 73//71 203//71 202//71
f 73//72 74//72 204//72 203//72
f 74//73 75//73 205//73 204//73
f 75//74 76//74 206//74 205//74
f 76//75 77//75 207//75 206//75
f 77//76 78//76 208//76 207//76
f 78//77 79//77 209//77 208//77
f 79//78 80//78 210//78 209//78
f 80//79 81//79 211//79 210//79
f 81//80 82//80 212//80 211//80
f 82//81 83//81 213//81 212//81
f 83//82 84//82 214//82 213//82
f 84//83 85//83 215//83 214//83
f 85//84 86//84 216//84 215//84
f 86//85 87//85 217//85 216//85
f 87//86 88//86 218//86 217//86
f 88//87 89//87 219//87 218//87
f 89//88 90//88 220//88 219//88
f 90//89 91//89 221//89 220//89
f 91//90 92//90 222//90 221//90
f 92//91 93//91 223//91 222//91
f 93//92 94//92 224//92 223//92
f 94//93 95//93 225//93 224//93
f 95//94 96//94 226//94 225//94
f 96//95 97//95 227//95 226//95
f 97//96 98//96 228//96 227//96
f 98//97 99//97 229//97 228//97
f 99//98 100//98 230//98 229//98
f 100//99 101//99 231//99 230//99
f 101//100 102//100 232//100 231//100
f 102//101 103//101 233//101 232//101
f 103//102 104//102 234//102 233//102
f 104//103 105//103 235//103 234//103
f 105//3 106//3 236//3 235//3
f 106//104 107//104 237//104 236//104
f 107//105 108//105 238//105 237//105
f 108//106 109//106 239//106 238//106
f 109//107 110//107 240//107 239//107
f 110//108 111//108 241//108 240//108
f 111//109 112//109 242//109 241//109
f 112//110 113//110 243//110 242//110
f 113//111 114//111 244//111 243//111
f 114//112 115//112 245//112 244//112
f 115//113 116//113 246//113 245//113
f 116//114 117//114 247//114 246//114
f 117//115 118//115 248//115 247//115
f 118//116 119//116 249//116 248//116
f 119//117 120//117 250//117 249//117
f 120//118 121//118 251//118 250//118
f 121//119 122//119 252//119 251//119
f 122//120 123//120 253//120 252//120
f 123//121 124//121 254//121 253//121
f 124//122 125//122 255//122 254//122
f 125//123 126//123 256//123 255//123
f 126//124 127//124 257//124 256//124
f 127//125 128//125 258//125 257//125
f 128//126 129//126 259//126 258//126
f 129//127 130//127 260//127 259//127
f 130//128 131//128 261//128 260//128
f 131//129 2//129 262//129 261//129
f 2//130 1//130 132//130 262//130
# 133 faces

