# created with CityEngine 2019.0.5403 0409R (based on Esri Procedural Runtime 2.0.5403, build date: Tue 04/09/2019 10:26 AM)
# creation date: Tue Apr  5 19:07:08 2022

mtllib 20220405_SGP_UF_Base.mtl

# mesh 'mesh_CityEngineMaterial_30' from geometry 'mesh_CityEngineMaterial_30'
v 25.601 0.000 5.970
v 26.199 0.000 6.678
v -6.245 0.000 -25.666
v -7.007 0.000 -26.301
v -7.851 0.000 -26.785
v -8.767 0.000 -27.115
v -9.726 0.000 -27.280
v -10.699 0.000 -27.277
v -11.657 0.000 -27.105
v -12.571 0.000 -26.769
v -13.412 0.000 -26.280
v -14.155 0.000 -25.652
v -14.778 0.000 -24.904
v -15.262 0.000 -24.059
v -15.598 0.000 -23.127
v -27.072 0.000 20.272
v -27.241 0.000 21.249
v -27.238 0.000 22.222
v -27.066 0.000 23.180
v -26.730 0.000 24.093
v -26.240 0.000 24.935
v -25.612 0.000 25.678
v -24.865 0.000 26.301
v -24.020 0.000 26.785
v -23.105 0.000 27.115
v -22.145 0.000 27.280
v -21.172 0.000 27.277
v -20.196 0.000 27.102
v 23.123 0.000 15.339
v 24.054 0.000 14.997
v 24.895 0.000 14.508
v 25.639 0.000 13.879
v 26.262 0.000 13.132
v 26.746 0.000 12.287
v 26.767 0.000 12.227
v 27.075 0.000 11.372
v 27.241 0.000 10.413
v 27.238 0.000 9.440
v 27.066 0.000 8.482
v 26.730 0.000 7.568
v 26.698 0.000 7.513
v 26.241 0.000 6.727
v 25.601 0.400 5.970
v -6.245 0.400 -25.666
v -7.007 0.400 -26.301
v -7.851 0.400 -26.785
v -8.767 0.400 -27.115
v -9.726 0.400 -27.280
v -10.699 0.400 -27.277
v -11.657 0.400 -27.105
v -12.571 0.400 -26.769
v -13.412 0.400 -26.280
v -14.155 0.400 -25.652
v -14.778 0.400 -24.904
v -15.262 0.400 -24.059
v -15.598 0.400 -23.127
v -27.072 0.400 20.272
v -27.241 0.400 21.249
v -27.238 0.400 22.222
v -27.066 0.400 23.180
v -26.730 0.400 24.093
v -26.240 0.400 24.935
v -25.612 0.400 25.678
v -24.865 0.400 26.301
v -24.020 0.400 26.785
v -23.105 0.400 27.115
v -22.145 0.400 27.280
v -21.172 0.400 27.277
v -20.196 0.400 27.102
v 23.123 0.400 15.339
v 24.054 0.400 14.997
v 24.895 0.400 14.508
v 25.639 0.400 13.879
v 26.262 0.400 13.132
v 26.746 0.400 12.287
v 26.767 0.400 12.227
v 27.075 0.400 11.372
v 27.241 0.400 10.413
v 27.238 0.400 9.440
v 27.066 0.400 8.482
v 26.730 0.400 7.568
v 26.698 0.400 7.513
v 26.241 0.400 6.727
v 26.199 0.400 6.678
# 84 vertices

vn 0.000 -1.000 0.000
vn 0.000 1.000 0.000
vn 0.705 0.000 -0.709
vn 0.640 0.000 -0.768
vn 0.497 0.000 -0.868
vn 0.339 0.000 -0.941
vn 0.170 0.000 -0.985
vn -0.003 0.000 -1.000
vn -0.177 0.000 -0.984
vn -0.345 0.000 -0.939
vn -0.503 0.000 -0.864
vn -0.645 0.000 -0.764
vn -0.768 0.000 -0.640
vn -0.868 0.000 -0.497
vn -0.941 0.000 -0.339
vn -0.967 0.000 -0.256
vn -0.985 0.000 -0.170
vn -1.000 0.000 0.003
vn -0.984 0.000 0.177
vn -0.939 0.000 0.345
vn -0.864 0.000 0.503
vn -0.764 0.000 0.645
vn -0.640 0.000 0.768
vn -0.497 0.000 0.868
vn -0.339 0.000 0.941
vn -0.170 0.000 0.985
vn 0.003 0.000 1.000
vn 0.177 0.000 0.984
vn 0.262 0.000 0.965
vn 0.345 0.000 0.939
vn 0.503 0.000 0.864
vn 0.645 0.000 0.764
vn 0.768 0.000 0.640
vn 0.868 0.000 0.497
vn 0.941 0.000 0.339
vn 0.985 0.000 0.170
vn 1.000 0.000 -0.003
vn 0.984 0.000 -0.177
vn 0.939 0.000 -0.345
vn 0.864 0.000 -0.504
vn 0.864 0.000 -0.503
vn 0.764 0.000 -0.645
# 42 vertex normals

g CityEngineMaterial
s off
usemtl CityEngineMaterial
f 3//1 1//1 2//1 42//1 41//1 40//1 39//1 38//1 37//1 36//1 35//1 34//1 33//1 32//1 31//1 30//1 29//1 28//1 27//1 26//1 25//1 24//1 23//1 22//1 21//1 20//1 19//1 18//1 17//1 16//1 15//1 14//1 13//1 12//1 11//1 10//1 9//1 8//1 7//1 6//1 5//1 4//1
f 43//2 44//2 45//2 46//2 47//2 48//2 49//2 50//2 51//2 52//2 53//2 54//2 55//2 56//2 57//2 58//2 59//2 60//2 61//2 62//2 63//2 64//2 65//2 66//2 67//2 68//2 69//2 70//2 71//2 72//2 73//2 74//2 75//2 76//2 77//2 78//2 79//2 80//2 81//2 82//2 83//2 84//2
f 1//3 3//3 44//3 43//3
f 3//4 4//4 45//4 44//4
f 4//5 5//5 46//5 45//5
f 5//6 6//6 47//6 46//6
f 6//7 7//7 48//7 47//7
f 7//8 8//8 49//8 48//8
f 8//9 9//9 50//9 49//9
f 9//10 10//10 51//10 50//10
f 10//11 11//11 52//11 51//11
f 11//12 12//12 53//12 52//12
f 12//13 13//13 54//13 53//13
f 13//14 14//14 55//14 54//14
f 14//15 15//15 56//15 55//15
f 15//16 16//16 57//16 56//16
f 16//17 17//17 58//17 57//17
f 17//18 18//18 59//18 58//18
f 18//19 19//19 60//19 59//19
f 19//20 20//20 61//20 60//20
f 20//21 21//21 62//21 61//21
f 21//22 22//22 63//22 62//22
f 22//23 23//23 64//23 63//23
f 23//24 24//24 65//24 64//24
f 24//25 25//25 66//25 65//25
f 25//26 26//26 67//26 66//26
f 26//27 27//27 68//27 67//27
f 27//28 28//28 69//28 68//28
f 28//29 29//29 70//29 69//29
f 29//30 30//30 71//30 70//30
f 30//31 31//31 72//31 71//31
f 31//32 32//32 73//32 72//32
f 32//33 33//33 74//33 73//33
f 33//34 34//34 75//34 74//34
f 34//35 35//35 76//35 75//35
f 35//35 36//35 77//35 76//35
f 36//36 37//36 78//36 77//36
f 37//37 38//37 79//37 78//37
f 38//38 39//38 80//38 79//38
f 39//39 40//39 81//39 80//39
f 40//40 41//40 82//40 81//40
f 41//41 42//41 83//41 82//41
f 42//42 2//42 84//42 83//42
f 2//42 1//42 43//42 84//42
# 44 faces

