# created with CityEngine 2019.0.5403 0409R (based on Esri Procedural Runtime 2.0.5403, build date: Tue 04/09/2019 10:26 AM)
# creation date: Tue Apr  5 19:07:53 2022

mtllib 20220405_SGP_UF_Border.mtl

# mesh 'mesh_CityEngineMaterial_26' from geometry 'mesh_CityEngineMaterial_26'
v 33.005 0.000 -6.908
v 33.011 0.000 -6.912
v 33.002 0.000 -6.913
v 32.583 0.000 -7.559
v 32.249 0.000 -7.338
v 32.457 0.000 -7.025
v 28.929 0.000 -13.087
v 28.596 0.000 -12.866
v 19.299 0.000 -27.660
v 19.185 0.000 -27.105
v -33.011 0.000 6.912
v -32.457 0.000 7.025
v -19.298 0.000 27.660
v -19.185 0.000 27.105
# 14 vertices

vn 0.000 1.000 0.000
# 1 vertex normal

g CityEngineMaterial
s off
usemtl CityEngineMaterial
f 1//1 2//1 3//1
f 2//1 4//1 5//1 6//1 3//1
f 4//1 7//1 8//1 5//1
f 7//1 9//1 10//1 8//1
f 9//1 11//1 12//1 10//1
f 11//1 13//1 14//1 12//1
f 13//1 1//1 3//1 6//1 14//1
# 7 faces

