# created with CityEngine 2019.0.5403 0409R (based on Esri Procedural Runtime 2.0.5403, build date: Tue 04/09/2019 10:26 AM)
# creation date: Tue Apr  5 19:07:53 2022

mtllib 20220405_SGP_UF_Border.mtl

# mesh 'mesh_CityEngineMaterial_28' from geometry 'mesh_CityEngineMaterial_28'
v 26.401 0.000 -0.787
v 26.626 0.000 -0.957
v 26.226 0.000 -1.018
v 19.110 0.000 -11.426
v 18.785 0.000 -11.192
v 26.073 0.000 -1.042
v 18.951 0.000 -11.647
v 18.626 0.000 -11.414
v 10.644 0.000 -23.215
v 10.530 0.000 -22.689
v 1.408 0.000 -17.926
v 1.598 0.000 -17.574
v -0.548 0.000 -16.929
v -0.367 0.000 -16.573
v -0.916 0.000 -16.742
v -0.734 0.000 -16.386
v -3.128 0.000 -15.615
v -2.947 0.000 -15.259
v -7.887 0.000 -13.191
v -7.714 0.000 -12.830
v -17.422 0.000 -8.906
v -17.267 0.000 -8.538
v -21.369 0.000 -7.359
v -21.223 0.000 -6.986
v -22.685 0.000 -6.843
v -22.539 0.000 -6.470
v -25.316 0.000 -5.811
v -25.170 0.000 -5.438
v -26.200 0.000 -5.464
v -26.054 0.000 -5.092
v -26.626 0.000 -5.297
v -26.471 0.000 -5.240
v -26.058 0.000 -5.090
v -26.567 0.000 -5.188
v -23.566 0.000 0.324
v -23.215 0.000 0.133
v -23.484 0.000 0.475
v -23.133 0.000 0.283
v -11.102 0.000 23.215
v -10.941 0.000 22.675
v -1.326 0.000 17.970
v -1.524 0.000 17.623
v -0.134 0.000 17.250
v -0.341 0.000 16.908
v 8.210 0.000 12.210
v 7.994 0.000 11.873
v 9.361 0.000 11.431
v 9.137 0.000 11.100
v 10.513 0.000 10.653
v 10.289 0.000 10.321
v 12.816 0.000 9.095
v 12.592 0.000 8.764
v 13.968 0.000 8.316
v 13.744 0.000 7.985
v 16.271 0.000 6.759
v 16.047 0.000 6.427
v 17.423 0.000 5.980
v 17.190 0.000 5.655
# 58 vertices

vn 0.000 1.000 0.000
# 1 vertex normal

g CityEngineMaterial
s off
usemtl CityEngineMaterial
f 1//1 2//1 3//1
f 2//1 4//1 5//1 6//1 3//1
f 4//1 7//1 8//1 5//1
f 7//1 9//1 10//1 8//1
f 9//1 11//1 12//1 10//1
f 11//1 13//1 14//1 12//1
f 13//1 15//1 16//1 14//1
f 15//1 17//1 18//1 16//1
f 17//1 19//1 20//1 18//1
f 19//1 21//1 22//1 20//1
f 21//1 23//1 24//1 22//1
f 23//1 25//1 26//1 24//1
f 25//1 27//1 28//1 26//1
f 27//1 29//1 30//1 28//1
f 29//1 31//1 32//1 33//1 30//1
f 31//1 34//1 32//1
f 34//1 35//1 36//1 33//1 32//1
f 35//1 37//1 38//1 36//1
f 37//1 39//1 40//1 38//1
f 39//1 41//1 42//1 40//1
f 41//1 43//1 44//1 42//1
f 43//1 45//1 46//1 44//1
f 45//1 47//1 48//1 46//1
f 47//1 49//1 50//1 48//1
f 49//1 51//1 52//1 50//1
f 51//1 53//1 54//1 52//1
f 53//1 55//1 56//1 54//1
f 55//1 57//1 58//1 56//1
f 57//1 1//1 3//1 6//1 58//1
# 29 faces

