# created with CityEngine 2019.0.5403 0409R (based on Esri Procedural Runtime 2.0.5403, build date: Tue 04/09/2019 10:26 AM)
# creation date: Tue Apr  5 19:07:54 2022

mtllib 20220405_SGP_UF_Border.mtl

# mesh 'mesh_CityEngineMaterial_31' from geometry 'mesh_CityEngineMaterial_31'
v 6.941 0.000 21.829
v 7.986 0.000 21.826
v 7.949 0.000 21.426
v 6.974 0.000 21.429
v 9.014 0.000 21.641
v 8.909 0.000 21.254
v 9.995 0.000 21.280
v 9.824 0.000 20.917
v 10.898 0.000 20.755
v 10.667 0.000 20.427
v 11.696 0.000 20.081
v 11.411 0.000 19.798
v 12.365 0.000 19.278
v 12.036 0.000 19.049
v 12.885 0.000 18.371
v 12.520 0.000 18.203
v 13.239 0.000 17.388
v 12.857 0.000 17.269
v 21.623 0.000 -14.322
v 21.232 0.000 -14.407
v 21.801 0.000 -15.353
v 21.401 0.000 -15.387
v 21.798 0.000 -16.398
v 21.398 0.000 -16.362
v 21.613 0.000 -17.426
v 21.226 0.000 -17.321
v 21.252 0.000 -18.407
v 20.889 0.000 -18.236
v 20.727 0.000 -19.310
v 20.399 0.000 -19.079
v 20.053 0.000 -20.109
v 19.770 0.000 -19.824
v 19.250 0.000 -20.778
v 19.021 0.000 -20.448
v 18.430 0.000 -21.248
v 18.231 0.000 -20.901
v 18.343 0.000 -21.297
v 18.175 0.000 -20.932
v 17.360 0.000 -21.651
v 17.257 0.000 -21.263
v 16.330 0.000 -21.829
v 16.297 0.000 -21.429
v 15.285 0.000 -21.826
v 15.322 0.000 -21.426
v 14.257 0.000 -21.641
v 14.345 0.000 -21.250
v -17.397 0.000 -13.046
v -17.275 0.000 -12.665
v -18.379 0.000 -12.685
v -18.208 0.000 -12.322
v -19.282 0.000 -12.160
v -19.051 0.000 -11.832
v -20.081 0.000 -11.485
v -19.796 0.000 -11.202
v -20.750 0.000 -10.683
v -20.420 0.000 -10.453
v -21.269 0.000 -9.776
v -20.905 0.000 -9.607
v -21.623 0.000 -8.793
v -21.235 0.000 -8.690
v -21.801 0.000 -7.763
v -21.401 0.000 -7.729
v -21.798 0.000 -6.718
v -21.398 0.000 -6.754
v -21.613 0.000 -5.690
v -21.226 0.000 -5.795
v -21.252 0.000 -4.709
v -20.889 0.000 -4.880
v -20.727 0.000 -3.806
v -20.399 0.000 -4.037
v -20.053 0.000 -3.007
v -19.758 0.000 -3.279
v 3.218 0.000 20.109
v 3.488 0.000 19.813
v 4.021 0.000 20.778
v 4.250 0.000 20.448
v 4.928 0.000 21.297
v 5.096 0.000 20.933
v 5.911 0.000 21.651
v 6.014 0.000 21.263
# 80 vertices

vn 0.000 1.000 0.000
# 1 vertex normal

g CityEngineMaterial
s off
usemtl CityEngineMaterial
f 1//1 2//1 3//1 4//1
f 2//1 5//1 6//1 3//1
f 5//1 7//1 8//1 6//1
f 7//1 9//1 10//1 8//1
f 9//1 11//1 12//1 10//1
f 11//1 13//1 14//1 12//1
f 13//1 15//1 16//1 14//1
f 15//1 17//1 18//1 16//1
f 17//1 19//1 20//1 18//1
f 19//1 21//1 22//1 20//1
f 21//1 23//1 24//1 22//1
f 23//1 25//1 26//1 24//1
f 25//1 27//1 28//1 26//1
f 27//1 29//1 30//1 28//1
f 29//1 31//1 32//1 30//1
f 31//1 33//1 34//1 32//1
f 33//1 35//1 36//1 34//1
f 35//1 37//1 38//1 36//1
f 37//1 39//1 40//1 38//1
f 39//1 41//1 42//1 40//1
f 41//1 43//1 44//1 42//1
f 43//1 45//1 46//1 44//1
f 45//1 47//1 48//1 46//1
f 47//1 49//1 50//1 48//1
f 49//1 51//1 52//1 50//1
f 51//1 53//1 54//1 52//1
f 53//1 55//1 56//1 54//1
f 55//1 57//1 58//1 56//1
f 57//1 59//1 60//1 58//1
f 59//1 61//1 62//1 60//1
f 61//1 63//1 64//1 62//1
f 63//1 65//1 66//1 64//1
f 65//1 67//1 68//1 66//1
f 67//1 69//1 70//1 68//1
f 69//1 71//1 72//1 70//1
f 71//1 73//1 74//1 72//1
f 73//1 75//1 76//1 74//1
f 75//1 77//1 78//1 76//1
f 77//1 79//1 80//1 78//1
f 79//1 1//1 4//1 80//1
# 40 faces

