# created with CityEngine 2019.0.5403 0409R (based on Esri Procedural Runtime 2.0.5403, build date: Tue 04/09/2019 10:26 AM)
# creation date: Tue Apr  5 19:07:54 2022

mtllib 20220405_SGP_UF_Border.mtl

# mesh 'mesh_CityEngineMaterial_30' from geometry 'mesh_CityEngineMaterial_30'
v 25.902 0.000 5.691
v -5.969 0.000 -25.970
v -6.238 0.000 -25.674
v 25.608 0.000 5.963
v -6.772 0.000 -26.639
v -7.001 0.000 -26.309
v -7.679 0.000 -27.158
v -7.847 0.000 -26.794
v -8.662 0.000 -27.513
v -8.764 0.000 -27.124
v -9.692 0.000 -27.691
v -9.725 0.000 -27.290
v -10.736 0.000 -27.687
v -10.700 0.000 -27.287
v -11.765 0.000 -27.502
v -11.660 0.000 -27.115
v -12.746 0.000 -27.142
v -12.575 0.000 -26.778
v -13.649 0.000 -26.616
v -13.418 0.000 -26.288
v -14.447 0.000 -25.942
v -14.162 0.000 -25.659
v -15.116 0.000 -25.139
v -14.787 0.000 -24.910
v -15.636 0.000 -24.232
v -15.271 0.000 -24.064
v -15.990 0.000 -23.249
v -15.608 0.000 -23.130
v -27.473 0.000 20.184
v -27.082 0.000 20.270
v -27.651 0.000 21.214
v -27.251 0.000 21.248
v -27.648 0.000 22.259
v -27.248 0.000 22.223
v -27.463 0.000 23.288
v -27.075 0.000 23.182
v -27.102 0.000 24.268
v -26.739 0.000 24.098
v -26.577 0.000 25.172
v -26.249 0.000 24.940
v -25.902 0.000 25.970
v -25.619 0.000 25.685
v -25.100 0.000 26.639
v -24.870 0.000 26.309
v -24.193 0.000 27.158
v -24.024 0.000 26.794
v -23.210 0.000 27.513
v -23.107 0.000 27.124
v -22.180 0.000 27.691
v -22.146 0.000 27.290
v -21.135 0.000 27.687
v -21.171 0.000 27.287
v -20.106 0.000 27.502
v -20.194 0.000 27.112
v 23.248 0.000 15.730
v 23.127 0.000 15.349
v 24.229 0.000 15.369
v 24.058 0.000 15.006
v 25.132 0.000 14.844
v 24.901 0.000 14.516
v 25.931 0.000 14.169
v 25.646 0.000 13.887
v 26.600 0.000 13.367
v 26.270 0.000 13.138
v 27.119 0.000 12.460
v 26.755 0.000 12.292
v 27.153 0.000 12.366
v 26.777 0.000 12.231
v 27.473 0.000 11.477
v 27.085 0.000 11.374
v 27.651 0.000 10.447
v 27.251 0.000 10.414
v 27.648 0.000 9.402
v 27.248 0.000 9.439
v 27.463 0.000 8.374
v 27.075 0.000 8.479
v 27.102 0.000 7.393
v 26.739 0.000 7.564
v 27.052 0.000 7.307
v 26.707 0.000 7.508
v 26.577 0.000 6.490
v 26.249 0.000 6.721
v 26.513 0.000 6.414
v 26.207 0.000 6.672
# 84 vertices

vn 0.000 1.000 0.000
# 1 vertex normal

g CityEngineMaterial
s off
usemtl CityEngineMaterial
f 1//1 2//1 3//1 4//1
f 2//1 5//1 6//1 3//1
f 5//1 7//1 8//1 6//1
f 7//1 9//1 10//1 8//1
f 9//1 11//1 12//1 10//1
f 11//1 13//1 14//1 12//1
f 13//1 15//1 16//1 14//1
f 15//1 17//1 18//1 16//1
f 17//1 19//1 20//1 18//1
f 19//1 21//1 22//1 20//1
f 21//1 23//1 24//1 22//1
f 23//1 25//1 26//1 24//1
f 25//1 27//1 28//1 26//1
f 27//1 29//1 30//1 28//1
f 29//1 31//1 32//1 30//1
f 31//1 33//1 34//1 32//1
f 33//1 35//1 36//1 34//1
f 35//1 37//1 38//1 36//1
f 37//1 39//1 40//1 38//1
f 39//1 41//1 42//1 40//1
f 41//1 43//1 44//1 42//1
f 43//1 45//1 46//1 44//1
f 45//1 47//1 48//1 46//1
f 47//1 49//1 50//1 48//1
f 49//1 51//1 52//1 50//1
f 51//1 53//1 54//1 52//1
f 53//1 55//1 56//1 54//1
f 55//1 57//1 58//1 56//1
f 57//1 59//1 60//1 58//1
f 59//1 61//1 62//1 60//1
f 61//1 63//1 64//1 62//1
f 63//1 65//1 66//1 64//1
f 65//1 67//1 68//1 66//1
f 67//1 69//1 70//1 68//1
f 69//1 71//1 72//1 70//1
f 71//1 73//1 74//1 72//1
f 73//1 75//1 76//1 74//1
f 75//1 77//1 78//1 76//1
f 77//1 79//1 80//1 78//1
f 79//1 81//1 82//1 80//1
f 81//1 83//1 84//1 82//1
f 83//1 1//1 4//1 84//1
# 42 faces

