# created with CityEngine 2019.0.5403 0409R (based on Esri Procedural Runtime 2.0.5403, build date: Tue 04/09/2019 10:26 AM)
# creation date: Tue Apr  5 19:05:28 2022

mtllib 20220405_SGP_GF_Border.mtl

# mesh 'mesh_CityEngineMaterial_6' from geometry 'mesh_CityEngineMaterial_6'
v 41.473 0.000 8.000
v 41.453 0.000 7.746
v 41.052 0.000 7.748
v 41.072 0.000 8.010
v 41.474 0.000 7.424
v 41.077 0.000 7.366
v 41.541 0.000 7.127
v 41.159 0.000 7.003
v 41.654 0.000 6.864
v 41.302 0.000 6.670
v 41.809 0.000 6.641
v 41.505 0.000 6.377
v 41.986 0.000 6.478
v 41.740 0.000 6.160
v 44.949 0.000 4.568
v 44.954 0.000 4.089
v 45.999 0.000 5.279
v 46.217 0.000 4.943
v 46.287 0.000 5.460
v 46.488 0.000 5.113
v 46.599 0.000 5.626
v 46.774 0.000 5.266
v 46.914 0.000 5.764
v 47.060 0.000 5.392
v 47.228 0.000 5.874
v 47.343 0.000 5.490
v 47.540 0.000 5.953
v 47.621 0.000 5.561
v 47.847 0.000 6.002
v 47.891 0.000 5.604
v 48.148 0.000 6.021
v 48.152 0.000 5.620
v 48.440 0.000 6.009
v 48.402 0.000 5.610
v 48.722 0.000 5.966
v 48.639 0.000 5.574
v 48.991 0.000 5.892
v 48.862 0.000 5.513
v 49.245 0.000 5.789
v 49.071 0.000 5.428
v 49.468 0.000 5.665
v 49.262 0.000 5.322
v 50.118 0.000 5.248
v 50.090 0.000 4.792
v 50.427 0.000 5.395
v 50.586 0.000 5.028
v 50.871 0.000 5.568
v 51.002 0.000 5.190
v 51.314 0.000 5.702
v 51.414 0.000 5.314
v 51.753 0.000 5.796
v 51.820 0.000 5.401
v 52.185 0.000 5.849
v 52.215 0.000 5.450
v 52.606 0.000 5.861
v 52.598 0.000 5.461
v 53.016 0.000 5.833
v 52.967 0.000 5.435
v 53.410 0.000 5.763
v 53.319 0.000 5.373
v 53.787 0.000 5.653
v 53.654 0.000 5.276
v 54.145 0.000 5.504
v 53.969 0.000 5.144
v 54.466 0.000 5.323
v 54.260 0.000 4.980
v 68.868 0.000 -3.898
v 68.766 0.000 -4.308
v 69.250 0.000 -3.867
v 69.269 0.000 -4.267
v 69.393 0.000 -3.865
v 69.390 0.000 -4.265
v 69.534 0.000 -3.870
v 69.510 0.000 -4.269
v 69.673 0.000 -3.882
v 69.628 0.000 -4.279
v 69.809 0.000 -3.901
v 69.743 0.000 -4.295
v 69.943 0.000 -3.927
v 69.855 0.000 -4.317
v 70.073 0.000 -3.960
v 69.964 0.000 -4.345
v 70.200 0.000 -4.000
v 70.069 0.000 -4.378
v 70.324 0.000 -4.047
v 70.171 0.000 -4.417
v 70.444 0.000 -4.101
v 70.270 0.000 -4.461
v 70.561 0.000 -4.162
v 70.365 0.000 -4.511
v 70.666 0.000 -4.225
v 70.449 0.000 -4.561
v 80.931 0.000 -11.357
v 80.681 0.000 -11.670
v 81.264 0.000 -11.663
v 80.956 0.000 -11.923
v 81.519 0.000 -12.059
v 81.157 0.000 -12.236
v 81.686 0.000 -12.534
v 81.302 0.000 -12.647
v 82.062 0.000 -14.107
v 81.709 0.000 -14.354
v 90.147 0.000 -19.451
v 89.592 0.000 -19.564
v 87.786 0.000 -23.023
v 87.229 0.000 -23.141
v 88.048 0.000 -23.191
v 88.169 0.000 -23.743
v 88.665 0.000 -22.228
v 88.786 0.000 -22.780
v 90.733 0.000 -23.552
v 90.501 0.000 -23.879
v 90.879 0.000 -23.667
v 90.602 0.000 -23.958
v 91.021 0.000 -23.830
v 90.696 0.000 -24.066
v 91.136 0.000 -24.022
v 90.776 0.000 -24.199
v 91.222 0.000 -24.241
v 90.839 0.000 -24.359
v 91.277 0.000 -24.482
v 90.881 0.000 -24.545
v 91.301 0.000 -24.741
v 90.900 0.000 -24.752
v 91.292 0.000 -25.014
v 90.893 0.000 -24.979
v 91.258 0.000 -25.246
v 90.826 0.000 -25.444
v 95.240 0.000 -27.796
v 95.055 0.000 -28.152
v 95.502 0.000 -27.904
v 95.377 0.000 -28.285
v 95.758 0.000 -27.967
v 95.689 0.000 -28.362
v 96.009 0.000 -27.992
v 95.991 0.000 -28.392
v 102.476 0.000 -27.928
v 101.741 0.000 -28.336
v 93.079 0.000 -42.605
v 92.863 0.000 -42.201
v 79.090 0.000 -42.313
v 79.063 0.000 -41.913
v 78.759 0.000 -42.365
v 78.657 0.000 -41.976
v 78.389 0.000 -42.503
v 78.215 0.000 -42.141
v 78.025 0.000 -42.719
v 77.795 0.000 -42.390
v 77.767 0.000 -42.931
v 77.501 0.000 -42.632
v 77.603 0.000 -43.088
v 77.317 0.000 -42.809
v 77.448 0.000 -43.259
v 77.143 0.000 -43.000
v 77.303 0.000 -43.441
v 76.982 0.000 -43.204
v 77.171 0.000 -43.634
v 76.838 0.000 -43.413
v 63.143 0.000 -65.542
v 62.797 0.000 -65.342
v 63.008 0.000 -65.804
v 62.646 0.000 -65.633
v 62.908 0.000 -66.038
v 62.534 0.000 -65.895
v 62.828 0.000 -66.274
v 62.444 0.000 -66.161
v 62.769 0.000 -66.511
v 62.377 0.000 -66.430
v 62.734 0.000 -66.725
v 62.337 0.000 -66.674
v 62.345 0.000 -70.791
v 61.948 0.000 -70.740
v 62.326 0.000 -70.908
v 61.933 0.000 -70.835
v 62.302 0.000 -71.025
v 61.912 0.000 -70.936
v 62.272 0.000 -71.143
v 61.886 0.000 -71.038
v 62.238 0.000 -71.261
v 61.856 0.000 -71.140
v 62.198 0.000 -71.379
v 61.821 0.000 -71.243
v 62.153 0.000 -71.496
v 61.782 0.000 -71.346
v 62.104 0.000 -71.612
v 61.739 0.000 -71.448
v 62.049 0.000 -71.727
v 61.691 0.000 -71.550
v 61.991 0.000 -71.841
v 61.639 0.000 -71.650
v 61.906 0.000 -71.990
v 61.564 0.000 -71.783
v 53.771 0.000 -84.695
v 53.439 0.000 -84.472
v 53.592 0.000 -84.950
v 53.275 0.000 -84.704
v 53.392 0.000 -85.185
v 53.099 0.000 -84.912
v 53.176 0.000 -85.397
v 52.910 0.000 -85.097
v 52.946 0.000 -85.581
v 52.711 0.000 -85.257
v 52.707 0.000 -85.736
v 52.508 0.000 -85.388
v 52.463 0.000 -85.858
v 52.306 0.000 -85.489
v 52.218 0.000 -85.945
v 52.110 0.000 -85.559
v 51.977 0.000 -85.996
v 51.924 0.000 -85.598
v 51.743 0.000 -86.009
v 51.753 0.000 -85.608
v 51.520 0.000 -85.985
v 51.598 0.000 -85.591
v 51.313 0.000 -85.924
v 51.462 0.000 -85.551
v 51.124 0.000 -85.828
v 51.324 0.000 -85.480
v 50.667 0.000 -85.535
v 50.691 0.000 -85.076
v 50.490 0.000 -85.623
v 50.333 0.000 -85.255
v 50.122 0.000 -85.754
v 50.014 0.000 -85.368
v 49.759 0.000 -85.830
v 49.706 0.000 -85.433
v 49.408 0.000 -85.851
v 49.417 0.000 -85.449
v 49.073 0.000 -85.815
v 49.151 0.000 -85.421
v 48.762 0.000 -85.724
v 48.910 0.000 -85.350
v 48.502 0.000 -85.590
v 48.704 0.000 -85.244
v 43.765 0.000 -82.457
v 43.723 0.000 -81.951
v 43.689 0.000 -82.528
v 43.644 0.000 -82.024
v 0.385 0.000 -54.744
v 0.608 0.000 -54.413
v 0.136 0.000 -54.567
v 0.383 0.000 -54.252
v -0.106 0.000 -54.358
v 0.170 0.000 -54.068
v -0.330 0.000 -54.124
v -0.028 0.000 -53.861
v -0.534 0.000 -53.868
v -0.209 0.000 -53.633
v -0.717 0.000 -53.589
v -0.373 0.000 -53.384
v -0.879 0.000 -53.290
v -0.519 0.000 -53.114
v -1.019 0.000 -52.971
v -0.646 0.000 -52.824
v -1.136 0.000 -52.634
v -0.754 0.000 -52.516
v -1.231 0.000 -52.280
v -0.841 0.000 -52.190
v -1.302 0.000 -51.911
v -0.906 0.000 -51.848
v -1.349 0.000 -51.528
v -0.950 0.000 -51.491
v -1.371 0.000 -51.149
v -0.971 0.000 -51.132
v -1.703 0.000 -39.246
v -1.304 0.000 -39.215
v -1.746 0.000 -38.899
v -1.350 0.000 -38.837
v -1.793 0.000 -38.653
v -1.403 0.000 -38.563
v -1.856 0.000 -38.416
v -1.474 0.000 -38.299
v -1.935 0.000 -38.191
v -1.562 0.000 -38.044
v -2.075 0.000 -37.871
v -1.722 0.000 -37.679
v -2.257 0.000 -37.594
v -1.969 0.000 -37.303
v -3.453 0.000 -36.829
v -3.330 0.000 -36.432
v -3.639 0.000 -36.822
v -3.686 0.000 -36.421
v -4.362 0.000 -37.019
v -4.514 0.000 -36.645
v -5.082 0.000 -37.419
v -5.295 0.000 -37.080
v -13.621 0.000 -43.449
v -13.832 0.000 -43.108
v -13.934 0.000 -43.617
v -14.110 0.000 -43.258
v -14.250 0.000 -43.757
v -14.398 0.000 -43.385
v -14.566 0.000 -43.868
v -14.682 0.000 -43.485
v -14.879 0.000 -43.949
v -14.961 0.000 -43.557
v -15.188 0.000 -44.000
v -15.233 0.000 -43.602
v -15.491 0.000 -44.019
v -15.496 0.000 -43.619
v -15.785 0.000 -44.007
v -15.747 0.000 -43.609
v -16.067 0.000 -43.965
v -15.985 0.000 -43.573
v -16.337 0.000 -43.891
v -16.209 0.000 -43.512
v -16.593 0.000 -43.788
v -16.420 0.000 -43.427
v -16.817 0.000 -43.664
v -16.612 0.000 -43.320
v -101.310 0.000 10.333
v -101.085 0.000 10.664
v -101.482 0.000 10.456
v -101.233 0.000 10.770
v -101.652 0.000 10.606
v -101.373 0.000 10.893
v -101.808 0.000 10.775
v -101.502 0.000 11.033
v -101.950 0.000 10.960
v -101.620 0.000 11.187
v -102.075 0.000 11.162
v -101.726 0.000 11.358
v -102.185 0.000 11.379
v -101.820 0.000 11.544
v -102.277 0.000 11.611
v -101.900 0.000 11.745
v -102.353 0.000 11.856
v -101.966 0.000 11.959
v -102.411 0.000 12.113
v -102.017 0.000 12.187
v -102.451 0.000 12.381
v -102.053 0.000 12.426
v -102.473 0.000 12.658
v -102.073 0.000 12.677
v -102.476 0.000 12.926
v -102.076 0.000 12.925
v -102.246 0.000 26.056
v -101.846 0.000 26.033
v -102.220 0.000 26.317
v -101.823 0.000 26.268
v -102.181 0.000 26.581
v -101.787 0.000 26.512
v -102.127 0.000 26.848
v -101.737 0.000 26.760
v -102.060 0.000 27.116
v -101.675 0.000 27.010
v -101.980 0.000 27.384
v -101.600 0.000 27.261
v -101.887 0.000 27.651
v -101.512 0.000 27.511
v -101.781 0.000 27.917
v -101.413 0.000 27.761
v -101.663 0.000 28.180
v -101.301 0.000 28.009
v -101.467 0.000 28.570
v -101.117 0.000 28.375
v -101.248 0.000 28.928
v -100.911 0.000 28.713
v -93.913 0.000 39.922
v -93.572 0.000 39.712
v -93.522 0.000 40.617
v -93.158 0.000 40.448
v -93.250 0.000 41.348
v -92.863 0.000 41.240
v -93.110 0.000 42.077
v -92.714 0.000 42.020
v -90.918 0.000 64.396
v -90.523 0.000 64.321
v -90.739 0.000 65.020
v -90.360 0.000 64.891
v -90.477 0.000 65.677
v -90.119 0.000 65.494
v -89.921 0.000 66.549
v -89.605 0.000 66.301
v -89.411 0.000 67.080
v -89.136 0.000 66.788
v -89.047 0.000 67.388
v -88.805 0.000 67.069
v -88.666 0.000 67.645
v -88.462 0.000 67.301
v -88.276 0.000 67.848
v -88.115 0.000 67.480
v -87.883 0.000 67.990
v -87.811 0.000 67.591
v -86.960 0.000 67.997
v -86.858 0.000 67.597
v -86.618 0.000 68.180
v -86.437 0.000 67.823
v -86.442 0.000 68.265
v -86.289 0.000 67.894
v -85.997 0.000 68.417
v -85.890 0.000 68.031
v -85.476 0.000 68.528
v -85.409 0.000 68.133
v -83.227 0.000 68.815
v -82.988 0.000 68.443
v -73.625 0.000 84.226
v -73.295 0.000 84.000
v -73.361 0.000 84.578
v -73.051 0.000 84.324
v -73.060 0.000 84.912
v -72.776 0.000 84.630
v -72.737 0.000 85.209
v -72.481 0.000 84.901
v -72.396 0.000 85.465
v -72.173 0.000 85.133
v -72.044 0.000 85.676
v -71.858 0.000 85.322
v -71.687 0.000 85.839
v -71.544 0.000 85.464
v -71.330 0.000 85.949
v -71.238 0.000 85.559
v -70.979 0.000 86.006
v -70.945 0.000 85.607
v -70.641 0.000 86.009
v -70.672 0.000 85.609
v -70.322 0.000 85.957
v -70.422 0.000 85.568
v -70.027 0.000 85.852
v -70.197 0.000 85.488
v -69.834 0.000 85.738
v -69.711 0.000 85.202
v -69.710 0.000 85.923
v -69.603 0.000 85.363
v -55.909 0.000 76.386
v -55.795 0.000 75.821
v -55.746 0.000 76.640
v -55.625 0.000 76.087
v -41.234 0.000 67.340
v -41.445 0.000 67.000
v -39.685 0.000 66.414
v -39.904 0.000 66.079
v -39.523 0.000 66.299
v -39.771 0.000 65.984
v -39.362 0.000 66.159
v -39.638 0.000 65.869
v -39.214 0.000 66.004
v -39.516 0.000 65.741
v -39.078 0.000 65.833
v -39.403 0.000 65.598
v -38.956 0.000 65.647
v -39.300 0.000 65.442
v -38.848 0.000 65.448
v -39.208 0.000 65.272
v -38.755 0.000 65.235
v -39.128 0.000 65.089
v -38.677 0.000 65.011
v -39.061 0.000 64.896
v -38.601 0.000 64.706
v -38.951 0.000 64.458
v -31.983 0.000 60.332
v -32.537 0.000 60.219
v -32.308 0.000 59.840
v -32.865 0.000 59.722
v -24.486 0.000 54.829
v -24.713 0.000 54.499
v -24.314 0.000 54.702
v -24.572 0.000 54.395
v -24.158 0.000 54.553
v -24.452 0.000 54.281
v -24.019 0.000 54.382
v -24.344 0.000 54.149
v -23.899 0.000 54.192
v -24.249 0.000 53.998
v -23.798 0.000 53.983
v -24.168 0.000 53.829
v -23.718 0.000 53.758
v -24.101 0.000 53.642
v -23.658 0.000 53.518
v -24.051 0.000 53.440
v -23.620 0.000 53.264
v -24.018 0.000 53.221
v -23.604 0.000 52.999
v -24.004 0.000 52.990
v -23.609 0.000 52.725
v -24.008 0.000 52.748
v -23.636 0.000 52.443
v -24.033 0.000 52.496
v -23.684 0.000 52.157
v -24.078 0.000 52.231
v -23.945 0.000 50.891
v -24.366 0.000 50.830
v -23.781 0.000 50.583
v -24.145 0.000 50.416
v -23.671 0.000 50.302
v -24.051 0.000 50.176
v -23.587 0.000 50.002
v -23.977 0.000 49.912
v -23.529 0.000 49.686
v -23.925 0.000 49.629
v -23.484 0.000 49.242
v -23.883 0.000 49.218
v -23.478 0.000 48.899
v -23.878 0.000 48.907
v -23.498 0.000 48.546
v -23.896 0.000 48.583
v -23.542 0.000 48.208
v -23.935 0.000 48.282
v -23.887 0.000 46.823
v -24.344 0.000 46.641
v -18.134 0.000 43.140
v -18.360 0.000 42.809
v -17.819 0.000 42.910
v -18.075 0.000 42.601
v -17.520 0.000 42.630
v -17.811 0.000 42.354
v -17.252 0.000 42.311
v -17.573 0.000 42.072
v -17.018 0.000 41.957
v -17.363 0.000 41.754
v -16.818 0.000 41.569
v -17.183 0.000 41.404
v -16.654 0.000 41.150
v -17.033 0.000 41.022
v -16.397 0.000 40.243
v -16.741 0.000 39.988
v -14.468 0.000 39.007
v -14.351 0.000 38.458
v -10.029 0.000 45.724
v -9.916 0.000 45.169
v 42.280 0.000 11.153
v 41.726 0.000 11.040
v 41.421 0.000 9.852
v 41.018 0.000 9.967
# 524 vertices

vn 0.000 1.000 0.000
# 1 vertex normal

g CityEngineMaterial
s off
usemtl CityEngineMaterial
f 1//1 2//1 3//1 4//1
f 2//1 5//1 6//1 3//1
f 5//1 7//1 8//1 6//1
f 7//1 9//1 10//1 8//1
f 9//1 11//1 12//1 10//1
f 11//1 13//1 14//1 12//1
f 13//1 15//1 16//1 14//1
f 15//1 17//1 18//1 16//1
f 17//1 19//1 20//1 18//1
f 19//1 21//1 22//1 20//1
f 21//1 23//1 24//1 22//1
f 23//1 25//1 26//1 24//1
f 25//1 27//1 28//1 26//1
f 27//1 29//1 30//1 28//1
f 29//1 31//1 32//1 30//1
f 31//1 33//1 34//1 32//1
f 33//1 35//1 36//1 34//1
f 35//1 37//1 38//1 36//1
f 37//1 39//1 40//1 38//1
f 39//1 41//1 42//1 40//1
f 41//1 43//1 44//1 42//1
f 43//1 45//1 46//1 44//1
f 45//1 47//1 48//1 46//1
f 47//1 49//1 50//1 48//1
f 49//1 51//1 52//1 50//1
f 51//1 53//1 54//1 52//1
f 53//1 55//1 56//1 54//1
f 55//1 57//1 58//1 56//1
f 57//1 59//1 60//1 58//1
f 59//1 61//1 62//1 60//1
f 61//1 63//1 64//1 62//1
f 63//1 65//1 66//1 64//1
f 65//1 67//1 68//1 66//1
f 67//1 69//1 70//1 68//1
f 69//1 71//1 72//1 70//1
f 71//1 73//1 74//1 72//1
f 73//1 75//1 76//1 74//1
f 75//1 77//1 78//1 76//1
f 77//1 79//1 80//1 78//1
f 79//1 81//1 82//1 80//1
f 81//1 83//1 84//1 82//1
f 83//1 85//1 86//1 84//1
f 85//1 87//1 88//1 86//1
f 87//1 89//1 90//1 88//1
f 89//1 91//1 92//1 90//1
f 91//1 93//1 94//1 92//1
f 93//1 95//1 96//1 94//1
f 95//1 97//1 98//1 96//1
f 97//1 99//1 100//1 98//1
f 99//1 101//1 102//1 100//1
f 101//1 103//1 104//1 102//1
f 103//1 105//1 106//1 104//1
f 105//1 107//1 108//1 106//1
f 107//1 109//1 110//1 108//1
f 109//1 111//1 112//1 110//1
f 111//1 113//1 114//1 112//1
f 113//1 115//1 116//1 114//1
f 115//1 117//1 118//1 116//1
f 117//1 119//1 120//1 118//1
f 119//1 121//1 122//1 120//1
f 121//1 123//1 124//1 122//1
f 123//1 125//1 126//1 124//1
f 125//1 127//1 128//1 126//1
f 127//1 129//1 130//1 128//1
f 129//1 131//1 132//1 130//1
f 131//1 133//1 134//1 132//1
f 133//1 135//1 136//1 134//1
f 135//1 137//1 138//1 136//1
f 137//1 139//1 140//1 138//1
f 139//1 141//1 142//1 140//1
f 141//1 143//1 144//1 142//1
f 143//1 145//1 146//1 144//1
f 145//1 147//1 148//1 146//1
f 147//1 149//1 150//1 148//1
f 149//1 151//1 152//1 150//1
f 151//1 153//1 154//1 152//1
f 153//1 155//1 156//1 154//1
f 155//1 157//1 158//1 156//1
f 157//1 159//1 160//1 158//1
f 159//1 161//1 162//1 160//1
f 161//1 163//1 164//1 162//1
f 163//1 165//1 166//1 164//1
f 165//1 167//1 168//1 166//1
f 167//1 169//1 170//1 168//1
f 169//1 171//1 172//1 170//1
f 171//1 173//1 174//1 172//1
f 173//1 175//1 176//1 174//1
f 175//1 177//1 178//1 176//1
f 177//1 179//1 180//1 178//1
f 179//1 181//1 182//1 180//1
f 181//1 183//1 184//1 182//1
f 183//1 185//1 186//1 184//1
f 185//1 187//1 188//1 186//1
f 187//1 189//1 190//1 188//1
f 189//1 191//1 192//1 190//1
f 191//1 193//1 194//1 192//1
f 193//1 195//1 196//1 194//1
f 195//1 197//1 198//1 196//1
f 197//1 199//1 200//1 198//1
f 199//1 201//1 202//1 200//1
f 201//1 203//1 204//1 202//1
f 203//1 205//1 206//1 204//1
f 205//1 207//1 208//1 206//1
f 207//1 209//1 210//1 208//1
f 209//1 211//1 212//1 210//1
f 211//1 213//1 214//1 212//1
f 213//1 215//1 216//1 214//1
f 215//1 217//1 218//1 216//1
f 217//1 219//1 220//1 218//1
f 219//1 221//1 222//1 220//1
f 221//1 223//1 224//1 222//1
f 223//1 225//1 226//1 224//1
f 225//1 227//1 228//1 226//1
f 227//1 229//1 230//1 228//1
f 229//1 231//1 232//1 230//1
f 231//1 233//1 234//1 232//1
f 233//1 235//1 236//1 234//1
f 235//1 237//1 238//1 236//1
f 237//1 239//1 240//1 238//1
f 239//1 241//1 242//1 240//1
f 241//1 243//1 244//1 242//1
f 243//1 245//1 246//1 244//1
f 245//1 247//1 248//1 246//1
f 247//1 249//1 250//1 248//1
f 249//1 251//1 252//1 250//1
f 251//1 253//1 254//1 252//1
f 253//1 255//1 256//1 254//1
f 255//1 257//1 258//1 256//1
f 257//1 259//1 260//1 258//1
f 259//1 261//1 262//1 260//1
f 261//1 263//1 264//1 262//1
f 263//1 265//1 266//1 264//1
f 265//1 267//1 268//1 266//1
f 267//1 269//1 270//1 268//1
f 269//1 271//1 272//1 270//1
f 271//1 273//1 274//1 272//1
f 273//1 275//1 276//1 274//1
f 275//1 277//1 278//1 276//1
f 277//1 279//1 280//1 278//1
f 279//1 281//1 282//1 280//1
f 281//1 283//1 284//1 282//1
f 283//1 285//1 286//1 284//1
f 285//1 287//1 288//1 286//1
f 287//1 289//1 290//1 288//1
f 289//1 291//1 292//1 290//1
f 291//1 293//1 294//1 292//1
f 293//1 295//1 296//1 294//1
f 295//1 297//1 298//1 296//1
f 297//1 299//1 300//1 298//1
f 299//1 301//1 302//1 300//1
f 301//1 303//1 304//1 302//1
f 303//1 305//1 306//1 304//1
f 305//1 307//1 308//1 306//1
f 307//1 309//1 310//1 308//1
f 309//1 311//1 312//1 310//1
f 311//1 313//1 314//1 312//1
f 313//1 315//1 316//1 314//1
f 315//1 317//1 318//1 316//1
f 317//1 319//1 320//1 318//1
f 319//1 321//1 322//1 320//1
f 321//1 323//1 324//1 322//1
f 323//1 325//1 326//1 324//1
f 325//1 327//1 328//1 326//1
f 327//1 329//1 330//1 328//1
f 329//1 331//1 332//1 330//1
f 331//1 333//1 334//1 332//1
f 333//1 335//1 336//1 334//1
f 335//1 337//1 338//1 336//1
f 337//1 339//1 340//1 338//1
f 339//1 341//1 342//1 340//1
f 341//1 343//1 344//1 342//1
f 343//1 345//1 346//1 344//1
f 345//1 347//1 348//1 346//1
f 347//1 349//1 350//1 348//1
f 349//1 351//1 352//1 350//1
f 351//1 353//1 354//1 352//1
f 353//1 355//1 356//1 354//1
f 355//1 357//1 358//1 356//1
f 357//1 359//1 360//1 358//1
f 359//1 361//1 362//1 360//1
f 361//1 363//1 364//1 362//1
f 363//1 365//1 366//1 364//1
f 365//1 367//1 368//1 366//1
f 367//1 369//1 370//1 368//1
f 369//1 371//1 372//1 370//1
f 371//1 373//1 374//1 372//1
f 373//1 375//1 376//1 374//1
f 375//1 377//1 378//1 376//1
f 377//1 379//1 380//1 378//1
f 379//1 381//1 382//1 380//1
f 381//1 383//1 384//1 382//1
f 383//1 385//1 386//1 384//1
f 385//1 387//1 388//1 386//1
f 387//1 389//1 390//1 388//1
f 389//1 391//1 392//1 390//1
f 391//1 393//1 394//1 392//1
f 393//1 395//1 396//1 394//1
f 395//1 397//1 398//1 396//1
f 397//1 399//1 400//1 398//1
f 399//1 401//1 402//1 400//1
f 401//1 403//1 404//1 402//1
f 403//1 405//1 406//1 404//1
f 405//1 407//1 408//1 406//1
f 407//1 409//1 410//1 408//1
f 409//1 411//1 412//1 410//1
f 411//1 413//1 414//1 412//1
f 413//1 415//1 416//1 414//1
f 415//1 417//1 418//1 416//1
f 417//1 419//1 420//1 418//1
f 419//1 421//1 422//1 420//1
f 421//1 423//1 424//1 422//1
f 423//1 425//1 426//1 424//1
f 425//1 427//1 428//1 426//1
f 427//1 429//1 430//1 428//1
f 429//1 431//1 432//1 430//1
f 431//1 433//1 434//1 432//1
f 433//1 435//1 436//1 434//1
f 435//1 437//1 438//1 436//1
f 437//1 439//1 440//1 438//1
f 439//1 441//1 442//1 440//1
f 441//1 443//1 444//1 442//1
f 443//1 445//1 446//1 444//1
f 445//1 447//1 448//1 446//1
f 447//1 449//1 450//1 448//1
f 449//1 451//1 452//1 450//1
f 451//1 453//1 454//1 452//1
f 453//1 455//1 456//1 454//1
f 455//1 457//1 458//1 456//1
f 457//1 459//1 460//1 458//1
f 459//1 461//1 462//1 460//1
f 461//1 463//1 464//1 462//1
f 463//1 465//1 466//1 464//1
f 465//1 467//1 468//1 466//1
f 467//1 469//1 470//1 468//1
f 469//1 471//1 472//1 470//1
f 471//1 473//1 474//1 472//1
f 473//1 475//1 476//1 474//1
f 475//1 477//1 478//1 476//1
f 477//1 479//1 480//1 478//1
f 479//1 481//1 482//1 480//1
f 481//1 483//1 484//1 482//1
f 483//1 485//1 486//1 484//1
f 485//1 487//1 488//1 486//1
f 487//1 489//1 490//1 488//1
f 489//1 491//1 492//1 490//1
f 491//1 493//1 494//1 492//1
f 493//1 495//1 496//1 494//1
f 495//1 497//1 498//1 496//1
f 497//1 499//1 500//1 498//1
f 499//1 501//1 502//1 500//1
f 501//1 503//1 504//1 502//1
f 503//1 505//1 506//1 504//1
f 505//1 507//1 508//1 506//1
f 507//1 509//1 510//1 508//1
f 509//1 511//1 512//1 510//1
f 511//1 513//1 514//1 512//1
f 513//1 515//1 516//1 514//1
f 515//1 517//1 518//1 516//1
f 517//1 519//1 520//1 518//1
f 519//1 521//1 522//1 520//1
f 521//1 523//1 524//1 522//1
f 523//1 1//1 4//1 524//1
# 262 faces

