# created with CityEngine 2019.0.5403 0409R (based on Esri Procedural Runtime 2.0.5403, build date: Tue 04/09/2019 10:26 AM)
# creation date: Tue Apr  5 19:07:53 2022

mtllib 20220405_SGP_UF_Border.mtl

# mesh 'mesh_CityEngineMaterial_27' from geometry 'mesh_CityEngineMaterial_27'
v 17.096 0.000 10.125
v 15.774 0.000 8.863
v 15.459 0.000 9.116
v 16.858 0.000 10.451
v 14.823 0.000 7.301
v 14.453 0.000 7.464
v 14.308 0.000 5.546
v 13.910 0.000 5.608
v 14.266 0.000 3.718
v 13.864 0.000 3.674
v 14.698 0.000 1.941
v 14.322 0.000 1.795
v 15.575 0.000 0.336
v 15.249 0.000 0.098
v 16.838 0.000 -0.986
v 16.585 0.000 -1.301
v 18.400 0.000 -1.937
v 18.237 0.000 -2.307
v 20.153 0.000 -2.451
v 20.091 0.000 -2.850
v 21.983 0.000 -2.494
v 22.026 0.000 -2.895
v 23.759 0.000 -2.062
v 23.897 0.000 -2.441
v 25.427 0.000 -1.242
v 25.241 0.000 -1.779
v 26.242 0.000 -2.943
v 25.878 0.000 -3.110
v 26.969 0.000 -4.585
v 26.598 0.000 -4.736
v 27.608 0.000 -6.296
v 27.230 0.000 -6.425
v 28.147 0.000 -8.044
v 27.761 0.000 -8.150
v 28.582 0.000 -9.823
v 28.190 0.000 -9.906
v 28.912 0.000 -11.628
v 28.516 0.000 -11.688
v 29.137 0.000 -13.452
v 28.738 0.000 -13.490
v 29.256 0.000 -15.291
v 28.856 0.000 -15.305
v 29.268 0.000 -17.138
v 28.868 0.000 -17.130
v 29.174 0.000 -18.988
v 28.775 0.000 -18.956
v 28.974 0.000 -20.834
v 28.578 0.000 -20.780
v 28.669 0.000 -22.672
v 28.276 0.000 -22.595
v 28.266 0.000 -24.467
v 27.877 0.000 -24.374
v 20.245 0.000 -55.924
v 19.862 0.000 -55.807
v 19.721 0.000 -57.397
v 19.357 0.000 -57.225
v 18.639 0.000 -59.193
v 18.313 0.000 -58.958
v 17.521 0.000 -60.505
v 17.240 0.000 -60.219
v 16.003 0.000 -61.753
v 15.777 0.000 -61.421
v 14.359 0.000 -62.667
v 14.195 0.000 -62.300
v 12.583 0.000 -63.285
v 12.484 0.000 -62.896
v 10.793 0.000 -63.576
v 10.763 0.000 -63.176
v 8.749 0.000 -63.553
v 8.793 0.000 -63.154
v 6.900 0.000 -63.162
v 7.019 0.000 -62.779
v 5.165 0.000 -62.435
v 5.356 0.000 -62.082
v 3.611 0.000 -61.396
v 3.870 0.000 -61.088
v 2.089 0.000 -59.812
v 2.388 0.000 -59.546
v -13.487 0.000 -40.787
v -13.171 0.000 -40.542
v -14.615 0.000 -39.262
v -14.282 0.000 -39.040
v -15.612 0.000 -37.591
v -15.258 0.000 -37.403
v -16.438 0.000 -35.830
v -16.068 0.000 -35.678
v -17.088 0.000 -33.993
v -16.704 0.000 -33.878
v -17.556 0.000 -32.097
v -17.162 0.000 -32.020
v -17.837 0.000 -30.159
v -17.438 0.000 -30.121
v -17.929 0.000 -28.197
v -17.529 0.000 -28.197
v -17.833 0.000 -26.227
v -17.434 0.000 -26.265
v -17.549 0.000 -24.267
v -17.156 0.000 -24.344
v -17.043 0.000 -22.225
v -16.659 0.000 -22.338
v -16.431 0.000 -20.443
v -16.059 0.000 -20.591
v -15.627 0.000 -18.655
v -15.266 0.000 -18.828
v -9.380 0.000 -6.303
v -9.206 0.000 -6.846
v -7.773 0.000 -7.144
v -7.924 0.000 -7.516
v -6.019 0.000 -7.658
v -6.081 0.000 -8.056
v -4.190 0.000 -7.700
v -4.147 0.000 -8.101
v -2.413 0.000 -7.268
v -2.268 0.000 -7.644
v -0.809 0.000 -6.391
v -0.571 0.000 -6.717
v 0.514 0.000 -5.128
v 0.828 0.000 -5.381
v 1.465 0.000 -3.566
v 1.834 0.000 -3.730
v 1.979 0.000 -1.812
v 2.378 0.000 -1.874
v 2.022 0.000 0.017
v 2.423 0.000 0.060
v 1.590 0.000 1.793
v 1.966 0.000 1.939
v 0.712 0.000 3.398
v 1.038 0.000 3.636
v -0.550 0.000 4.721
v -0.297 0.000 5.035
v -2.112 0.000 5.672
v -1.949 0.000 6.041
v -3.867 0.000 6.186
v -3.805 0.000 6.585
v -5.695 0.000 6.229
v -5.738 0.000 6.630
v -7.472 0.000 5.797
v -7.618 0.000 6.173
v -9.077 0.000 4.920
v -9.315 0.000 5.245
v -10.315 0.000 3.738
v -10.607 0.000 4.011
v -11.272 0.000 2.589
v -11.323 0.000 3.152
v -21.706 0.000 11.278
v -21.443 0.000 11.579
v -23.154 0.000 12.600
v -22.871 0.000 12.883
v -24.500 0.000 14.077
v -24.192 0.000 14.333
v -25.698 0.000 15.665
v -25.367 0.000 15.891
v -26.736 0.000 17.352
v -26.386 0.000 17.545
v -27.607 0.000 19.122
v -27.239 0.000 19.280
v -28.349 0.000 21.138
v -27.968 0.000 21.260
v -28.758 0.000 22.649
v -28.367 0.000 22.736
v -29.135 0.000 24.775
v -28.738 0.000 24.824
v -29.268 0.000 26.719
v -28.868 0.000 26.727
v -29.208 0.000 28.664
v -28.809 0.000 28.632
v -28.957 0.000 30.593
v -28.563 0.000 30.522
v -28.542 0.000 32.378
v -28.155 0.000 32.278
v -21.663 0.000 56.503
v -21.284 0.000 56.375
v -21.014 0.000 58.143
v -20.657 0.000 57.960
v -20.000 0.000 59.715
v -19.685 0.000 59.465
v -18.697 0.000 61.070
v -18.435 0.000 60.765
v -17.153 0.000 62.164
v -16.952 0.000 61.816
v -15.424 0.000 62.960
v -15.289 0.000 62.582
v -13.570 0.000 63.436
v -13.505 0.000 63.040
v -11.654 0.000 63.576
v -11.660 0.000 63.175
v -9.728 0.000 63.374
v -9.805 0.000 62.980
v -7.893 0.000 62.847
v -8.038 0.000 62.473
v -6.174 0.000 62.002
v -6.382 0.000 61.659
v -4.640 0.000 60.868
v -4.908 0.000 60.568
v -3.428 0.000 59.570
v -3.733 0.000 59.311
v 16.274 0.000 34.035
v 15.954 0.000 33.795
v 17.356 0.000 32.547
v 17.026 0.000 32.321
v 18.366 0.000 30.982
v 18.023 0.000 30.775
v 19.282 0.000 29.367
v 18.929 0.000 29.179
v 20.102 0.000 27.706
v 19.739 0.000 27.539
v 20.824 0.000 26.006
v 20.452 0.000 25.860
v 21.445 0.000 24.271
v 21.065 0.000 24.147
v 21.963 0.000 22.507
v 21.576 0.000 22.405
v 22.376 0.000 20.719
v 21.984 0.000 20.640
v 22.683 0.000 18.913
v 22.287 0.000 18.858
v 22.883 0.000 17.095
v 22.484 0.000 17.063
v 22.975 0.000 15.271
v 22.575 0.000 15.266
v 22.878 0.000 11.356
v 22.488 0.000 11.769
v 20.478 0.000 11.435
v 20.434 0.000 11.836
v 18.612 0.000 10.954
v 18.464 0.000 11.329
# 226 vertices

vn 0.000 1.000 0.000
# 1 vertex normal

g CityEngineMaterial
s off
usemtl CityEngineMaterial
f 1//1 2//1 3//1 4//1
f 2//1 5//1 6//1 3//1
f 5//1 7//1 8//1 6//1
f 7//1 9//1 10//1 8//1
f 9//1 11//1 12//1 10//1
f 11//1 13//1 14//1 12//1
f 13//1 15//1 16//1 14//1
f 15//1 17//1 18//1 16//1
f 17//1 19//1 20//1 18//1
f 19//1 21//1 22//1 20//1
f 21//1 23//1 24//1 22//1
f 23//1 25//1 26//1 24//1
f 25//1 27//1 28//1 26//1
f 27//1 29//1 30//1 28//1
f 29//1 31//1 32//1 30//1
f 31//1 33//1 34//1 32//1
f 33//1 35//1 36//1 34//1
f 35//1 37//1 38//1 36//1
f 37//1 39//1 40//1 38//1
f 39//1 41//1 42//1 40//1
f 41//1 43//1 44//1 42//1
f 43//1 45//1 46//1 44//1
f 45//1 47//1 48//1 46//1
f 47//1 49//1 50//1 48//1
f 49//1 51//1 52//1 50//1
f 51//1 53//1 54//1 52//1
f 53//1 55//1 56//1 54//1
f 55//1 57//1 58//1 56//1
f 57//1 59//1 60//1 58//1
f 59//1 61//1 62//1 60//1
f 61//1 63//1 64//1 62//1
f 63//1 65//1 66//1 64//1
f 65//1 67//1 68//1 66//1
f 67//1 69//1 70//1 68//1
f 69//1 71//1 72//1 70//1
f 71//1 73//1 74//1 72//1
f 73//1 75//1 76//1 74//1
f 75//1 77//1 78//1 76//1
f 77//1 79//1 80//1 78//1
f 79//1 81//1 82//1 80//1
f 81//1 83//1 84//1 82//1
f 83//1 85//1 86//1 84//1
f 85//1 87//1 88//1 86//1
f 87//1 89//1 90//1 88//1
f 89//1 91//1 92//1 90//1
f 91//1 93//1 94//1 92//1
f 93//1 95//1 96//1 94//1
f 95//1 97//1 98//1 96//1
f 97//1 99//1 100//1 98//1
f 99//1 101//1 102//1 100//1
f 101//1 103//1 104//1 102//1
f 103//1 105//1 106//1 104//1
f 105//1 107//1 108//1 106//1
f 107//1 109//1 110//1 108//1
f 109//1 111//1 112//1 110//1
f 111//1 113//1 114//1 112//1
f 113//1 115//1 116//1 114//1
f 115//1 117//1 118//1 116//1
f 117//1 119//1 120//1 118//1
f 119//1 121//1 122//1 120//1
f 121//1 123//1 124//1 122//1
f 123//1 125//1 126//1 124//1
f 125//1 127//1 128//1 126//1
f 127//1 129//1 130//1 128//1
f 129//1 131//1 132//1 130//1
f 131//1 133//1 134//1 132//1
f 133//1 135//1 136//1 134//1
f 135//1 137//1 138//1 136//1
f 137//1 139//1 140//1 138//1
f 139//1 141//1 142//1 140//1
f 141//1 143//1 144//1 142//1
f 143//1 145//1 146//1 144//1
f 145//1 147//1 148//1 146//1
f 147//1 149//1 150//1 148//1
f 149//1 151//1 152//1 150//1
f 151//1 153//1 154//1 152//1
f 153//1 155//1 156//1 154//1
f 155//1 157//1 158//1 156//1
f 157//1 159//1 160//1 158//1
f 159//1 161//1 162//1 160//1
f 161//1 163//1 164//1 162//1
f 163//1 165//1 166//1 164//1
f 165//1 167//1 168//1 166//1
f 167//1 169//1 170//1 168//1
f 169//1 171//1 172//1 170//1
f 171//1 173//1 174//1 172//1
f 173//1 175//1 176//1 174//1
f 175//1 177//1 178//1 176//1
f 177//1 179//1 180//1 178//1
f 179//1 181//1 182//1 180//1
f 181//1 183//1 184//1 182//1
f 183//1 185//1 186//1 184//1
f 185//1 187//1 188//1 186//1
f 187//1 189//1 190//1 188//1
f 189//1 191//1 192//1 190//1
f 191//1 193//1 194//1 192//1
f 193//1 195//1 196//1 194//1
f 195//1 197//1 198//1 196//1
f 197//1 199//1 200//1 198//1
f 199//1 201//1 202//1 200//1
f 201//1 203//1 204//1 202//1
f 203//1 205//1 206//1 204//1
f 205//1 207//1 208//1 206//1
f 207//1 209//1 210//1 208//1
f 209//1 211//1 212//1 210//1
f 211//1 213//1 214//1 212//1
f 213//1 215//1 216//1 214//1
f 215//1 217//1 218//1 216//1
f 217//1 219//1 220//1 218//1
f 219//1 221//1 222//1 220//1
f 221//1 223//1 224//1 222//1
f 223//1 225//1 226//1 224//1
f 225//1 1//1 4//1 226//1
# 113 faces

