# created with CityEngine 2019.0.5403 0409R (based on Esri Procedural Runtime 2.0.5403, build date: Tue 04/09/2019 10:26 AM)
# creation date: Tue Apr  5 19:05:28 2022

mtllib 20220405_SGP_GF_Border.mtl

# mesh 'mesh_CityEngineMaterial_10' from geometry 'mesh_CityEngineMaterial_10'
v 11.344 0.000 5.741
v 2.860 0.000 -15.311
v 2.545 0.000 -15.024
v 11.116 0.000 6.245
v -10.331 0.000 -22.168
v -10.183 0.000 -21.641
v -18.449 0.000 -8.817
v -18.001 0.000 -8.784
v -5.301 0.000 22.168
v -5.085 0.000 21.653
v 4.502 0.000 18.305
v 4.355 0.000 17.933
v 14.780 0.000 14.254
v 14.633 0.000 13.882
v 18.449 0.000 12.798
v 17.930 0.000 12.574
v 15.122 0.000 4.415
v 14.892 0.000 4.919
# 18 vertices

vn 0.000 1.000 0.000
# 1 vertex normal

g CityEngineMaterial
s off
usemtl CityEngineMaterial
f 1//1 2//1 3//1 4//1
f 2//1 5//1 6//1 3//1
f 5//1 7//1 8//1 6//1
f 7//1 9//1 10//1 8//1
f 9//1 11//1 12//1 10//1
f 11//1 13//1 14//1 12//1
f 13//1 15//1 16//1 14//1
f 15//1 17//1 18//1 16//1
f 17//1 1//1 4//1 18//1
# 9 faces

