# created with CityEngine 2019.0.5403 0409R (based on Esri Procedural Runtime 2.0.5403, build date: Tue 04/09/2019 10:26 AM)
# creation date: Tue Apr  5 19:06:16 2022

mtllib 20220405_SGP_GF_Base.mtl

# mesh 'mesh_CityEngineMaterial' from geometry 'mesh_CityEngineMaterial'
v 41.757 0.000 3.911
v 40.518 0.000 4.339
v 42.936 0.000 3.337
v 44.038 0.000 2.627
v 45.053 0.000 1.785
v 47.113 0.000 -0.247
v 49.172 0.000 -2.303
v 49.271 0.000 -2.403
v 49.320 0.000 -2.453
v 51.218 0.000 -4.372
v 53.252 0.000 -6.454
v 55.273 0.000 -8.548
v 57.280 0.000 -10.655
v 59.275 0.000 -12.774
v 61.256 0.000 -14.906
v 65.049 0.000 -19.037
v 65.324 0.000 -19.349
v 65.583 0.000 -19.670
v 65.766 0.000 -19.917
v 65.841 0.000 -20.023
v 66.063 0.000 -20.349
v 66.181 0.000 -20.540
v 66.283 0.000 -20.687
v 66.440 0.000 -20.926
v 66.592 0.000 -21.167
v 66.739 0.000 -21.412
v 66.864 0.000 -21.628
v 67.022 0.000 -21.914
v 67.387 0.000 -22.576
v 67.502 0.000 -22.837
v 67.989 0.000 -23.943
v 68.089 0.000 -24.171
v 68.235 0.000 -24.503
v 68.909 0.000 -26.498
v 69.401 0.000 -28.546
v 69.709 0.000 -30.629
v 69.812 0.000 -32.411
v 69.798 0.000 -33.463
v 69.785 0.000 -34.515
v 69.771 0.000 -35.566
v 69.760 0.000 -36.399
v 69.751 0.000 -36.568
v 69.738 0.000 -36.793
v 69.712 0.000 -37.195
v 69.695 0.000 -37.434
v 69.683 0.000 -37.597
v 69.651 0.000 -37.999
v 69.628 0.000 -38.256
v 69.615 0.000 -38.401
v 69.577 0.000 -38.802
v 69.552 0.000 -39.039
v 69.535 0.000 -39.203
v 69.490 0.000 -39.603
v 69.468 0.000 -39.788
v 69.442 0.000 -40.003
v 69.391 0.000 -40.403
v 69.377 0.000 -40.507
v 69.337 0.000 -40.803
v 69.282 0.000 -41.186
v 69.250 0.000 -41.323
v 69.240 0.000 -41.390
v 69.223 0.000 -41.495
v 69.187 0.000 -41.724
v 68.869 0.000 -43.291
v 68.712 0.000 -43.925
v 68.484 0.000 -44.844
v 68.030 0.000 -46.378
v 67.511 0.000 -47.891
v 66.926 0.000 -49.379
v 66.277 0.000 -50.841
v 65.564 0.000 -52.274
v 64.790 0.000 -53.673
v 63.952 0.000 -55.045
v 61.851 0.000 -58.455
v 59.412 0.000 -61.622
v 48.665 0.000 -74.383
v 43.138 0.000 -67.462
v 37.732 0.000 -60.312
v 32.519 0.000 -53.022
v 27.499 0.000 -45.597
v 22.679 0.000 -38.041
v 20.724 0.000 -34.790
v 18.060 0.000 -30.360
v 13.646 0.000 -22.560
v 9.597 0.000 -14.941
v 11.971 0.000 -12.999
v 9.652 0.000 -9.859
v 5.099 0.000 -4.061
v 0.376 0.000 1.599
v -4.513 0.000 7.116
v -9.563 0.000 12.486
v -14.772 0.000 17.703
v -20.132 0.000 22.763
v -23.070 0.000 25.376
v -24.813 0.000 21.770
v -29.058 0.000 24.776
v -32.957 0.000 27.619
v -37.496 0.000 31.042
v -41.979 0.000 34.537
v -46.404 0.000 38.106
v -50.771 0.000 41.745
v -55.078 0.000 45.455
v -56.018 0.000 46.292
v -57.201 0.000 47.345
v -59.324 0.000 49.235
v -63.509 0.000 53.082
v -69.812 0.000 59.069
v -62.087 0.000 66.360
v -61.198 0.000 67.200
v -60.833 0.000 67.544
v -62.639 0.000 69.458
v -59.831 0.000 72.109
v -59.253 0.000 72.605
v -58.614 0.000 73.058
v -57.935 0.000 73.449
v -57.224 0.000 73.776
v -56.484 0.000 74.034
v -55.725 0.000 74.223
v -54.950 0.000 74.339
v -54.168 0.000 74.383
v -53.386 0.000 74.355
v -52.610 0.000 74.253
v -51.846 0.000 74.079
v -51.080 0.000 73.828
v -50.342 0.000 73.459
v -47.579 0.000 72.015
v -48.861 0.000 69.562
v -47.279 0.000 68.735
v -46.157 0.000 68.149
v -41.543 0.000 65.632
v -37.507 0.000 63.336
v -38.608 0.000 62.467
v -37.628 0.000 61.909
v -36.388 0.000 61.175
v -35.295 0.000 62.038
v -32.454 0.000 60.354
v -27.982 0.000 57.594
v -23.559 0.000 54.754
v -19.204 0.000 51.847
v -18.463 0.000 51.224
v -17.780 0.000 50.533
v -17.163 0.000 49.781
v -16.619 0.000 48.976
v -16.151 0.000 48.124
v -15.763 0.000 47.233
v -12.435 0.000 37.112
v -14.381 0.000 45.355
v -12.517 0.000 43.842
v -4.962 0.000 37.520
v 2.495 0.000 31.083
v 9.854 0.000 24.534
v 17.112 0.000 17.873
v 24.268 0.000 11.103
v 31.321 0.000 4.224
v 32.215 0.000 3.325
v 32.844 0.000 3.673
v 34.059 0.000 4.167
v 35.323 0.000 4.512
v 36.620 0.000 4.703
v 37.931 0.000 4.738
v 39.236 0.000 4.616
v 41.757 0.400 3.911
v 42.936 0.400 3.337
v 44.038 0.400 2.627
v 45.053 0.400 1.785
v 47.113 0.400 -0.247
v 49.172 0.400 -2.303
v 49.271 0.400 -2.403
v 49.320 0.400 -2.453
v 51.218 0.400 -4.372
v 53.252 0.400 -6.454
v 55.273 0.400 -8.548
v 57.280 0.400 -10.655
v 59.275 0.400 -12.774
v 61.256 0.400 -14.906
v 65.049 0.400 -19.037
v 65.324 0.400 -19.349
v 65.583 0.400 -19.670
v 65.766 0.400 -19.917
v 65.841 0.400 -20.023
v 66.063 0.400 -20.349
v 66.181 0.400 -20.540
v 66.283 0.400 -20.687
v 66.440 0.400 -20.926
v 66.592 0.400 -21.167
v 66.739 0.400 -21.412
v 66.864 0.400 -21.628
v 67.022 0.400 -21.914
v 67.387 0.400 -22.576
v 67.502 0.400 -22.837
v 67.989 0.400 -23.943
v 68.089 0.400 -24.171
v 68.235 0.400 -24.503
v 68.909 0.400 -26.498
v 69.401 0.400 -28.546
v 69.709 0.400 -30.629
v 69.812 0.400 -32.411
v 69.798 0.400 -33.463
v 69.785 0.400 -34.515
v 69.771 0.400 -35.566
v 69.760 0.400 -36.399
v 69.751 0.400 -36.568
v 69.738 0.400 -36.793
v 69.712 0.400 -37.195
v 69.695 0.400 -37.434
v 69.683 0.400 -37.597
v 69.651 0.400 -37.999
v 69.628 0.400 -38.256
v 69.615 0.400 -38.401
v 69.577 0.400 -38.802
v 69.552 0.400 -39.039
v 69.535 0.400 -39.203
v 69.490 0.400 -39.603
v 69.468 0.400 -39.788
v 69.442 0.400 -40.003
v 69.391 0.400 -40.403
v 69.377 0.400 -40.507
v 69.337 0.400 -40.803
v 69.282 0.400 -41.186
v 69.250 0.400 -41.323
v 69.240 0.400 -41.390
v 69.223 0.400 -41.495
v 69.187 0.400 -41.724
v 68.869 0.400 -43.291
v 68.712 0.400 -43.925
v 68.484 0.400 -44.844
v 68.030 0.400 -46.378
v 67.511 0.400 -47.891
v 66.926 0.400 -49.379
v 66.277 0.400 -50.841
v 65.564 0.400 -52.274
v 64.790 0.400 -53.673
v 63.952 0.400 -55.045
v 61.851 0.400 -58.455
v 59.412 0.400 -61.622
v 48.665 0.400 -74.383
v 43.138 0.400 -67.462
v 37.732 0.400 -60.312
v 32.519 0.400 -53.022
v 27.499 0.400 -45.597
v 22.679 0.400 -38.041
v 20.724 0.400 -34.790
v 18.060 0.400 -30.360
v 13.646 0.400 -22.560
v 9.597 0.400 -14.941
v 11.971 0.400 -12.999
v 9.652 0.400 -9.859
v 5.099 0.400 -4.061
v 0.376 0.400 1.599
v -4.513 0.400 7.116
v -9.563 0.400 12.486
v -14.772 0.400 17.703
v -20.132 0.400 22.763
v -23.070 0.400 25.376
v -24.813 0.400 21.770
v -29.058 0.400 24.776
v -32.957 0.400 27.619
v -37.496 0.400 31.042
v -41.979 0.400 34.537
v -46.404 0.400 38.106
v -50.771 0.400 41.745
v -55.078 0.400 45.455
v -56.018 0.400 46.292
v -57.201 0.400 47.345
v -59.324 0.400 49.235
v -63.509 0.400 53.082
v -69.812 0.400 59.069
v -62.087 0.400 66.360
v -61.198 0.400 67.200
v -60.833 0.400 67.544
v -62.639 0.400 69.458
v -59.831 0.400 72.109
v -59.253 0.400 72.605
v -58.614 0.400 73.058
v -57.935 0.400 73.449
v -57.224 0.400 73.776
v -56.484 0.400 74.034
v -55.725 0.400 74.223
v -54.950 0.400 74.339
v -54.168 0.400 74.383
v -53.386 0.400 74.355
v -52.610 0.400 74.253
v -51.846 0.400 74.079
v -51.080 0.400 73.828
v -50.342 0.400 73.459
v -47.579 0.400 72.015
v -48.861 0.400 69.562
v -47.279 0.400 68.735
v -46.157 0.400 68.149
v -41.543 0.400 65.632
v -37.507 0.400 63.336
v -38.608 0.400 62.467
v -37.628 0.400 61.909
v -36.388 0.400 61.175
v -35.295 0.400 62.038
v -32.454 0.400 60.354
v -27.982 0.400 57.594
v -23.559 0.400 54.754
v -19.204 0.400 51.847
v -18.463 0.400 51.224
v -17.780 0.400 50.533
v -17.163 0.400 49.781
v -16.619 0.400 48.976
v -16.151 0.400 48.124
v -15.763 0.400 47.233
v -12.435 0.400 37.112
v -14.381 0.400 45.355
v -12.517 0.400 43.842
v -4.962 0.400 37.520
v 2.495 0.400 31.083
v 9.854 0.400 24.534
v 17.112 0.400 17.873
v 24.268 0.400 11.103
v 31.321 0.400 4.224
v 32.215 0.400 3.325
v 32.844 0.400 3.673
v 34.059 0.400 4.167
v 35.323 0.400 4.512
v 36.620 0.400 4.703
v 37.931 0.400 4.738
v 39.236 0.400 4.616
v 40.518 0.400 4.339
# 322 vertices

vn 0.000 -1.000 0.000
vn 0.000 1.000 0.000
vn 0.437 0.000 0.899
vn 0.542 0.000 0.841
vn 0.638 0.000 0.770
vn 0.702 0.000 0.712
vn 0.707 0.000 0.708
vn 0.711 0.000 0.703
vn 0.715 0.000 0.699
vn 0.720 0.000 0.694
vn 0.724 0.000 0.690
vn 0.728 0.000 0.685
vn 0.732 0.000 0.681
vn 0.737 0.000 0.676
vn 0.751 0.000 0.661
vn 0.778 0.000 0.628
vn 0.804 0.000 0.595
vn 0.814 0.000 0.581
vn 0.827 0.000 0.562
vn 0.851 0.000 0.525
vn 0.823 0.000 0.568
vn 0.835 0.000 0.550
vn 0.846 0.000 0.534
vn 0.857 0.000 0.516
vn 0.867 0.000 0.499
vn 0.876 0.000 0.483
vn 0.915 0.000 0.403
vn 0.947 0.000 0.320
vn 0.972 0.000 0.234
vn 0.989 0.000 0.146
vn 0.998 0.000 0.057
vn 1.000 0.000 -0.013
vn 0.998 0.000 -0.056
vn 0.998 0.000 -0.057
vn 0.998 0.000 -0.064
vn 0.997 0.000 -0.072
vn 0.997 0.000 -0.080
vn 0.996 0.000 -0.088
vn 0.995 0.000 -0.096
vn 0.995 0.000 -0.103
vn 0.994 0.000 -0.111
vn 0.993 0.000 -0.119
vn 0.992 0.000 -0.127
vn 0.991 0.000 -0.134
vn 0.990 0.000 -0.142
vn 0.975 0.000 -0.223
vn 0.988 0.000 -0.156
vn 0.980 0.000 -0.199
vn 0.971 0.000 -0.241
vn 0.959 0.000 -0.283
vn 0.946 0.000 -0.325
vn 0.931 0.000 -0.366
vn 0.914 0.000 -0.406
vn 0.895 0.000 -0.445
vn 0.875 0.000 -0.484
vn 0.853 0.000 -0.522
vn 0.851 0.000 -0.525
vn 0.792 0.000 -0.610
vn 0.765 0.000 -0.644
vn -0.781 0.000 -0.624
vn -0.798 0.000 -0.603
vn -0.813 0.000 -0.582
vn -0.828 0.000 -0.560
vn -0.843 0.000 -0.538
vn -0.857 0.000 -0.515
vn -0.870 0.000 -0.492
vn -0.883 0.000 -0.469
vn -0.633 0.000 0.774
vn -0.804 0.000 -0.594
vn -0.786 0.000 -0.618
vn -0.768 0.000 -0.641
vn -0.748 0.000 -0.663
vn -0.728 0.000 -0.685
vn -0.708 0.000 -0.706
vn -0.686 0.000 -0.727
vn -0.665 0.000 -0.747
vn 0.900 0.000 -0.435
vn -0.578 0.000 -0.816
vn -0.589 0.000 -0.808
vn -0.602 0.000 -0.798
vn -0.615 0.000 -0.789
vn -0.628 0.000 -0.778
vn -0.640 0.000 -0.768
vn -0.653 0.000 -0.758
vn -0.677 0.000 -0.736
vn -0.689 0.000 -0.725
vn -0.686 0.000 0.727
vn -0.727 0.000 -0.686
vn -0.652 0.000 0.758
vn -0.578 0.000 0.816
vn -0.500 0.000 0.866
vn -0.417 0.000 0.909
vn -0.330 0.000 0.944
vn -0.241 0.000 0.971
vn -0.149 0.000 0.989
vn -0.056 0.000 0.998
vn 0.037 0.000 0.999
vn 0.130 0.000 0.992
vn 0.222 0.000 0.975
vn 0.312 0.000 0.950
vn 0.447 0.000 0.894
vn 0.463 0.000 0.886
vn 0.886 0.000 -0.463
vn 0.479 0.000 0.878
vn 0.494 0.000 0.869
vn 0.620 0.000 -0.785
vn 0.510 0.000 0.860
vn -0.620 0.000 0.785
vn 0.525 0.000 0.851
vn 0.540 0.000 0.841
vn 0.555 0.000 0.832
vn 0.643 0.000 0.766
vn 0.773 0.000 0.634
vn 0.828 0.000 0.560
vn 0.876 0.000 0.481
vn 0.917 0.000 0.399
vn 0.950 0.000 0.312
vn -0.973 0.000 -0.230
vn 0.630 0.000 0.777
vn 0.642 0.000 0.767
vn 0.653 0.000 0.757
vn 0.665 0.000 0.747
vn 0.676 0.000 0.737
vn 0.687 0.000 0.726
vn 0.698 0.000 0.716
vn 0.709 0.000 0.705
vn -0.485 0.000 0.875
vn -0.377 0.000 0.926
vn -0.263 0.000 0.965
vn -0.146 0.000 0.989
vn -0.027 0.000 1.000
vn 0.093 0.000 0.996
vn 0.211 0.000 0.977
vn 0.327 0.000 0.945
# 134 vertex normals

g CityEngineMaterial
s off
usemtl CityEngineMaterial
f 3//1 1//1 2//1 161//1 160//1 159//1 158//1 157//1 156//1 155//1 154//1 153//1 152//1 151//1 150//1 149//1 148//1 147//1 146//1 145//1 144//1 143//1 142//1 141//1 140//1 139//1 138//1 137//1 136//1 135//1 134//1 133//1 132//1 131//1 130//1 129//1 128//1 127//1 126//1 125//1 124//1 123//1 122//1 121//1 120//1 119//1 118//1 117//1 116//1 115//1 114//1 113//1 112//1 111//1 110//1 109//1 108//1 107//1 106//1 105//1 104//1 103//1 102//1 101//1 100//1 99//1 98//1 97//1 96//1 95//1 94//1 93//1 92//1 91//1 90//1 89//1 88//1 87//1 86//1 85//1 84//1 83//1 82//1 81//1 80//1 79//1 78//1 77//1 76//1 75//1 74//1 73//1 72//1 71//1 70//1 69//1 68//1 67//1 66//1 65//1 64//1 63//1 62//1 61//1 60//1 59//1 58//1 57//1 56//1 55//1 54//1 53//1 52//1 51//1 50//1 49//1 48//1 47//1 46//1 45//1 44//1 43//1 42//1 41//1 40//1 39//1 38//1 37//1 36//1 35//1 34//1 33//1 32//1 31//1 30//1 29//1 28//1 27//1 26//1 25//1 24//1 23//1 22//1 21//1 20//1 19//1 18//1 17//1 16//1 15//1 14//1 13//1 12//1 11//1 10//1 9//1 8//1 7//1 6//1 5//1 4//1
f 162//2 163//2 164//2 165//2 166//2 167//2 168//2 169//2 170//2 171//2 172//2 173//2 174//2 175//2 176//2 177//2 178//2 179//2 180//2 181//2 182//2 183//2 184//2 185//2 186//2 187//2 188//2 189//2 190//2 191//2 192//2 193//2 194//2 195//2 196//2 197//2 198//2 199//2 200//2 201//2 202//2 203//2 204//2 205//2 206//2 207//2 208//2 209//2 210//2 211//2 212//2 213//2 214//2 215//2 216//2 217//2 218//2 219//2 220//2 221//2 222//2 223//2 224//2 225//2 226//2 227//2 228//2 229//2 230//2 231//2 232//2 233//2 234//2 235//2 236//2 237//2 238//2 239//2 240//2 241//2 242//2 243//2 244//2 245//2 246//2 247//2 248//2 249//2 250//2 251//2 252//2 253//2 254//2 255//2 256//2 257//2 258//2 259//2 260//2 261//2 262//2 263//2 264//2 265//2 266//2 267//2 268//2 269//2 270//2 271//2 272//2 273//2 274//2 275//2 276//2 277//2 278//2 279//2 280//2 281//2 282//2 283//2 284//2 285//2 286//2 287//2 288//2 289//2 290//2 291//2 292//2 293//2 294//2 295//2 296//2 297//2 298//2 299//2 300//2 301//2 302//2 303//2 304//2 305//2 306//2 307//2 308//2 309//2 310//2 311//2 312//2 313//2 314//2 315//2 316//2 317//2 318//2 319//2 320//2 321//2 322//2
f 1//3 3//3 163//3 162//3
f 3//4 4//4 164//4 163//4
f 4//5 5//5 165//5 164//5
f 5//6 6//6 166//6 165//6
f 6//7 7//7 167//7 166//7
f 7//8 8//8 168//8 167//8
f 8//8 9//8 169//8 168//8
f 9//8 10//8 170//8 169//8
f 10//9 11//9 171//9 170//9
f 11//10 12//10 172//10 171//10
f 12//11 13//11 173//11 172//11
f 13//12 14//12 174//12 173//12
f 14//13 15//13 175//13 174//13
f 15//14 16//14 176//14 175//14
f 16//15 17//15 177//15 176//15
f 17//16 18//16 178//16 177//16
f 18//17 19//17 179//17 178//17
f 19//18 20//18 180//18 179//18
f 20//19 21//19 181//19 180//19
f 21//20 22//20 182//20 181//20
f 22//21 23//21 183//21 182//21
f 23//22 24//22 184//22 183//22
f 24//23 25//23 185//23 184//23
f 25//24 26//24 186//24 185//24
f 26//25 27//25 187//25 186//25
f 27//26 28//26 188//26 187//26
f 28//26 29//26 189//26 188//26
f 29//27 30//27 190//27 189//27
f 30//27 31//27 191//27 190//27
f 31//27 32//27 192//27 191//27
f 32//27 33//27 193//27 192//27
f 33//28 34//28 194//28 193//28
f 34//29 35//29 195//29 194//29
f 35//30 36//30 196//30 195//30
f 36//31 37//31 197//31 196//31
f 37//32 38//32 198//32 197//32
f 38//32 39//32 199//32 198//32
f 39//32 40//32 200//32 199//32
f 40//32 41//32 201//32 200//32
f 41//33 42//33 202//33 201//33
f 42//34 43//34 203//34 202//34
f 43//35 44//35 204//35 203//35
f 44//36 45//36 205//36 204//36
f 45//36 46//36 206//36 205//36
f 46//37 47//37 207//37 206//37
f 47//38 48//38 208//38 207//38
f 48//38 49//38 209//38 208//38
f 49//39 50//39 210//39 209//39
f 50//40 51//40 211//40 210//40
f 51//40 52//40 212//40 211//40
f 52//41 53//41 213//41 212//41
f 53//42 54//42 214//42 213//42
f 54//42 55//42 215//42 214//42
f 55//43 56//43 216//43 215//43
f 56//44 57//44 217//44 216//44
f 57//44 58//44 218//44 217//44
f 58//45 59//45 219//45 218//45
f 59//46 60//46 220//46 219//46
f 60//47 61//47 221//47 220//47
f 61//47 62//47 222//47 221//47
f 62//47 63//47 223//47 222//47
f 63//48 64//48 224//48 223//48
f 64//49 65//49 225//49 224//49
f 65//49 66//49 226//49 225//49
f 66//50 67//50 227//50 226//50
f 67//51 68//51 228//51 227//51
f 68//52 69//52 229//52 228//52
f 69//53 70//53 230//53 229//53
f 70//54 71//54 231//54 230//54
f 71//55 72//55 232//55 231//55
f 72//56 73//56 233//56 232//56
f 73//57 74//57 234//57 233//57
f 74//58 75//58 235//58 234//58
f 75//59 76//59 236//59 235//59
f 76//60 77//60 237//60 236//60
f 77//61 78//61 238//61 237//61
f 78//62 79//62 239//62 238//62
f 79//63 80//63 240//63 239//63
f 80//64 81//64 241//64 240//64
f 81//65 82//65 242//65 241//65
f 82//65 83//65 243//65 242//65
f 83//66 84//66 244//66 243//66
f 84//67 85//67 245//67 244//67
f 85//68 86//68 246//68 245//68
f 86//69 87//69 247//69 246//69
f 87//70 88//70 248//70 247//70
f 88//71 89//71 249//71 248//71
f 89//72 90//72 250//72 249//72
f 90//73 91//73 251//73 250//73
f 91//74 92//74 252//74 251//74
f 92//75 93//75 253//75 252//75
f 93//76 94//76 254//76 253//76
f 94//77 95//77 255//77 254//77
f 95//78 96//78 256//78 255//78
f 96//79 97//79 257//79 256//79
f 97//80 98//80 258//80 257//80
f 98//81 99//81 259//81 258//81
f 99//82 100//82 260//82 259//82
f 100//83 101//83 261//83 260//83
f 101//84 102//84 262//84 261//84
f 102//76 103//76 263//76 262//76
f 103//76 104//76 264//76 263//76
f 104//76 105//76 265//76 264//76
f 105//85 106//85 266//85 265//85
f 106//86 107//86 267//86 266//86
f 107//87 108//87 268//87 267//87
f 108//87 109//87 269//87 268//87
f 109//87 110//87 270//87 269//87
f 110//88 111//88 271//88 270//88
f 111//87 112//87 272//87 271//87
f 112//89 113//89 273//89 272//89
f 113//90 114//90 274//90 273//90
f 114//91 115//91 275//91 274//91
f 115//92 116//92 276//92 275//92
f 116//93 117//93 277//93 276//93
f 117//94 118//94 278//94 277//94
f 118//95 119//95 279//95 278//95
f 119//96 120//96 280//96 279//96
f 120//97 121//97 281//97 280//97
f 121//98 122//98 282//98 281//98
f 122//99 123//99 283//99 282//99
f 123//100 124//100 284//100 283//100
f 124//101 125//101 285//101 284//101
f 125//102 126//102 286//102 285//102
f 126//103 127//103 287//103 286//103
f 127//102 128//102 288//102 287//102
f 128//102 129//102 289//102 288//102
f 129//104 130//104 290//104 289//104
f 130//105 131//105 291//105 290//105
f 131//106 132//106 292//106 291//106
f 132//105 133//105 293//105 292//105
f 133//107 134//107 294//107 293//107
f 134//108 135//108 295//108 294//108
f 135//107 136//107 296//107 295//107
f 136//109 137//109 297//109 296//109
f 137//110 138//110 298//110 297//110
f 138//111 139//111 299//111 298//111
f 139//112 140//112 300//112 299//112
f 140//8 141//8 301//8 300//8
f 141//113 142//113 302//113 301//113
f 142//114 143//114 303//114 302//114
f 143//115 144//115 304//115 303//115
f 144//116 145//116 305//116 304//116
f 145//117 146//117 306//117 305//117
f 146//118 147//118 307//118 306//118
f 147//119 148//119 308//119 307//119
f 148//120 149//120 309//120 308//120
f 149//121 150//121 310//121 309//121
f 150//122 151//122 311//122 310//122
f 151//123 152//123 312//123 311//123
f 152//124 153//124 313//124 312//124
f 153//125 154//125 314//125 313//125
f 154//126 155//126 315//126 314//126
f 155//127 156//127 316//127 315//127
f 156//128 157//128 317//128 316//128
f 157//129 158//129 318//129 317//129
f 158//130 159//130 319//130 318//130
f 159//131 160//131 320//131 319//131
f 160//132 161//132 321//132 320//132
f 161//133 2//133 322//133 321//133
f 2//134 1//134 162//134 322//134
# 163 faces

