# created with CityEngine 2019.0.5403 0409R (based on Esri Procedural Runtime 2.0.5403, build date: Tue 04/09/2019 10:26 AM)
# creation date: Tue Apr  5 19:05:28 2022

mtllib 20220405_SGP_GF_Border.mtl

# mesh 'mesh_CityEngineMaterial_18' from geometry 'mesh_CityEngineMaterial_18'
v -5.943 0.000 15.971
v 16.854 0.000 1.523
v 16.298 0.000 1.403
v -5.814 0.000 15.415
v 5.420 0.000 -15.971
v 5.301 0.000 -15.422
v -16.854 0.000 -1.855
v -16.308 0.000 -1.728
# 8 vertices

vn 0.000 1.000 0.000
# 1 vertex normal

g CityEngineMaterial
s off
usemtl CityEngineMaterial
f 1//1 2//1 3//1 4//1
f 2//1 5//1 6//1 3//1
f 5//1 7//1 8//1 6//1
f 7//1 1//1 4//1 8//1
# 4 faces

