# created with CityEngine 2019.0.5403 0409R (based on Esri Procedural Runtime 2.0.5403, build date: Tue 04/09/2019 10:26 AM)
# creation date: Tue Apr  5 19:07:52 2022

mtllib 20220405_SGP_UF_Border.mtl

# mesh 'mesh_CityEngineMaterial_2' from geometry 'mesh_CityEngineMaterial_2'
v 0.142 0.000 23.676
v 22.036 0.000 8.666
v 21.480 0.000 8.563
v 0.246 0.000 23.120
v -0.136 0.000 -23.676
v -0.240 0.000 -23.120
v -22.036 0.000 -8.661
v -21.480 0.000 -8.558
# 8 vertices

vn 0.000 1.000 0.000
# 1 vertex normal

g CityEngineMaterial
s off
usemtl CityEngineMaterial
f 1//1 2//1 3//1 4//1
f 2//1 5//1 6//1 3//1
f 5//1 7//1 8//1 6//1
f 7//1 1//1 4//1 8//1
# 4 faces

