# created with CityEngine 2019.0.5403 0409R (based on Esri Procedural Runtime 2.0.5403, build date: Tue 04/09/2019 10:26 AM)
# creation date: Tue Apr  5 19:07:53 2022

mtllib 20220405_SGP_UF_Border.mtl

# mesh 'mesh_CityEngineMaterial_6' from geometry 'mesh_CityEngineMaterial_6'
v 22.997 0.000 8.426
v 23.004 0.000 8.424
v 22.995 0.000 8.420
v 22.894 0.000 8.213
v 22.678 0.000 8.325
v 22.533 0.000 7.513
v 22.177 0.000 7.697
v 22.469 0.000 8.262
v 22.061 0.000 6.601
v 21.706 0.000 6.784
v 20.647 0.000 3.863
v 20.292 0.000 4.047
v 20.175 0.000 2.950
v 19.820 0.000 3.134
v 19.233 0.000 1.125
v 18.877 0.000 1.309
v 18.761 0.000 0.213
v 18.412 0.000 0.408
v 18.188 0.000 -0.741
v 17.845 0.000 -0.535
v 15.321 0.000 -5.513
v 14.978 0.000 -5.307
v 14.748 0.000 -6.467
v 14.405 0.000 -6.261
v 14.174 0.000 -7.421
v 13.838 0.000 -7.204
v 10.861 0.000 -12.216
v 10.531 0.000 -11.988
v 9.095 0.000 -14.770
v 8.773 0.000 -14.533
v 4.257 0.000 -20.900
v 3.943 0.000 -20.652
v 3.568 0.000 -21.772
v 3.488 0.000 -21.229
v 1.398 0.000 -20.261
v 1.627 0.000 -19.932
v -23.004 0.000 -3.261
v -22.371 0.000 -3.214
v -17.159 0.000 2.263
v -16.876 0.000 1.980
v -13.311 0.000 6.357
v -13.019 0.000 6.083
v -11.367 0.000 8.425
v -11.068 0.000 8.160
v -10.695 0.000 9.232
v -10.388 0.000 8.976
v -6.662 0.000 14.073
v -6.355 0.000 13.817
v -5.990 0.000 14.880
v -5.675 0.000 14.634
v -4.663 0.000 16.686
v -4.341 0.000 16.449
v -1.104 0.000 21.528
v -0.828 0.000 21.325
v -0.812 0.000 21.251
v -0.925 0.000 21.772
v 16.205 0.000 12.215
v 16.010 0.000 11.866
v 16.320 0.000 12.151
v 16.126 0.000 11.801
# 60 vertices

vn 0.000 1.000 0.000
# 1 vertex normal

g CityEngineMaterial
s off
usemtl CityEngineMaterial
f 1//1 2//1 3//1
f 2//1 4//1 5//1 3//1
f 4//1 6//1 7//1 8//1 5//1
f 6//1 9//1 10//1 7//1
f 9//1 11//1 12//1 10//1
f 11//1 13//1 14//1 12//1
f 13//1 15//1 16//1 14//1
f 15//1 17//1 18//1 16//1
f 17//1 19//1 20//1 18//1
f 19//1 21//1 22//1 20//1
f 21//1 23//1 24//1 22//1
f 23//1 25//1 26//1 24//1
f 25//1 27//1 28//1 26//1
f 27//1 29//1 30//1 28//1
f 29//1 31//1 32//1 30//1
f 31//1 33//1 34//1 32//1
f 33//1 35//1 36//1 34//1
f 35//1 37//1 38//1 36//1
f 37//1 39//1 40//1 38//1
f 39//1 41//1 42//1 40//1
f 41//1 43//1 44//1 42//1
f 43//1 45//1 46//1 44//1
f 45//1 47//1 48//1 46//1
f 47//1 49//1 50//1 48//1
f 49//1 51//1 52//1 50//1
f 51//1 53//1 54//1 55//1 52//1
f 53//1 56//1 54//1
f 56//1 57//1 58//1 55//1 54//1
f 57//1 59//1 60//1 58//1
f 59//1 1//1 3//1 5//1 8//1 60//1
# 30 faces

