# created with CityEngine 2019.0.5403 0409R (based on Esri Procedural Runtime 2.0.5403, build date: Tue 04/09/2019 10:26 AM)
# creation date: Tue Apr  5 19:07:53 2022

mtllib 20220405_SGP_UF_Border.mtl

# mesh 'mesh_CityEngineMaterial_19' from geometry 'mesh_CityEngineMaterial_19'
v 4.916 0.000 -25.345
v 4.780 0.000 -25.551
v 4.446 0.000 -25.330
v 4.583 0.000 -25.124
v 3.113 0.000 -28.073
v 2.780 0.000 -27.852
v -2.206 0.000 -36.121
v -2.319 0.000 -35.567
v -20.341 0.000 -24.136
v -20.120 0.000 -23.802
v -32.366 0.000 -16.188
v -31.811 0.000 -16.075
v 2.206 0.000 36.121
v 2.319 0.000 35.567
v 25.749 0.000 20.561
v 25.528 0.000 20.227
v 32.366 0.000 16.188
v 31.811 0.000 16.075
v 32.043 0.000 15.700
v 31.709 0.000 15.921
# 20 vertices

vn 0.000 1.000 0.000
# 1 vertex normal

g CityEngineMaterial
s off
usemtl CityEngineMaterial
f 1//1 2//1 3//1 4//1
f 2//1 5//1 6//1 3//1
f 5//1 7//1 8//1 6//1
f 7//1 9//1 10//1 8//1
f 9//1 11//1 12//1 10//1
f 11//1 13//1 14//1 12//1
f 13//1 15//1 16//1 14//1
f 15//1 17//1 18//1 16//1
f 17//1 19//1 20//1 18//1
f 19//1 1//1 4//1 20//1
# 10 faces

